<svg xmlns="http://www.w3.org/2000/svg" width="332" height="63" viewBox="0 0 332 63">
  <g fill="none">
    <path fill="#9BC862" d="M91.4,42.2 C93.6,41 95.9,39.9 98,38.6 C98.4,38.4 98.6,37.5 98.6,36.9 C98.6,27.4 98.6,18 98.6,8.5 C98.6,4.5 101.1,1.4 105,0.6 C107.4,0.1 109.4,0.8 111.2,2.4 C112.1,3.2 113,4.1 113.8,5 C114.3,5.6 114.8,5.6 115.5,5.3 C117.7,4.2 119.9,3 122.2,2.1 C124.9,1 127.8,0.4 130.8,0.9 C132.5,1.2 134,1.9 135.2,3.2 C135.9,4 136.8,4.7 137.5,5.5 C138,6 138.4,6 138.9,5.7 C140.5,4.7 142.1,3.8 143.8,2.8 C147.1,0.9 150.7,0.5 154.5,0.6 C156.7,0.7 158.6,1.5 160,3.3 C160.2,3.6 160.5,3.8 160.7,4 C161.4,6.9 161.6,9.8 161.5,12.9 C161.3,21.5 161.4,30.1 161.4,38.7 C161.4,39.3 161.4,40 161.6,40.6 C161.8,41.2 162.3,41.6 162.7,42.1 C162.9,41.6 163.2,41 163.2,40.5 C163.2,32 163.2,23.5 163.2,15.1 C163.2,14.5 163.3,13.8 163.4,13.2 C163.4,22.8 163.4,32.4 163.4,42.2 C165,42 166,41.3 167,40.4 C167.2,40.2 167.1,39.6 167,39.2 C165.7,35.4 165.2,31.4 165.4,27.4 C165.7,21.3 167.8,15.8 171.8,11.2 C176.8,5.3 183.3,1.9 191,1.1 C196.3,0.5 200.9,2.3 205.2,5.3 C205.6,5.6 206,5.8 206.4,6.1 C206.5,5.8 206.7,5.7 206.7,5.5 C208,0.4 215.5,-0.7 219.2,2.9 C219.7,3.4 220.2,4 220.8,4.5 C221,5.4 221.2,6.3 221.2,7.3 C221.3,12.4 221.4,17.5 221.4,22.6 C221.4,28.3 221.4,34 221.4,39.7 C221.4,41.4 221.9,42 223.3,42.2 C224.3,41.9 225.4,41.9 226.2,41.4 C227.9,40.4 229.6,39.4 231.2,38.2 C234.4,35.8 238.1,35.9 240.5,39.1 C240.7,39.4 241,39.6 241.3,39.8 C241.4,40.2 241.4,40.6 241.5,40.9 C242.5,44.2 241.1,47.7 238.3,49.4 C235.5,51 232.8,52.7 229.9,54.3 C226.8,56.1 223.9,58.2 220.4,59.1 C217.3,59.9 214.2,60.2 211.1,58.9 C210.9,58.8 210.6,58.9 210.3,58.9 C209.3,58.1 208.4,57.3 207.4,56.5 C207.2,56 206.9,55.5 206.7,55 C206.3,54.2 205.9,54.1 205.1,54.7 C204.5,55.3 203.7,55.8 203,56.2 C196.3,60 189.3,60.2 182.2,57.5 C180.3,56.8 178.5,55.6 176.7,54.7 C176.3,54.4 176,54.1 175.6,53.7 C173.9,51.5 173.9,51.5 171.5,52.8 C171.1,53 170.7,53.2 170.3,53.4 C167.5,55 164.7,56.6 161.8,58.1 C159.2,59.4 156.3,60.1 153.3,59.5 C152.3,59.3 151.3,59 150.3,58.8 C149.7,58.2 149,57.6 148.4,57 C147,55.5 146.1,53.7 146.1,51.5 C146.2,41.8 146.1,32.1 146.1,22.4 C146.1,21.6 146,20.9 145.9,20.1 C145.3,18.1 144.1,17.6 142.3,18.7 C141,19.5 139.7,20.2 138.5,21.1 C138,21.4 137.6,22.2 137.6,22.7 C137.4,25.4 137.3,28.1 137.3,30.8 C137.3,36.7 137.4,42.6 137.5,48.5 C137.5,49.6 137.5,50.7 137.5,51.9 C137.4,54.6 136,56.5 133.8,57.8 C131.4,59.3 128.8,59.2 126.2,58.4 C123.5,56.4 122.6,53.7 122.6,50.4 C122.6,40.8 122.5,31.2 122.4,21.7 C122.4,21 122.5,20.2 121.4,20.3 C122.4,19.7 122.1,19 121.4,18.7 C120.8,18.4 119.9,18.3 119.3,18.6 C117.8,19.3 116.5,20.2 115,21 C113.8,21.6 113.4,22.4 113.5,23.8 C113.6,32.8 113.6,41.8 113.5,50.8 C113.5,52.6 113.1,54.6 112.2,56.1 C111.1,58 109,59 106.8,59.3 C105.5,59.5 104.1,59.3 102.8,59.3 C101.7,58 100.6,56.7 99.4,55.5 C98.9,54.7 98.4,54 98,53.3 C95,55 92.2,56.7 89.4,58.3 C86.7,59.8 83.8,60.4 80.8,59.2 C79.3,58.3 78.4,57.3 77.5,56.4 C77.3,56.2 76.9,56 76.7,55.8 C76.6,53.6 75.9,53.3 74,54.2 C70,56.1 65.9,57.9 61.8,59.6 C59.8,60.5 57.7,60.2 55.7,59.4 C55.1,59.2 54.6,58.9 54.1,58.7 C52.9,57.4 51.7,56.1 50.5,54.8 C50.2,54 49.9,53.2 49.5,52.3 C49,52.6 48.6,52.8 48.2,53.1 C45,55.4 41.5,57.2 37.7,58.6 C32.2,60.5 26.7,60.9 21.1,59.1 C17.9,58.1 15.1,56.4 12.3,54.6 C11.9,54.3 11.4,54.2 10.9,54 C5.6,49.7 2.3,44.2 1.2,37.5 C-0.3,29.3 1.1,21.4 5.5,14.2 C11.6,4 24.9,-1.4 36.2,1.7 C39.1,2.5 41.5,3.8 43.4,6.2 C44.1,7.8 44.7,9.4 44.6,11.3 C44.3,15.6 40.6,20.3 35.5,19.7 C34.1,19.5 32.7,19.3 31.4,19 C27.4,18.1 23.9,19.2 21.1,22 C16.5,26.5 17.1,34.1 21.1,38.8 C21.3,39 21.6,39 21.8,39.1 C23.3,41.3 25.7,41.8 28.1,42 C34.7,42.6 40.2,39.9 45.7,36.6 C48.2,35.1 49.1,33.5 49,30.5 C48.8,23.1 48.9,15.6 48.9,8.2 C48.9,4.8 50.3,2.7 53.3,1.5 C56.5,0.2 59.9,0.8 62,3.1 C62.4,3.5 62.7,3.9 63.1,4.2 C63.3,7.8 63.5,11.4 63.5,15 C63.6,23 63.5,30.9 63.5,38.9 C63.5,39.8 63.7,40.7 63.9,41.5 C64,41.8 64.6,42 64.9,42.3 C65,42 65.2,41.6 65.3,41.3 C65.4,40.9 65.3,40.4 65.3,40 C65.3,29.7 65.3,19.4 65.3,9.1 C65.4,9.7 65.5,10.3 65.5,10.9 C65.5,20.9 65.5,30.9 65.5,40.9 C65.5,42.7 65.8,42.9 67.3,42 C69.5,40.8 71.6,39.4 73.8,38.2 C74.6,37.8 74.6,37.1 74.6,36.4 C74.6,27.1 74.6,17.8 74.6,8.5 C74.6,5 76.1,2.7 79.1,1.5 C82.3,0.2 85.8,1 88,3.4 C88.3,3.8 88.7,4.1 89,4.4 C89.1,5.5 89.2,6.5 89.2,7.6 C89.2,18.2 89.2,28.8 89.2,39.5 C89.2,40.2 89.3,41 89.5,41.7 C90,42.2 90.6,42.7 91.4,42.2 Z M186.4,38.1 C187.2,38.8 187.9,39.7 188.8,40.2 C193.9,43.1 199.9,41.8 203.7,37.3 C207.6,32.5 206.7,24.7 202.5,22 C202.1,21.5 201.7,20.9 201.2,20.5 C198.4,18.5 195.2,17.9 191.8,18.6 C183.7,20.4 180,30.5 185.1,37 C185.5,37.6 186,37.8 186.4,38.1 Z"/>
    <path fill="#006FAB" d="M292.4,62.1 C279.9,62.1 267.4,62.1 254.9,62.1 C253.2,62.1 253.2,62.1 253.2,60.4 C253.2,41.2 253.2,22 253.2,2.8 C253.2,1.2 253.2,1.2 254.9,1.2 C280,1.2 305,1.2 330.1,1.2 C331.7,1.2 331.7,1.2 331.7,2.8 C331.7,22.1 331.7,41.3 331.7,60.6 C331.7,61.8 331.4,62.2 330.1,62.2 C317.5,62.1 304.9,62.1 292.4,62.1 Z M308.1,12.9 C308,14.1 307.9,14.9 307.9,15.7 C307.9,16.5 307.6,17 306.8,17.4 C305.9,17.8 305,18.3 303.8,18.9 C304.9,19.4 305.8,19.8 306.8,20.2 C307.7,20.5 308,21 307.9,21.9 C307.8,22.8 307.9,23.7 307.9,24.5 C309.1,23.8 309.9,22.9 310.8,22.2 C311.2,21.9 311.8,21.8 312.3,21.8 C313.1,21.9 313.9,22.2 315,22.4 C314.2,20.9 313.9,19.4 312.4,18.7 C311.7,18.4 311.2,17.4 311,16.6 C310.5,15 309.3,14.2 308.1,12.9 Z M309.5,34.8 C309.6,34.9 309.6,35 309.7,35.1 C310.8,35 311.8,34.9 312.9,34.7 C313.6,34.6 314.1,34.8 314.5,35.3 C315,36 315.5,36.6 316,37.2 C316.2,37.2 316.3,37.1 316.5,37.1 C316.5,35.9 316.8,34.6 316.4,33.5 C316,32.2 315.9,31.1 316.4,29.9 C317,28.5 316.4,27.2 316.2,25.7 C315.5,26.5 314.9,27 314.5,27.7 C313.9,28.6 313.2,28.7 312.2,28.5 C311.3,28.3 310.4,28.2 309.3,28 C309.9,29.1 310.4,29.9 310.9,30.6 C311.6,31.5 311.5,32.2 310.8,33 C310.3,33.5 309.9,34.2 309.5,34.8 Z M275.6,34.9 C274.9,33.9 274.3,33.1 273.8,32.4 C273.3,31.8 273.3,31.3 273.7,30.7 C274.3,29.8 274.8,28.9 275.5,27.7 C274.2,27.9 273.2,28.1 272.3,28.3 C271.5,28.5 270.9,28.3 270.4,27.6 C269.9,26.9 269.3,26.3 268.6,25.5 C268.4,27.3 267.9,28.7 268.6,30.3 C268.9,31 268.9,32.2 268.5,32.9 C267.8,34.4 268.6,35.5 268.8,36.9 C269.4,36.4 269.8,35.9 270.2,35.4 C270.7,34.6 271.3,34.3 272.2,34.5 C273.1,34.7 274.2,34.8 275.6,34.9 Z M280.9,18.1 C279.8,17.6 278.9,17.1 278,16.7 C277.2,16.4 276.8,15.8 276.8,15 C276.8,14.2 276.6,13.4 276.5,12.4 C275.2,13.7 274,14.6 273.7,16.3 C273.5,17.1 272.9,17.9 272.2,18.3 C270.8,19.1 270.6,20.4 269.8,21.9 C270.7,21.7 271.3,21.6 271.9,21.3 C272.9,20.9 273.7,21.1 274.4,21.9 C275,22.6 275.8,23.2 276.5,23.9 C276.8,23.1 276.8,22.6 276.8,22 C276.8,19.7 276.5,20.1 278.7,19.2 C279.4,18.8 280,18.5 280.9,18.1 Z M279.2,52 C280.5,52.8 281.6,53.5 283,53.6 C284,53.6 285.2,53.7 285.8,54.3 C287.1,55.5 288.5,55.4 290.3,55.7 C289.8,55 289.5,54.4 289.1,53.9 C288.3,53 288.3,52.2 288.9,51.2 C289.4,50.4 289.7,49.6 290.2,48.5 C289.1,48.8 288.4,48.9 287.7,49.2 C286.6,49.7 285.9,49.4 285.3,48.5 C284.8,47.8 284.2,47.2 283.4,46.4 C283.3,47 283.1,47.3 283.1,47.7 C283.2,49.9 282.2,51.3 280,51.8 C279.9,51.6 279.7,51.7 279.2,52 Z M301.1,46.8 C301,46.7 300.8,46.7 300.7,46.6 C300.1,47.3 299.5,47.9 299,48.6 C298.3,49.6 297.5,49.7 296.5,49.1 C295.8,48.8 295.1,48.6 294,48.2 C294.6,49.6 295.1,50.6 295.4,51.7 C295.5,52.2 295.4,52.8 295.2,53.2 C294.9,53.9 294.3,54.5 293.9,55.1 C294,55.2 294,55.4 294.1,55.5 C295.2,55.2 296.5,55.2 297.4,54.6 C298.5,53.9 299.6,53.4 300.9,53.6 C302.4,53.8 303.5,52.9 305.1,52.3 C304.1,51.8 303.5,51.4 302.8,51.2 C301.7,50.8 301.3,50.1 301.3,49 C301.3,48.4 301.2,47.6 301.1,46.8 Z M304.6,10.9 C304.6,10.7 304.6,10.6 304.7,10.4 C303.6,10 302.5,9.4 301.3,9.3 C300,9.2 298.9,9 297.9,8.1 C296.8,7.1 295.4,7.2 293.8,7 C294.3,7.8 294.5,8.3 294.9,8.8 C295.8,9.8 295.7,10.8 295,11.9 C294.6,12.5 294.3,13.2 293.8,14.1 C294.8,13.9 295.5,13.8 296.1,13.6 C298.1,13.1 298.1,13.1 299.2,14.8 C299.6,15.3 299.9,15.8 300.5,16.6 C300.7,15.5 301,14.7 301,13.9 C301.1,12.5 301.7,11.7 303.1,11.4 C303.7,11.3 304.1,11.1 304.6,10.9 Z M308.2,49.7 C308.3,49.7 308.4,49.8 308.5,49.8 C309.4,48.8 310.6,48.1 310.9,46.5 C311,45.7 311.7,44.9 312.4,44.5 C313.9,43.7 314.3,42.2 315.1,40.6 C314,40.8 313.2,41 312.4,41.2 C311.6,41.5 311,41.3 310.4,40.6 C309.8,39.9 309,39.2 308.1,38.3 C308,39.4 307.9,40.2 307.9,41 C307.9,42.4 307.4,43.1 306,43.4 C305.4,43.5 304.7,43.8 303.8,44.1 C304.7,44.6 305.3,45.1 306,45.3 C307.5,45.9 308.3,46.8 308,48.5 C308.1,48.9 308.2,49.3 308.2,49.7 Z M279.4,10.4 C279.4,10.5 279.4,10.6 279.4,10.7 C280.1,11 280.9,11.3 281.6,11.6 C282.4,11.9 282.8,12.3 282.9,13.2 C283,14.2 283.2,15.1 283.4,16.3 C284.2,15.3 284.9,14.7 285.4,13.9 C286,13.1 286.6,13 287.4,13.3 C288.2,13.6 289,13.8 290.2,14.1 C289.6,12.9 289.2,12 288.7,11.2 C288.1,10.3 288.2,9.5 288.9,8.7 C289.3,8.2 289.5,7.7 290,6.8 C288.4,7.2 287,6.9 285.8,8.1 C285.2,8.7 284.1,9 283.3,8.9 C281.8,8.9 280.7,9.8 279.4,10.4 Z M276.3,38.4 C275.7,39 275.1,39.3 274.8,39.8 C273.9,41.1 272.7,41.5 271.2,40.9 C270.7,40.7 270.2,40.7 269.5,40.5 C270.3,42 270.7,43.4 272.1,44.3 C272.8,44.7 273.6,45.6 273.7,46.4 C274,48 275.2,48.7 276.4,49.9 C276.5,49 276.6,48.4 276.6,47.7 C276.5,46.6 277.1,46 278.1,45.5 C278.9,45.1 279.7,44.6 280.8,44 C279.6,43.6 278.8,43.3 277.9,43 C277.1,42.8 276.8,42.4 276.8,41.6 C276.6,40.7 276.4,39.7 276.3,38.4 Z M300.3,5 C299.2,5 298.4,5.8 298.4,6.9 C298.4,7.9 299.3,8.8 300.3,8.8 C301.3,8.8 302.2,7.9 302.2,6.9 C302.2,5.7 301.4,4.9 300.3,5 Z M282.2,56 C282.2,57 283.1,57.9 284.1,57.9 C285.2,57.9 286,57.1 286,56 C286,54.9 285.2,54.1 284.1,54.1 C283.1,54.1 282.2,55 282.2,56 Z M284.1,8.4 C285.2,8.4 286,7.6 286,6.5 C286,5.4 285.2,4.6 284.1,4.6 C283.1,4.6 282.2,5.5 282.2,6.5 C282.2,7.6 283.1,8.4 284.1,8.4 Z M271.2,48.7 C272.3,48.7 273.1,47.9 273.1,46.8 C273.1,45.7 272.3,44.9 271.2,44.9 C270.2,44.9 269.3,45.8 269.3,46.8 C269.3,47.8 270.1,48.7 271.2,48.7 Z M320.3,31.8 C320.3,30.7 319.5,29.9 318.4,29.9 C317.4,29.9 316.5,30.8 316.5,31.8 C316.5,32.8 317.4,33.7 318.4,33.7 C319.5,33.7 320.3,32.8 320.3,31.8 Z M266.3,29.7 C265.2,29.7 264.4,30.5 264.4,31.6 C264.4,32.6 265.3,33.5 266.3,33.5 C267.4,33.5 268.2,32.7 268.2,31.6 C268.2,30.5 267.5,29.7 266.3,29.7 Z M273.2,16.1 C273.3,15.1 272.5,14.1 271.5,14.1 C270.4,14 269.6,14.7 269.5,15.7 C269.4,16.8 270.1,17.8 271.2,17.9 C272.2,17.9 273.1,17.2 273.2,16.1 Z M313.5,14.7 C312.5,14.7 311.6,15.6 311.5,16.6 C311.5,17.6 312.3,18.5 313.3,18.6 C314.4,18.6 315.2,17.9 315.2,16.8 C315.3,15.6 314.5,14.7 313.5,14.7 Z M315.3,46.8 C315.3,45.7 314.5,44.9 313.4,44.9 C312.4,44.9 311.5,45.8 311.5,46.8 C311.5,47.8 312.3,48.7 313.4,48.7 C314.4,48.7 315.3,47.9 315.3,46.8 Z M301.8,56.2 C301.8,55.2 300.9,54.3 299.9,54.2 C298.9,54.2 298,55 298,56.1 C298,57.2 298.8,58 299.8,58 C300.9,58.1 301.7,57.3 301.8,56.2 Z M102.6,59.5 C103.9,59.5 105.3,59.6 106.6,59.5 C108.8,59.2 110.9,58.2 112,56.3 C112.9,54.8 113.3,52.8 113.3,51 C113.4,42 113.4,33 113.3,24 C113.3,22.7 113.6,21.8 114.8,21.2 C116.3,20.5 117.6,19.5 119.1,18.8 C119.7,18.5 120.6,18.7 121.2,18.9 C121.9,19.3 122.2,20 121.2,20.5 C119.6,21.5 117.9,22.4 116.3,23.5 C115.9,23.8 115.4,24.5 115.4,25 C115.4,33.2 115.4,41.5 115.4,49.7 C115.4,51.7 115.1,53.8 114.9,55.8 C114.7,57.5 113.8,58.8 112.3,59.8 C110.1,61.2 107.8,62.1 105.3,61.3 C104.4,61 103.6,60.1 102.6,59.5 Z M126.1,58.8 C128.7,59.6 131.3,59.7 133.7,58.2 C135.9,56.8 137.3,54.9 137.4,52.3 C137.5,51.2 137.4,50.1 137.4,48.9 C137.3,43 137.2,37.1 137.2,31.2 C137.2,28.5 137.3,25.8 137.5,23.1 C137.5,22.5 138,21.8 138.4,21.5 C139.6,20.6 140.9,19.9 142.2,19.1 C144,18 145.2,18.5 145.8,20.5 C144.6,21.1 143.5,21.8 142.3,22.3 C139.8,23.3 139.2,25 139.2,27.7 C139.4,36.5 139.3,45.3 139.3,54.2 C139.3,57.4 137.4,59.9 134.2,61 C131.1,62 128.1,61.3 126.1,58.8 Z M21.8,39.1 C21.6,39 21.3,38.9 21.1,38.8 C17.1,34.1 16.4,26.5 21.1,22 C24,19.2 27.4,18.1 31.4,19 C32.8,19.3 34.1,19.5 35.5,19.7 C40.6,20.3 44.3,15.6 44.6,11.3 C44.7,9.5 44.1,7.9 43.4,6.2 C46.4,8.6 47.4,12.6 45.9,16.1 C44.1,20.4 40.8,22.2 36.3,21.5 C35.1,21.3 33.9,21 32.8,20.8 C26.1,19.7 20,24.8 19.8,31.6 C19.7,34.4 20.6,36.7 21.8,39.1 Z M210.1,59 C210.4,59 210.7,58.9 210.9,59 C214,60.3 217,60 220.2,59.2 C223.7,58.3 226.6,56.2 229.7,54.4 C232.5,52.8 235.3,51.1 238.1,49.5 C241,47.8 242.3,44.3 241.3,41 C241.2,40.6 241.2,40.2 241.1,39.9 C244.5,42.8 244.7,48.3 240.9,50.8 C235.4,54.4 229.5,57.6 223.7,60.7 C221,62.1 217.9,62.4 214.8,61.7 C213,61.3 211.4,60.4 210.1,59 Z M10.7,53.9 C11.2,54.1 11.7,54.2 12.1,54.5 C14.9,56.3 17.7,58 20.9,59 C26.5,60.8 32,60.5 37.5,58.5 C41.3,57.2 44.8,55.4 48,53 C48.3,52.8 48.7,52.6 49.3,52.2 C49.7,53.1 50,53.9 50.3,54.7 C46.6,57.4 42.5,59.4 38.2,60.8 C30.9,63.1 24,62.2 17.5,58.4 C15.1,57.2 13,55.5 10.7,53.9 Z M223.1,42.2 C221.7,42 221.2,41.4 221.2,39.7 C221.2,34 221.2,28.3 221.2,22.6 C221.2,17.5 221.1,12.4 221,7.3 C221,6.4 220.7,5.5 220.6,4.5 C222.2,5.9 223,7.6 223,9.7 C223,20.6 223,31.4 223.1,42.2 Z M91.4,42.2 C90.6,42.7 90,42.2 89.8,41.5 C89.6,40.8 89.5,40 89.5,39.3 C89.5,28.7 89.5,18.1 89.5,7.4 C89.5,6.3 89.4,5.3 89.3,4.2 C90.9,5.4 91.5,7.1 91.5,9 C91.4,20.1 91.4,31.2 91.4,42.2 Z M65.5,9.1 C65.5,19.4 65.5,29.7 65.5,40 C65.5,40.4 65.6,40.9 65.5,41.3 C65.4,41.7 65.2,42 65.1,42.3 C64.7,42 64.2,41.8 64.1,41.5 C63.8,40.7 63.7,39.8 63.7,38.9 C63.7,30.9 63.7,23 63.7,15 C63.7,11.4 63.4,7.8 63.3,4.2 C64.7,5.5 65.4,7.1 65.5,9.1 Z M163.3,13.2 C163.2,13.8 163.1,14.5 163.1,15.1 C163.1,23.6 163.1,32.1 163.1,40.5 C163.1,41 162.7,41.6 162.6,42.1 C162.2,41.6 161.7,41.1 161.5,40.6 C161.3,40 161.3,39.3 161.3,38.7 C161.3,30.1 161.2,21.5 161.4,12.9 C161.5,9.9 161.3,7 160.6,4 C162.8,5.6 163.2,8.1 163.4,10.5 C163.4,11.4 163.3,12.3 163.3,13.2 Z M150.2,59 C151.2,59.2 152.2,59.5 153.2,59.7 C156.2,60.3 159,59.6 161.7,58.3 C164.6,56.9 167.4,55.2 170.2,53.6 C170.6,53.4 171,53.2 171.4,53 C173.8,51.8 173.8,51.8 175.5,53.9 C172.3,55.7 169.1,57.4 165.8,59.2 C163,60.7 160.2,61.9 157,61.8 C154.3,61.8 152,61 150.2,59 Z M176.5,54.9 C178.3,55.8 180.1,57 182,57.7 C189.1,60.4 196.1,60.2 202.8,56.4 C203.6,56 204.3,55.5 204.9,54.9 C205.6,54.2 206.1,54.4 206.5,55.2 C206.8,55.7 207,56.2 207.2,56.7 C200.4,62 192.9,62.7 184.9,60.2 C181.8,59.1 178.8,57.4 176.5,54.9 Z M53.9,58.8 C54.4,59 55,59.3 55.5,59.5 C57.5,60.3 59.6,60.5 61.6,59.7 C65.7,58 69.8,56.2 73.8,54.3 C75.7,53.4 76.4,53.8 76.5,55.9 C72.3,57.8 68.2,59.8 63.9,61.5 C60.2,63 56.5,61.9 53.9,58.8 Z M80.1,59.3 C80.3,59.3 80.5,59.3 80.7,59.3 C83.7,60.5 86.6,59.9 89.3,58.4 C92.2,56.8 95,55.2 97.9,53.4 C98.3,54.1 98.8,54.8 99.3,55.6 C96.5,57.3 93.8,59 90.9,60.5 C88.8,61.7 86.4,62.2 83.9,61.6 C82.4,61.3 81.1,60.5 80.1,59.3 Z"/>
    <path d="M202.5,22.1 C206.6,24.8 207.6,32.6 203.7,37.4 C200,41.9 194,43.2 188.8,40.3 C187.9,39.8 187.2,38.9 186.4,38.2 C186.2,37.8 186,37.4 185.8,37 C183.5,31.9 185,26.1 189.5,22.8 C193.6,19.7 198,19.6 202.5,22.1 Z"/>
    <path fill="#006FAB" d="M202.5,22.1 C198,19.7 193.7,19.8 189.5,22.8 C185,26.1 183.5,31.9 185.8,37 C186,37.4 186.2,37.8 186.4,38.2 C186,37.9 185.5,37.6 185.1,37.2 C180,30.6 183.7,20.5 191.8,18.8 C195.2,18.1 198.3,18.7 201.2,20.7 C201.7,21 202.1,21.6 202.5,22.1 Z"/>
    <path fill="#FFFFFF" d="M308.1,12.9 C309.3,14.2 310.5,15.1 310.9,16.6 C311.1,17.4 311.6,18.4 312.3,18.7 C313.8,19.5 314.1,20.9 314.9,22.4 C313.8,22.1 313.1,21.8 312.2,21.8 C311.7,21.7 311.1,21.9 310.7,22.2 C309.8,22.9 309,23.7 307.8,24.5 C307.8,23.6 307.8,22.7 307.8,21.9 C307.9,21 307.5,20.5 306.7,20.2 C305.8,19.9 304.9,19.4 303.7,18.9 C304.8,18.3 305.7,17.8 306.7,17.4 C307.5,17.1 307.8,16.6 307.8,15.7 C307.9,14.9 308,14 308.1,12.9 Z M309.5,34.8 C309.9,34.2 310.3,33.5 310.8,33 C311.5,32.2 311.6,31.5 310.9,30.6 C310.4,29.9 309.9,29 309.3,28 C310.5,28.2 311.4,28.3 312.2,28.5 C313.2,28.7 313.9,28.6 314.5,27.7 C314.9,27.1 315.5,26.6 316.2,25.7 C316.5,27.3 317,28.6 316.4,29.9 C315.9,31.1 316,32.2 316.4,33.5 C316.7,34.6 316.5,35.9 316.5,37.1 C316.3,37.1 316.2,37.2 316,37.2 C315.5,36.6 315,36 314.5,35.3 C314.1,34.7 313.6,34.5 312.9,34.7 C311.9,34.9 310.8,35 309.7,35.1 C309.6,35 309.5,34.9 309.5,34.8 Z M275.6,34.9 C274.2,34.7 273.1,34.7 272.1,34.5 C271.2,34.3 270.6,34.6 270.1,35.4 C269.7,36 269.3,36.5 268.7,36.9 C268.5,35.6 267.8,34.4 268.4,32.9 C268.7,32.1 268.8,31 268.5,30.3 C267.8,28.7 268.3,27.3 268.5,25.5 C269.2,26.3 269.8,26.9 270.3,27.6 C270.8,28.3 271.4,28.5 272.2,28.3 C273.2,28.1 274.1,28 275.4,27.7 C274.7,28.9 274.2,29.8 273.6,30.7 C273.2,31.3 273.2,31.8 273.7,32.4 C274.4,33.1 274.9,33.9 275.6,34.9 Z M280.9,18.1 C280,18.5 279.4,18.8 278.8,19.1 C276.6,20.1 276.9,19.6 276.9,21.9 C276.9,22.5 276.9,23.1 276.6,23.8 C275.9,23.2 275.1,22.6 274.5,21.8 C273.8,21 273,20.7 272,21.2 C271.4,21.4 270.8,21.5 269.9,21.8 C270.7,20.4 270.9,19 272.3,18.2 C273,17.8 273.7,16.9 273.8,16.2 C274.1,14.5 275.3,13.6 276.6,12.3 C276.7,13.3 276.9,14.1 276.9,14.9 C276.9,15.8 277.2,16.3 278.1,16.6 C278.9,17.1 279.8,17.6 280.9,18.1 Z M279.2,52 C279.7,51.7 279.9,51.6 280.1,51.6 C282.3,51.2 283.3,49.8 283.2,47.5 C283.2,47.2 283.3,46.8 283.5,46.2 C284.2,47 284.9,47.6 285.4,48.3 C286.1,49.2 286.8,49.5 287.8,49 C288.5,48.7 289.2,48.6 290.3,48.3 C289.8,49.4 289.4,50.3 289,51 C288.4,52 288.4,52.8 289.2,53.7 C289.6,54.2 289.9,54.7 290.4,55.5 C288.7,55.2 287.2,55.3 285.9,54.1 C285.3,53.5 284.1,53.4 283.1,53.4 C281.6,53.5 280.5,52.8 279.2,52 Z M301.1,46.8 C301.2,47.6 301.3,48.4 301.4,49.2 C301.4,50.3 301.8,51 302.9,51.4 C303.6,51.6 304.2,52 305.2,52.5 C303.6,53.1 302.5,54 301,53.8 C299.7,53.6 298.7,54 297.5,54.8 C296.6,55.4 295.3,55.4 294.2,55.7 C294.1,55.6 294.1,55.4 294,55.3 C294.5,54.7 295,54.1 295.3,53.4 C295.5,53 295.6,52.3 295.5,51.9 C295.2,50.8 294.6,49.8 294.1,48.4 C295.1,48.8 295.9,48.9 296.6,49.3 C297.6,49.8 298.4,49.7 299.1,48.8 C299.6,48.1 300.2,47.5 300.8,46.8 C300.9,46.7 301,46.7 301.1,46.8 Z M304.6,10.9 C304.1,11.1 303.7,11.3 303.2,11.4 C301.8,11.7 301.2,12.5 301.1,13.9 C301,14.7 300.8,15.5 300.6,16.6 C300,15.8 299.6,15.4 299.3,14.8 C298.1,13.2 298.2,13.2 296.2,13.6 C295.6,13.7 294.9,13.9 293.9,14.1 C294.4,13.2 294.6,12.5 295.1,11.9 C295.9,10.8 295.9,9.8 295,8.8 C294.6,8.4 294.4,7.8 293.9,7 C295.5,7.1 296.9,7.1 298,8.1 C299,9 300.1,9.2 301.4,9.3 C302.5,9.3 303.6,10 304.8,10.4 C304.6,10.6 304.6,10.7 304.6,10.9 Z M308.2,49.7 C308.2,49.3 308,48.9 308.1,48.6 C308.4,46.9 307.6,46 306.1,45.4 C305.4,45.1 304.8,44.7 303.9,44.2 C304.8,43.9 305.4,43.6 306.1,43.5 C307.5,43.3 308,42.5 308,41.1 C308,40.3 308.1,39.5 308.2,38.4 C309.1,39.3 309.8,39.9 310.5,40.7 C311.1,41.4 311.7,41.5 312.5,41.3 C313.3,41.1 314.1,40.9 315.2,40.7 C314.4,42.3 313.9,43.7 312.5,44.6 C311.8,45 311.1,45.9 311,46.6 C310.7,48.2 309.5,48.9 308.6,49.9 C308.4,49.7 308.3,49.7 308.2,49.7 Z M279.4,10.4 C280.7,9.8 281.8,8.9 283.4,9 C284.2,9.1 285.3,8.7 285.9,8.2 C287,7 288.4,7.3 290.1,6.9 C289.6,7.7 289.4,8.3 289,8.8 C288.3,9.6 288.3,10.4 288.8,11.3 C289.3,12.1 289.7,13.1 290.3,14.2 C289.2,13.9 288.3,13.7 287.5,13.4 C286.6,13.1 286,13.2 285.5,14 C285,14.8 284.3,15.5 283.5,16.4 C283.3,15.2 283,14.2 283,13.3 C282.9,12.4 282.5,12 281.7,11.7 C281,11.5 280.2,11.1 279.5,10.8 C279.4,10.6 279.4,10.5 279.4,10.4 Z M276.3,38.4 C276.4,39.7 276.6,40.7 276.6,41.6 C276.6,42.4 277,42.8 277.7,43 C278.6,43.2 279.4,43.6 280.6,44 C279.5,44.6 278.8,45.1 277.9,45.5 C276.9,45.9 276.4,46.5 276.4,47.7 C276.4,48.3 276.3,48.9 276.2,49.9 C275.1,48.7 273.8,48.1 273.5,46.4 C273.4,45.6 272.6,44.7 271.9,44.3 C270.5,43.4 270.1,42.1 269.3,40.5 C270.1,40.7 270.6,40.7 271,40.9 C272.5,41.6 273.7,41.2 274.6,39.8 C275.1,39.4 275.7,39 276.3,38.4 Z"/>
    <path fill="#FEFEFE" d="M300.3,5 C301.4,5 302.2,5.8 302.2,6.8 C302.2,7.8 301.3,8.7 300.3,8.7 C299.3,8.7 298.4,7.9 298.4,6.8 C298.3,5.8 299.1,5 300.3,5 Z M282.2,56 C282.2,55 283.1,54.1 284.1,54.1 C285.2,54.1 286,54.9 286,56 C286,57.1 285.2,57.9 284.1,57.9 C283.1,57.9 282.2,57.1 282.2,56 Z M284.1,8.4 C283,8.4 282.2,7.6 282.2,6.5 C282.2,5.5 283.1,4.6 284.1,4.6 C285.2,4.6 286,5.4 286,6.5 C286,7.6 285.2,8.4 284.1,8.4 Z M271.2,48.7 C270.2,48.7 269.3,47.8 269.3,46.8 C269.3,45.8 270.2,44.9 271.2,44.9 C272.2,44.9 273.1,45.7 273.1,46.8 C273.1,47.9 272.2,48.7 271.2,48.7 Z M320.3,31.8 C320.3,32.9 319.5,33.7 318.4,33.7 C317.4,33.7 316.5,32.8 316.5,31.8 C316.5,30.8 317.4,29.9 318.4,29.9 C319.5,29.8 320.3,30.7 320.3,31.8 Z M266.3,29.7 C267.4,29.7 268.2,30.5 268.2,31.6 C268.2,32.7 267.4,33.5 266.3,33.5 C265.3,33.5 264.4,32.6 264.4,31.6 C264.4,30.5 265.3,29.7 266.3,29.7 Z M273.2,16.1 C273.1,17.1 272.2,17.9 271.1,17.8 C270,17.7 269.3,16.8 269.4,15.6 C269.5,14.6 270.4,13.9 271.4,14 C272.5,14.2 273.3,15.1 273.2,16.1 Z M313.5,14.7 C314.5,14.7 315.3,15.6 315.3,16.7 C315.3,17.8 314.5,18.6 313.4,18.5 C312.3,18.5 311.5,17.6 311.6,16.5 C311.6,15.5 312.5,14.6 313.5,14.7 Z M315.3,46.8 C315.3,47.9 314.5,48.7 313.4,48.7 C312.3,48.7 311.5,47.9 311.5,46.8 C311.5,45.8 312.4,44.9 313.4,44.9 C314.4,44.9 315.3,45.8 315.3,46.8 Z M301.8,56.2 C301.8,57.3 300.9,58 299.8,58 C298.7,58 297.9,57.2 298,56.1 C298,55 298.9,54.2 299.9,54.2 C300.9,54.3 301.8,55.3 301.8,56.2 Z"/>
  </g>
</svg>
