<svg xmlns="http://www.w3.org/2000/svg" width="434" height="116" viewBox="0 0 434 116">
  <g fill="#CE0A1C">
    <path d="M387 52.4C387 42.2 387 32.4 387 22.6 390.2 22.6 393.3 22.6 396.4 22.6 397.2 27.9 400.6 31.4 404.5 34.6 404.5 37.2 404.5 39.8 404.5 42.3 402.3 44.8 399.6 46.3 396.2 47.4 397.1 48 397.8 48.6 398.5 49 400.3 50 400.3 50 402.9 50 403.4 50 403.9 50 404.4 50 404.4 71.8 404.4 93.6 404.4 115.4 398.7 115.4 392.9 115.4 386.9 115.4 386.9 113.6 386.9 111.8 386.9 109.7 386.3 110.7 385.8 111.4 385.5 112.2 384.8 113.9 383.4 114.5 381.7 115 380.2 115.5 378.7 115.4 377.1 115.4 366.7 115.4 356.3 115.4 345.9 115.4 344.4 115.4 342.8 115.3 341.4 114.9 339.5 114.3 338.2 112.9 337.5 111 337.1 110 336.9 108.9 336.9 107.7 336.9 89.9 337 72.1 336.9 54.2 336.9 51.1 338.7 49.3 340.7 47.5 341.4 46.9 342.7 46.9 343.7 46.9 351.4 46.9 359 46.9 366.7 46.9 371.2 46.9 375.7 46.9 380.2 46.9 382.6 46.9 384.5 47.9 385.6 50.2 385.9 50.9 386.3 51.4 387 52.4zM355.1 64C355.1 64.3 355 64.5 355 64.7 355 75.3 355 85.8 355 96.4 355 96.6 355 96.9 355 97.1 355 97.9 355.5 98.3 356.2 98.4 356.8 98.5 357.4 98.4 357.9 98.4 365 98.4 372 98.4 379.1 98.4 380.3 98.4 381.5 98.2 382.6 97.9 383.4 97.7 383.9 96.8 384.7 96.3 385.5 95.8 386.1 94.6 386.4 93.6 386.8 92.2 386.9 90.8 386.9 89.3 386.9 81.6 386.9 73.8 386.9 66.1 386.9 65.4 386.9 64.7 386.9 64 376.3 64 365.7 64 355.1 64zM246.3 115C245.6 114.3 245 113.7 244.3 113 243.1 111.8 242.6 110.3 242.6 108.7 242.5 98.9 242.5 89 242.6 79.2 242.6 77.5 243.2 76 244.5 74.7 245.1 74.1 245.7 73.5 246.2 73 250.6 71.8 255.1 72.4 259.5 72.4 268.8 72.3 278.2 72.4 287.5 72.4 288.3 72.4 289.1 72.4 290 72.4 290 69.6 290 66.8 290 64 279.6 64 269.1 64 258.6 64 258.6 65.3 258.6 66.5 258.6 67.8 253.3 67.8 248.1 67.8 242.7 67.8 242.7 67.4 242.6 66.8 242.6 66.3 242.6 61.7 242.6 57.1 242.6 52.6 242.6 50 244.4 47.8 246.8 46.9 247.7 46.6 248.6 46.4 249.6 46.4 266.6 46.4 283.6 46.4 300.6 46.4 303.5 46.4 305.4 47.9 306.7 50.3 307.3 51.4 307.6 52.6 307.6 53.9 307.6 73.7 307.6 93.5 307.6 113.4 307.6 113.6 307.6 113.7 307.6 113.9 307.6 115 307.2 115.4 306.2 115.4 300.9 115.4 295.6 115.4 290.1 115.4 290.1 113.7 290.1 112 290.1 110.2 289.4 111.4 288.8 112.4 288.1 113.3 287.7 113.8 287.1 114.3 286.6 114.6 286.3 114.8 285.8 114.7 285.5 114.8 282 115.7 278.5 115.2 275 115.3 268.3 115.4 261.5 115.3 254.8 115.3 253.4 115.3 251.9 115.2 250.6 115.3 248.8 115.7 247.6 114.7 246.3 115zM290 89.6C289.7 89.6 289.5 89.5 289.3 89.5 279.7 89.5 270.2 89.5 260.6 89.5 260.4 89.5 260.1 89.5 259.9 89.5 259.1 89.5 258.7 90 258.6 90.7 258.5 92.9 258.5 95.2 258.6 97.4 258.6 97.8 259.2 98.3 259.6 98.5 260.1 98.7 260.7 98.5 261.3 98.5 270.1 98.5 278.9 98.5 287.7 98.5 288.4 98.5 289.2 98.5 289.9 98.5 290 95.4 290 92.5 290 89.6zM64.5 97.9C64.5 103.9 64.5 109.6 64.5 115.5 63.7 115.5 62.8 115.5 62 115.5 44.3 115.5 26.5 115.5 8.8 115.5 7.4 115.5 5.9 115.3 4.5 115 3.6 114.8 2.6 114.1 2.2 113.4 1.3 111.9.5 110.3.5 108.4.5 90.2.5 71.9.5 53.7.5 51.2 1.7 49.2 3.7 47.8 4.5 47.3 5.7 47.1 6.9 47.1 15.1 47.2 23.2 47.1 31.4 47.1 40.3 47.1 49.2 47.1 58.1 47.1 61.4 47.1 63.5 49.5 64.1 52.6 64.7 55.6 64.4 58.6 64.5 61.7 64.6 67.2 64.4 72.7 64.6 78.2 64.7 80.5 64.1 82.7 64 85 63.9 87.2 60.9 89.7 58.6 89.7 52.7 89.7 46.8 89.7 40.9 89.7 33.7 89.7 26.4 89.7 19.2 89.7 18.6 89.7 17.9 89.7 17.2 89.7 17.2 92.6 17.2 95.3 17.2 98.1 32.8 97.9 48.5 97.9 64.5 97.9zM48 64.1C37.6 64.1 27.3 64.1 17 64.1 17 65.6 17 67 17 68.4 17 69.8 17 71.2 17 72.4 27.4 72.4 37.7 72.4 47.9 72.4 48 69.6 48 66.9 48 64.1zM69.6 115.5C69.6 92.7 69.6 70 69.6 47.1 75.3 47.1 81.1 47.1 87.1 47.1 87.1 48.7 87.1 50.3 87.1 52.3 87.8 51.2 88.1 50.3 88.7 49.6 90 47.9 91.7 47 93.8 47 104.8 47 115.8 46.9 126.8 47 130.1 47 133.1 50.4 133.1 53.2 133.1 73.7 133.1 94.2 133.1 114.7 133.1 114.9 133.1 115.2 133 115.5 127.2 115.5 121.5 115.5 115.6 115.5 115.6 98.4 115.6 81.3 115.6 64.1 114.2 64.1 113 64.1 111.7 64.1 105.8 64.1 99.9 64.1 94 64.1 91.2 64.1 89.4 65.5 88 67.8 87.3 69 87 70.1 87 71.4 87 85.1 87 98.9 87 112.6 87 113.2 87 113.8 87 114.3 87 115.1 86.5 115.4 85.8 115.6 85.7 115.6 85.6 115.6 85.6 115.6 80.3 115.5 75 115.5 69.6 115.5zM148.5 64C144.4 64 140.5 64 136.6 64 136.6 58.4 136.6 52.8 136.6 47.1 140.5 47.1 144.4 47.1 148.5 47.1 148.5 39.4 148.5 31.8 148.5 24.1 154.7 24.1 160.8 24.1 167 24.1 167 31.7 167 39.2 167 47 171.4 47 175.6 47 180 47 180 52.7 180 58.3 180 64 175.7 64 171.4 64 167.1 64 167.1 75.6 167.1 86.9 167.1 98.4 171.3 98.4 175.6 98.4 179.7 98.4 179.9 98.5 179.9 98.6 180 98.7 180 98.8 180.1 98.8 180.1 98.9 180.1 104.4 180.1 109.9 180.1 115.5 179.2 115.5 178.4 115.5 177.6 115.5 171.2 115.5 164.8 115.4 158.4 115.5 156.7 115.5 155.2 114.9 153.6 114.9 153 114.9 152.4 114.3 151.8 113.9 151.2 113.4 150.6 112.7 150 112.2 149 111.3 148.8 110.2 148.6 109 148.5 108.5 148.6 108 148.6 107.5 148.5 93.1 148.5 78.6 148.5 64zM239.5 67.9C233.6 67.9 227.9 67.9 222.1 67.9 222.1 66.5 222.1 65.1 222.1 63.4 221.4 63.4 220.7 63.4 220.1 63.4 217.5 63.4 214.9 63.3 212.4 63.4 210.9 63.4 209.3 63.4 207.9 63.9 206.1 64.6 204.5 65.6 203.5 67.4 202.9 68.6 202.5 69.7 202.5 71 202.5 84.9 202.5 98.8 202.5 112.7 202.5 113.5 202.5 114.3 202.5 115.3 199.3 115.3 196.1 115.3 193 115.3 190.8 115.3 188.7 115.3 186.5 115.3 186 115.3 185.5 115 185.1 114.8 185.1 92 185.1 69.5 185.1 46.9 190.9 46.9 196.6 46.9 202.5 46.9 202.5 48.5 202.5 50.1 202.5 52.1 203 51.5 203.3 51.3 203.5 51 205.1 48.2 207.6 46.8 210.8 46.8 217.9 46.8 225 46.8 232 46.8 235.1 46.8 237.1 48.4 238.9 50.5 239.3 50.9 239.4 51.7 239.4 52.3 239.5 57.6 239.5 62.7 239.5 67.9zM331.9 115.5C325.9 115.5 320 115.5 314.1 115.5 312.7 115.5 312.5 115.2 312.5 113.7 312.5 109.2 312.5 104.7 312.5 100.2 312.5 82.5 312.5 64.9 312.5 47.2 314.5 46.8 325.5 46.7 331.9 47 331.9 69.8 331.9 92.6 331.9 115.5z"/>
    <path d="M400.5 47.8C406.1 45.4 408.7 40.6 410.3 35.2 408.7 34.1 406.7 33.4 405 32.3 401.7 30.2 399.8 27.1 398.5 23.5 398.1 22.4 397.9 21.2 398 20 398.1 18.8 398 17.5 398 16.3 397.9 13.6 398.9 11.2 400.3 9 402.7 5.2 406.2 2.6 410.5 1.2 411.8.8 413.2 1.7 414.2.5 415.4.6 416.5.3 417.8.9 418.7 1.4 419.9 1 421.1 1.4 426.1 3.1 429.7 6.4 431.9 11.1 432.7 12.8 433.4 14.8 433.1 16.9 433 18 433.1 19.1 433.1 20.1 433.1 21.7 432.6 23.2 432.1 24.7 431.3 27 429.9 29 428.6 31 427 33.5 423.8 36.5 421.4 38.5 419.8 39.8 418.2 41.2 416.5 42.3 412.7 44.8 409.7 46.1 404.6 47.5 403.1 47.9 401.9 47.9 400.5 47.8zM313.8 41C313.4 40.6 313 40.2 312.6 39.8 312.6 34.5 312.6 29.2 312.6 23.7 312.9 23.4 313.4 23 314 22.5 319.5 22.5 325.1 22.5 330.8 22.5 331.2 22.9 331.6 23.3 332 23.7 332 28.6 331.9 33.5 332 38.4 332 40.8 331.6 41 329.6 40.9 324.4 40.9 319.1 41 313.8 41z"/>
  </g>
</svg>
