<svg xmlns="http://www.w3.org/2000/svg" width="408" height="134" viewBox="0 0 408 134">
  <defs>
    <linearGradient id="a" x1="14.289%" x2="85.402%" y1="16.133%" y2="83.287%">
      <stop stop-color="#F0F9E2" offset="0%"/>
      <stop stop-color="#BAD369" offset="61.629%"/>
      <stop stop-color="#A7C510" offset="100%"/>
    </linearGradient>
  </defs>
  <g fill="none" fill-rule="evenodd">
    <circle cx="62.5" cy="63.5" r="57.5" fill="url(#a)"/>
    <path fill="#026631" fill-rule="nonzero" d="M62.7,0 C28.1,0 0,28.4 0,63.4 C0,98.4 28.1,126.8 62.7,126.8 C97.3,126.8 125.4,98.4 125.4,63.4 C125.4,28.4 97.3,0 62.7,0 Z M62.7,118.2 C32.7,118.2 8.4,93.7 8.4,63.4 C8.4,56.2 9.8,49.3 12.3,43 C20.3,22.8 39.8,8.6 62.7,8.6 C92.7,8.6 117,33.2 117,63.4 C117,93.7 92.7,118.2 62.7,118.2 Z"/>
    <g fill="#FFFFFF" fill-rule="nonzero" transform="translate(13 42)">
      <path d="M57,10.5303423 C57,11.0132653 57,20.9031512 57,40.2 L45.3,40.2 L45.5,13.1 C44.7721331,11.3799572 43.8387998,10.2466239 42.7,9.7 C40.9918003,8.88006415 39.9567387,8.76948421 38,9.5 C37.38523,9.72951414 36.8528932,10.0729616 36.4029897,10.5303423 C36.066486,10.8724385 35.6654894,11.5289911 35.2,12.5 L35.2,40.2 L23.3,40.2 L23.5,13.3 C22.6187285,11.6888981 21.7520618,10.6222314 20.9,10.1 C20.0479382,9.57776857 18.8479382,9.37776857 17.3,9.5 C15.9071427,9.59115365 14.8532693,9.93460109 14.1383799,10.5303423 C13.4234904,11.1260835 12.8773638,12.1159694 12.5,13.5 L12.5,40.2 L0.3,40.2 L0.3,1 C0.3,1 4.03333333,1 11.5,1 L11.5,4.9 C12.3714745,3.66426277 13.4381411,2.73092944 14.7,2.1 C16.5927883,1.15360584 17.1798013,1.2548639 19.2187125,1 C21.2576237,0.745136101 21.0182015,0.43595488 23.5,1 C25.1545324,1.37603008 26.6878657,2.04269675 28.1,3 L30.7,5 L34.6225375,3 C35.9424482,2.04557755 37.6349357,1.37891088 39.7,1 C41.7650643,0.621089116 43.9983976,0.621089116 46.4,1 L51.0108268,2.1 L54.5,5 C56.1666667,7.2824417 57,9.12588914 57,10.5303423 Z"/>
      <polygon points="99.8 .9 79.5 51.8 67.6 51.8 74.8 35.2 59.2 .9 71.8 .9 80.7 22.6 89.4 .9"/>
    </g>
    <g fill-rule="nonzero" transform="translate(136 60)">
      <path fill="#0075B9" d="M104.865875,53.3985165 C107.310296,52.0651963 109.865826,50.842986 112.199137,49.3985558 C112.643577,49.1763357 112.865797,48.1763455 112.865797,47.5096854 C112.865797,36.9542334 112.865797,26.5098914 112.865797,15.9544394 C112.865797,11.5100386 115.643547,8.0656279 119.976838,7.17674773 C122.643479,6.62119762 124.865679,7.39896777 126.865659,9.17672811 C127.86565,10.0656083 128.86564,11.0655985 129.75452,12.0655887 C130.31007,12.7322488 130.86562,12.7322488 131.64339,12.3989187 C134.087811,11.1767085 136.532231,9.84338824 139.087762,8.84339805 C142.087732,7.62118781 145.309923,6.95452769 148.643224,7.51007779 C150.532094,7.84340786 152.198744,8.621178 153.532065,10.0656083 C154.309835,10.9544884 155.309825,11.7322586 156.087595,12.6211388 C156.643145,13.1766889 157.087585,13.1766889 157.643135,12.8433588 C159.420896,11.7322586 161.198656,10.7322684 163.087526,9.62116819 C166.754157,7.51007779 170.754118,7.06563771 174.976299,7.17674773 C177.420719,7.28785775 179.531809,8.17673792 181.08735,10.1767183 C181.30957,10.5100484 181.6429,10.7322684 181.86512,10.9544884 C182.64289,14.1766791 182.86511,17.3988697 182.754,20.8432803 C182.53178,30.3987421 182.64289,39.954204 182.64289,49.5096658 C182.64289,50.1763259 182.64289,50.9540961 182.86511,51.6207562 C183.08733,52.2874163 183.64288,52.7318564 184.08732,53.2874065 C184.322269,53.5096265 184.417332,53.7198832 184.744295,53.6741357 C184.916701,53.6500134 184.929167,54.1532821 186.073191,53.3985165 C187.865287,52.8429664 187.753951,52.3985263 188.865051,51.3985361 C189.087271,51.1763161 188.976161,50.509656 188.865051,50.0652159 C187.420621,45.8430351 186.865071,41.3986342 187.087291,36.9542334 C187.420621,30.1765221 189.753931,24.0654709 194.198332,18.95441 C199.753833,12.3989187 206.975985,8.621178 215.531456,7.73229783 C221.420287,7.06563771 226.531348,9.06561809 231.309079,12.3989187 C231.753519,12.7322488 232.197959,12.9544688 232.6424,13.2877989 C232.75351,12.9544688 232.97573,12.8433588 232.97573,12.6211388 C234.42016,6.95452769 242.753411,5.73231745 246.864482,9.73227821 C247.420032,10.2878283 247.975582,10.9544884 248.642243,11.5100386 C248.864463,12.5100287 249.086683,13.5100189 249.086683,14.6211191 C249.197793,20.2877302 249.308903,25.9543413 249.308903,31.6209524 C249.308903,37.9542236 249.308903,44.2874948 249.308903,50.620766 C249.308903,52.5096364 249.864453,53.1762965 251.419993,53.3985165 C252.531093,53.0651865 253.753304,53.0651865 254.642184,52.5096364 C256.531054,51.3985361 258.419924,50.2874359 260.197685,48.9541157 C263.753205,46.2874752 267.864276,46.3985852 270.530917,49.9541059 C270.753137,50.2874359 271.086467,50.509656 271.419797,50.731876 C271.530907,51.1763161 271.530907,51.6207562 271.642017,51.9540863 C272.753117,55.6207169 271.197577,59.5095677 268.086496,61.398438 C264.975416,63.1761984 261.975445,65.0650687 258.753255,66.8428291 C255.308844,68.8428095 252.086653,71.1761199 248.197803,72.1761101 C244.753392,73.0649903 241.308981,73.3983203 237.864571,71.9538901 C237.642351,71.84278 237.30902,71.9538901 236.97569,71.9538901 C235.86459,71.0650099 234.8646,70.1761297 233.7535,69.2872496 C233.53128,68.7316994 233.19795,68.1761493 232.97573,67.6205992 C232.53129,66.7317191 232.086849,66.620609 231.197969,67.2872692 C230.531309,67.9539293 229.642429,68.5094794 228.864659,68.9539195 C221.420287,73.1761003 213.642586,73.3983203 205.753774,70.3983498 C203.642684,69.6205796 201.642704,68.2872594 199.642723,67.2872692 C199.198283,66.9539391 198.864953,66.620609 198.420513,66.176169 C196.531643,63.7317485 196.531643,63.7317485 193.865002,65.1761788 C193.420562,65.3983988 192.976122,65.6206189 192.531682,65.8428389 C189.420601,67.6205992 186.309521,69.3983596 183.08733,71.0650099 C180.19847,72.5094402 176.976279,73.2872103 173.642978,72.6205502 C172.531878,72.3983301 171.420778,72.0650001 170.309678,71.84278 C169.643018,71.1761199 168.865247,70.5094598 168.198587,69.8427997 C166.643047,68.1761493 165.643057,66.176169 165.643057,63.7317485 C165.754167,52.9540764 165.643057,42.1764044 165.643057,31.3987323 C165.643057,30.5098522 165.531947,29.732082 165.420837,28.8432019 C164.754177,26.6210014 163.420856,26.0654513 161.420876,27.2876616 C159.976446,28.1765417 158.532015,28.9543119 157.198695,29.9543021 C156.643145,30.2876321 156.198705,31.1765123 156.198705,31.7320624 C155.976485,34.732033 155.865375,37.7320035 155.865375,40.7319741 C155.865375,47.2874654 155.976485,53.8429566 156.087595,60.3984479 C156.087595,61.6206581 156.087595,62.8428683 156.087595,64.1761886 C155.976485,67.1761591 154.420945,69.2872496 151.976524,70.7316798 C149.309884,72.3983301 146.421023,72.2872201 143.532163,71.39834 C140.532192,69.1761395 139.532202,66.176169 139.532202,62.5095383 C139.532202,51.8429762 139.421092,41.1764142 139.309982,30.6209622 C139.309982,29.843192 138.976652,27.6209916 138.198882,27.2876616 C137.532221,26.9543315 136.532231,26.8432215 135.865571,27.1765515 C134.198921,27.9543217 132.754491,28.9543119 131.08784,29.843192 C129.75452,30.5098522 129.31008,31.3987323 129.42119,32.9542726 C129.5323,42.9541745 129.5323,52.9540764 129.42119,62.9539783 C129.42119,64.9539587 128.97675,67.1761591 127.97676,68.8428095 C126.754549,70.9538999 124.421239,72.0650001 121.976819,72.3983301 C120.532388,72.6205502 118.976848,72.3983301 117.532418,72.3983301 C116.310207,70.9538999 115.087997,69.5094696 113.754677,68.1761493 C113.199127,67.2872692 112.643577,66.509499 112.199137,65.7317289 C108.865836,67.6205992 105.754755,69.5094696 102.643675,71.2872299 C99.6437043,72.9538802 96.4215136,73.6205404 93.088213,72.2872201 C91.4215627,71.2872299 90.4215725,70.1761297 89.4215823,69.1761395 C89.1993623,68.9539195 88.7549222,68.7316994 88.5327021,68.5094794 C88.4215921,66.0650589 87.643822,65.7317289 85.5327316,66.7317191 C81.0883307,68.8428095 76.5328199,70.8427898 71.977309,72.7316602 C69.7551086,73.7316504 67.4217981,73.3983203 65.1995977,72.5094402 C64.5329376,72.2872201 63.9773875,71.9538901 63.4218374,71.73167 C62.0885171,70.2872397 60.7551968,68.8428095 59.4218766,67.3983792 C59.0885465,66.509499 58.7552165,65.6206189 58.3107764,64.6206287 C57.7552263,64.9539587 57.3107862,65.1761788 56.8663461,65.5095088 C53.3108254,68.0650393 49.4219747,70.0650197 45.1997939,71.62056 C39.0887427,73.7316504 32.9776916,74.1760905 26.7555304,72.1761101 C23.2000097,71.0650099 20.0889291,69.1761395 16.9778485,67.1761591 C16.5334084,66.8428291 15.9778583,66.7317191 15.4223082,66.509499 C9.5334771,61.7317681 5.8668464,55.6207169 4.64463617,48.1763455 C2.97798585,39.0653238 4.53352615,30.2876321 9.42236708,22.2877106 C16.2000784,10.9544884 30.9777112,4.95454731 43.5331436,8.39895796 C46.7553342,9.28783813 49.4219747,10.7322684 51.5330651,13.3989089 C52.3108352,15.1766693 52.9774954,16.9544296 52.8663853,19.06552 C52.5330553,23.8432509 48.4219845,29.0654219 42.7553734,28.3987618 C41.1998331,28.1765417 39.6442928,27.9543217 38.1998626,27.6209916 C33.7554617,26.6210014 29.866611,27.8432117 26.7555304,30.9542923 C21.6444694,35.9542432 22.3111295,44.3986048 26.7555304,49.6207758 C26.9777504,49.8429959 27.3110805,49.8429959 27.5333005,49.9541059 C29.1999508,52.3985263 31.8665914,52.9540764 34.5332319,53.1762965 C41.8664933,53.8429566 47.9775444,50.842986 54.0885956,47.1763553 C56.8663461,45.509705 57.8663363,43.7319447 57.7552263,40.3986441 C57.5330062,32.1765025 57.6441163,23.8432509 57.6441163,15.6211093 C57.6441163,11.8433686 59.1996566,9.51005817 62.5329572,8.17673792 C66.0884779,6.73230764 69.8662186,7.39896777 72.199529,9.95449826 C72.6439691,10.3989383 72.9772992,10.8433784 73.4217393,11.1767085 C73.6439593,15.1766693 73.8661793,19.17663 73.8661793,23.1765908 C73.9772894,32.0653925 73.8661793,40.8430841 73.8661793,49.7318858 C73.8661793,50.731876 74.0883994,51.7318662 74.3106194,52.6207464 C74.4217295,52.9540764 75.0883896,53.1762965 75.4217196,53.5096265 C75.5328297,53.1762965 76.4217098,54.1762867 78.0883601,53.1762965 C80.5327806,51.8429762 82.8660911,50.2874359 85.3105115,48.9541157 C86.1993917,48.5096756 86.1993917,47.7319054 86.1993917,46.9541353 C86.1993917,36.6209033 86.1993917,26.2876714 86.1993917,15.9544394 C86.1993917,12.0655887 87.866042,9.51005817 91.1993426,8.17673792 C94.7548633,6.73230764 98.6437141,7.62118781 101.088135,10.2878283 C101.421465,10.7322684 101.865905,11.0655985 102.199235,11.3989285 C102.310345,12.6211388 102.421455,13.732239 102.421455,14.9544492 C102.421455,26.7321115 102.421455,38.5097737 102.421455,50.398546 C102.421455,51.1763161 102.532565,52.0651963 102.754785,52.8429664 C103.310335,53.3985165 103.976995,53.9540666 104.865875,53.3985165 Z M210.420395,48.8430057 C211.309276,49.6207758 212.087046,50.620766 213.087036,51.1763161 C218.753647,54.3985067 225.420248,52.9540764 229.642429,47.9541255 C233.97572,42.6208445 232.97573,33.9542628 228.309109,30.9542923 C227.864669,30.3987421 227.420229,29.732082 226.864678,29.2876419 C223.753598,27.0654415 220.198077,26.3987814 216.420336,27.1765515 C207.420425,29.1765319 203.309354,40.3986441 208.975965,47.6207954 C209.420405,48.2874556 209.975955,48.5096756 210.420395,48.8430057 Z"/>
      <path fill="#9BC862" d="M100.865875,46.3985165 C103.310296,45.0651963 105.865826,43.842986 108.199137,42.3985558 C108.643577,42.1763357 108.865797,41.1763455 108.865797,40.5096854 C108.865797,29.9542334 108.865797,19.5098914 108.865797,8.9544394 C108.865797,4.51003855 111.643547,1.0656279 115.976838,0.176747728 C118.643479,-0.378802377 120.865679,0.398967771 122.865659,2.17672811 C123.86565,3.06560828 124.86564,4.06559847 125.75452,5.06558866 C126.31007,5.73224879 126.86562,5.73224879 127.64339,5.39891872 C130.087811,4.17670849 132.532231,2.84338824 135.087762,1.84339805 C138.087732,0.621187813 141.309923,-0.045472314 144.643224,0.510077792 C146.532094,0.843407855 148.198744,1.621178 149.532065,3.06560828 C150.309835,3.95448845 151.309825,4.7322586 152.087595,5.62113876 C152.643145,6.17668887 153.087585,6.17668887 153.643135,5.84335881 C155.420896,4.7322586 157.198656,3.73226841 159.087526,2.62116819 C162.754157,0.510077792 166.754118,0.0656377071 170.976299,0.176747728 C173.420719,0.287857749 175.531809,1.17673792 177.08735,3.1767183 C177.30957,3.51004836 177.6429,3.73226841 177.86512,3.95448845 C178.64289,7.17667906 178.86511,10.3988697 178.754,13.8432803 C178.53178,23.3987421 178.64289,32.954204 178.64289,42.5096658 C178.64289,43.1763259 178.64289,43.9540961 178.86511,44.6207562 C179.08733,45.2874163 179.64288,45.7318564 180.08732,46.2874065 C180.322269,46.5096265 180.417332,46.7198832 180.744295,46.6741357 C180.916701,46.6500134 180.929167,47.1532821 182.073191,46.3985165 C183.865287,45.8429664 183.753951,45.3985263 184.865051,44.3985361 C185.087271,44.1763161 184.976161,43.509656 184.865051,43.0652159 C183.420621,38.8430351 182.865071,34.3986342 183.087291,29.9542334 C183.420621,23.1765221 185.753931,17.0654709 190.198332,11.95441 C195.753833,5.39891872 202.975985,1.621178 211.531456,0.732297834 C217.420287,0.0656377071 222.531348,2.06561809 227.309079,5.39891872 C227.753519,5.73224879 228.197959,5.95446883 228.6424,6.28779889 C228.75351,5.95446883 228.97573,5.84335881 228.97573,5.62113876 C230.42016,-0.045472314 238.753411,-1.26768255 242.864482,2.73227821 C243.420032,3.28782832 243.975582,3.95448845 244.642243,4.51003855 C244.864463,5.51002874 245.086683,6.51001893 245.086683,7.62111915 C245.197793,13.2877302 245.308903,18.9543413 245.308903,24.6209524 C245.308903,30.9542236 245.308903,37.2874948 245.308903,43.620766 C245.308903,45.5096364 245.864453,46.1762965 247.419993,46.3985165 C248.531093,46.0651865 249.753304,46.0651865 250.642184,45.5096364 C252.531054,44.3985361 254.419924,43.2874359 256.197685,41.9541157 C259.753205,39.2874752 263.864276,39.3985852 266.530917,42.9541059 C266.753137,43.2874359 267.086467,43.509656 267.419797,43.731876 C267.530907,44.1763161 267.530907,44.6207562 267.642017,44.9540863 C268.753117,48.6207169 267.197577,52.5095677 264.086496,54.398438 C260.975416,56.1761984 257.975445,58.0650687 254.753255,59.8428291 C251.308844,61.8428095 248.086653,64.1761199 244.197803,65.1761101 C240.753392,66.0649903 237.308981,66.3983203 233.864571,64.9538901 C233.642351,64.84278 233.30902,64.9538901 232.97569,64.9538901 C231.86459,64.0650099 230.8646,63.1761297 229.7535,62.2872496 C229.53128,61.7316994 229.19795,61.1761493 228.97573,60.6205992 C228.53129,59.7317191 228.086849,59.620609 227.197969,60.2872692 C226.531309,60.9539293 225.642429,61.5094794 224.864659,61.9539195 C217.420287,66.1761003 209.642586,66.3983203 201.753774,63.3983498 C199.642684,62.6205796 197.642704,61.2872594 195.642723,60.2872692 C195.198283,59.9539391 194.864953,59.620609 194.420513,59.176169 C192.531643,56.7317485 192.531643,56.7317485 189.865002,58.1761788 C189.420562,58.3983988 188.976122,58.6206189 188.531682,58.8428389 C185.420601,60.6205992 182.309521,62.3983596 179.08733,64.0650099 C176.19847,65.5094402 172.976279,66.2872103 169.642978,65.6205502 C168.531878,65.3983301 167.420778,65.0650001 166.309678,64.84278 C165.643018,64.1761199 164.865247,63.5094598 164.198587,62.8427997 C162.643047,61.1761493 161.643057,59.176169 161.643057,56.7317485 C161.754167,45.9540764 161.643057,35.1764044 161.643057,24.3987323 C161.643057,23.5098522 161.531947,22.732082 161.420837,21.8432019 C160.754177,19.6210014 159.420856,19.0654513 157.420876,20.2876616 C155.976446,21.1765417 154.532015,21.9543119 153.198695,22.9543021 C152.643145,23.2876321 152.198705,24.1765123 152.198705,24.7320624 C151.976485,27.732033 151.865375,30.7320035 151.865375,33.7319741 C151.865375,40.2874654 151.976485,46.8429566 152.087595,53.3984479 C152.087595,54.6206581 152.087595,55.8428683 152.087595,57.1761886 C151.976485,60.1761591 150.420945,62.2872496 147.976524,63.7316798 C145.309884,65.3983301 142.421023,65.2872201 139.532163,64.39834 C136.532192,62.1761395 135.532202,59.176169 135.532202,55.5095383 C135.532202,44.8429762 135.421092,34.1764142 135.309982,23.6209622 C135.309982,22.843192 134.976652,20.6209916 134.198882,20.2876616 C133.532221,19.9543315 132.532231,19.8432215 131.865571,20.1765515 C130.198921,20.9543217 128.754491,21.9543119 127.08784,22.843192 C125.75452,23.5098522 125.31008,24.3987323 125.42119,25.9542726 C125.5323,35.9541745 125.5323,45.9540764 125.42119,55.9539783 C125.42119,57.9539587 124.97675,60.1761591 123.97676,61.8428095 C122.754549,63.9538999 120.421239,65.0650001 117.976819,65.3983301 C116.532388,65.6205502 114.976848,65.3983301 113.532418,65.3983301 C112.310207,63.9538999 111.087997,62.5094696 109.754677,61.1761493 C109.199127,60.2872692 108.643577,59.509499 108.199137,58.7317289 C104.865836,60.6205992 101.754755,62.5094696 98.6436748,64.2872299 C95.6437043,65.9538802 92.4215136,66.6205404 89.088213,65.2872201 C87.4215627,64.2872299 86.4215725,63.1761297 85.4215823,62.1761395 C85.1993623,61.9539195 84.7549222,61.7316994 84.5327021,61.5094794 C84.4215921,59.0650589 83.643822,58.7317289 81.5327316,59.7317191 C77.0883307,61.8428095 72.5328199,63.8427898 67.977309,65.7316602 C65.7551086,66.7316504 63.4217981,66.3983203 61.1995977,65.5094402 C60.5329376,65.2872201 59.9773875,64.9538901 59.4218374,64.73167 C58.0885171,63.2872397 56.7551968,61.8428095 55.4218766,60.3983792 C55.0885465,59.509499 54.7552165,58.6206189 54.3107764,57.6206287 C53.7552263,57.9539587 53.3107862,58.1761788 52.8663461,58.5095088 C49.3108254,61.0650393 45.4219747,63.0650197 41.1997939,64.62056 C35.0887427,66.7316504 28.9776916,67.1760905 22.7555304,65.1761101 C19.2000097,64.0650099 16.0889291,62.1761395 12.9778485,60.1761591 C12.5334084,59.8428291 11.9778583,59.7317191 11.4223082,59.509499 C5.5334771,54.7317681 1.8668464,48.6207169 0.644636169,41.1763455 C-1.02201415,32.0653238 0.533526148,23.2876321 5.42236708,15.2877106 C12.2000784,3.95448845 26.9777112,-2.04545269 39.5331436,1.39895796 C42.7553342,2.28783813 45.4219747,3.73226841 47.5330651,6.39890891 C48.3108352,8.17666925 48.9774954,9.95442959 48.8663853,12.06552 C48.5330553,16.8432509 44.4219845,22.0654219 38.7553734,21.3987618 C37.1998331,21.1765417 35.6442928,20.9543217 34.1998626,20.6209916 C29.7554617,19.6210014 25.866611,20.8432117 22.7555304,23.9542923 C17.6444694,28.9542432 18.3111295,37.3986048 22.7555304,42.6207758 C22.9777504,42.8429959 23.3110805,42.8429959 23.5333005,42.9541059 C25.1999508,45.3985263 27.8665914,45.9540764 30.5332319,46.1762965 C37.8664933,46.8429566 43.9775444,43.842986 50.0885956,40.1763553 C52.8663461,38.509705 53.8663363,36.7319447 53.7552263,33.3986441 C53.5330062,25.1765025 53.6441163,16.8432509 53.6441163,8.62110934 C53.6441163,4.84336862 55.1996566,2.51005817 58.5329572,1.17673792 C62.0884779,-0.267692356 65.8662186,0.398967771 68.199529,2.95449826 C68.6439691,3.39893834 68.9772992,3.84337843 69.4217393,4.17670849 C69.6439593,8.17666925 69.8661793,12.17663 69.8661793,16.1765908 C69.9772894,25.0653925 69.8661793,33.8430841 69.8661793,42.7318858 C69.8661793,43.731876 70.0883994,44.7318662 70.3106194,45.6207464 C70.4217295,45.9540764 71.0883896,46.1762965 71.4217196,46.5096265 C71.5328297,46.1762965 72.4217098,47.1762867 74.0883601,46.1762965 C76.5327806,44.8429762 78.8660911,43.2874359 81.3105115,41.9541157 C82.1993917,41.5096756 82.1993917,40.7319054 82.1993917,39.9541353 C82.1993917,29.6209033 82.1993917,19.2876714 82.1993917,8.9544394 C82.1993917,5.06558866 83.866042,2.51005817 87.1993426,1.17673792 C90.7548633,-0.267692356 94.6437141,0.621187813 97.0881345,3.28782832 C97.4214646,3.73226841 97.8659047,4.06559847 98.1992347,4.39892853 C98.3103448,5.62113876 98.4214548,6.73223898 98.4214548,7.95444921 C98.4214548,19.7321115 98.4214548,31.5097737 98.4214548,43.398546 C98.4214548,44.1763161 98.5325648,45.0651963 98.7547848,45.8429664 C99.310335,46.3985165 99.9769951,46.9540666 100.865875,46.3985165 Z M206.420395,41.8430057 C207.309276,42.6207758 208.087046,43.620766 209.087036,44.1763161 C214.753647,47.3985067 221.420248,45.9540764 225.642429,40.9541255 C229.97572,35.6208445 228.97573,26.9542628 224.309109,23.9542923 C223.864669,23.3987421 223.420229,22.732082 222.864678,22.2876419 C219.753598,20.0654415 216.198077,19.3987814 212.420336,20.1765515 C203.420425,22.1765319 199.309354,33.3986441 204.975965,40.6207954 C205.420405,41.2874556 205.975955,41.5096756 206.420395,41.8430057 Z"/>
    </g>
  </g>
</svg>
