<svg xmlns="http://www.w3.org/2000/svg" width="867" height="65" viewBox="0 0 867 65">
  <g fill="none" transform="translate(0 1)">
    <path fill="#9BC862" d="M91.4,42.2 C93.6,41 95.9,39.9 98,38.6 C98.4,38.4 98.6,37.5 98.6,36.9 C98.6,27.4 98.6,18 98.6,8.5 C98.6,4.5 101.1,1.4 105,0.6 C107.4,0.1 109.4,0.8 111.2,2.4 C112.1,3.2 113,4.1 113.8,5 C114.3,5.6 114.8,5.6 115.5,5.3 C117.7,4.2 119.9,3 122.2,2.1 C124.9,1 127.8,0.4 130.8,0.9 C132.5,1.2 134,1.9 135.2,3.2 C135.9,4 136.8,4.7 137.5,5.5 C138,6 138.4,6 138.9,5.7 C140.5,4.7 142.1,3.8 143.8,2.8 C147.1,0.9 150.7,0.5 154.5,0.6 C156.7,0.7 158.6,1.5 160,3.3 C160.2,3.6 160.5,3.8 160.7,4 C161.4,6.9 161.6,9.8 161.5,12.9 C161.3,21.5 161.4,30.1 161.4,38.7 C161.4,39.3 161.4,40 161.6,40.6 C161.8,41.2 162.3,41.6 162.7,42.1 C162.9,41.6 163.2,41 163.2,40.5 C163.2,32 163.2,23.5 163.2,15.1 C163.2,14.5 163.3,13.8 163.4,13.2 C163.4,22.8 163.4,32.4 163.4,42.2 C165,42 166,41.3 167,40.4 C167.2,40.2 167.1,39.6 167,39.2 C165.7,35.4 165.2,31.4 165.4,27.4 C165.7,21.3 167.8,15.8 171.8,11.2 C176.8,5.3 183.3,1.9 191,1.1 C196.3,0.5 200.9,2.3 205.2,5.3 C205.6,5.6 206,5.8 206.4,6.1 C206.5,5.8 206.7,5.7 206.7,5.5 C208,0.4 215.5,-0.7 219.2,2.9 C219.7,3.4 220.2,4 220.8,4.5 C221,5.4 221.2,6.3 221.2,7.3 C221.3,12.4 221.4,17.5 221.4,22.6 C221.4,28.3 221.4,34 221.4,39.7 C221.4,41.4 221.9,42 223.3,42.2 C224.3,41.9 225.4,41.9 226.2,41.4 C227.9,40.4 229.6,39.4 231.2,38.2 C234.4,35.8 238.1,35.9 240.5,39.1 C240.7,39.4 241,39.6 241.3,39.8 C241.4,40.2 241.4,40.6 241.5,40.9 C242.5,44.2 241.1,47.7 238.3,49.4 C235.5,51 232.8,52.7 229.9,54.3 C226.8,56.1 223.9,58.2 220.4,59.1 C217.3,59.9 214.2,60.2 211.1,58.9 C210.9,58.8 210.6,58.9 210.3,58.9 C209.3,58.1 208.4,57.3 207.4,56.5 C207.2,56 206.9,55.5 206.7,55 C206.3,54.2 205.9,54.1 205.1,54.7 C204.5,55.3 203.7,55.8 203,56.2 C196.3,60 189.3,60.2 182.2,57.5 C180.3,56.8 178.5,55.6 176.7,54.7 C176.3,54.4 176,54.1 175.6,53.7 C173.9,51.5 173.9,51.5 171.5,52.8 C171.1,53 170.7,53.2 170.3,53.4 C167.5,55 164.7,56.6 161.8,58.1 C159.2,59.4 156.3,60.1 153.3,59.5 C152.3,59.3 151.3,59 150.3,58.8 C149.7,58.2 149,57.6 148.4,57 C147,55.5 146.1,53.7 146.1,51.5 C146.2,41.8 146.1,32.1 146.1,22.4 C146.1,21.6 146,20.9 145.9,20.1 C145.3,18.1 144.1,17.6 142.3,18.7 C141,19.5 139.7,20.2 138.5,21.1 C138,21.4 137.6,22.2 137.6,22.7 C137.4,25.4 137.3,28.1 137.3,30.8 C137.3,36.7 137.4,42.6 137.5,48.5 C137.5,49.6 137.5,50.7 137.5,51.9 C137.4,54.6 136,56.5 133.8,57.8 C131.4,59.3 128.8,59.2 126.2,58.4 C123.5,56.4 122.6,53.7 122.6,50.4 C122.6,40.8 122.5,31.2 122.4,21.7 C122.4,21 122.5,20.2 121.4,20.3 C122.4,19.7 122.1,19 121.4,18.7 C120.8,18.4 119.9,18.3 119.3,18.6 C117.8,19.3 116.5,20.2 115,21 C113.8,21.6 113.4,22.4 113.5,23.8 C113.6,32.8 113.6,41.8 113.5,50.8 C113.5,52.6 113.1,54.6 112.2,56.1 C111.1,58 109,59 106.8,59.3 C105.5,59.5 104.1,59.3 102.8,59.3 C101.7,58 100.6,56.7 99.4,55.5 C98.9,54.7 98.4,54 98,53.3 C95,55 92.2,56.7 89.4,58.3 C86.7,59.8 83.8,60.4 80.8,59.2 C79.3,58.3 78.4,57.3 77.5,56.4 C77.3,56.2 76.9,56 76.7,55.8 C76.6,53.6 75.9,53.3 74,54.2 C70,56.1 65.9,57.9 61.8,59.6 C59.8,60.5 57.7,60.2 55.7,59.4 C55.1,59.2 54.6,58.9 54.1,58.7 C52.9,57.4 51.7,56.1 50.5,54.8 C50.2,54 49.9,53.2 49.5,52.3 C49,52.6 48.6,52.8 48.2,53.1 C45,55.4 41.5,57.2 37.7,58.6 C32.2,60.5 26.7,60.9 21.1,59.1 C17.9,58.1 15.1,56.4 12.3,54.6 C11.9,54.3 11.4,54.2 10.9,54 C5.6,49.7 2.3,44.2 1.2,37.5 C-0.3,29.3 1.1,21.4 5.5,14.2 C11.6,4 24.9,-1.4 36.2,1.7 C39.1,2.5 41.5,3.8 43.4,6.2 C44.1,7.8 44.7,9.4 44.6,11.3 C44.3,15.6 40.6,20.3 35.5,19.7 C34.1,19.5 32.7,19.3 31.4,19 C27.4,18.1 23.9,19.2 21.1,22 C16.5,26.5 17.1,34.1 21.1,38.8 C21.3,39 21.6,39 21.8,39.1 C23.3,41.3 25.7,41.8 28.1,42 C34.7,42.6 40.2,39.9 45.7,36.6 C48.2,35.1 49.1,33.5 49,30.5 C48.8,23.1 48.9,15.6 48.9,8.2 C48.9,4.8 50.3,2.7 53.3,1.5 C56.5,0.2 59.9,0.8 62,3.1 C62.4,3.5 62.7,3.9 63.1,4.2 C63.3,7.8 63.5,11.4 63.5,15 C63.6,23 63.5,30.9 63.5,38.9 C63.5,39.8 63.7,40.7 63.9,41.5 C64,41.8 64.6,42 64.9,42.3 C65,42 65.2,41.6 65.3,41.3 C65.4,40.9 65.3,40.4 65.3,40 C65.3,29.7 65.3,19.4 65.3,9.1 C65.4,9.7 65.5,10.3 65.5,10.9 C65.5,20.9 65.5,30.9 65.5,40.9 C65.5,42.7 65.8,42.9 67.3,42 C69.5,40.8 71.6,39.4 73.8,38.2 C74.6,37.8 74.6,37.1 74.6,36.4 C74.6,27.1 74.6,17.8 74.6,8.5 C74.6,5 76.1,2.7 79.1,1.5 C82.3,0.2 85.8,1 88,3.4 C88.3,3.8 88.7,4.1 89,4.4 C89.1,5.5 89.2,6.5 89.2,7.6 C89.2,18.2 89.2,28.8 89.2,39.5 C89.2,40.2 89.3,41 89.5,41.7 C90,42.2 90.6,42.7 91.4,42.2 Z M186.4,38.1 C187.2,38.8 187.9,39.7 188.8,40.2 C193.9,43.1 199.9,41.8 203.7,37.3 C207.6,32.5 206.7,24.7 202.5,22 C202.1,21.5 201.7,20.9 201.2,20.5 C198.4,18.5 195.2,17.9 191.8,18.6 C183.7,20.4 180,30.5 185.1,37 C185.5,37.6 186,37.8 186.4,38.1 Z"/>
    <path fill="#006FAB" d="M292.4 62.1C279.9 62.1 267.4 62.1 254.9 62.1 253.2 62.1 253.2 62.1 253.2 60.4 253.2 41.2 253.2 22 253.2 2.8 253.2 1.2 253.2 1.2 254.9 1.2 280 1.2 305 1.2 330.1 1.2 331.7 1.2 331.7 1.2 331.7 2.8 331.7 22.1 331.7 41.3 331.7 60.6 331.7 61.8 331.4 62.2 330.1 62.2 317.5 62.1 304.9 62.1 292.4 62.1zM308.1 12.9C308 14.1 307.9 14.9 307.9 15.7 307.9 16.5 307.6 17 306.8 17.4 305.9 17.8 305 18.3 303.8 18.9 304.9 19.4 305.8 19.8 306.8 20.2 307.7 20.5 308 21 307.9 21.9 307.8 22.8 307.9 23.7 307.9 24.5 309.1 23.8 309.9 22.9 310.8 22.2 311.2 21.9 311.8 21.8 312.3 21.8 313.1 21.9 313.9 22.2 315 22.4 314.2 20.9 313.9 19.4 312.4 18.7 311.7 18.4 311.2 17.4 311 16.6 310.5 15 309.3 14.2 308.1 12.9zM309.5 34.8C309.6 34.9 309.6 35 309.7 35.1 310.8 35 311.8 34.9 312.9 34.7 313.6 34.6 314.1 34.8 314.5 35.3 315 36 315.5 36.6 316 37.2 316.2 37.2 316.3 37.1 316.5 37.1 316.5 35.9 316.8 34.6 316.4 33.5 316 32.2 315.9 31.1 316.4 29.9 317 28.5 316.4 27.2 316.2 25.7 315.5 26.5 314.9 27 314.5 27.7 313.9 28.6 313.2 28.7 312.2 28.5 311.3 28.3 310.4 28.2 309.3 28 309.9 29.1 310.4 29.9 310.9 30.6 311.6 31.5 311.5 32.2 310.8 33 310.3 33.5 309.9 34.2 309.5 34.8zM275.6 34.9C274.9 33.9 274.3 33.1 273.8 32.4 273.3 31.8 273.3 31.3 273.7 30.7 274.3 29.8 274.8 28.9 275.5 27.7 274.2 27.9 273.2 28.1 272.3 28.3 271.5 28.5 270.9 28.3 270.4 27.6 269.9 26.9 269.3 26.3 268.6 25.5 268.4 27.3 267.9 28.7 268.6 30.3 268.9 31 268.9 32.2 268.5 32.9 267.8 34.4 268.6 35.5 268.8 36.9 269.4 36.4 269.8 35.9 270.2 35.4 270.7 34.6 271.3 34.3 272.2 34.5 273.1 34.7 274.2 34.8 275.6 34.9zM280.9 18.1C279.8 17.6 278.9 17.1 278 16.7 277.2 16.4 276.8 15.8 276.8 15 276.8 14.2 276.6 13.4 276.5 12.4 275.2 13.7 274 14.6 273.7 16.3 273.5 17.1 272.9 17.9 272.2 18.3 270.8 19.1 270.6 20.4 269.8 21.9 270.7 21.7 271.3 21.6 271.9 21.3 272.9 20.9 273.7 21.1 274.4 21.9 275 22.6 275.8 23.2 276.5 23.9 276.8 23.1 276.8 22.6 276.8 22 276.8 19.7 276.5 20.1 278.7 19.2 279.4 18.8 280 18.5 280.9 18.1zM279.2 52C280.5 52.8 281.6 53.5 283 53.6 284 53.6 285.2 53.7 285.8 54.3 287.1 55.5 288.5 55.4 290.3 55.7 289.8 55 289.5 54.4 289.1 53.9 288.3 53 288.3 52.2 288.9 51.2 289.4 50.4 289.7 49.6 290.2 48.5 289.1 48.8 288.4 48.9 287.7 49.2 286.6 49.7 285.9 49.4 285.3 48.5 284.8 47.8 284.2 47.2 283.4 46.4 283.3 47 283.1 47.3 283.1 47.7 283.2 49.9 282.2 51.3 280 51.8 279.9 51.6 279.7 51.7 279.2 52zM301.1 46.8C301 46.7 300.8 46.7 300.7 46.6 300.1 47.3 299.5 47.9 299 48.6 298.3 49.6 297.5 49.7 296.5 49.1 295.8 48.8 295.1 48.6 294 48.2 294.6 49.6 295.1 50.6 295.4 51.7 295.5 52.2 295.4 52.8 295.2 53.2 294.9 53.9 294.3 54.5 293.9 55.1 294 55.2 294 55.4 294.1 55.5 295.2 55.2 296.5 55.2 297.4 54.6 298.5 53.9 299.6 53.4 300.9 53.6 302.4 53.8 303.5 52.9 305.1 52.3 304.1 51.8 303.5 51.4 302.8 51.2 301.7 50.8 301.3 50.1 301.3 49 301.3 48.4 301.2 47.6 301.1 46.8zM304.6 10.9C304.6 10.7 304.6 10.6 304.7 10.4 303.6 10 302.5 9.4 301.3 9.3 300 9.2 298.9 9 297.9 8.1 296.8 7.1 295.4 7.2 293.8 7 294.3 7.8 294.5 8.3 294.9 8.8 295.8 9.8 295.7 10.8 295 11.9 294.6 12.5 294.3 13.2 293.8 14.1 294.8 13.9 295.5 13.8 296.1 13.6 298.1 13.1 298.1 13.1 299.2 14.8 299.6 15.3 299.9 15.8 300.5 16.6 300.7 15.5 301 14.7 301 13.9 301.1 12.5 301.7 11.7 303.1 11.4 303.7 11.3 304.1 11.1 304.6 10.9zM308.2 49.7C308.3 49.7 308.4 49.8 308.5 49.8 309.4 48.8 310.6 48.1 310.9 46.5 311 45.7 311.7 44.9 312.4 44.5 313.9 43.7 314.3 42.2 315.1 40.6 314 40.8 313.2 41 312.4 41.2 311.6 41.5 311 41.3 310.4 40.6 309.8 39.9 309 39.2 308.1 38.3 308 39.4 307.9 40.2 307.9 41 307.9 42.4 307.4 43.1 306 43.4 305.4 43.5 304.7 43.8 303.8 44.1 304.7 44.6 305.3 45.1 306 45.3 307.5 45.9 308.3 46.8 308 48.5 308.1 48.9 308.2 49.3 308.2 49.7zM279.4 10.4C279.4 10.5 279.4 10.6 279.4 10.7 280.1 11 280.9 11.3 281.6 11.6 282.4 11.9 282.8 12.3 282.9 13.2 283 14.2 283.2 15.1 283.4 16.3 284.2 15.3 284.9 14.7 285.4 13.9 286 13.1 286.6 13 287.4 13.3 288.2 13.6 289 13.8 290.2 14.1 289.6 12.9 289.2 12 288.7 11.2 288.1 10.3 288.2 9.5 288.9 8.7 289.3 8.2 289.5 7.7 290 6.8 288.4 7.2 287 6.9 285.8 8.1 285.2 8.7 284.1 9 283.3 8.9 281.8 8.9 280.7 9.8 279.4 10.4zM276.3 38.4C275.7 39 275.1 39.3 274.8 39.8 273.9 41.1 272.7 41.5 271.2 40.9 270.7 40.7 270.2 40.7 269.5 40.5 270.3 42 270.7 43.4 272.1 44.3 272.8 44.7 273.6 45.6 273.7 46.4 274 48 275.2 48.7 276.4 49.9 276.5 49 276.6 48.4 276.6 47.7 276.5 46.6 277.1 46 278.1 45.5 278.9 45.1 279.7 44.6 280.8 44 279.6 43.6 278.8 43.3 277.9 43 277.1 42.8 276.8 42.4 276.8 41.6 276.6 40.7 276.4 39.7 276.3 38.4zM300.3 5C299.2 5 298.4 5.8 298.4 6.9 298.4 7.9 299.3 8.8 300.3 8.8 301.3 8.8 302.2 7.9 302.2 6.9 302.2 5.7 301.4 4.9 300.3 5zM282.2 56C282.2 57 283.1 57.9 284.1 57.9 285.2 57.9 286 57.1 286 56 286 54.9 285.2 54.1 284.1 54.1 283.1 54.1 282.2 55 282.2 56zM284.1 8.4C285.2 8.4 286 7.6 286 6.5 286 5.4 285.2 4.6 284.1 4.6 283.1 4.6 282.2 5.5 282.2 6.5 282.2 7.6 283.1 8.4 284.1 8.4zM271.2 48.7C272.3 48.7 273.1 47.9 273.1 46.8 273.1 45.7 272.3 44.9 271.2 44.9 270.2 44.9 269.3 45.8 269.3 46.8 269.3 47.8 270.1 48.7 271.2 48.7zM320.3 31.8C320.3 30.7 319.5 29.9 318.4 29.9 317.4 29.9 316.5 30.8 316.5 31.8 316.5 32.8 317.4 33.7 318.4 33.7 319.5 33.7 320.3 32.8 320.3 31.8zM266.3 29.7C265.2 29.7 264.4 30.5 264.4 31.6 264.4 32.6 265.3 33.5 266.3 33.5 267.4 33.5 268.2 32.7 268.2 31.6 268.2 30.5 267.5 29.7 266.3 29.7zM273.2 16.1C273.3 15.1 272.5 14.1 271.5 14.1 270.4 14 269.6 14.7 269.5 15.7 269.4 16.8 270.1 17.8 271.2 17.9 272.2 17.9 273.1 17.2 273.2 16.1zM313.5 14.7C312.5 14.7 311.6 15.6 311.5 16.6 311.5 17.6 312.3 18.5 313.3 18.6 314.4 18.6 315.2 17.9 315.2 16.8 315.3 15.6 314.5 14.7 313.5 14.7zM315.3 46.8C315.3 45.7 314.5 44.9 313.4 44.9 312.4 44.9 311.5 45.8 311.5 46.8 311.5 47.8 312.3 48.7 313.4 48.7 314.4 48.7 315.3 47.9 315.3 46.8zM301.8 56.2C301.8 55.2 300.9 54.3 299.9 54.2 298.9 54.2 298 55 298 56.1 298 57.2 298.8 58 299.8 58 300.9 58.1 301.7 57.3 301.8 56.2zM102.6 59.5C103.9 59.5 105.3 59.6 106.6 59.5 108.8 59.2 110.9 58.2 112 56.3 112.9 54.8 113.3 52.8 113.3 51 113.4 42 113.4 33 113.3 24 113.3 22.7 113.6 21.8 114.8 21.2 116.3 20.5 117.6 19.5 119.1 18.8 119.7 18.5 120.6 18.7 121.2 18.9 121.9 19.3 122.2 20 121.2 20.5 119.6 21.5 117.9 22.4 116.3 23.5 115.9 23.8 115.4 24.5 115.4 25 115.4 33.2 115.4 41.5 115.4 49.7 115.4 51.7 115.1 53.8 114.9 55.8 114.7 57.5 113.8 58.8 112.3 59.8 110.1 61.2 107.8 62.1 105.3 61.3 104.4 61 103.6 60.1 102.6 59.5zM126.1 58.8C128.7 59.6 131.3 59.7 133.7 58.2 135.9 56.8 137.3 54.9 137.4 52.3 137.5 51.2 137.4 50.1 137.4 48.9 137.3 43 137.2 37.1 137.2 31.2 137.2 28.5 137.3 25.8 137.5 23.1 137.5 22.5 138 21.8 138.4 21.5 139.6 20.6 140.9 19.9 142.2 19.1 144 18 145.2 18.5 145.8 20.5 144.6 21.1 143.5 21.8 142.3 22.3 139.8 23.3 139.2 25 139.2 27.7 139.4 36.5 139.3 45.3 139.3 54.2 139.3 57.4 137.4 59.9 134.2 61 131.1 62 128.1 61.3 126.1 58.8zM21.8 39.1C21.6 39 21.3 38.9 21.1 38.8 17.1 34.1 16.4 26.5 21.1 22 24 19.2 27.4 18.1 31.4 19 32.8 19.3 34.1 19.5 35.5 19.7 40.6 20.3 44.3 15.6 44.6 11.3 44.7 9.5 44.1 7.9 43.4 6.2 46.4 8.6 47.4 12.6 45.9 16.1 44.1 20.4 40.8 22.2 36.3 21.5 35.1 21.3 33.9 21 32.8 20.8 26.1 19.7 20 24.8 19.8 31.6 19.7 34.4 20.6 36.7 21.8 39.1zM210.1 59C210.4 59 210.7 58.9 210.9 59 214 60.3 217 60 220.2 59.2 223.7 58.3 226.6 56.2 229.7 54.4 232.5 52.8 235.3 51.1 238.1 49.5 241 47.8 242.3 44.3 241.3 41 241.2 40.6 241.2 40.2 241.1 39.9 244.5 42.8 244.7 48.3 240.9 50.8 235.4 54.4 229.5 57.6 223.7 60.7 221 62.1 217.9 62.4 214.8 61.7 213 61.3 211.4 60.4 210.1 59zM10.7 53.9C11.2 54.1 11.7 54.2 12.1 54.5 14.9 56.3 17.7 58 20.9 59 26.5 60.8 32 60.5 37.5 58.5 41.3 57.2 44.8 55.4 48 53 48.3 52.8 48.7 52.6 49.3 52.2 49.7 53.1 50 53.9 50.3 54.7 46.6 57.4 42.5 59.4 38.2 60.8 30.9 63.1 24 62.2 17.5 58.4 15.1 57.2 13 55.5 10.7 53.9zM223.1 42.2C221.7 42 221.2 41.4 221.2 39.7 221.2 34 221.2 28.3 221.2 22.6 221.2 17.5 221.1 12.4 221 7.3 221 6.4 220.7 5.5 220.6 4.5 222.2 5.9 223 7.6 223 9.7 223 20.6 223 31.4 223.1 42.2zM91.4 42.2C90.6 42.7 90 42.2 89.8 41.5 89.6 40.8 89.5 40 89.5 39.3 89.5 28.7 89.5 18.1 89.5 7.4 89.5 6.3 89.4 5.3 89.3 4.2 90.9 5.4 91.5 7.1 91.5 9 91.4 20.1 91.4 31.2 91.4 42.2zM65.5 9.1C65.5 19.4 65.5 29.7 65.5 40 65.5 40.4 65.6 40.9 65.5 41.3 65.4 41.7 65.2 42 65.1 42.3 64.7 42 64.2 41.8 64.1 41.5 63.8 40.7 63.7 39.8 63.7 38.9 63.7 30.9 63.7 23 63.7 15 63.7 11.4 63.4 7.8 63.3 4.2 64.7 5.5 65.4 7.1 65.5 9.1zM163.3 13.2C163.2 13.8 163.1 14.5 163.1 15.1 163.1 23.6 163.1 32.1 163.1 40.5 163.1 41 162.7 41.6 162.6 42.1 162.2 41.6 161.7 41.1 161.5 40.6 161.3 40 161.3 39.3 161.3 38.7 161.3 30.1 161.2 21.5 161.4 12.9 161.5 9.9 161.3 7 160.6 4 162.8 5.6 163.2 8.1 163.4 10.5 163.4 11.4 163.3 12.3 163.3 13.2zM150.2 59C151.2 59.2 152.2 59.5 153.2 59.7 156.2 60.3 159 59.6 161.7 58.3 164.6 56.9 167.4 55.2 170.2 53.6 170.6 53.4 171 53.2 171.4 53 173.8 51.8 173.8 51.8 175.5 53.9 172.3 55.7 169.1 57.4 165.8 59.2 163 60.7 160.2 61.9 157 61.8 154.3 61.8 152 61 150.2 59zM176.5 54.9C178.3 55.8 180.1 57 182 57.7 189.1 60.4 196.1 60.2 202.8 56.4 203.6 56 204.3 55.5 204.9 54.9 205.6 54.2 206.1 54.4 206.5 55.2 206.8 55.7 207 56.2 207.2 56.7 200.4 62 192.9 62.7 184.9 60.2 181.8 59.1 178.8 57.4 176.5 54.9zM53.9 58.8C54.4 59 55 59.3 55.5 59.5 57.5 60.3 59.6 60.5 61.6 59.7 65.7 58 69.8 56.2 73.8 54.3 75.7 53.4 76.4 53.8 76.5 55.9 72.3 57.8 68.2 59.8 63.9 61.5 60.2 63 56.5 61.9 53.9 58.8zM80.1 59.3C80.3 59.3 80.5 59.3 80.7 59.3 83.7 60.5 86.6 59.9 89.3 58.4 92.2 56.8 95 55.2 97.9 53.4 98.3 54.1 98.8 54.8 99.3 55.6 96.5 57.3 93.8 59 90.9 60.5 88.8 61.7 86.4 62.2 83.9 61.6 82.4 61.3 81.1 60.5 80.1 59.3z"/>
    <path fill="#FFFFFF" d="M202.5,22.1 C206.6,24.8 207.6,32.6 203.7,37.4 C200,41.9 194,43.2 188.8,40.3 C187.9,39.8 187.2,38.9 186.4,38.2 C186.2,37.8 186,37.4 185.8,37 C183.5,31.9 185,26.1 189.5,22.8 C193.6,19.7 198,19.6 202.5,22.1 Z"/>
    <path fill="#006FAB" d="M202.5,22.1 C198,19.7 193.7,19.8 189.5,22.8 C185,26.1 183.5,31.9 185.8,37 C186,37.4 186.2,37.8 186.4,38.2 C186,37.9 185.5,37.6 185.1,37.2 C180,30.6 183.7,20.5 191.8,18.8 C195.2,18.1 198.3,18.7 201.2,20.7 C201.7,21 202.1,21.6 202.5,22.1 Z"/>
    <path fill="#FFFFFF" d="M308.1 12.9C309.3 14.2 310.5 15.1 310.9 16.6 311.1 17.4 311.6 18.4 312.3 18.7 313.8 19.5 314.1 20.9 314.9 22.4 313.8 22.1 313.1 21.8 312.2 21.8 311.7 21.7 311.1 21.9 310.7 22.2 309.8 22.9 309 23.7 307.8 24.5 307.8 23.6 307.8 22.7 307.8 21.9 307.9 21 307.5 20.5 306.7 20.2 305.8 19.9 304.9 19.4 303.7 18.9 304.8 18.3 305.7 17.8 306.7 17.4 307.5 17.1 307.8 16.6 307.8 15.7 307.9 14.9 308 14 308.1 12.9zM309.5 34.8C309.9 34.2 310.3 33.5 310.8 33 311.5 32.2 311.6 31.5 310.9 30.6 310.4 29.9 309.9 29 309.3 28 310.5 28.2 311.4 28.3 312.2 28.5 313.2 28.7 313.9 28.6 314.5 27.7 314.9 27.1 315.5 26.6 316.2 25.7 316.5 27.3 317 28.6 316.4 29.9 315.9 31.1 316 32.2 316.4 33.5 316.7 34.6 316.5 35.9 316.5 37.1 316.3 37.1 316.2 37.2 316 37.2 315.5 36.6 315 36 314.5 35.3 314.1 34.7 313.6 34.5 312.9 34.7 311.9 34.9 310.8 35 309.7 35.1 309.6 35 309.5 34.9 309.5 34.8zM275.6 34.9C274.2 34.7 273.1 34.7 272.1 34.5 271.2 34.3 270.6 34.6 270.1 35.4 269.7 36 269.3 36.5 268.7 36.9 268.5 35.6 267.8 34.4 268.4 32.9 268.7 32.1 268.8 31 268.5 30.3 267.8 28.7 268.3 27.3 268.5 25.5 269.2 26.3 269.8 26.9 270.3 27.6 270.8 28.3 271.4 28.5 272.2 28.3 273.2 28.1 274.1 28 275.4 27.7 274.7 28.9 274.2 29.8 273.6 30.7 273.2 31.3 273.2 31.8 273.7 32.4 274.4 33.1 274.9 33.9 275.6 34.9zM280.9 18.1C280 18.5 279.4 18.8 278.8 19.1 276.6 20.1 276.9 19.6 276.9 21.9 276.9 22.5 276.9 23.1 276.6 23.8 275.9 23.2 275.1 22.6 274.5 21.8 273.8 21 273 20.7 272 21.2 271.4 21.4 270.8 21.5 269.9 21.8 270.7 20.4 270.9 19 272.3 18.2 273 17.8 273.7 16.9 273.8 16.2 274.1 14.5 275.3 13.6 276.6 12.3 276.7 13.3 276.9 14.1 276.9 14.9 276.9 15.8 277.2 16.3 278.1 16.6 278.9 17.1 279.8 17.6 280.9 18.1zM279.2 52C279.7 51.7 279.9 51.6 280.1 51.6 282.3 51.2 283.3 49.8 283.2 47.5 283.2 47.2 283.3 46.8 283.5 46.2 284.2 47 284.9 47.6 285.4 48.3 286.1 49.2 286.8 49.5 287.8 49 288.5 48.7 289.2 48.6 290.3 48.3 289.8 49.4 289.4 50.3 289 51 288.4 52 288.4 52.8 289.2 53.7 289.6 54.2 289.9 54.7 290.4 55.5 288.7 55.2 287.2 55.3 285.9 54.1 285.3 53.5 284.1 53.4 283.1 53.4 281.6 53.5 280.5 52.8 279.2 52zM301.1 46.8C301.2 47.6 301.3 48.4 301.4 49.2 301.4 50.3 301.8 51 302.9 51.4 303.6 51.6 304.2 52 305.2 52.5 303.6 53.1 302.5 54 301 53.8 299.7 53.6 298.7 54 297.5 54.8 296.6 55.4 295.3 55.4 294.2 55.7 294.1 55.6 294.1 55.4 294 55.3 294.5 54.7 295 54.1 295.3 53.4 295.5 53 295.6 52.3 295.5 51.9 295.2 50.8 294.6 49.8 294.1 48.4 295.1 48.8 295.9 48.9 296.6 49.3 297.6 49.8 298.4 49.7 299.1 48.8 299.6 48.1 300.2 47.5 300.8 46.8 300.9 46.7 301 46.7 301.1 46.8zM304.6 10.9C304.1 11.1 303.7 11.3 303.2 11.4 301.8 11.7 301.2 12.5 301.1 13.9 301 14.7 300.8 15.5 300.6 16.6 300 15.8 299.6 15.4 299.3 14.8 298.1 13.2 298.2 13.2 296.2 13.6 295.6 13.7 294.9 13.9 293.9 14.1 294.4 13.2 294.6 12.5 295.1 11.9 295.9 10.8 295.9 9.8 295 8.8 294.6 8.4 294.4 7.8 293.9 7 295.5 7.1 296.9 7.1 298 8.1 299 9 300.1 9.2 301.4 9.3 302.5 9.3 303.6 10 304.8 10.4 304.6 10.6 304.6 10.7 304.6 10.9zM308.2 49.7C308.2 49.3 308 48.9 308.1 48.6 308.4 46.9 307.6 46 306.1 45.4 305.4 45.1 304.8 44.7 303.9 44.2 304.8 43.9 305.4 43.6 306.1 43.5 307.5 43.3 308 42.5 308 41.1 308 40.3 308.1 39.5 308.2 38.4 309.1 39.3 309.8 39.9 310.5 40.7 311.1 41.4 311.7 41.5 312.5 41.3 313.3 41.1 314.1 40.9 315.2 40.7 314.4 42.3 313.9 43.7 312.5 44.6 311.8 45 311.1 45.9 311 46.6 310.7 48.2 309.5 48.9 308.6 49.9 308.4 49.7 308.3 49.7 308.2 49.7zM279.4 10.4C280.7 9.8 281.8 8.9 283.4 9 284.2 9.1 285.3 8.7 285.9 8.2 287 7 288.4 7.3 290.1 6.9 289.6 7.7 289.4 8.3 289 8.8 288.3 9.6 288.3 10.4 288.8 11.3 289.3 12.1 289.7 13.1 290.3 14.2 289.2 13.9 288.3 13.7 287.5 13.4 286.6 13.1 286 13.2 285.5 14 285 14.8 284.3 15.5 283.5 16.4 283.3 15.2 283 14.2 283 13.3 282.9 12.4 282.5 12 281.7 11.7 281 11.5 280.2 11.1 279.5 10.8 279.4 10.6 279.4 10.5 279.4 10.4zM276.3 38.4C276.4 39.7 276.6 40.7 276.6 41.6 276.6 42.4 277 42.8 277.7 43 278.6 43.2 279.4 43.6 280.6 44 279.5 44.6 278.8 45.1 277.9 45.5 276.9 45.9 276.4 46.5 276.4 47.7 276.4 48.3 276.3 48.9 276.2 49.9 275.1 48.7 273.8 48.1 273.5 46.4 273.4 45.6 272.6 44.7 271.9 44.3 270.5 43.4 270.1 42.1 269.3 40.5 270.1 40.7 270.6 40.7 271 40.9 272.5 41.6 273.7 41.2 274.6 39.8 275.1 39.4 275.7 39 276.3 38.4z"/>
    <path fill="#FEFEFE" d="M300.3 5C301.4 5 302.2 5.8 302.2 6.8 302.2 7.8 301.3 8.7 300.3 8.7 299.3 8.7 298.4 7.9 298.4 6.8 298.3 5.8 299.1 5 300.3 5zM282.2 56C282.2 55 283.1 54.1 284.1 54.1 285.2 54.1 286 54.9 286 56 286 57.1 285.2 57.9 284.1 57.9 283.1 57.9 282.2 57.1 282.2 56zM284.1 8.4C283 8.4 282.2 7.6 282.2 6.5 282.2 5.5 283.1 4.6 284.1 4.6 285.2 4.6 286 5.4 286 6.5 286 7.6 285.2 8.4 284.1 8.4zM271.2 48.7C270.2 48.7 269.3 47.8 269.3 46.8 269.3 45.8 270.2 44.9 271.2 44.9 272.2 44.9 273.1 45.7 273.1 46.8 273.1 47.9 272.2 48.7 271.2 48.7zM320.3 31.8C320.3 32.9 319.5 33.7 318.4 33.7 317.4 33.7 316.5 32.8 316.5 31.8 316.5 30.8 317.4 29.9 318.4 29.9 319.5 29.8 320.3 30.7 320.3 31.8zM266.3 29.7C267.4 29.7 268.2 30.5 268.2 31.6 268.2 32.7 267.4 33.5 266.3 33.5 265.3 33.5 264.4 32.6 264.4 31.6 264.4 30.5 265.3 29.7 266.3 29.7zM273.2 16.1C273.1 17.1 272.2 17.9 271.1 17.8 270 17.7 269.3 16.8 269.4 15.6 269.5 14.6 270.4 13.9 271.4 14 272.5 14.2 273.3 15.1 273.2 16.1zM313.5 14.7C314.5 14.7 315.3 15.6 315.3 16.7 315.3 17.8 314.5 18.6 313.4 18.5 312.3 18.5 311.5 17.6 311.6 16.5 311.6 15.5 312.5 14.6 313.5 14.7zM315.3 46.8C315.3 47.9 314.5 48.7 313.4 48.7 312.3 48.7 311.5 47.9 311.5 46.8 311.5 45.8 312.4 44.9 313.4 44.9 314.4 44.9 315.3 45.8 315.3 46.8zM301.8 56.2C301.8 57.3 300.9 58 299.8 58 298.7 58 297.9 57.2 298 56.1 298 55 298.9 54.2 299.9 54.2 300.9 54.3 301.8 55.3 301.8 56.2z"/>
    <g fill="#347BB3" stroke="#347BB3" stroke-width="3" transform="translate(381 1)">
      <polygon points="1 24 16 24 16 23.329 1.725 23.329 1.725 1 1 1"/>
      <path d="M29.7844408 23.0537913C30.8647128 22.4198047 31.7915311 21.5476478 32.4967519 20.5014458L31.947754 20.1092885C31.2734948 21.0508777 30.4172526 21.842505 29.4315136 22.4356451 28.4027883 23.0747787 27.2188152 23.4086084 26.0133481 23.3994214 25.0497777 23.4119602 24.093022 23.2336124 23.196466 22.8743295 22.3343293 22.5257295 21.5530565 21.9982951 20.902439 21.3256407 20.2310262 20.6230188 19.692649 19.8006055 19.3142665 18.899583 18.8908097 17.8952811 18.6686172 16.815156 18.6606976 15.7224446L33 15.7224446 33 15.5895099C33.0000239 14.5529479 32.857023 13.5215101 32.5751802 12.5253659 32.2985416 11.5281371 31.8444253 10.5909562 31.2353639 9.76032486 30.6206183 8.93303549 29.8354241 8.25246593 28.9348012 7.76630489 27.9255718 7.23743975 26.8019692 6.97462037 25.6669566 7.00193057 24.6099863 6.99561697 23.5642302 7.22238114 22.6017183 7.66660389 21.6825113 8.08643665 20.8556985 8.6899576 20.1704418 9.44128167 19.4740216 10.2136891 18.9323487 11.1167646 18.5757336 12.099975 18.1905097 13.1639726 17.9957227 14.2895208 18.000593 15.4233416L18.000593 15.4898089C17.9869435 16.7008026 18.2090662 17.9025727 18.6541619 19.025871 19.0528911 20.0198769 19.6415749 20.9235536 20.3861196 21.6845643 21.1135487 22.4232586 21.9806412 23.0043585 22.9350384 23.3927747 23.9169105 23.7972899 24.9670526 24.0027584 26.0264195 23.9976274 27.3396417 24.0313348 28.6376209 23.7053442 29.7844408 23.0537913zM18.673769 15.0777114C18.7080467 14.064264 18.9113671 13.0641033 19.2750524 12.1199152 19.6044716 11.249054 20.0947557 10.4503688 20.7194397 9.76697159 21.3280527 9.1090796 22.0588918 8.58044138 22.8696815 8.21163602 23.7343488 7.82560764 24.670453 7.63293917 25.614671 7.64666369 26.5905292 7.63376535 27.554895 7.86184691 28.4250175 8.31133702 29.2228394 8.72256945 29.9282608 9.29740013 30.496831 9.99960726 31.0683165 10.7024128 31.5110557 11.5038784 31.8039689 12.3658443 32.1030461 13.2445248 32.2769157 14.1622174 32.3202883 15.0910049L18.673769 15.0777114zM47 22L47.672 22 47.672 13.9143252C47.6850846 13.0948818 47.8301448 12.2832673 48.1013333 11.512198 48.3901395 10.663164 48.8103112 9.8671739 49.3457778 9.1546726 49.8718716 8.43841411 50.5239323 7.82903467 51.2684444 7.35785597 52.0421602 6.87042935 52.9361939 6.62054381 53.8444444 6.63785498L54 6.63785498 54 6.00068597C53.2051626 5.98818599 52.4166111 6.1466458 51.6853333 6.46581935 51.010886 6.76745999 50.3920969 7.18558507 49.856 7.70192724 49.3311663 8.20766069 48.8843031 8.79201057 48.5306667 9.43502697 48.1905083 10.0384068 47.9191026 10.6797728 47.7217778 11.346534L47.7217778 6.38935907 47 6.38935907 47 22zM67.792371 23.008056C68.869804 22.3854722 69.7939271 21.5301351 70.4969706 20.50477L69.9482113 20.1201506C69.2742451 21.0436411 68.418375 21.8200523 67.4330643 22.4017914 66.404786 23.02864 65.2213275 23.3560531 64.0163842 23.3470427 63.0611518 23.3518182 62.1139784 23.1725252 61.2268576 22.8190058 60.366239 22.4809509 59.5853943 21.9681531 58.9338275 21.3131228 58.2627065 20.6240062 57.7245632 19.8174008 57.3463452 18.9336973 56.9230724 17.9486994 56.7009765 16.8893358 56.6930603 15.8176278L71 15.8176278 71 15.6872483C70.9978142 14.6703085 70.8526773 13.6587023 70.568832 12.6820013 70.2923136 11.7039406 69.8383947 10.7847736 69.2295979 9.97010813 68.6151194 9.1587204 67.8302664 8.49123231 66.930035 8.01441595 65.9212441 7.49571632 64.7981298 7.23794869 63.6636104 7.26473395 62.6070994 7.2585417 61.5617977 7.48094715 60.5997041 7.91663135 59.6808966 8.32839434 58.8544431 8.92031479 58.1694842 9.65719739 57.4735007 10.4148587 56.9320801 11.3005482 56.575469 12.264787 56.1904125 13.3083332 55.9957101 14.4122467 56.0005783 15.5242739L56.0005783 15.5894637C55.9871071 16.7771653 56.2091269 17.9558024 56.6538632 19.0575578 57.0525728 20.0323765 57.6409819 20.9186547 58.3850682 21.6651474 59.0946478 22.4087261 59.9480773 23.000866 60.8936823 23.4057134 61.8751277 23.8024533 62.9248135 24.0039724 63.98372 23.99894 65.3200983 24.0216522 66.6372228 23.6789804 67.792371 23.008056zM56.6865274 15.1852873C56.719439 14.1938981 56.9204469 13.2152395 57.2810167 12.2908629 57.6102927 11.4367409 58.1003638 10.6534075 58.7247764 9.98314608 59.3388803 9.33578405 60.0762394 8.81718291 60.8936823 8.45770618 61.7579738 8.0790978 62.6936712 7.89013267 63.637479 7.9035934 64.6129131 7.89094297 65.5768598 8.1146405 66.4466041 8.55549079 67.2440794 8.95881877 67.9491943 9.52260042 68.5175173 10.2113102 69.0888718 10.9005265 69.5314311 11.6866089 69.8240871 12.5320649 70.1230344 13.3938559 70.2968285 14.2939092 70.3401822 15.2048442L56.6865274 15.1852873zM63.2193766 4.61151156L63.6636104 4.61151156 66.7601809 1.35202459 65.9958375 1 63.2193766 4.61151156zM83.5797724 22.6729639C84.2254591 22.4994815 84.8361444 22.2187032 85.3853664 21.8427954 85.8770611 21.5050518 86.2842707 21.0620621 86.57629 20.5472294 86.8586243 20.0426393 87.0041441 19.4752243 86.9988758 18.8994707L86.9988758 18.8365791C87.0147785 18.247232 86.8616903 17.6653633 86.5570815 17.1573747 86.2494705 16.6821662 85.8356057 16.2821008 85.3469495 15.9875918 84.7791058 15.6444662 84.1733414 15.3659503 83.5413556 15.1574233 82.8498515 14.9226281 82.1177963 14.7025077 81.3451899 14.4970619 80.6536859 14.3125801 80.0134043 14.1176162 79.4243453 13.9121705 78.8747475 13.726749 78.3450357 13.4887131 77.84285 13.2014959 77.4192029 12.9671869 77.050517 12.6479027 76.7607742 12.2644118 76.4921221 11.8803253 76.3552916 11.4220381 76.3702025 10.9562675L76.3702025 10.8807976C76.3733874 9.94343606 76.8541117 9.06988325 77.6507655 8.55381013 78.6802288 7.87913406 79.9045746 7.55034661 81.1402998 7.61672598 82.0119734 7.62771507 82.8763806 7.77417836 83.7014259 8.0506777 84.5926599 8.34607054 85.4342271 8.76998235 86.1985239 9.30850877L86.57629 8.7550631C84.9819218 7.65285952 83.0894983 7.04200723 81.1402998 7.00038876 80.3818403 6.99278874 79.6264891 7.09666071 78.8993145 7.30855737 78.2775785 7.48676055 77.6939809 7.77444498 77.1769572 8.15759334 76.7267189 8.49731656 76.3537776 8.92576224 76.0820758 9.41542442 75.8250954 9.8784299 75.6907859 10.3974805 75.691504 10.9248217L75.691504 10.9877133C75.6737436 11.5333907 75.8159801 12.07259 76.1012842 12.5411346 76.391913 12.9816728 76.7763879 13.3550312 77.2281797 13.6354477 77.7723767 13.972242 78.3574755 14.240582 78.9697455 14.4341704 79.6484439 14.66058 80.3847676 14.8869896 81.1787167 15.1133992L83.0483388 15.6668448C83.6279363 15.8353134 84.186368 16.067379 84.7130708 16.3586519 85.1758907 16.6109696 85.5777611 16.9585094 85.8911888 17.3774951 86.1960473 17.8179208 86.3507374 18.342018 86.332983 18.8743141L86.332983 18.9372056C86.3355685 19.4193595 86.205015 19.8931807 85.9552169 20.3082415 85.6927086 20.7413764 85.3390733 21.1144643 84.9179608 21.4025545 84.4417886 21.7283998 83.91072 21.9689935 83.3492711 22.1132291 82.7040647 22.2822767 82.038536 22.3647844 81.3708012 22.3585062 80.3148066 22.3543913 79.2678587 22.1670291 78.2782414 21.8050605 77.2323956 21.4283275 76.261635 20.8749407 75.4097802 20.1698801L75 20.69188C75.8918255 21.418516 76.9058645 21.9867686 77.9965175 22.3710845 79.0641735 22.7725382 80.1956717 22.9854525 81.3387871 23 82.0976458 22.994073 82.8519372 22.8839962 83.5797724 22.6729639zM103.790977 23.0536373C104.868878 22.4188581 105.793403 21.5467664 106.496752 20.5013162L105.947754 20.1091627C105.273495 21.0507429 104.417253 21.8423626 103.431514 22.435497 102.402788 23.0746245 101.218815 23.408451 100.013348 23.3992641 99.0577004 23.4041331 98.1101152 23.2213281 97.2226087 22.8608838 96.3604721 22.5122871 95.5791992 21.9848579 94.9285818 21.3122099 94.257169 20.6095947 93.7187918 19.7871893 93.3404093 18.8861755 92.9169525 17.8818832 92.69476 16.8017685 92.6868403 15.7090675L107 15.7090675 107 15.5761341C106.998804 14.5440352 106.855815 13.5171679 106.57518 12.5253129 106.298542 11.5280936 105.844425 10.5909218 105.235364 9.76029837 104.620618 8.93301694 103.835424 8.25245391 102.934801 7.76629754 101.925572 7.23743747 100.801969 6.97462061 99.6669566 7.00193055 98.6099863 6.99561701 97.5642302 7.222379 96.6017183 7.6665975 95.6825113 8.08642622 94.8556985 8.68994138 94.1704418 9.44125824 93.4740216 10.2136582 92.9323487 11.1167251 92.5757336 12.099926 92.1905097 13.1639135 91.9957227 14.2894509 92.000593 15.4232607L92.000593 15.4897274C91.9869435 16.7007095 92.2090662 17.9024681 92.6541619 19.0257556 93.0528911 20.019752 93.6415749 20.92342 94.3861196 21.6844234 95.1135487 22.4231106 95.9806412 23.0042049 96.9350384 23.3926174 97.9169105 23.7971287 98.9670526 24.0025952 100.026419 23.9974643 101.341845 24.03237 102.642236 23.7063439 103.790977 23.0536373zM92.6803047 15.0776339C92.7132305 14.0668251 92.9143258 13.0689963 93.2750524 12.1265127 93.6044716 11.2556599 94.0947557 10.4569824 94.7194397 9.77359171 95.3280527 9.11570603 96.0588918 8.58707288 96.8696815 8.21827106 97.7343488 7.83224639 98.670453 7.63957976 99.614671 7.65330416 100.590529 7.64040593 101.554895 7.86848531 102.425017 8.3179711 103.222839 8.72919959 103.928261 9.30402475 104.496831 10.0062251 105.068434 10.708942 105.511186 11.5104225 105.803969 12.3724395 106.103046 13.2511115 106.276916 14.1687953 106.320288 15.0975739L92.6803047 15.0776339zM125.348805 29L126 29 126 7.39457649 125.348805 7.39457649 125.348805 12.4652371C125.119179 11.6896604 124.774334 10.9550552 124.326429 10.2873249 123.879796 9.62106723 123.329861 9.03431327 122.698441 8.55033971 122.044828 8.05258389 121.316907 7.6667827 120.542986 7.40793791 119.714748 7.13112294 118.848333 6.99350623 117.977278 7.00041446 116.879559 6.98892005 115.791968 7.21662967 114.786422 7.66848569 112.847741 8.5359921 111.334632 10.17268 110.592727 12.2046893 110.194892 13.2707772 109.993941 14.4035177 110.000139 15.5450455L110.000139 15.6118526C109.993941 16.7533803 110.194892 17.8861208 110.592727 18.9522087 111.334632 20.9842181 112.847741 22.620906 114.786422 23.4884124 115.791968 23.9402684 116.879559 24.167978 117.977278 24.1564836 118.848333 24.1633918 119.714748 24.0257751 120.542986 23.7489601 121.320904 23.4826678 122.051182 23.0877564 122.704953 22.5798355 123.336451 22.0959524 123.886399 21.5091843 124.332941 20.8428503 124.780936 20.1751737 125.125788 19.4405536 125.355317 18.6649381L125.348805 29zM115.027364 22.8804676C114.149313 22.484394 113.361834 21.9040806 112.715622 21.1768859 112.068425 20.4423594 111.564427 19.5873985 111.230898 18.6582574 110.874895 17.6728499 110.696176 16.6293366 110.70343 15.578449L110.70343 15.5116419C110.696176 14.4607544 110.874895 13.4172411 111.230898 12.4318335 111.561765 11.5053748 112.066151 10.6542937 112.715622 9.92656644 113.363723 9.20993338 114.151302 8.64092688 115.027364 8.25638837 115.969761 7.84404536 116.985371 7.63702425 118.009837 7.64844355 119.035541 7.64397726 120.049534 7.87210678 120.979287 8.31651478 122.761017 9.15340921 124.148761 10.6779537 124.840873 12.5587671 125.201916 13.5199341 125.385209 14.5417089 125.381365 15.5717683L125.381365 15.6385754C125.387912 16.6732212 125.204556 17.6998851 124.840873 18.6649381 124.493247 19.5905206 123.978478 20.4404835 123.323589 21.1702052 122.665694 21.8960743 121.873094 22.4798089 120.992311 22.8871483 120.057417 23.3299413 119.039548 23.5579431 118.009837 23.5552195 116.98016 23.5510067 115.963265 23.3209454 115.027364 22.8804676zM143.021529 22.5397593C144.466205 22.0070761 145.682619 21.070875 146.491587 19.8690624 146.817812 19.392999 147.068119 18.8780493 147.235171 18.3393075L147.235171 22.616247 148 22.616247 148 7 147.235171 7 147.235171 15.6494887C147.243289 16.5477165 147.060608 17.4390647 146.696958 18.2755678 146.355464 19.0644618 145.856215 19.79034 145.223953 20.4172245 144.612093 21.0230794 143.870079 21.51096 143.042774 21.8513696 142.196047 22.1986765 141.275099 22.3749006 140.344626 22.3676619 139.35947 22.3852689 138.380812 22.2203811 137.469435 21.8832395 136.672952 21.5831133 135.963226 21.1230948 135.394482 20.5383301 134.820261 19.9329227 134.395427 19.2246616 134.148094 18.4604131 133.851157 17.5824559 133.703134 16.6691916 133.709025 15.7514723L133.709025 7 133.00085 7 133.00085 15.840708C132.986602 16.8374849 133.151614 17.8297719 133.489491 18.7791121 133.786749 19.6079825 134.268685 20.3735857 134.905841 21.0291264 135.531417 21.662363 136.308752 22.1593078 137.179083 22.4823935 138.171011 22.8415262 139.233159 23.0171167 140.302136 22.9986857 141.233308 23.008125 142.157405 22.8521737 143.021529 22.5397593zM170.549498 23.5969571C171.322853 23.3325501 172.04864 22.9424265 172.698441 22.4418613 173.329939 21.9637845 173.879887 21.3840573 174.326429 20.725719 174.774424 20.0660541 175.119276 19.3402491 175.348805 18.5739405L175.348805 23.583756 176 23.583756 176 0 175.348805 0 175.348805 12.4486325C175.119179 11.6823623 174.774334 10.9565719 174.326429 10.296854 173.879796 9.63859106 173.329861 9.05887783 172.698441 8.58071168 172.044828 8.08892865 171.316907 7.70775686 170.542986 7.45201807 169.714748 7.17852472 168.848333 7.04255934 167.977278 7.04938467 166.879559 7.03802818 165.791968 7.26300541 164.786422 7.70943942 162.847741 8.56653623 161.334632 10.1835848 160.592727 12.1912111 160.194892 13.2445066 159.993941 14.3636548 160.000139 15.4914849L160.000139 15.5574903C159.993941 16.6853204 160.194892 17.8044686 160.592727 18.8577641 161.334632 20.8653904 162.847741 22.482439 164.786422 23.3395358 165.791968 23.7859698 166.879559 24.010947 167.977278 23.9995905 168.850515 24.0071289 169.719185 23.8711547 170.549498 23.5969571zM165.027364 22.7388859C164.142309 22.3499592 163.34798 21.7764685 162.696086 21.0557463 162.048889 20.3300338 161.544892 19.4853319 161.211362 18.56734 160.855359 17.5937568 160.67664 16.5627651 160.683894 15.5244876L160.683894 15.4584821C160.67664 14.4202046 160.855359 13.3892129 161.211362 12.4156297 161.542988 11.5026306 162.047336 10.6640668 162.696086 9.947025 163.344187 9.23899114 164.131766 8.6768124 165.007829 8.29688814 165.950225 7.88949301 166.965835 7.68495604 167.990302 7.69623832 169.016005 7.69182562 170.029998 7.91721771 170.959751 8.35629307 172.747609 9.17739012 174.142706 10.6816276 174.840873 12.5410401 175.201916 13.4906737 175.385209 14.5001877 175.381365 15.517887L175.381365 15.5838925C175.387912 16.6061231 175.204556 17.6204676 174.840873 18.5739405 174.493247 19.4884165 173.978478 20.3281803 173.323589 21.0491458 172.665694 21.7663049 171.873094 22.343035 170.992311 22.7454865 170.057417 23.1829663 169.039548 23.4082322 168.009837 23.4055412 166.98016 23.401379 165.963265 23.1740783 165.027364 22.7388859zM193.792371 22.0661599C194.869804 21.4314112 195.793927 20.5593614 196.496971 19.5139613L195.948211 19.1218266C195.274245 20.0633616 194.418375 20.8549434 193.433064 21.4480493 192.404786 22.0871461 191.221328 22.4209566 190.016384 22.4117701 189.061152 22.416639 188.113978 22.2338427 187.226858 21.8734157 186.365096 21.5248358 185.584162 20.9974318 184.933828 20.3248161 184.262707 19.6222346 183.724563 18.7998686 183.346345 17.8988981 182.923072 16.8946539 182.700976 15.814591 182.69306 14.7219425L197 14.7219425 197 14.5890155C196.9979 13.552199 196.852762 12.5208145 196.568832 11.5250478 196.292314 10.5278764 195.838395 9.59074953 195.229598 8.76016597 194.615119 7.93292422 193.830266 7.25239383 192.930035 6.76626078 191.921244 6.23742608 190.79813 5.97462183 189.66361 6.00193046 188.607099 5.99561722 187.561798 6.22236833 186.599704 6.66656552 185.680897 7.08637411 184.854443 7.68986032 184.169484 8.44114114 183.473501 9.21360669 182.93208 10.116602 182.575469 11.0996814 182.190412 12.1636178 181.99571 13.2891012 182.000578 14.4228567L182.000578 14.4893202C181.987107 15.7002288 182.209127 16.9018957 182.653863 18.0251787 183.052573 19.0190448 183.640982 19.9226404 184.385068 20.683719 185.112181 21.4223708 185.978897 22.0034372 186.932879 22.3918311 187.914325 22.796323 188.964011 23.0017797 190.022917 22.996649 191.338768 23.0368089 192.640929 22.7153705 193.792371 22.0661599zM182.686527 14.0905392C182.719439 13.0797789 182.920447 12.0819979 183.281017 11.1395595 183.610293 10.2687485 184.100364 9.47010927 184.724776 8.78675137 185.333125 8.12889725 186.063646 7.60028946 186.874084 7.23150533 187.738375 6.84549917 188.674073 6.65284178 189.61788 6.66656552 190.593315 6.65366792 191.557261 6.88173635 192.427006 7.33120059 193.222063 7.73462736 193.926993 8.30022472 194.497919 8.99278824 195.069273 9.69547143 195.511833 10.4969134 195.804489 11.3588891 196.103436 12.237519 196.27723 13.1551588 196.320584 14.0838928L182.686527 14.0905392zM209.303595 22.6415181C210.002982 22.4667717 210.664164 22.1838307 211.258248 21.8050605 211.788814 21.4674824 212.228119 21.0244557 212.542932 20.5094945 212.847494 20.0049043 213.00447 19.4374893 212.998787 18.8617358L212.998787 18.7988442C213.015942 18.2094971 212.850801 17.6276284 212.522211 17.1196397 212.190382 16.6444312 211.743934 16.2443658 211.216807 15.9498568 210.604258 15.6067313 209.950802 15.3282154 209.269061 15.1196883 208.523116 14.8848932 207.733427 14.6647728 206.899994 14.459327 206.154049 14.2748451 205.463359 14.0798813 204.827924 13.8744356 204.235057 13.6890141 203.663641 13.4509782 203.121919 13.163761 202.664919 12.929452 202.267207 12.6101678 201.954653 12.2266769 201.66485 11.8425903 201.517247 11.3843031 201.533332 10.9185325L201.533332 10.8493518C201.536768 9.91199029 202.055339 9.03843747 202.914712 8.52236435 204.017526 7.8529353 205.327631 7.52438327 206.651345 7.5852802 207.591645 7.59626929 208.524106 7.74273258 209.414106 8.01923192 210.375506 8.31462477 211.283328 8.73853658 212.107797 9.277063L212.515304 8.72361733C210.783706 7.62782382 208.732215 7.02778374 206.623718 7.00038876 205.805546 6.99278874 204.990727 7.09666071 204.206303 7.30855737 203.535618 7.48676055 202.906075 7.77444498 202.348346 8.15759334 201.862661 8.49731656 201.460359 8.92576224 201.167266 9.41542442 200.890054 9.8784299 200.745171 10.3974805 200.745945 10.9248217L200.745945 10.9877133C200.726787 11.5333907 200.880221 12.07259 201.187987 12.5411346 201.501497 12.9816728 201.916241 13.3550312 202.403601 13.6354477 202.990642 13.972242 203.621805 14.240582 204.282278 14.4341704 205.01441 14.66058 205.808704 14.8869896 206.665159 15.1133992L208.681974 15.6668448C209.307203 15.8353134 209.909599 16.067379 210.477769 16.3586519 210.977026 16.6109696 211.410535 16.9585094 211.748638 17.3774951 212.077498 17.8179208 212.244367 18.342018 212.225214 18.8743141L212.225214 18.9372056C212.228003 19.4193595 212.087172 19.8931807 211.817707 20.3082415 211.534532 20.7413764 211.153055 21.1144643 210.698789 21.4025545 210.185129 21.7283998 209.61225 21.9689935 209.006599 22.1132291 208.310596 22.2822767 207.592671 22.3647844 206.872366 22.3585062 205.733235 22.3543913 204.603862 22.1670291 203.536333 21.8050605 202.408149 21.4283275 201.360962 20.8749407 200.442042 20.1698801L200 20.69188C200.962038 21.418516 202.055911 21.9867686 203.23243 22.3710845 204.384141 22.7725382 205.60472 22.9854525 206.837832 23 207.674305 22.9880126 208.50461 22.8672998 209.303595 22.6415181zM240.224886 24.654795C241.747226 24.2705144 243.176777 23.5474335 244.420374 22.5326765 244.981776 22.073738 245.509832 21.5699236 246 21.025567L245.507157 20.5322082C245.056147 21.0565609 244.563573 21.5381985 244.034945 21.9717344 243.47097 22.4367802 242.863217 22.837688 242.221534 23.1679604 241.537143 23.5183069 240.821694 23.7945221 240.085879 23.9924777 239.276034 24.2093431 238.443846 24.3160663 237.609024 24.3101197 236.2381 24.3173661 234.882787 23.9988109 233.641003 23.3774689 232.445184 22.7938204 231.370924 21.9596174 230.48175 20.9241919 229.590292 19.8720684 228.887737 18.6532364 228.40928 17.3287556 227.90128 15.9470808 227.643955 14.4745602 227.65106 12.989902L227.65106 12.9223186C227.644302 11.4455296 227.897225 9.98055012 228.396643 8.60374004 228.871683 7.28049014 229.569873 6.06179965 230.456476 5.00830374 231.3426 3.96578777 232.417396 3.12657038 233.615729 2.54151004 234.867606 1.92602744 236.2313 1.61445495 237.609024 1.62913428 238.488854 1.61840672 239.366818 1.7182123 240.224886 1.92650119 240.948145 2.10627499 241.649836 2.37383768 242.316311 2.72398519 242.91175 3.04040212 243.476793 3.4184198 244.003352 3.85262779 244.482839 4.2669717 244.942563 4.70681803 245.380786 5.17050387L245.842037 4.67714513C245.344982 4.16801693 244.82897 3.68817487 244.294003 3.23761894 243.742909 2.77580912 243.145254 2.38137383 242.512185 2.06166797 241.815759 1.71422209 241.084342 1.45344504 240.3323 1.284459 239.436557 1.08656109 238.523636.991406265 237.609024 1.00060876 236.150138.987801518 234.705943 1.31288552 233.375626 1.95353455 232.10151 2.57436311 230.954804 3.45865785 230.001544 4.55549503 229.044844 5.66182273 228.294266 6.95322487 227.790067 8.36043984 227.258631 9.83488947 226.99072 11.4029509 227.000253 12.9831437L227.000253 13.050727C226.99057 14.6309338 227.258486 16.1990249 227.790067 17.6734309 228.291465 19.078101 229.042451 20.3656148 230.001544 21.464859 230.955193 22.5577765 232.102006 23.4375604 233.375626 24.0533028 234.704054 24.6921052 236.146273 25.0149239 237.602706 24.9994702 238.486349 24.9944769 239.366405 24.878797 240.224886 24.654795zM261.001559 23.3223892C262.00929 22.8912645 262.918547 22.2620963 263.67448 21.472839 264.418913 20.6882167 265.002218 19.7672973 265.391831 18.7614914 265.798377 17.7216018 266.004642 16.6152719 265.999921 15.4999192L265.999921 15.433627C266.003355 14.3270007 265.797077 13.2295948 265.391831 12.1985716 265.002999 11.1916932 264.411897 10.2737422 263.654433 9.50048242 262.891847 8.72230893 261.984032 8.09864136 260.981512 7.66419074 259.884438 7.20663557 258.703301 6.9808643 257.513397 7.00126955 256.309649 6.98408241 255.116008 7.22136582 254.011871 7.69733679 251.982961 8.57491624 250.395717 10.2260116 249.608234 12.2781222 249.202835 13.3091019 248.996552 14.4065369 249.000145 15.5131776L249.000145 15.5794697C248.993742 16.6906661 249.200093 17.7929621 249.608234 18.8277835 250.003924 19.8174676 250.594573 20.7189395 251.345633 21.4794683 252.964564 23.129384 255.1995 24.0412108 257.52008 23.9985688 258.715103 24.0131549 259.900306 23.7829625 261.001559 23.3223892zM254.372715 22.7390185C252.49937 21.941555 251.02636 20.4324934 250.283147 18.5493566 249.898565 17.5874244 249.703483 16.5612556 249.708469 15.526436L249.708469 15.4601439C249.702244 14.4270545 249.890338 13.4018786 250.2631 12.4372233 250.980392 10.5534201 252.440109 9.04067322 254.305892 8.24756138 256.324541 7.42501842 258.588655 7.42501842 260.607303 8.24756138 262.490846 9.03687777 263.972923 10.5478219 264.716919 12.4372233 265.101182 13.399247 265.296252 14.4253541 265.291597 15.4601439L265.291597 15.526436C265.297665 16.5595119 265.109576 17.5846593 264.736966 18.5493566 264.019674 20.4331598 262.559956 21.9459067 260.694173 22.7390185 258.668811 23.5627107 256.398078 23.5627107 254.372715 22.7390185zM281.001559 23.3223892C282.00929 22.8912645 282.918547 22.2620963 283.67448 21.472839 284.418913 20.6882167 285.002218 19.7672973 285.391831 18.7614914 285.798377 17.7216018 286.004642 16.6152719 285.999921 15.4999192L285.999921 15.433627C286.003355 14.3270007 285.797077 13.2295948 285.391831 12.1985716 285.002168 11.1921094 284.411167 10.2743155 283.654433 9.50048242 282.891847 8.72230893 281.984032 8.09864136 280.981512 7.66419074 279.884438 7.20663557 278.703301 6.9808643 277.513397 7.00126955 276.309649 6.98408241 275.116008 7.22136582 274.011871 7.69733679 271.982961 8.57491624 270.395717 10.2260116 269.608234 12.2781222 269.202835 13.3091019 268.996552 14.4065369 269.000145 15.5131776L269.000145 15.5794697C268.993742 16.6906661 269.200093 17.7929621 269.608234 18.8277835 270.003924 19.8174676 270.594573 20.7189395 271.345633 21.4794683 272.964564 23.129384 275.1995 24.0412108 277.52008 23.9985688 278.715103 24.0131549 279.900306 23.7829625 281.001559 23.3223892zM274.372715 22.7390185C272.49937 21.941555 271.02636 20.4324934 270.283147 18.5493566 269.898565 17.5874244 269.703483 16.5612556 269.708469 15.526436L269.708469 15.4601439C269.702244 14.4270545 269.890338 13.4018786 270.2631 12.4372233 270.980392 10.5534201 272.440109 9.04067322 274.305892 8.24756138 276.324541 7.42501842 278.588655 7.42501842 280.607303 8.24756138 282.490846 9.03687777 283.972923 10.5478219 284.716919 12.4372233 285.101182 13.399247 285.296252 14.4253541 285.291597 15.4601439L285.291597 15.526436C285.297665 16.5595119 285.109576 17.5846593 284.736966 18.5493566 284.019674 20.4331598 282.559956 21.9459067 280.694173 22.7390185 278.668811 23.5627107 276.398078 23.5627107 274.372715 22.7390185zM291 29L291.648293 29 291.648293 18.6851375C291.876605 19.4608191 292.219934 20.1954578 292.666113 20.8630165 293.110665 21.5293403 293.658162 22.1160995 294.286845 22.5999752 294.947368 23.1026746 295.683145 23.4908073 296.465109 23.7490402 297.301825 24.0311048 298.178011 24.1687975 299.05828 24.1565574 300.151107 24.1680517 301.233851 23.9403455 302.234915 23.4884964 304.164957 22.6210032 305.671322 20.9843403 306.409922 18.9523619 306.805838 17.8862481 307.005888 16.7535534 306.999868 15.6120567L306.999868 15.5452506C307.005888 14.4037538 306.805838 13.2710591 306.409922 12.2049453 305.671322 10.172967 304.164957 8.53630403 302.234915 7.66881085 301.233851 7.21696172 300.151107 6.98925557 299.05828 7.00074981 298.178011 6.98850978 297.301825 7.12620247 296.465109 7.40826704 295.690452 7.6666559 294.961438 8.05242967 294.306294 8.55065143 293.677765 9.03470791 293.130295 9.62143876 292.685561 10.2876101 292.239473 10.9552228 291.896151 11.6898465 291.667742 12.4654891L291.667742 7.39490582 291.019449 7.39490582 291 29zM296.017787 22.860519C294.243997 22.0236373 292.862438 20.4991161 292.17341 18.6183314 291.813683 17.6572643 291.631197 16.6354477 291.635327 15.6053761L291.635327 15.53857C291.628654 14.503926 291.811198 13.4772483 292.17341 12.5122534 292.519066 11.5864696 293.031588 10.7364424 293.683932 10.0070245 294.338664 9.28089518 295.127787 8.69712752 296.004821 8.29010762 296.935481 7.84711606 297.948859 7.61910774 298.974002 7.62204658 299.995282 7.60986269 301.007399 7.82164659 301.943184 8.24334335 302.82008 8.64954616 303.604216 9.24135437 304.244623 9.98030206 304.888937 10.7148174 305.390688 11.5697653 305.722731 12.4988922 306.077147 13.4842847 306.25507 14.5277821 306.247848 15.5786536L306.247848 15.6454597C306.25507 16.6963312 306.077147 17.7398286 305.722731 18.7252211 305.395008 19.6564829 304.892778 20.5122473 304.244623 21.2438113 303.599666 21.9607348 302.815531 22.5297809 301.943184 22.9139639 301.005043 23.3264874 299.993921 23.5335133 298.974002 23.5218994 297.955543 23.527474 296.948409 23.3016573 296.02427 22.860519L296.017787 22.860519zM323.798907 23.0689159C324.878708 22.4453958 325.805123 21.5876375 326.510037 20.5587074L325.961278 20.1730243C325.287312 21.0990687 324.431443 21.8776269 323.446133 22.4609747 322.417856 23.0895568 321.234399 23.4178752 320.029457 23.4088399 319.074225 23.4136286 318.127053 23.2338398 317.239933 22.8793428 316.378172 22.5364979 315.597239 22.017771 314.946905 21.3562216 314.272442 20.6701813 313.729893 19.8658115 313.346358 18.9832901 312.923086 17.9955684 312.70099 16.9332753 312.693074 15.8586036L327 15.8586036 327 15.7278636C326.9979 14.7081054 326.852762 13.6936898 326.568832 12.714306 326.292314 11.7335407 325.838396 10.8118319 325.2296 9.99491357 324.615122 9.18128207 323.830269 8.51194814 322.930039 8.03381323 321.921249 7.51367921 320.798136 7.25519876 319.663617 7.2820581 318.607108 7.27584872 317.561807 7.4988692 316.599714 7.93575821 315.680907 8.34865987 314.854455 8.94221719 314.169497 9.68113751 313.473514 10.440894 312.932094 11.3290327 312.575483 12.295938 312.190427 13.3423699 311.995725 14.4493362 312.000593 15.5644385L312.000593 15.6298086C311.986949 16.8208097 312.208975 18.0027396 312.653877 19.1074932 313.052586 20.0850076 313.640995 20.9737367 314.38508 21.7222936 315.112193 22.4487927 315.978908 23.0202991 316.932889 23.4023029 317.914334 23.8001399 318.964018 24.0022163 320.022924 23.99717 321.34218 24.0338641 322.646829 23.7131409 323.798907 23.0689159zM312.693074 15.2245145C312.725986 14.2303838 312.926993 13.2490188 313.287563 12.322086 313.616838 11.465602 314.106909 10.6801025 314.731321 10.0079876 315.339669 9.36095683 316.07019 8.84104599 316.880626 8.4783293 317.744917 8.09867394 318.680614 7.90918626 319.62442 7.92268421 320.599854 7.9099988 321.563799 8.13431493 322.433543 8.57638432 323.231017 8.98082764 323.936132 9.54616834 324.504454 10.2367826 325.075808 10.9279049 325.518367 11.7161611 325.811023 12.563955 326.10997 13.4281292 326.283763 14.3306715 326.327117 15.2441255L312.693074 15.2245145zM319.225917 4.62149863L319.67015 4.62149863 322.766718 1.35299806 322.002375 1 319.225917 4.62149863zM332.025067 22L332.70188 22 332.70188 13.9143252C332.715058 13.0948818 332.861157 12.2832673 333.134288 11.512198 333.425163 10.663164 333.848344 9.8671739 334.387645 9.1546726 334.898953 8.44430888 335.534046 7.83529832 336.261415 7.35785597 337.037063 6.87277845 337.932818 6.62298528 338.84333 6.63785498L339 6.63785498 339 6.00068597C338.19947 5.98818599 337.405271 6.1466458 336.668756 6.46581935 335.989478 6.76745999 335.366257 7.18558507 334.826321 7.70192724 334.297728 8.20766069 333.847664 8.79201057 333.491495 9.43502697 333.1489 10.0384068 332.875551 10.6797728 332.676813 11.346534L332.676813 6.38935907 332 6.38935907 332.025067 22zM350.483532 23.6102193C351.286109 23.3773286 352.049018 23.0356871 352.748632 22.5958761 353.350768 22.2189482 353.887161 21.755126 354.338423 21.2211741 354.718047 20.7797431 355.021917 20.2842815 355.238835 19.7530457L355.238835 23.6102193 355.998558 23.6102193 355.998558 13.4400937C356.016927 12.5156486 355.859659 11.5956207 355.534283 10.7240562 355.265047 10.0030424 354.83563 9.34533323 354.275112 8.79546941 353.008908 7.59872234 351.170566 7.00034881 348.760087 7.00034881 347.700065 6.99226315 346.644055 7.12478725 345.622712 7.39407415 344.621359 7.65676258 343.644866 7.99828713 342.703406 8.41509069L342.977751 9.00234204C343.858483 8.60314173 344.774049 8.27715263 345.71416 8.02803867 346.689721 7.77115323 347.698444 7.64535912 348.710845 7.65433327 350.421356 7.5703644 352.105921 8.07776577 353.452079 9.08242177 354.610422 10.0300319 355.189594 11.4959358 355.189594 13.4801336L355.189594 14.8548356C354.220354 14.5265638 353.222199 14.2809036 352.206978 14.1207714 351.04538 13.9305527 349.868512 13.8367713 348.689742 13.8404924 347.673578 13.8333745 346.660253 13.9431732 345.671953 14.1674846 344.809235 14.3587561 343.988076 14.6906778 343.245061 15.1484613 342.573039 15.5661561 342.012054 16.1257479 341.606029 16.7834224 341.194178 17.4699729 340.985181 18.2492067 341.001064 19.0390014L341.001064 19.0923879C340.984187 19.8315778 341.168309 20.5624296 341.535684 21.2145008 341.880117 21.8179432 342.360468 22.3419847 342.942578 22.7493622 343.563037 23.1745297 344.25869 23.4909377 344.996644 23.6836257 345.788806 23.8942377 346.607892 23.9997883 347.430571 23.9972713 348.463325 24.0209552 349.493576 23.8903407 350.483532 23.6102193zM345.355402 23.0963744C344.699363 22.9375077 344.079502 22.6661062 343.526439 22.2955771 343.005862 21.9466001 342.575368 21.4902968 342.267269 20.9609149 341.945789 20.3814783 341.78596 19.733637 341.802994 19.0790413L341.802994 19.0123082C341.788413 18.3242153 341.973347 17.6455426 342.337614 17.0503548 342.706756 16.4717443 343.215472 15.9845724 343.821887 15.6289396 344.506319 15.2279382 345.258185 14.9412785 346.04478 14.7814292 346.938203 14.5910274 347.851443 14.4970046 348.767121 14.5011501 349.946142 14.4913044 351.123589 14.5851319 352.284357 14.7814292 353.281182 14.9572184 354.260233 15.2139739 355.210697 15.5488599L355.210697 17.6242596C355.207409 18.3586006 355.019295 19.0815778 354.662008 19.7330258 354.277107 20.4383012 353.743102 21.0607465 353.093321 21.5615129 352.36025 22.1247654 351.529538 22.5628283 350.638291 22.8561352 349.630864 23.1923924 348.568777 23.3573065 347.500916 23.3432869 346.777507 23.3492035 346.056337 23.2662089 345.355402 23.0963744zM367.928622 23.4517782L367.928622 22.7419767C367.105199 23.1242125 366.195521 23.3223555 365.273376 23.3203335 364.220365 23.3945029 363.187175 23.0274922 362.461099 22.3213536 361.792274 21.5129621 361.462786 20.5094648 361.533191 19.4952921L361.533191 8.21733523 368 8.21733523 368 7.56011163 361.533191 7.56011163 361.533191 2 360.762313 2 360.762313 7.5732561 358 7.5732561 358 8.2304797 360.762313 8.2304797 360.762313 19.5610145C360.669555 20.7531006 361.084258 21.9316364 361.91863 22.8471325 362.807828 23.6524999 364.028977 24.0687663 365.273376 23.9907015 366.188312 23.9987 367.094237 23.8237978 367.928622 23.4780671L367.928622 23.4517782zM372 2.87084548L373 2.87084548 373 1 372 1 372 2.87084548zM372.164474 24L372.822368 24 372.822368 7.57142857 372.164474 7.57142857 372.164474 24z"/>
      <polygon points="385.282 23 385.782 23 393 7.019 392.308 7.019 385.532 22.152 378.724 7 378 7"/>
      <path d="M406.789571 23.0537913C407.867943 22.4190061 408.792871 21.546906 409.496528 20.5014458L408.94729 20.1092885C408.272737 21.0508777 407.41612 21.842505 406.429951 22.4356451 405.400777 23.0747787 404.216287 23.4086084 403.010293 23.3994214 402.054229 23.4042905 401.10623 23.2214838 400.218336 22.861036 399.355823 22.512436 398.574209 21.9850017 397.923307 21.3123472 397.251601 20.6097253 396.712989 19.787312 396.334441 18.8862896 395.9108 17.8819876 395.68851 16.8018625 395.680587 15.7091511L409.999995 15.7091511 409.999995 15.5762164C410.000925 14.5444202 409.860075 13.5175491 409.581529 12.5253659 409.304769 11.5281371 408.850455 10.5909562 408.241127 9.76032486 407.626113 8.93303549 406.840576 8.25246593 405.93956 7.76630489 404.92989 7.23743975 403.805797 6.97462037 402.670289 7.00193057 401.612858 6.99561697 400.566645 7.22238114 399.603713 7.66660389 398.684104 8.08643665 397.856931 8.6899576 397.171375 9.44128167 396.474785 10.2137917 395.932892 11.116839 395.575971 12.099975 395.190578 13.1639726 394.995706 14.2895208 395.000579 15.4233416L395.000579 15.4898089C394.987096 16.7007872 395.209309 17.9025233 395.654433 19.025871 396.05349 20.0197942 396.642412 20.9234418 397.387147 21.6845643 398.114894 22.4232586 398.982365 23.0043585 399.937178 23.3927747 400.919479 23.7972899 401.97008 24.0027584 403.029909 23.9976274 404.343705 24.0313348 405.64225 23.7053442 406.789571 23.0537913zM395.674049 15.0777114C395.706989 14.0668929 395.908172 13.0690545 396.269056 12.1265619 396.598619 11.2557008 397.089117 10.4570156 397.714074 9.77361833 398.322953 9.11572633 399.054111 8.58708811 399.865254 8.21828275 400.730299 7.83225438 401.666812 7.6395859 402.611442 7.65331043 403.587727 7.64041208 404.552513 7.86849365 405.423016 8.31798375 406.221186 8.72921618 406.926915 9.30404686 407.495734 10.006254 408.067586 10.7089776 408.510531 11.5104658 408.803442 12.372491 409.10265 13.2511715 409.276595 14.1688641 409.319987 15.0976516L395.674049 15.0777114zM423.310502 22.6415179C424.007023 22.4680354 424.665787 22.1872569 425.258248 21.8113489 425.788814 21.4737706 426.228119 21.0307437 426.542932 20.5157822 426.847494 20.0111918 427.00447 19.4437764 426.998787 18.8680225L426.998787 18.8051309C427.015942 18.2157835 426.850801 17.6339144 426.522211 17.1259255 426.190382 16.6507167 425.743934 16.2506511 425.216807 15.9561419 424.604258 15.6130162 423.950802 15.3345001 423.269061 15.1259729 422.523116 14.8911777 421.733427 14.6710571 420.899994 14.4656112 420.154049 14.2811292 419.463359 14.0861653 418.827924 13.8807194 418.235057 13.6952979 417.663641 13.4572618 417.121919 13.1700445 416.664919 12.9357353 416.267207 12.6164509 415.954653 12.2329598 415.66485 11.848873 415.517247 11.3905856 415.533332 10.9248147L415.533332 10.8493448C415.536768 9.91198271 416.055339 9.03842939 416.914712 8.52235597 418.017526 7.85292653 419.327631 7.52437431 420.651345 7.58527128 421.591645 7.59626037 422.524106 7.74272375 423.414106 8.01922325 424.375506 8.31461627 425.283328 8.73852832 426.107797 9.27705505L426.515304 8.72360906C424.783706 7.62781492 422.732215 7.0277745 420.623718 7.00037949 419.805553 6.99287379 418.990749 7.09674386 418.206303 7.30854828 417.535618 7.48675156 416.906075 7.77443616 416.348346 8.15758475 415.86252 8.49717271 415.46019 8.92564818 415.167266 9.41541655 414.890054 9.8784223 414.745171 10.3974732 414.745945 10.9248147L414.745945 10.9877063C414.726787 11.5333841 414.880221 12.0725837 415.187987 12.5411286 415.501497 12.981667 415.916241 13.3550257 416.403601 13.6354422 416.990642 13.9722368 417.621805 14.2405769 418.282278 14.4341654 419.01441 14.6605752 419.808704 14.8869849 420.665159 15.1133946L422.681974 15.6668406C423.307223 15.8352589 423.909625 16.0673269 424.477769 16.3586481 424.977026 16.6109659 425.410535 16.9585059 425.748638 17.3774919 426.077498 17.8179178 426.244367 18.3420153 426.225214 18.8743117L426.225214 18.9372033C426.228003 19.4193575 426.087172 19.8931789 425.817707 20.3082399 425.534532 20.7413751 425.153055 21.1144632 424.698789 21.4025536 424.185129 21.7283991 423.61225 21.9689929 423.006599 22.1132286 422.310596 22.2822763 421.592671 22.364784 420.872366 22.3585058 419.733235 22.3543909 418.603862 22.1670286 417.536333 21.8050598 416.408149 21.4283266 415.360962 20.8749395 414.442042 20.1698784L414 20.6918786C414.962038 21.4185151 416.055911 21.986768 417.23243 22.3710841 418.384141 22.7725381 419.60472 22.9854525 420.837832 23 421.676624 22.9886113 422.509302 22.8678916 423.310502 22.6415179zM10.542986 55.5969571C11.3186229 55.3332041 12.0466551 54.943056 12.6984414 54.4418613 13.329939 53.9637845 13.8798869 53.3840573 14.3264289 52.725719 14.7744239 52.0660541 15.1192762 51.3402491 15.348805 50.5739405L15.348805 55.583756 16 55.583756 16 32 15.348805 32 15.348805 44.4486325C15.11856 43.6846622 14.7737351 42.961141 14.3264289 42.3034546 13.8803538 41.6428392 13.3303898 41.0608651 12.6984414 40.5807117 12.0448275 40.0889286 11.3169074 39.7077569 10.542986 39.4520181 9.71474778 39.1785247 8.84833302 39.0425593 7.97727775 39.0493847 6.8795594 39.0380282 5.79196806 39.2630054 4.78642231 39.7094394 2.84774111 40.5665362 1.33463203 42.1835848.592726585 44.1912111.194891514 45.2445066-.00605944842 46.3636548.000139146117 47.4914849L.000139146117 47.5574903C-.00605944842 48.6853204.194891514 49.8044686.592726585 50.8577641 1.33463203 52.8653904 2.84774111 54.482439 4.78642231 55.3395358 5.79196806 55.7859698 6.8795594 56.010947 7.97727775 55.9995905 8.84833302 56.0064158 9.71474778 55.8704505 10.542986 55.5969571zM5.0208525 54.7388859C4.14280127 54.347565 3.35532226 53.7742151 2.7091103 53.0557463 2.06191259 52.3300338 1.55791547 51.4853319 1.22438572 50.56734.868383101 49.5937568.689664249 48.5627651.696917783 47.5244876L.696917783 47.4584821C.689664249 46.4202046.868383101 45.3892129 1.22438572 44.4156297 1.55525303 43.5002879 2.05963876 42.6594194 2.7091103 41.9404245 3.35721135 41.2323906 4.14478986 40.6702119 5.0208525 40.2902876 5.96324878 39.8828925 6.97885887 39.6783555 8.00332555 39.6896378 9.02902937 39.6852251 10.0430216 39.9106172 10.9727747 40.3496925 12.7545047 41.1765447 14.1422486 42.6827954 14.834361 44.5410401 15.1954041 45.4906737 15.3786968 46.5001877 15.3748528 47.517887L15.3748528 47.5838925C15.3814004 48.6061231 15.1980438 49.6204676 14.834361 50.5739405 14.4867354 51.4884165 13.9719658 52.3281803 13.3170766 53.0491458 12.6591817 53.7663049 11.8665825 54.343035 10.9857986 54.7454865 10.0509052 55.1829663 9.03303603 55.4082322 8.00332555 55.4055412 6.97584546 55.4004395 5.96126768 55.1731605 5.02736445 54.7388859L5.0208525 54.7388859zM22.1602512 38C22.4417843 37.8286358 22.6719202 37.4795085 22.8012558 37.0275651 22.9565152 36.2910576 23.0219042 35.5099695 22.9935572 34.7304747L22.9935572 33 22.1831442 33 22.1831442 34.9372129 22.5860614 34.9372129C22.6078113 35.4855472 22.5768956 36.036168 22.4944893 36.568147 22.4189671 36.9815953 22.2379343 37.3179817 22 37.4869832L22.1602512 38zM40.6699543 55.3398342C41.7556358 54.928558 42.7313482 54.2642038 43.5187577 53.4001085 44.3472777 52.4615446 44.9709488 51.3552607 45.3487407 50.1540369 45.8061668 48.6868546 46.0253498 47.1536845 45.9976709 45.6148148L45.9976709 33 45.2968263 33 45.2968263 45.6412057C45.3209936 47.0802748 45.1217015 48.5142102 44.7062999 49.8901287 44.3679956 51.0123914 43.7995904 52.0490144 43.0385494 52.9316714 42.3256405 53.7339551 41.4361847 54.3534104 40.4428287 54.7394429 39.3555845 55.1514549 38.2026494 55.3550232 37.0424347 55.3398342 35.8853945 55.3536644 34.7361693 55.145497 33.6550192 54.7262475 32.6478795 54.3321301 31.7439709 53.7066624 31.0138735 52.8986828 30.2380855 52.0152012 29.6562821 50.9738516 29.3071872 49.8439447 28.8817283 48.4700489 28.6779217 47.0351667 28.7036821 45.5950217L28.7036821 33 28.0028375 33 28.0028375 45.6082171C27.9720957 47.1537674 28.1913256 48.6939526 28.6517677 50.1672323 29.0317884 51.3663815 29.6602275 52.4687733 30.4947294 53.4001085 31.2897047 54.2612822 32.2688833 54.9249728 33.3565114 55.3398342 34.5238733 55.7870347 35.762557 56.0107249 37.0099882 55.9996049 38.2593491 56.0085281 39.499769 55.7849214 40.6699543 55.3398342zM60.929078 55.4517782L60.929078 54.7419767C60.1109106 55.1242125 59.2070387 55.3223555 58.2907801 55.3203335 57.2444901 55.3945029 56.2178952 55.0274922 55.4964539 54.3213536 54.8318979 53.5129621 54.5045128 52.5094648 54.5744681 51.4952921L54.5744681 40.2173352 61 40.2173352 61 39.5601116 54.5460993 39.5601116 54.5460993 34 53.7801418 34 53.7801418 39.5732561 51 39.5732561 51 40.2304797 53.7446809 40.2304797 53.7446809 51.5610145C53.6525158 52.7531006 54.0645711 53.9316364 54.893617 54.8471325 55.77714 55.6524999 56.9904943 56.0687663 58.2269504 55.9907015 59.1596593 55.999136 60.0826961 55.8150418 60.929078 55.4517782zM64 34.8708455L65 34.8708455 65 33 64 33 64 34.8708455zM64.1644737 56L64.8223684 56 64.8223684 39.5714286 64.1644737 39.5714286 64.1644737 56z"/>
      <polygon points="72 56 73 56 73 32 72 32"/>
      <path d="M79 34.8708455L80 34.8708455 80 33 79 33 79 34.8708455zM79.1644737 56L79.8223684 56 79.8223684 39.5714286 79.1644737 39.5714286 79.1644737 56zM94.3163736 54.6415181C95.011786 54.4680357 95.6695013 54.1872574 96.2610201 53.8113496 96.7907415 53.4737715 97.2293477 53.0307449 97.5436592 52.5157836 97.8477367 52.0111935 98.0044633 51.4437785 97.9987892 50.8680249L97.9987892 50.8051334C98.0159166 50.2157863 97.8510388 49.6339175 97.5229715 49.1259289 97.1916706 48.6507204 96.7459332 48.250655 96.2196446 47.956146 95.601855 47.6095426 94.9424121 47.3288799 94.2543104 47.1196883 93.5095522 46.8848932 92.7211199 46.6647728 91.8890135 46.459327 91.1442553 46.2748451 90.4546643 46.0798813 89.8202407 45.8744356 89.2283172 45.6890141 88.6578111 45.4509782 88.116951 45.163761 87.6606781 44.929452 87.2635989 44.6101678 86.9515424 44.2266769 86.6622008 43.8425903 86.5148327 43.3843031 86.5308919 42.9185325L86.5308919 42.8493518C86.5343221 41.9119903 87.052068 41.0384375 87.9100738 40.5223644 89.0111328 39.8529353 90.3191528 39.5243833 91.6407608 39.5852802 92.5795638 39.5962693 93.5105407 39.7427326 94.3991245 40.0192319 95.3589943 40.3146248 96.2653723 40.7385366 97.0885292 41.277063L97.4953878 40.7236173C95.7665456 39.6278238 93.7183192 39.0277837 91.6131771 39.0003888 90.7963071 38.9927887 89.9827847 39.0966607 89.1996088 39.3085574 88.5299916 39.4867605 87.9014499 39.774445 87.3446092 40.1575933 86.8596971 40.4973166 86.4580348 40.9257622 86.1654087 41.4154244 85.8886378 41.8784299 85.7439847 42.3974805 85.7447582 42.9248217L85.7447582 42.9877133C85.72563 43.5333907 85.8788204 44.07259 86.1860964 44.5411346 86.4991071 44.9816728 86.9131912 45.3550312 87.3997765 45.6354477 87.9858832 45.972242 88.6160417 46.240582 89.2754638 46.4341704 90.0064302 46.66058 90.7994598 46.8869896 91.6545526 47.1133992L93.6681581 47.6668448C94.2923916 47.8353134 94.8938293 48.067379 95.4610946 48.3586519 95.9595572 48.6109696 96.3923765 48.9585094 96.7299419 49.3774951 97.0582782 49.8179208 97.2248814 50.342018 97.2057596 50.8743141L97.2057596 50.9372056C97.2085442 51.4193595 97.0679365 51.8931807 96.798901 52.3082415 96.5161764 52.7413764 96.1353069 53.1144643 95.6817637 53.4025545 95.1689204 53.7283998 94.5969531 53.9689935 93.9922659 54.1132291 93.2973708 54.2822767 92.5805883 54.3647844 91.8614299 54.3585062 90.7241109 54.3543913 89.5965354 54.1670291 88.5307056 53.8050605 87.404317 53.4283275 86.3587962 52.8749407 85.4413382 52.1698801L85 52.69188C85.9605069 53.418516 87.0526391 53.9867686 88.2272856 54.3710845 89.3771639 54.7725382 90.5958012 54.9854525 91.8269503 55 92.6713527 54.9904174 93.5098129 54.8696775 94.3163736 54.6415181zM110.464271 55.6107728C111.272494 55.3790698 112.040945 55.0373805 112.74558 54.5963958 113.348281 54.2194553 113.885177 53.7556176 114.336863 53.2216479 114.716208 52.7822378 115.020337 52.2890535 115.23812 51.7601442L115.23812 55.6174463 115.998557 55.6174463 115.998557 45.4403083C116.016943 44.5158324 115.859527 43.5957738 115.533846 42.7241803 115.264357 42.0031425 114.834536 41.3454114 114.273493 40.7955292 113.006099 39.5987423 111.166032 39.0003488 108.75329 39.0003488 107.692273 38.9922629 106.635272 39.1247914 105.61297 39.3940873 104.608277 39.6564318 103.628498 39.9979728 102.683882 40.4151378L102.958484 41.0024088C103.834812 40.5970625 104.746514 40.2643687 105.683381 40.0080523 106.659857 39.7511583 107.669527 39.62536 108.682879 39.6343345 110.409582 39.5478 112.110047 40.0628798 113.463769 41.0824912 114.6232 42.0301329 115.202915 43.4960856 115.202915 45.4803495L115.202915 46.8550973C114.232766 46.5268145 113.233674 46.2811462 112.217499 46.1210087 111.054811 45.9307837 109.876838 45.8369991 108.696961 45.8407203 107.679843 45.8336022 106.665567 45.9434046 105.676339 46.1677234 104.812811 46.3590013 103.990881 46.6909341 103.247168 47.1487328 102.574516 47.5664415 102.013004 48.1260519 101.606598 48.7837484 101.19436 49.4703217 100.985167 50.2495816 101.001065 51.0394026L101.001065 51.0927909C100.984172 51.8320054 101.168467 52.5628815 101.536187 53.2149744 101.880944 53.818437 102.361745 54.342496 102.944402 54.749887 103.565444 55.1750687 104.261749 55.4914872 105.000396 55.6841817 105.793302 55.8948006 106.613156 56.0003548 107.436608 55.9978377 108.46092 56.0187282 109.482406 55.8881386 110.464271 55.6107728zM105.338368 55.0969107C104.681712 54.9380387 104.061269 54.6666282 103.507688 54.2960868 102.986622 53.9470982 102.555724 53.4907797 102.247336 52.9613801 101.925553 52.3819242 101.765575 51.7340613 101.782625 51.0794438L101.782625 51.0127085C101.76803 50.3245926 101.953138 49.6458973 102.317746 49.0506897 102.693423 48.4641045 103.212686 47.9719463 103.831578 47.6158801 104.516652 47.2148653 105.269223 46.928196 106.056558 46.7683414 106.94393 46.579427 107.850853 46.4854102 108.760331 46.488053 109.940459 46.4782069 111.119011 46.5720376 112.280869 46.7683414 113.27863 46.9441365 114.2586 47.2009005 115.209956 47.5357977L115.209956 49.6246136C115.206665 50.3589791 115.018374 51.0819803 114.660752 51.73345 114.27549 52.4387489 113.740983 53.061215 113.090592 53.5619981 112.36534 54.1225958 111.543594 54.560558 110.661421 54.8566635 109.653049 55.1929319 108.589965 55.3578516 107.521101 55.3438315 106.785244 55.3526558 106.051363 55.2696358 105.338368 55.0969107zM127.95 55.4517782L127.95 54.7419767C127.125989 55.1242125 126.21566 55.3223555 125.292857 55.3203335 124.239094 55.3945029 123.205166 55.0274922 122.478571 54.3213536 121.809269 53.5129621 121.479545 52.5094648 121.55 51.4952921L121.55 40.2173352 128 40.2173352 128 39.5601116 121.571429 39.5601116 121.571429 34 120.8 34 120.8 39.5732561 118 39.5732561 118 40.2304797 120.764286 40.2304797 120.764286 51.5610145C120.671462 52.7531006 121.086461 53.9316364 121.921429 54.8471325 122.811262 55.6524999 124.033284 56.0687663 125.278571 55.9907015 126.194161 55.9987 127.100733 55.8237978 127.935714 55.4780671L127.95 55.4517782zM132 34.8708455L133 34.8708455 133 33 132 33 132 34.8708455zM132.164474 56L132.822368 56 132.822368 39.5714286 132.164474 39.5714286 132.164474 56zM149.001559 55.3223892C150.00929 54.8912645 150.918547 54.2620963 151.67448 53.472839 152.418913 52.6882167 153.002218 51.7672973 153.391831 50.7614914 153.798377 49.7216018 154.004642 48.6152719 153.999921 47.4999192L153.999921 47.433627C154.003355 46.3270007 153.797077 45.2295948 153.391831 44.1985716 153.002999 43.1916932 152.411897 42.2737422 151.654433 41.5004824 150.891847 40.7223089 149.984032 40.0986414 148.981512 39.6641907 147.884438 39.2066356 146.703301 38.9808643 145.513397 39.0012695 144.309649 38.9840824 143.116008 39.2213658 142.011871 39.6973368 139.982961 40.5749162 138.395717 42.2260116 137.608234 44.2781222 137.202835 45.3091019 136.996552 46.4065369 137.000145 47.5131776L137.000145 47.5794697C136.993742 48.6906661 137.200093 49.7929621 137.608234 50.8277835 138.003924 51.8174676 138.594573 52.7189395 139.345633 53.4794683 140.964564 55.129384 143.1995 56.0412108 145.52008 55.9985688 146.715103 56.0131549 147.900306 55.7829625 149.001559 55.3223892zM142.372715 54.7390185C140.49937 53.941555 139.02636 52.4324934 138.283147 50.5493566 137.898565 49.5874244 137.703483 48.5612556 137.708469 47.526436L137.708469 47.4601439C137.702244 46.4270545 137.890338 45.4018786 138.2631 44.4372233 138.980392 42.5534201 140.440109 41.0406732 142.305892 40.2475614 144.324541 39.4250184 146.588655 39.4250184 148.607303 40.2475614 150.490846 41.0368778 151.972923 42.5478219 152.716919 44.4372233 153.101182 45.399247 153.296252 46.4253541 153.291597 47.4601439L153.291597 47.526436C153.297665 48.5595119 153.109576 49.5846593 152.736966 50.5493566 152.019674 52.4331598 150.559956 53.9459067 148.694173 54.7390185 146.668811 55.5627107 144.398078 55.5627107 142.372715 54.7390185zM159 55L159.763029 55 159.763029 46.3470642C159.75493 45.4484785 159.937181 44.556775 160.299976 43.7199386 160.640666 42.9307301 161.138741 42.2045626 161.769514 41.5774283 162.380066 40.9714639 163.120302 40.48341 163.945561 40.1427116 164.790295 39.7952664 165.709077 39.618972 166.637359 39.6262136 167.620181 39.6087814 168.596496 39.773728 169.505785 40.110829 170.299664 40.4122516 171.007445 40.8722751 171.575855 41.4562745 172.148192 42.0622526 172.571961 42.7706878 172.819311 43.5350195 173.105367 44.4061759 173.245859 45.3109679 173.236151 46.2195339L173.236151 55 173.99918 55 173.99918 46.1557687C174.013147 45.1586098 173.848529 44.1659631 173.511689 43.2161936 173.214585 42.3872089 172.733843 41.6213953 172.098672 40.9652825 171.481762 40.3373953 170.716347 39.8427095 169.859039 39.5178128 168.869445 39.1585369 167.809797 38.9828764 166.743336 39.0013148 165.800603 38.984766 164.863738 39.1387009 163.987952 39.4540476 162.546674 39.9869431 161.333123 40.9235173 160.526059 42.1258089 160.200602 42.602062 159.950884 43.1172169 159.784225 43.6561734L159.784225 39.3775294 159.021195 39.3775294 159 55zM197.551856 55.5904692C198.326232 55.3267887 199.053081 54.9367479 199.703808 54.435691 200.334279 53.9577457 200.883333 53.3781778 201.329149 52.7200205 201.776416 52.060537 202.120708 51.3349315 202.349863 50.5688337L202.349863 55.5772717 203 55.5772717 203 32 202.349863 32 202.349863 44.4452098C202.11193 43.6798693 201.758854 42.9564634 201.303144 42.3006217 200.857236 41.6425397 200.308196 41.0629858 199.677802 40.5849512 199.025251 40.0933034 198.298514 39.7122364 197.52585 39.4565679 196.698958 39.1831497 195.833951 39.0472217 194.964312 39.0540452 193.868378 39.0426918 192.782554 39.2676072 191.778643 39.7139185 189.843113 40.5707796 188.332463 42.1873835 187.591763 44.1944579 187.194575 45.2474638 186.99395 46.3663043 187.000139 47.4938242L187.000139 47.5598116C186.99395 48.6873315 187.194575 49.806172 187.591763 50.8591779 188.332463 52.8662523 189.843113 54.4828562 191.778643 55.3397174 192.782554 55.7860286 193.868378 56.010944 194.964312 55.9995906 195.843022 56.0071473 196.717047 55.8689536 197.551856 55.5904692zM192.038697 54.732634C191.162073 54.3414206 190.375874 53.7682284 189.730713 53.0499571 189.084567 52.3244441 188.581389 51.4799744 188.248401 50.5622349 187.892977 49.5889194 187.714549 48.5582112 187.721791 47.5202192L187.721791 47.4542319C187.714549 46.4162399 187.892977 45.3855316 188.248401 44.4122161 188.578731 43.497126 189.082297 42.6564886 189.730713 41.9376914 190.37776 41.2298522 191.164059 40.667828 192.038697 40.2880082 192.979562 39.8807251 193.993521 39.6762444 195.016323 39.6875235 196.04036 39.683112 197.052704 39.9084422 197.980946 40.3473968 199.75978 41.1740216 201.145268 42.6798582 201.836256 44.537592 202.196712 45.4869644 202.379707 46.4962009 202.375869 47.5136204L202.375869 47.5796078C202.382406 48.6015573 202.199347 49.6156229 201.836256 50.5688337 201.489195 51.4830583 200.975262 52.3225911 200.321437 53.0433584 199.664612 53.7603203 198.873301 54.3368919 197.993948 54.7392327 197.060575 55.1765922 196.04436 55.4017961 195.016323 55.399106 193.990513 55.3940056 192.977584 55.1667891 192.045199 54.732634L192.038697 54.732634zM218.792371 55.0661599C219.869804 54.4314112 220.793927 53.5593614 221.496971 52.5139613L220.948211 52.1218266C220.274245 53.0633616 219.418375 53.8549434 218.433064 54.4480493 217.404786 55.0871461 216.221328 55.4209566 215.016384 55.4117701 214.061152 55.416639 213.113978 55.2338427 212.226858 54.8734157 211.365096 54.5248358 210.584162 53.9974318 209.933828 53.3248161 209.262707 52.6222346 208.724563 51.7998686 208.346345 50.8988981 207.923072 49.8946539 207.700976 48.814591 207.69306 47.7219425L222 47.7219425 222 47.5890155C221.9979 46.552199 221.852762 45.5208145 221.568832 44.5250478 221.292314 43.5278764 220.838395 42.5907495 220.229598 41.760166 219.615119 40.9329242 218.830266 40.2523938 217.930035 39.7662608 216.921244 39.2374261 215.79813 38.9746218 214.66361 39.0019305 213.607099 38.9956172 212.561798 39.2223683 211.599704 39.6665655 210.680897 40.0863741 209.854443 40.6898603 209.169484 41.4411411 208.473501 42.2136067 207.93208 43.116602 207.575469 44.0996814 207.190412 45.1636178 206.99571 46.2891012 207.000578 47.4228567L207.000578 47.4893202C206.987107 48.7002288 207.209127 49.9018957 207.653863 51.0251787 208.052573 52.0190448 208.640982 52.9226404 209.385068 53.683719 210.112181 54.4223708 210.978897 55.0034372 211.932879 55.3918311 212.914325 55.796323 213.964011 56.0017797 215.022917 55.996649 216.338768 56.0368089 217.640929 55.7153705 218.792371 55.0661599zM207.686527 47.0905392C207.719439 46.0797789 207.920447 45.0819979 208.281017 44.1395595 208.610293 43.2687485 209.100364 42.4701093 209.724776 41.7867514 210.333125 41.1288972 211.063646 40.6002895 211.874084 40.2315053 212.738375 39.8454992 213.674073 39.6528418 214.61788 39.6665655 215.593315 39.6536679 216.557261 39.8817364 217.427006 40.3312006 218.224481 40.7424093 218.929596 41.3172069 219.497919 42.0193736 220.069273 42.7220568 220.511833 43.5234988 220.804489 44.3854745 221.103436 45.2641044 221.27723 46.1817442 221.320584 47.1104782L207.686527 47.0905392z"/>
      <polygon points="238 56 238.745 56 238.745 34.214 248.979 48.409 248.979 48.409 259.255 34.214 259.255 56 260 56 260 33 259.31 33 249.014 47.263 238.71 33 238.021 33"/>
      <path d="M273.455394 55.6107728C274.26286 55.3790698 275.03059 55.0373805 275.734563 54.5963958 276.341698 54.220566 276.882902 53.7566734 277.338423 53.2216479 277.718047 52.7802022 278.021917 52.2847242 278.238835 51.7534706L278.238835 55.6107728 278.998558 55.6107728 278.998558 45.4403083C279.016927 44.5158324 278.859659 43.5957738 278.534283 42.7241803 278.265047 42.0031425 277.83563 41.3454114 277.275112 40.7955292 276.008908 39.5987423 274.170566 39.0003488 271.760087 39.0003488 270.700065 38.9922629 269.644055 39.1247914 268.622712 39.3940873 267.61177 39.6553687 266.625807 39.9969249 265.675268 40.4151378L265.949613 41.0024088C266.825119 40.5970625 267.735965 40.2643687 268.671953 40.0080523 269.647514 39.7511583 270.656237 39.62536 271.668638 39.6343345 273.396101 39.5461475 275.097779 40.0613199 276.452079 41.0824912 277.610422 42.0301329 278.189594 43.4960856 278.189594 45.4803495L278.189594 46.8550973C277.220354 46.5268145 276.222199 46.2811462 275.206978 46.1210087 274.04538 45.9307837 272.868512 45.8369991 271.689742 45.8407203 270.673578 45.8336022 269.660253 45.9434046 268.671953 46.1677234 267.809235 46.3590013 266.988076 46.6909341 266.245061 47.1487328 265.573039 47.5664415 265.012054 48.1260519 264.606029 48.7837484 264.194178 49.4703217 263.985181 50.2495816 264.001064 51.0394026L264.001064 51.0927909C263.984187 51.8320054 264.168309 52.5628815 264.535684 53.2149744 264.880117 53.818437 265.360468 54.342496 265.942578 54.749887 266.563037 55.1750687 267.25869 55.4914872 267.996644 55.6841817 268.788806 55.8948006 269.607892 56.0003548 270.430571 55.9978377 271.453922 56.0187282 272.47445 55.8881386 273.455394 55.6107728zM268.334299 55.0969107C267.678259 54.9380387 267.058398 54.6666282 266.505336 54.2960868 265.984758 53.9470982 265.554265 53.4907797 265.246166 52.9613801 264.924685 52.3819242 264.764857 51.7340613 264.78189 51.0794438L264.78189 51.0127085C264.76731 50.3245926 264.952244 49.6458973 265.31651 49.0506897 265.679903 48.4687216 266.183799 47.9769565 266.786715 47.6158801 267.471147 47.2148653 268.223012 46.928196 269.009608 46.7683414 269.896148 46.579427 270.80222 46.4854102 271.710845 46.488053 272.889867 46.4782069 274.067313 46.5720376 275.228081 46.7683414 276.224906 46.9441365 277.203957 47.2009005 278.154421 47.5357977L278.154421 49.6246136C278.151133 50.3589791 277.963019 51.0819803 277.605733 51.73345 277.220831 52.4387489 276.686826 53.061215 276.037045 53.5619981 275.312473 54.1225958 274.491498 54.560558 273.610153 54.8566635 272.602726 55.1929319 271.540639 55.3578516 270.472778 55.3438315 269.751721 55.3491725 269.032954 55.2661797 268.334299 55.0969107zM290.928826 55.4517782L290.928826 54.7419767C290.107747 55.1242125 289.200658 55.3223555 288.281139 55.3203335 287.231125 55.3945029 286.200877 55.0274922 285.476868 54.3213536 284.809947 53.5129621 284.481397 52.5094648 284.551601 51.4952921L284.551601 40.2173352 291 40.2173352 291 39.5601116 284.523132 39.5601116 284.523132 34 283.754448 34 283.754448 39.5732561 281 39.5732561 281 40.2304797 283.754448 40.2304797 283.754448 51.5610145C283.661955 52.7531006 284.075477 53.9316364 284.907473 54.8471325 285.79414 55.6524999 287.011813 56.0687663 288.252669 55.9907015 289.165 55.9987 290.068346 55.8237978 290.900356 55.4780671L290.928826 55.4517782zM306.792371 55.0810202C307.869804 54.4563723 308.793927 53.5981995 309.496971 52.569435L308.948211 52.1835404C308.274245 53.1100926 307.418375 53.8890779 306.433064 54.4727457 305.404786 55.1016725 304.221328 55.430171 303.016384 55.4211307 302.061152 55.425922 301.113978 55.2460347 300.226858 54.8913432 299.365096 54.5483102 298.584162 54.0292989 297.933828 53.3673865 297.262707 52.6759853 296.724563 51.8667058 296.346345 50.9800724 295.923072 49.9918089 295.700976 48.9289332 295.69306 47.8536721L310 47.8536721 310 47.7228603C309.997814 46.7025491 309.852677 45.6875891 309.568832 44.7076499 309.292314 43.7263466 308.838395 42.8041323 308.229598 41.9867659 307.615119 41.1726882 306.830266 40.5029871 305.930035 40.02459 304.921244 39.5041707 303.79813 39.2455484 302.66361 39.2724225 301.607099 39.2662097 300.561798 39.4893525 299.599704 39.9264812 298.680897 40.3396093 297.854443 40.9334922 297.169484 41.6728178 296.473501 42.432991 295.93208 43.3216168 295.575469 44.2890524 295.190412 45.3360583 294.99571 46.4436317 295.000578 47.5593457L295.000578 47.6247515C294.987107 48.8163908 295.209127 49.9989355 295.653863 51.1043436 296.052573 52.0823941 296.640982 52.9716107 297.385068 53.7205782 298.112181 54.4474758 298.978897 55.0192957 299.932879 55.401509 300.914325 55.7995642 301.964011 56.0017513 303.022917 55.9967023 304.338768 56.0362231 305.640929 55.7198998 306.792371 55.0810202zM295.686527 47.2323163C295.719439 46.2376404 295.920447 45.2557372 296.281017 44.3282959 296.610293 43.4713422 297.100364 42.6854118 297.724776 42.0129283 298.333125 41.3655426 299.063646 40.8453467 299.874084 40.482431 300.738375 40.1025674 301.674073 39.9129758 302.61788 39.9264812 303.593315 39.9137888 304.557261 40.138228 305.427006 40.5805398 306.224481 40.985205 306.929596 41.5508557 307.497919 42.2418488 308.069273 42.9333501 308.511833 43.7220387 308.804489 44.5702976 309.103436 45.4349458 309.27723 46.3379831 309.320584 47.2519381L295.686527 47.2323163zM302.219377 36.623485L302.66361 36.623485 305.760181 33.3531917 304.995838 33 302.219377 36.623485zM314 55L314.673197 55 314.673197 46.9143252C314.686305 46.0948818 314.831623 45.2832673 315.103295 44.512198 315.392615 43.663164 315.813535 42.8671739 316.349955 42.1546726 316.876986 41.4384141 317.530208 40.8290347 318.276046 40.357856 319.04755 39.8727785 319.93852 39.6229853 320.844167 39.637855L321 39.637855 321 39.000686C320.203747 38.988186 319.413791 39.1466458 318.681211 39.4658193 318.005563 39.76746 317.385671 40.1855851 316.84862 40.7019272 316.32278 41.2075941 315.875112 41.7919558 315.520926 42.435027 315.180162 43.0384068 314.908273 43.6797728 314.710597 44.346534L314.710597 39.3893591 314.0374 39.3893591 314 55zM325 34.8708455L326 34.8708455 326 33 325 33 325 34.8708455zM325.164474 56L325.822368 56 325.822368 39.5714286 325.164474 39.5714286 325.164474 56zM342.798907 55.0659787C343.876339 54.4312372 344.800461 53.5591972 345.503504 52.5138089L344.954745 52.1216786C344.278876 53.0638858 343.420733 53.8555057 342.433068 54.4478751 341.40479 55.0869647 340.221333 55.4207714 339.016391 55.4115851 338.061159 55.4164538 337.113987 55.2336596 336.226867 54.8732367 335.365106 54.5246607 334.584173 53.9972627 333.933839 53.3246545 333.262719 52.622081 332.724576 51.7997243 332.346358 50.8987639 331.923086 49.8945311 331.70099 48.8144803 331.693074 47.7218441L346 47.7218441 346 47.5889186C345.9979 46.5521138 345.852762 45.5207409 345.568832 44.5249855 345.292314 43.5278253 344.838396 42.590709 344.2296 41.7601348 343.615122 40.9329024 342.830269 40.2523797 341.930039 39.7662521 340.921249 39.2374234 339.798136 38.9746221 338.663617 39.0019304 337.607108 38.9956173 336.561807 39.2223658 335.599714 39.666558 334.680907 40.0863619 333.854455 40.6898413 333.169497 41.4411136 332.47338 42.2134678 331.931943 43.1164812 331.575483 44.0996239 331.190427 45.1635483 330.995725 46.289019 331.000593 47.4227617L331.000593 47.4892245C330.986949 48.7001348 331.208975 49.9018222 331.653877 51.0250431 332.052433 52.0189806 332.64086 52.9225951 333.38508 53.6835534 334.112193 54.4221969 334.978908 55.0032568 335.932889 55.3916462 336.914334 55.7961336 337.964018 56.0015879 339.022924 55.9964573 340.340973 56.0378194 341.645545 55.7163464 342.798907 55.0659787zM331.693074 47.0904479C331.725986 46.079699 331.926993 45.0819293 332.287563 44.1395015 332.616838 43.2687003 333.106909 42.4700701 333.731321 41.7867199 334.339669 41.1288732 335.07019 40.6002714 335.880626 40.2314914 336.744917 39.8454896 337.680614 39.6528344 338.62442 39.666558 339.599854 39.6536605 340.563799 39.8817264 341.433543 40.3311856 342.231017 40.7423897 342.936132 41.3171808 343.504454 42.0193396 344.075691 42.7220968 344.518237 43.5235072 344.811023 44.3854137 345.10997 45.2640337 345.283763 46.1816632 345.327117 47.1103868L331.693074 47.0904479z"/>
      <polygon points="352 56 353 56 353 32 352 32"/>
      <path d="M375.506301 55.6109018C376.318722 55.379197 377.091163 55.0375051 377.799456 54.5965168 378.405287 54.2195735 378.944972 53.7557322 379.399003 53.2217583 379.775318 52.7814452 380.07622 52.2883051 380.290785 51.7602432L380.290785 55.6175753 380.998549 55.6175753 380.998549 45.4403583C381.017031 44.5158753 380.858798 43.5958095 380.531425 42.7242092 380.260537 42.0031658 379.828484 41.3454296 379.264528 40.7955432 377.990553 39.5987469 376.14093 39.0003488 373.715659 39.0003488 372.649132 38.9922628 371.586642 39.1247924 370.559032 39.3940903 369.57083 39.6595805 368.607398 40.0010791 367.678433 40.4151488L367.954461 41.0024243C368.83534 40.5970749 369.751775 40.2643786 370.693507 40.0080602 371.675054 39.7511642 372.689968 39.6253649 373.708581 39.6343394 375.44425 39.5478042 377.153546 40.062888 378.514298 41.0825073 379.698623 42.0257073 380.290785 43.489447 380.290785 45.4737262L380.290785 46.8484847C379.315598 46.5201994 378.311318 46.2745292 377.289866 46.1143904 376.121141 45.9241639 374.937051 45.8303786 373.751047 45.8340998 372.728647 45.8269817 371.709104 45.9367849 370.71474 46.1611055 369.841807 46.3509197 369.010695 46.6829043 368.258799 47.1421225 367.582654 47.5598345 367.018227 48.1194492 366.609709 48.7771508 366.195331 49.4637295 365.985052 50.2429953 366.001033 51.0328225L366.001033 51.0928848C365.984371 51.8320729 366.169604 52.5628796 366.538933 53.2150848 366.886432 53.8179297 367.369564 54.341813 367.954461 54.7500093 368.578727 55.1751943 369.278649 55.4916153 370.021131 55.6843112 370.818154 55.8949318 371.642266 56.0004868 372.469994 55.9979697 373.497259 56.018166 374.521604 55.8875826 375.506301 55.6109018zM370.382091 55.0970357C369.722026 54.9381625 369.098361 54.6667499 368.541905 54.2962055 368.018133 53.9472142 367.584997 53.4908922 367.275008 52.9614885 366.951554 52.3820281 366.790745 51.7341602 366.807883 51.0795376L366.807883 51.0128017C366.793213 50.3246805 366.979282 49.6459799 367.345784 49.0507678 367.717191 48.4721334 368.229029 47.9849416 368.839166 47.6292942 369.527797 47.2282763 370.284277 46.9416047 371.0757 46.7817489 371.974604 46.5913393 372.893448 46.4973127 373.814746 46.5014583 375.001002 46.4916122 376.185674 46.5854436 377.353565 46.7817489 378.35368 46.9535746 379.336346 47.2058687 380.290785 47.535864L380.290785 49.6246961C380.287477 50.3590673 380.098208 51.0820742 379.738729 51.7335489 379.354348 52.4406334 378.819466 53.0653871 378.167494 53.5687848 377.438475 54.1293868 376.612462 54.5673524 375.725708 54.8634602 374.7121 55.1997313 373.643496 55.3646522 372.569081 55.3506319 371.831457 55.3566916 371.09618 55.2714312 370.382091 55.0970357zM396.402904 60.4862252C397.347928 60.1634633 398.208021 59.6291679 398.918542 58.9234949 399.60015 58.2351535 400.12704 57.40742 400.463579 56.4962754 400.837911 55.4475173 401.019151 54.3387836 400.9984 53.2245165L400.9984 39.3860403 400.285306 39.3860403 400.285306 43.7217859C399.01871 40.8275563 396.162613 38.9708991 393.022309 39.0003452 391.957123 38.9943034 390.901663 39.2046425 389.919029 39.6187874 388.977892 40.0117703 388.116292 40.57525 387.376981 41.2812665 386.653797 41.975632 386.070846 42.8043699 385.660272 43.7217859 385.227787 44.6617602 385.002535 45.6849099 385 46.7208982L385 46.7873974C385.002326 47.823409 385.227588 48.8466032 385.660272 49.7865097 386.070701 50.7040094 386.65367 51.5327737 387.376981 52.227029 388.893967 53.6865894 390.911145 54.501133 393.009104 54.5013004 396.149407 54.5307465 399.005505 52.6740893 400.2721 49.7798598L400.2721 53.104818C400.290798 54.1809374 400.114021 55.2514349 399.750485 56.2635283 399.437235 57.1026817 398.94602 57.8629243 398.311091 58.4912503 397.66412 59.1117447 396.8883 59.5796548 396.039754 59.8611331 395.087699 60.1765185 394.090503 60.3315483 393.088337 60.3199773 391.841709 60.32759 390.602765 60.1229959 389.423825 59.7148349 388.233501 59.2956605 387.118569 58.6848022 386.122463 57.9060577L385.699889 58.4580007C386.769985 59.2543968 387.951547 59.886378 389.205935 60.3332772 390.449379 60.7724295 391.757452 60.9972456 393.075131 60.9982688 394.205231 61.0194412 395.330634 60.8462757 396.402904 60.4862252zM390.169933 53.2843657C389.309088 52.9312733 388.522641 52.4167675 387.852377 51.7681848 387.192571 51.128323 386.663242 50.364798 386.294134 49.520513 385.913916 48.6535163 385.720389 47.7152279 385.7263 46.7674476L385.7263 46.7009484C385.718824 45.7573004 385.91246 44.8230201 386.294134 43.9611829 386.666184 43.1224771 387.195247 42.363851 387.852377 41.7268109 389.243516 40.3872333 391.097684 39.6455121 393.022309 39.6586869 394.001802 39.6522041 394.972335 39.8467931 395.874686 40.2305797 396.743202 40.593004 397.537835 41.1137714 398.218653 41.7667104 398.88402 42.412369 399.417822 43.182652 399.790101 44.0343319 400.167477 44.8905362 400.360981 45.8173812 400.357936 46.7541478L400.357936 46.8206469C400.363146 47.7533492 400.169506 48.6763113 399.790101 49.5271629 399.416482 50.3663842 398.882519 51.1233426 398.218653 51.7548849 397.539578 52.401823 396.746986 52.9159542 395.881289 53.2710659 394.050256 54.0088579 392.007568 54.0088579 390.176536 53.2710659L390.169933 53.2843657zM408 55L408.673197 55 408.673197 46.9143252C408.686305 46.0948818 408.831623 45.2832673 409.103295 44.512198 409.392615 43.663164 409.813535 42.8671739 410.349955 42.1546726 410.876986 41.4384141 411.530208 40.8290347 412.276046 40.357856 413.04755 39.8727785 413.93852 39.6229853 414.844167 39.637855L415 39.637855 415 39.000686C414.203747 38.988186 413.413791 39.1466458 412.681211 39.4658193 412.005563 39.76746 411.385671 40.1855851 410.84862 40.7019272 410.322851 41.2076607 409.875192 41.7920106 409.520926 42.435027 409.180162 43.0384068 408.908273 43.6797728 408.710597 44.346534L408.710597 39.3893591 408.0374 39.3893591 408 55zM418 34.8708455L419 34.8708455 419 33 418 33 418 34.8708455zM418.171053 56L418.828947 56 418.828947 39.5714286 418.171053 39.5714286 418.171053 56zM435.240024 55.0812965C436.281967 54.482669 437.215031 53.7135934 438 52.8063916L437.506671 52.3487576C436.769366 53.1805532 435.905555 53.8922234 434.946693 54.4578531 433.859445 55.0796479 432.62028 55.3895701 431.366724 55.3532239 430.328112 55.3508877 429.302349 55.1246138 428.360083 54.6899863 427.445955 54.2834622 426.619632 53.7046278 425.926771 52.9854657 424.506257 51.4935647 423.716269 49.5156768 423.720123 47.4606967L423.720123 47.3943729C423.714217 46.365429 423.90892 45.3451083 424.293452 44.3899067 424.661552 43.4664665 425.204747 42.6220818 425.893438 41.9027657 426.58077 41.1865392 427.40305 40.6118704 428.313417 40.2115099 429.26477 39.7953342 430.294173 39.585085 431.333391 39.5946989 432.557441 39.5584381 433.769407 39.8444302 434.846694 40.4237459 435.795949 40.957789 436.66081 41.6282459 437.413338 42.4134587L437.906667 41.9558247C437.091176 41.1296261 436.159201 40.4258561 435.140025 39.8666263 433.979345 39.2568092 432.678544 38.9595728 431.366724 39.0044175 430.231898 38.9901193 429.107002 39.2162041 428.066752 39.6676551 424.970342 41.0352865 422.981519 44.0969259 423.000129 47.467329L423.000129 47.5336528C423.004351 48.6544086 423.230901 49.7633128 423.66679 50.7967817 424.075347 51.8014149 424.675232 52.7180173 425.433442 53.4961587 426.196614 54.2719052 427.101717 54.8954702 428.100085 55.3333268 429.133056 55.7855252 430.251609 56.0117059 431.380057 55.9965643 432.725481 56.036925 434.057542 55.7210693 435.240024 55.0812965zM453.97483 55.3290184C454.98256 54.8978937 455.891818 54.2687255 456.64775 53.4794683 457.402492 52.6951939 457.995015 51.7718059 458.391831 50.7614914 458.798377 49.7216018 459.004642 48.6152719 458.999921 47.4999192L458.999921 47.433627C459.003355 46.3270007 458.797077 45.2295948 458.391831 44.1985716 458.002999 43.1916932 457.411897 42.2737422 456.654433 41.5004824 455.891847 40.7223089 454.984032 40.0986414 453.981512 39.6641907 452.884438 39.2066356 451.703301 38.9808643 450.513397 39.0012695 449.309649 38.9840824 448.116008 39.2213658 447.011871 39.6973368 444.982961 40.5749162 443.395717 42.2260116 442.608234 44.2781222 442.202835 45.3091019 441.996552 46.4065369 442.000145 47.5131776L442.000145 47.5794697C441.993742 48.6906661 442.200093 49.7929621 442.608234 50.8277835 443.003924 51.8174676 443.594573 52.7189395 444.345633 53.4794683 445.964564 55.129384 448.1995 56.0412108 450.52008 55.9985688 451.705654 56.0116122 452.881371 55.7837515 453.97483 55.3290184zM447.345986 54.7456477C445.472641 53.9481842 443.999631 52.4391226 443.256417 50.5559858 442.871835 49.5940536 442.676754 48.5678848 442.681739 47.5330652L442.681739 47.4667731C442.675514 46.4336837 442.863609 45.4085078 443.23637 44.4438525 443.953662 42.5600493 445.41338 41.0473024 447.279163 40.2541906 449.297812 39.4316476 451.561925 39.4316476 453.580574 40.2541906 455.476762 41.0361557 456.971864 42.5480864 457.723601 44.4438525 458.107865 45.4058762 458.302935 46.4319834 458.298279 47.4667731L458.298279 47.5330652C458.304348 48.5661411 458.116258 49.5912885 457.743648 50.5559858 457.026356 52.4397891 455.566639 53.9525359 453.700855 54.7456477 451.675493 55.5693399 449.40476 55.5693399 447.379398 54.7456477L447.345986 54.7456477z"/>
      <polygon points="463 56 464 56 464 32 463 32"/>
      <path d="M480.792371,55.0661599 C481.869804,54.4314112 482.793927,53.5593614 483.496971,52.5139613 L482.948211,52.1218266 C482.274245,53.0633616 481.418375,53.8549434 480.433064,54.4480493 C479.404786,55.0871461 478.221328,55.4209566 477.016384,55.4117701 C476.061152,55.416639 475.113978,55.2338427 474.226858,54.8734157 C473.365096,54.5248358 472.584162,53.9974318 471.933828,53.3248161 C471.262707,52.6222346 470.724563,51.7998686 470.346345,50.8988981 C469.923072,49.8946539 469.700976,48.814591 469.69306,47.7219425 L484,47.7219425 L484,47.5890155 C483.9979,46.552199 483.852762,45.5208145 483.568832,44.5250478 C483.292314,43.5278764 482.838395,42.5907495 482.229598,41.760166 C481.615119,40.9329242 480.830266,40.2523938 479.930035,39.7662608 C478.921244,39.2374261 477.79813,38.9746218 476.66361,39.0019305 C475.607099,38.9956172 474.561798,39.2223683 473.599704,39.6665655 C472.680897,40.0863741 471.854443,40.6898603 471.169484,41.4411411 C470.473367,42.2135041 469.931929,43.1165276 469.575469,44.0996814 C469.190412,45.1636178 468.99571,46.2891012 469.000578,47.4228567 L469.000578,47.4893202 C468.987107,48.7002288 469.209127,49.9018957 469.653863,51.0251787 C470.052573,52.0190448 470.640982,52.9226404 471.385068,53.683719 C472.112181,54.4223708 472.978897,55.0034372 473.932879,55.3918311 C474.914325,55.796323 475.964011,56.0017797 477.022917,55.996649 C478.338768,56.0368089 479.640929,55.7153705 480.792371,55.0661599 Z M469.686527,47.0905392 C469.719439,46.0797789 469.920447,45.0819979 470.281017,44.1395595 C470.610293,43.2687485 471.100364,42.4701093 471.724776,41.7867514 C472.333125,41.1288972 473.063646,40.6002895 473.874084,40.2315053 C474.738375,39.8454992 475.674073,39.6528418 476.61788,39.6665655 C477.593315,39.6536679 478.557261,39.8817364 479.427006,40.3312006 C480.224481,40.7424093 480.929596,41.3172069 481.497919,42.0193736 C482.069273,42.7220568 482.511833,43.5234988 482.804489,44.3854745 C483.103436,45.2641044 483.27723,46.1817442 483.320584,47.1104782 L469.686527,47.0905392 Z"/>
    </g>
  </g>
</svg>
