<?xml version="1.0" encoding="utf-8"?>
<!-- Generator: Adobe Illustrator 18.0.0, SVG Export Plug-In . SVG Version: 6.00 Build 0)  -->
<!DOCTYPE svg PUBLIC "-//W3C//DTD SVG 1.1//EN" "http://www.w3.org/Graphics/SVG/1.1/DTD/svg11.dtd">
<svg version="1.1" id="Calque_1" xmlns="http://www.w3.org/2000/svg" xmlns:xlink="http://www.w3.org/1999/xlink" x="0px" y="0px"
	 viewBox="0 0 198.4 194.3" enable-background="new 0 0 198.4 194.3" xml:space="preserve">
<g>
	<defs>
		<rect id="SVGID_1_" width="198.4" height="194.3"/>
	</defs>
	<clipPath id="SVGID_2_">
		<use xlink:href="#SVGID_1_"  overflow="visible"/>
	</clipPath>
	<path clip-path="url(#SVGID_2_)" fill="#7C7E81" d="M83,183.4c0,0,2.1,0.7,3.1,0.9c1,0.2,2,0.8,2,0.8l1.9,1.8l1.7-0.7l1.7,0.8
		c0,0,2.2,1,2.7,1s1.9-0.3,2,0.2c0.1,0.6,0.2,1.5,0.2,1.5l1.3,1.1l2,1.1c0,0,1.5,1.6,2,1.7c0.5,0.1,1.3,0.6,1.9,0.1
		c0.6-0.4,1.9-1.6,2.6-1.5c0.7,0.1,5.1,2,5.1,2s2.6,0,3.2-0.7c0.7-0.7,0.6-1.2,1.6-1.2s4.4-0.4,4.4-0.4s0.6,1.9-0.6-2
		c-1.2-3.9-1.2-4.9-1.2-4.9s-0.2-0.8,0-1.9c0.2-1.1,0.5-3.9,0.5-3.9v-1.9c0,0,1.9-1.2,2.2-1.7c0.3-0.4,3-1.5,3-1.5l1.5-1l5.3-2.3
		c0,0,0.5-0.4,1.7-1.3c1.3-0.9,1.7-1.6,1.7-1.6s-0.3-1,0.7-0.7c1,0.3,2.1,0.8,2.1,0.8v0.6c0,0,0.8,0.7,2.2,0.4
		c1.4-0.2,2.6-0.6,2.6-0.6l1.9-1.2c0,0,0-1.3,0.9-0.7l0.9,0.7c0,0-0.2,0.4-0.2,1c0,0.6-0.1,0.9-0.1,1.7c0,0.8,0.6,1.8,0.6,1.8
		l3.2-1.3l2.6-0.9c0,0,0.8,0,0.6-0.8l-0.2-0.8l0.3-0.9l1.6,0.7c0,0,0.2,0.2,0.6,0.2c0.3,0,1.6-0.7,1.3,0c-0.3,0.7-0.7,1-1,1.2
		c-0.3,0.2-2.3,2.2-2.3,2.2l1.5,0.1c0,0,1.4-0.1,1.7-0.1c0.3,0,1.4,0.7,1.4,0.7s-0.3,1,0.5,1.5c0.8,0.4-0.2,0.6,1.3,0.6h2.4
		c0,0,1.4,0.4,1.9,0.9c0.5,0.4,2.6,1.5,2.6,1.5s0.3,0.6,0.8,0.6c0.5,0,2.4-0.8,2.4-0.8l2,0.2l3.4-0.7l1.2-0.7l3-0.1
		c0,0,0.2-2.5,0.9-3c0.7-0.6,0.8-1.2,1.4-1.7c0.6-0.4,1.6-1.6,1.6-1.6l1.3-1.2l1.5-1.6l1.7-0.7l1-2.7c0,0,1.3-0.9,2-0.9
		s2.8-0.6,2.8-0.6s-0.5-1.3,0-2.3c0.5-1,0.8-2,0.8-2l2.6-3.7v-1.3c0,0,0.7-2.6-1-1.7c-1.7,0.9-2.4,1.1-2.4,1.1s-2.5,0.6-3.1,0.2
		c-0.6-0.3-2.1-1.1-2.1-1.1s-0.7,0.2-1.6-0.4c-0.9-0.7-0.8-0.6-1.6-1.1c-0.8-0.6-1.4-1.3-1.4-1.3s0.3-0.8,0.2-1.8
		c-0.1-1-0.7-1.1-0.6-1.9c0.1-0.8,0.9-2.2,0.9-2.2l0.5-3.5c0,0,0.1-1.9-0.5-2.1c-0.6-0.2-1.6-0.6-1.6-0.6s-1.4,0.3-1.9-0.4
		c-0.5-0.8-0.8-1.5-0.8-1.8c0-0.3-1.3-1.7-1.3-1.7l1.9-2.2c0,0,0.3-0.1,0.7-0.1c0.3,0,4.2-2.2,4.2-2.2l0.9-3.6l-1.9-1.7l-1-0.9
		c0,0-0.9-0.9-1-1.2c-0.1-0.3,0.1-1.8-0.6-1.9c-0.7-0.1-1.4-1.6-1.4-1.6l0.6-1.7l0.9-1.2l0.8-1.6c0,0,0-2.3-1-2.1
		c-1,0.2-0.7,1.7-1,0.2c-0.3-1.5-0.8-2.6-0.8-2.6s-0.8-0.2-0.6-1.1c0.2-0.9,0.5-1.2,0.5-1.6c0-0.3-0.8-2.3-0.8-2.3s-0.1-0.4-0.9-0.2
		c-0.8,0.2-2.9,0.2-3.2,0.3c-0.3,0.1-1.3,1-1.3,1l-0.9,0.8l-1.5,1.9c-0.7,0.4-2.2,1.9-2.2,1.9s-1.4-0.2-0.9-1.5l0.5-1.2
		c0,0,0-0.8-0.2-1.6c-0.2-0.8-0.2-0.9-0.6-1.5c-0.3-0.6-1-0.9-0.2-2.2c0.8-1.3,1-1.9,1-1.9l0.5-0.9l4.6-3.6c0,0,0-2.9,0.1-3.2
		c0.1-0.3-0.1-0.8,0.1-1.1c0.2-0.3-0.6-0.6,0.3-1c0.9-0.4,2.7-1.6,2.7-1.6s3.2-3.4,3.6-3.8c0.3-0.4,0.8-0.9,1-1.2
		c0.2-0.3,0.8-1.3,0.3-1.5c-0.5-0.1-0.7-0.1-0.8-0.8c-0.1-0.7,0.1-2.2,0.5-2.6c0.3-0.3,1.2-1.1,1.2-1.1s0.8,2,1.2,2
		c0.3,0,0.8,0.1,1.3,0c0.5-0.1,1.3-1,1.3-1s3-1.5,3.4-1.5c0.3,0-0.7-2.5-0.7-2.5l0.1-2.1c0,0,0.3-2.1,0.3-2.7c0-0.6,0.6,0.7,0-1.9
		c-0.6-2.6-0.5-3.6-0.5-4.1c0-0.6,0.2-1.3,0.5-1.8c0.2-0.4,2.2-4.8,2.2-4.8s0.9-1.5,0.9-1.9v-2.6v-1.6l2.2-2.3l1.7-2.8
		c0,0,0.6-1.2,0.1-1.7c-0.5-0.4-1.6-0.9-1.6-0.9h-1.6h-3.1h-1.7l-1.7-1l-1.6-0.7h-2.1l-0.9,0.3c0,0-2.3-0.9-2.9-0.8
		c-0.6,0.1-2.1-0.6-2.1-0.6s-0.3-0.7-0.9,0l-0.6,0.7c0,0-0.1,0.6-1.7-0.8c-1.6-1.3-3.1-4.1-3.1-4.1l-2.4-1.1l-2-0.2
		c0,0-3.1,0.3-3.7,0.3c-0.6,0-2.7-0.8-2.7-0.8l-2.9-0.9l-1.2-0.1l-0.9,1c0,0-0.8-1.1-1-1.5c-0.2-0.3-1.2-1.2-1.2-1.2l-2.1-1.2
		l-0.8-0.4l-2.2-1.2h-1.7l-1-1.5l0.1-1.8l-0.9-1.1l0.6-2.5v-0.9c0,0-1-0.6-1,0c0,0.6-0.9,1.6-0.9,1.9c0,0.3-0.7,1.2-0.7,1.2
		l-1.6,0.4l-2,0.7l-3.2-1.1c0,0-0.6-0.7-0.6-1.1v-2.1c0,0,1.3-2-0.1-3l-1.4-1l-1.7-0.3l-1.7-0.2h-1l-1,0.4c0,0-0.8-0.2-0.9-0.6
		c-0.1-0.3,0.1-1.5-0.1-1.8c-0.2-0.3-1.2-1.8-1.6-1.8c-0.5,0-1.6-0.3-1.6-0.3l-1.2,1c0,0-0.7-0.2-0.8-1.1c-0.1-0.9-0.1-1.8-0.1-1.8
		l-1.9-2.2c0,0,0.1-1.1-0.5-0.9c-0.6,0.2-2.6,0.8-2.6,0.8L117,6.7l-1-0.2L113.5,5l-0.2-1l-0.2-1.2l-1-2.2L111.8,0l-3.7,0.1
		c0,0-1,0.7-1.4,0.8c-0.3,0.1-4.4,0.4-4.4,0.4h-1.6c0,0-0.8,1-1.2,1.2c-0.3,0.2-0.8,1.8-0.8,1.8S97.9,4.9,97.9,6
		c0,1.1-0.2,2.6-0.2,2.6l-0.1,2.1l-0.2,2.8l-0.2,1.6l-0.2,0.8l-1,3.6c0,0-0.6,1.5-1.2,2c-0.6,0.6-0.3,0.3-1,0.9
		c-0.7,0.6-0.8,0.6-1.4,1.1c-0.6,0.6-0.3,0.7-1.2,0.9c-0.8,0.2-1.9,0.9-2.4,1c-0.6,0.1-5.9,1-6.5,1.2c-0.6,0.2-1.9,1.1-2.3,1.2
		c-0.5,0.1-2.4,1.5-2.9,1.7c-0.5,0.2-0.8,4.7-0.8,4.7l1.2,0.1c0,0,0.7,1.1,0,1.3c-0.7,0.2-1,0.4-1.5,0.6c-0.5,0.1-0.8,0.1-1.5,0.8
		l-0.7,0.7l-1.4,0.4h-2.4l-2.8-0.3l-2.3-0.7h-3.1L56.7,37l-1.9-2.1l-0.7-1.3c0,0-0.7-1.5-0.5-1.8c0.2-0.3,0.9-1.2,0.9-1.2
		s-0.7-1-1-1.1c-0.3-0.1-2.4-1.6-2.4-1.6s-0.2,1.1-0.6,1.3c-0.3,0.2-0.7,0.4-1.2,0.4c-0.5,0-1.5-0.7-2.1-0.8
		c-0.6-0.1-1.7-0.9-1.7-0.9s-0.6-0.8-0.9,0c-0.3,0.8-0.9,0.6-0.8,1.7c0.1,1.1,2.5,3.6,2.5,3.9c0,0.3-0.1,2,0.1,2.8
		c0.2,0.8,2.2,4.2,2.2,4.2s0.2,0.7,0.3,1.9c0.1,1.2,0.1,1.5,0.1,1.8v2.1c0,0.9-0.7,2.2-0.5,2.9c0.2,0.7-0.5-0.1,0.2,0.7
		c0.7,0.8,1.5,1.1,0.5,1.7c-1,0.6-1.3,0.6-1.9,0.9c-0.6,0.3-1.2,0.3-1.2,0.3l-1.6-0.8l-0.9-1.2h-2.1c0,0,0,0.2-0.7,1
		c-0.7,0.8,0.6,0.6-1.2,0.6c-1.7,0-3.2-0.3-3.2-0.3s-0.9-0.9-1.3-0.8c-0.3,0.1-0.6-0.2-1.3,0.9c-0.7,1.1-1,0.8-1.3,1.3
		c-0.2,0.6-0.7,0.8-0.7,0.8s-0.5-1.3-1.6-1.9c-1.2-0.6-1.7-0.9-2.1-1.6c-0.3-0.7-0.5-2-0.5-2s-0.2-0.6-0.7-0.9
		c-0.5-0.3-2.2-1.3-2.2-1.3l-2.7-0.2c0,0-0.1-0.1-1,0.1c-0.9,0.2-0.8-0.2-1.5,0.2c-0.7,0.4-1.7,1.1-1.7,1.1s-0.1,0.3-0.2,0.9
		c-0.1,0.6-0.6,1.2-0.6,1.2l-2-0.7c0,0-0.6-0.6-1.5-0.3c-0.9,0.2-1.5,0.2-2.1,0.2c-0.6,0-1.4-0.7-1.9-0.7c-0.5,0-1.9-0.3-3.4,0.3
		c-1.5,0.7-1.4,0.8-2.7,1c-1.3,0.2-3.6,2.3-3.6,2.3c0.2,1.2,0.3,4.6,1.7,4.7c1.4,0.1,1.9-1.3,3.4-0.4c1.5,0.9-0.1,2.3-0.1,2.3
		c-0.5,0.9-0.6,1.8-0.6,1.8s0,0.4-1.7,0.9c-1.7,0.4-1,0.2-1.7,0.4C0.5,62.1,0,63.1,0,63.1l2.3,1.1l1.2,1.5l1.3,2.1l0.6,0.9
		c0,0,2.1-0.2,2.3-0.6C7.9,67.8,8.6,67.4,9,67c0.5-0.3,3.2,0.2,3.2,0.2l0.3,0.9c0,0,0.9,1.1,2,1.3c1,0.2,0.5,0,1,0.2
		c0.6,0.2,1.6,1,1.6,1l2,1l1.9,0.8l2.4,2.7h2l2,1c0,0,1.3,0.2,1.7,0.2h1.9l2,0.9v3.5c0,0.4-0.8,1.6-0.2,1.6h2.8l1.3,1.1l0.8,0.1
		c0,0,1.7-1.1,2.1-1c0.3,0.1,0,1.2-0.2,1.9c-0.2,0.7-0.7,0.3-0.7,0.7c0,0.3-0.1-1.1,0.3,0.9c0.5,2-0.9,4.2-0.9,4.2l-0.6,0.4l0.8,2.7
		l0.8,0.9l1.2,1.9l1.2,1.8c0.3,0.7,0.2,1,0.3,1.6c0.1,0.6,1.4,1.5,1.4,1.5l1.5,0.2c0,0-0.7-0.3,1.2,0.7l1.9,1c0,0,0.2,0.9,1,1.1
		c0.8,0.2,2.7,0.1,2.7,0.4s0.6,0.8,0.6,0.8s1.5,0.6,0.8,1c-0.7,0.4-0.8,0.3-0.9,0.9c-0.1,0.6-0.6,1.1-0.6,1.5c0,0.3-0.6-1,0.8,0.6
		c1.4,1.6,1.5,2.1,1.5,2.1s-0.3,0.1-0.3,0.7c0,0.6-0.5,1.6-0.5,1.6l-0.1,1.6c0,0-0.5,1.5-0.8,1.5s-0.5-0.3-0.8,0
		c-0.3,0.3-0.3,1.2-0.3,1.2l1.5,1l2,1.7l1.5,1.7l2,1.5l0.6,3.2c0,0-0.2-0.2,0.2,0.9c0.5,1.1,1.6,3.6,1.6,3.6s-1.2-1.5,0,0.6
		c1.2,2,1.3,2.8,1.3,2.8s0.1,0.9-0.7,1.1c-0.8,0.2-1-1.6-1-1.6s-0.1-1.2-0.5-1.5c-0.3-0.2-0.8-0.9-0.9-1.2s-0.3-1.5-0.3-1.5
		l-1.5-3.9l-0.7-0.9c0,0-0.7-0.6-1.7-1.3c-1-0.8-1.5-1.2-1.5-1.2s-1.2,0.6-1.2,1c0,0.4,0.2,1.5,0.2,1.5s0.1,0.8,0.1,1.1
		c0,0.3-0.2,1.1-0.2,1.1l-0.1,1c0,0,0.1-0.8,0.5-0.2c0.3,0.6,1,2.5,1,2.5s0.3,0-0.2,0.6c-0.6,0.6-0.7,0.8-1,0.8s-0.9-0.3-0.9-0.3
		s-0.3,1-0.3,2.1v1.1v2.7l-0.2,0.8l-0.6,1.9l-0.3,1.3c0,0,0.9-0.3,1.2-0.7c0.2-0.3,1-1.1,1-1.1l0.8,0.9c0,0,0.7,1.2,0.2,1.7
		c-0.5,0.4-1.2,0.4-1.2,0.4s-0.6,0-1.2,0.7c-0.6,0.7-1.3,1.1-1.3,1.1s-0.1-0.2-0.2,0.8c-0.1,1-0.1,1.6-0.1,1.6l-0.5,4.6
		c0,0-0.2,1.2-0.7,1.5c-0.5,0.2-0.9,1.1-0.9,1.1s-0.1,0.9-0.1,1.3v1.1c0,1,0.1,2.7,0,3c-0.1,0.3-0.7,1.2-0.7,1.2s-0.2-0.1-0.3,0.7
		s-0.1,1.8-0.1,1.8s0.1,0.7,0.1,1c0,0.3-0.8,1.1-1.4,1.7c-0.6,0.6-1.4,1.8-1.7,2.1c-0.3,0.3-0.9,0.9-0.9,0.9s-0.7,0.1-0.7,0.9
		s0.1,2,0.1,2s0.2,0,0.7,0.2c0.5,0.2,3.5,0.2,3.5,0.2s0.9,0.2,0.9,0.9c0,0.7,0.9-1.2,0,0.7c-0.9,1.9-1.5,1.9-1.5,2.2
		c0,0.3,1.2,1.8,1.2,1.8s0.6-1.6,1.2-1.6h1l-0.2,1c0,0,1.2,1.1,1.5,1.1h1l0.8,0.4c0,0,2.9,1.2,3.2,1.2c0.3,0,1.2,0.1,1.2,0.1
		l0.7,0.6c0,0-0.1,0.4,0.3,0.7l0.5,0.2l1.6,1.8l1,0.2l2.1-0.8l1,0.1h1.9c0,0,0.9,0.1,1.4,0.7c0.5,0.6,1.5,1.6,1.5,1.6l1.3,0.6
		l1.7,0.1l1.5-0.3l1.4,0.8h2.1c0.6,0,2.8,0.2,2.8,0.2l1.4-0.3c0,0,1.2-0.3,1.2-0.9v-1.6l0.8-1.5L83,183.4z"/>
</g>
</svg>
