<svg xmlns="http://www.w3.org/2000/svg" width="2302" height="1358" viewBox="0 0 2302 1358" xmlns:xlink="http://www.w3.org/1999/xlink">
  <defs>
    <rect id="a" width="2114" height="377" x="83" y="921" rx="8"/>
  </defs>
  <g fill="none" fill-rule="evenodd">
    <path fill="#E6BE3D" fill-rule="nonzero" d="M0,934 C0,622.705055 0,311.294945 0,0 C767.3717,0 1534.6283,0 2302,0 C2302,311.294945 2302,622.705055 2302,934 C1534.6283,934 767.3717,934 0,934 Z M1151.2302,156.511221 C831.5975,156.511221 512.0799,156.511221 192.4472,156.511221 C190.1452,156.511221 187.8432,156.511221 185.5412,156.511221 C167.9309,156.971887 156.1907,168.834032 156.1907,186.569667 C156.1907,373.484834 156.1907,560.515166 156.1907,747.430333 C156.1907,749.963995 156.3058,752.497657 156.7662,754.800986 C160.2192,769.65746 171.2688,777.373613 188.9942,777.373613 C830.3314,777.373613 1471.5535,777.373613 2112.8907,777.488779 C2135.2201,777.488779 2146.0395,762.747472 2145.9244,744.436005 C2145.5791,559.363502 2145.6942,374.406165 2145.6942,189.333662 C2145.6942,187.260666 2145.8093,185.072503 2145.6942,182.999507 C2145.1187,171.137361 2136.256,160.196547 2124.8611,157.662885 C2120.3722,156.741554 2115.7682,156.511221 2111.1642,156.511221 C1791.1862,156.511221 1471.2082,156.511221 1151.2302,156.511221 Z"/>
    <use fill="#000000" xlink:href="#a"/>
    <rect width="2113" height="376" x="83.5" y="921.5" stroke="#979797" rx="8"/>
    <path fill="#E6BE3D" fill-rule="nonzero" d="M0,1358 C0,1196.35327 0,1034.64673 0,873 C767.3717,873 1534.6283,873 2302,873 C2302,1034.64673 2302,1196.35327 2302,1358 C1534.6283,1358 767.3717,1358 0,1358 Z M1152.17222,955 C832.496886,955 512.936669,955 193.261336,955 C190.959029,955 188.656722,955 186.354415,955 C168.741766,955.238131 157,961.369993 157,970.538019 C157,1067.1595 157,1163.8405 157,1260.46198 C157,1261.7717 157.115115,1263.08142 157.575577,1264.27207 C161.029037,1271.95178 172.080111,1275.94047 189.807875,1275.94047 C831.230617,1275.94047 1472.53824,1275.94047 2113.96099,1276 C2136.29336,1276 2147.11421,1268.37982 2146.99909,1258.91413 C2146.65375,1163.24518 2146.76886,1067.63576 2146.76886,971.966803 C2146.76886,970.895215 2146.88398,969.764095 2146.76886,968.692507 C2146.19328,962.560645 2137.3294,956.905045 2125.93298,955.595326 C2121.44348,955.119065 2116.83887,955 2112.23425,955 C1792.21358,955 1472.1929,955 1152.17222,955 Z"/>
    <path fill="#000000" fill-rule="nonzero" d="M1152.17267,157 C1472.1935,157 1792.21432,157 2112.23515,157 C2116.83976,157 2121.44438,157.115171 2125.93388,158.151706 C2137.33031,160.68546 2146.19419,171.74184 2146.76977,183.489243 C2146.88488,185.562315 2146.76977,187.750556 2146.76977,189.823628 C2146.76977,374.902819 2146.65465,559.86684 2147,744.946031 C2147,763.25816 2136.17915,778 2113.96188,778 C1472.53884,777.884829 831.230925,777.884829 189.80789,777.884829 C172.080118,777.884829 161.029039,770.168398 157.575577,755.311387 C157,752.892804 157,750.35905 157,747.940467 C157,561.018546 157,373.981454 157,187.059533 C157,169.323257 168.741771,157.460682 186.354428,157 C188.656736,157 190.959044,157 193.261352,157 C512.936831,157 832.61231,157 1152.17267,157 Z M1472.76908,708.897626 C1475.87719,708.897626 1478.29461,708.897626 1480.82715,708.897626 C1579.8264,708.897626 1678.82565,708.897626 1777.8249,708.897626 C1832.50471,708.897626 1887.18453,709.012797 1941.86435,708.782455 C1964.54208,708.667285 1986.98959,706.133531 2008.86151,699.683976 C2047.88564,688.166914 2073.67149,663.520401 2083.11095,623.325853 C2089.55741,595.684904 2089.78764,567.813613 2084.83768,539.942322 C2077.70053,500.208457 2054.56233,475.216432 2015.42309,464.966246 C2011.04871,463.81454 2006.55921,462.893175 2001.2639,461.626298 C2006.44409,459.207715 2010.58825,457.364985 2014.7324,455.407085 C2043.97171,440.895586 2063.08087,418.322144 2069.06687,385.613687 C2072.40522,367.531899 2072.05987,349.334941 2069.52733,331.137982 C2063.3111,285.991098 2040.1729,253.628153 1997.11974,236.928412 C1970.87343,226.793398 1943.24573,223.45345 1915.27269,223.45345 C1769.6517,223.338279 1624.03072,223.338279 1478.40973,223.338279 C1476.56788,223.338279 1474.72604,223.56862 1472.88419,223.683791 C1472.76908,385.728858 1472.76908,546.852559 1472.76908,708.897626 Z M1256.58235,521.399852 C1256.58235,527.388724 1256.81258,532.686573 1256.58235,537.984421 C1255.08584,563.897812 1242.65338,580.021699 1217.55822,586.356083 C1204.6653,589.580861 1191.1968,591.769102 1177.84341,592.114614 C1136.05652,593.15115 1094.15451,593.496662 1052.36762,593.035979 C1033.83404,592.805638 1015.18534,591.423591 996.881992,588.544325 C970.060103,584.398182 949.454446,571.03839 941.971944,543.051929 C939.899867,535.335497 938.173136,527.273553 937.942905,519.32678 C937.367328,487.654859 937.137097,455.982938 937.367328,424.311016 C937.482443,413.83049 938.633598,403.234792 940.360329,392.869436 C944.619599,366.840875 959.469486,350.256306 985.600683,344.843286 C996.076184,342.655045 1006.78192,340.581973 1017.37253,340.466803 C1072.97327,339.660608 1128.57402,339.315096 1184.28987,339.430267 C1194.88049,339.430267 1205.70134,341.388168 1216.06172,343.921921 C1238.73946,349.680453 1249.90565,363.040245 1252.78354,386.304711 C1253.244,390.220512 1253.244,394.136313 1253.47423,398.052114 C1303.3192,398.052114 1352.47348,398.052114 1401.85799,398.052114 C1402.08822,395.979043 1402.43356,394.251484 1402.54868,392.523924 C1403.4696,366.380193 1403.00914,340.351632 1397.25337,314.668583 C1387.69879,271.709941 1363.06409,242.686944 1320.35628,229.787834 C1293.07393,221.61072 1264.98577,218.501113 1236.89761,218.270772 C1149.98548,217.694918 1063.07335,217.579748 976.161219,218.270772 C947.382368,218.501113 918.833748,222.647255 890.97582,230.594028 C842.972696,244.184162 809.81946,272.976818 795.890496,322.039503 C788.177764,349.21977 786.105686,377.091061 785.990571,405.192693 C785.875456,448.612018 785.530109,491.916172 786.105686,535.335497 C786.335917,553.647626 787.487071,572.305267 790.710303,590.271884 C800.955574,647.281343 833.993695,685.172478 889.364204,702.793583 C918.143055,712.007233 948.073061,714.080304 978.003066,714.310645 C1055.70596,714.771328 1133.40886,714.771328 1211.11176,714.425816 C1246.22196,714.310645 1281.33216,712.237574 1315.40632,702.908754 C1350.74675,693.234421 1378.60467,674.000927 1394.26037,639.680082 C1403.93006,618.373516 1407.38353,595.684904 1408.30445,572.535608 C1408.88003,555.605527 1408.41956,538.560274 1408.41956,521.284681 C1357.19321,521.399852 1307.57847,521.399852 1256.58235,521.399852 Z M224.112281,498.94158 C224.112281,520.939169 223.536704,542.476076 224.342512,563.897812 C225.033204,581.634088 226.069243,599.600705 228.947128,617.106639 C236.084283,659.950111 260.488749,688.512426 302.275641,701.526706 C327.025453,709.243138 352.465957,712.813427 378.136692,713.27411 C429.478163,714.080304 480.934749,714.425816 532.391335,714.195475 C560.594609,714.080304 588.797883,712.352745 616.310465,705.327337 C649.23347,696.919881 676.170475,680.220141 693.207555,649.699926 C707.136519,624.823071 712.777174,597.988316 712.777174,569.656343 C712.662058,456.44362 712.777174,343.230898 712.777174,229.903004 C712.777174,227.829933 712.546943,225.872033 712.431827,223.914132 C662.817088,223.914132 613.893041,223.914132 564.508532,223.914132 C564.508532,226.908568 564.508532,229.327151 564.508532,231.860905 C564.508532,328.028375 564.623648,424.195846 564.393417,520.363316 C564.393417,531.419696 563.702725,542.591246 562.32134,553.647626 C560.134147,571.383902 551.500492,584.628524 533.197142,589.580861 C528.016949,590.962908 522.721641,592.229785 517.426332,592.344955 C491.41025,592.920809 465.279054,593.26632 439.147857,593.26632 C428.672355,593.26632 418.081738,592.460126 407.606236,591.193249 C383.892463,588.198813 369.618152,575.414874 365.819344,551.920067 C363.401921,536.832715 363.747267,521.399852 362.826343,506.082159 C362.711228,503.778746 362.826343,501.590504 362.826343,498.826409 C316.780182,498.94158 270.849135,498.94158 224.112281,498.94158 Z M224.457627,323.536721 C224.457627,354.402448 224.572743,385.383346 224.342512,416.249073 C224.342512,421.086239 225.37855,422.813798 230.673859,422.813798 C292.605947,422.583457 354.538034,422.583457 416.585237,422.813798 C421.765431,422.813798 423.0317,421.31658 423.0317,416.249073 C422.916585,354.287277 422.916585,292.325482 423.0317,230.248516 C423.0317,225.641691 421.880546,224.029303 416.930584,224.029303 C354.768265,224.144473 292.605947,224.144473 230.443628,224.029303 C225.608781,224.029303 224.342512,225.41135 224.342512,230.248516 C224.572743,261.344585 224.457627,292.440653 224.457627,323.536721 Z"/>
    <path fill="#FFFFFF" fill-rule="nonzero" d="M1472 707.971242C1472 546.122443 1472 385.078862 1472 223.345093 1473.95543 223.230062 1475.79584 223 1477.52122 223 1623.02839 223 1768.53555 223 1914.04272 223.115031 1941.99389 223.115031 1969.48497 226.450934 1995.82579 236.573673 2038.96033 253.253187 2062.08044 285.461903 2068.17679 330.669137 2070.70735 348.844056 2071.05242 367.018974 2067.71669 385.078862 2061.73536 417.747702 2042.64114 440.293804 2013.42468 454.787726 2009.28377 456.858286 2005.14285 458.698784 1999.96671 460.999407 2005.25788 462.264749 2009.62884 463.184999 2014.11484 464.33531 2053.22348 474.458049 2076.22857 499.534835 2083.47517 539.220575 2088.53629 567.058109 2088.30624 595.010673 2081.74979 622.503113 2072.3177 662.648977 2046.66703 687.265639 2007.55839 698.768752 1985.70356 705.210495 1963.2736 707.856211 1940.61359 707.856211 1885.97651 708.086273 1831.33943 707.971242 1776.70236 707.971242 1677.78049 707.971242 1578.85862 707.971242 1479.93675 707.971242 1477.52122 707.971242 1475.10569 707.971242 1472 707.971242zM1620.26778 597.77142C1623.14341 597.77142 1625.32889 597.77142 1627.6294 597.77142 1714.81868 597.77142 1802.00795 597.77142 1889.19722 597.77142 1892.87804 597.77142 1896.55885 597.77142 1900.12464 597.311296 1914.73287 595.585829 1925.08516 588.223836 1930.2613 574.190039 1934.51724 562.686926 1934.97734 550.838719 1931.87166 539.105544 1927.84577 524.036466 1917.95358 514.718945 1902.6552 511.613104 1898.05418 510.692855 1893.10809 510.692855 1888.39205 510.692855 1801.43282 510.692855 1714.35857 510.692855 1627.39935 510.692855 1625.09884 510.692855 1622.91336 510.692855 1620.26778 510.692855 1620.26778 539.910762 1620.26778 568.323451 1620.26778 597.77142zM1619.9227 331.93448C1619.9227 334.580196 1619.9227 336.650756 1619.9227 338.606285 1619.9227 360.692262 1620.15275 382.663208 1619.80767 404.749185 1619.69265 410.730803 1621.53305 411.996146 1627.1693 411.996146 1710.33268 411.766084 1793.49607 411.881115 1876.54443 411.881115 1880.57032 411.881115 1884.59621 411.651052 1888.6221 411.075897 1898.62931 409.695523 1907.14119 405.32434 1911.97226 396.236881 1919.90901 381.052772 1920.36911 365.178476 1912.20231 349.994367 1904.61063 335.845538 1891.38271 331.93448 1876.31438 331.93448 1793.15099 332.049511 1709.98761 331.93448 1626.93925 331.93448 1624.75377 331.93448 1622.68331 331.93448 1619.9227 331.93448zM1255.84796 520.547662C1306.85258 520.547662 1356.47558 520.547662 1407.82559 520.547662 1407.82559 537.829055 1408.28613 554.880029 1407.71046 571.815794 1406.90452 594.97286 1403.45048 617.669089 1393.66404 638.982806 1378.00574 673.315173 1350.14318 692.555124 1314.79686 702.232704 1280.6019 711.564656 1245.60099 713.638423 1210.48494 713.753632 1132.76911 714.09926 1055.05328 714.09926 977.337442 713.638423 947.402454 713.523213 917.467466 711.334237 888.683824 702.117494 833.304096 684.490474 800.260475 646.586619 790.013498 589.558023 786.78973 571.585375 785.753519 552.921471 785.408115 534.603195 784.717308 491.169295 785.062712 447.850604 785.292981 404.416703 785.408115 376.305638 787.480538 348.424991 795.194554 321.2356 809.125837 272.156445 842.399727 243.354124 890.295708 229.759428 918.158273 221.809988 946.711646 217.662453 975.495289 217.432035 1062.42189 216.855988 1149.34849 216.855988 1236.27509 217.432035 1264.48306 217.662453 1292.57589 220.773104 1319.74765 228.952963 1362.46257 241.741194 1387.10137 270.889143 1396.65754 313.862206 1402.41427 339.553876 1402.87481 365.591175 1401.95373 391.743682 1401.8386 393.471821 1401.49319 395.084751 1401.26292 397.273728 1351.87019 397.273728 1302.70773 397.273728 1252.85447 397.273728 1252.6242 393.356612 1252.6242 389.439496 1252.16366 385.522381 1249.40043 362.250105 1238.23237 348.885828 1215.43573 343.125364 1205.07362 340.475551 1194.25097 338.632202 1183.65859 338.632202 1128.04859 338.516993 1072.4386 338.862621 1016.71346 339.669086 1006.12108 339.784295 995.413569 341.973271 984.936323 344.047038 958.800776 349.461875 943.948417 366.052012 939.688438 392.08931 937.961419 402.458146 936.810074 413.0574 936.694939 423.541445 936.46467 455.223998 936.694939 486.906551 937.270612 518.589104 937.385746 526.538545 939.227899 534.603195 941.300322 542.322217 948.784069 570.318073 969.393157 583.68235 996.219511 587.829884 1014.52591 590.710116 1033.17771 592.092628 1051.71437 592.323046 1093.50822 592.668674 1135.4172 592.323046 1177.21105 591.401372 1190.45153 591.055744 1204.03741 588.981977 1216.93248 585.640908 1242.03182 579.304397 1254.35121 563.059888 1255.9631 537.253008 1256.19337 531.838172 1255.84796 526.423336 1255.84796 520.547662zM223.177663 497.73894C269.918564 497.73894 315.853589 497.73894 362.018863 497.73894 362.018863 500.386194 361.903738 502.688154 362.018863 504.990114 362.939866 520.298149 362.59449 535.721282 365.012123 550.799121 368.811261 574.279114 383.086807 586.939895 406.802634 590.047541 417.279043 591.428717 427.755452 592.119305 438.346986 592.119305 464.480446 592.119305 490.498781 591.774011 516.632241 591.198521 521.928008 591.083423 527.3389 589.817345 532.404417 588.436169 550.709351 583.486955 559.343754 570.250684 561.531136 552.525591 562.912641 541.476182 563.603393 530.311676 563.603393 519.262267 563.718518 423.155432 563.718518 327.048597 563.718518 230.941762 563.718518 228.524704 563.718518 225.992548 563.718518 223 613.107304 223 662.035588 223 711.654624 223 711.769749 224.956666 712 227.02843 712 228.985096 712 342.126436 712 455.267776 712 568.524214 712 596.838323 706.358857 623.656159 692.428686 648.517328 675.390131 678.903201 648.450794 695.70751 615.524937 704.109665 588.009972 711.130643 559.804256 712.972211 531.598539 712.972211 480.137497 713.087309 428.79158 712.857113 377.330538 712.051427 351.65758 711.591035 326.099747 708.022997 301.462917 700.311431 259.672406 687.305356 235.265827 658.645952 228.128054 615.944592 225.249919 598.449695 224.098666 580.494406 223.523039 562.769313 222.602036 541.245986 223.177663 519.722659 223.177663 497.73894z"/>
    <path fill="#E6BE3D" fill-rule="nonzero" d="M224.115295,322.615295 C224.115295,291.485516 224.230591,260.355736 224,229.225956 C224,224.498841 225.26825,223 230.11066,223 C292.37022,223.115295 354.62978,223.115295 416.88934,223 C421.847045,223 423,224.614137 423,229.225956 C422.884705,291.254925 422.884705,353.283893 423,415.428158 C423,420.501159 421.73175,422 416.543453,422 C354.514484,421.884705 292.485516,421.769409 230.341251,422 C225.037659,422 224,420.270568 224,415.428158 C224.230591,384.528969 224.115295,353.514484 224.115295,322.615295 Z M246.482619,272.115875 C246.943801,274.075898 247.750869,277.995944 248.903824,281.800695 C258.473349,312.008111 268.042874,342.100232 277.612399,372.307648 C281.532445,384.413673 287.066628,387.29606 299.51854,383.376014 C329.841251,373.806489 360.163963,364.121669 390.486674,354.552144 C401.900927,350.862688 405.013905,344.867323 401.32445,333.453071 C396.943221,319.963499 392.331402,306.589224 387.834878,293.099652 C384.837196,284.106605 378.726535,279.37949 369.502897,277.995944 C347.020278,274.421784 324.537659,270.501738 302.055041,266.812283 C288.104287,264.506373 274.038239,262.200463 260.087486,259.894554 C251.209733,258.395713 246.482619,262.085168 246.482619,272.115875 Z"/>
    <path fill="#000000" fill-rule="nonzero" d="M1620 598C1620 568.5786 1620 540.191546 1620 511 1622.64915 511 1624.83757 511 1627.14118 511 1714.21745 511 1801.4089 511 1888.48517 511 1893.32274 511 1898.16031 511 1902.76752 511.919419 1918.08649 515.022457 1927.99199 524.446499 1932.0233 539.387054 1935.13317 551.109643 1934.55727 562.94716 1930.41078 574.439894 1925.22767 588.46103 1914.86144 595.81638 1900.23355 597.540291 1896.66297 598 1892.9772 598 1889.29143 598 1801.9848 598 1714.67817 598 1627.37154 598 1625.18311 598 1622.87951 598 1620 598zM1620.23591 332C1623.00275 332 1625.07788 332 1627.15301 332 1710.50414 332 1793.85526 332 1877.09109 332 1892.30872 332 1905.56651 335.908046 1913.06004 350.045977 1921.24528 365.218391 1920.78414 381.08046 1912.82947 396.252874 1907.9875 405.333333 1899.4564 409.701149 1889.4266 411.08046 1885.5069 411.655172 1881.35664 411.885057 1877.32166 411.885057 1793.97054 411.885057 1710.61942 411.885057 1627.38358 412 1621.61933 412 1619.89005 410.735632 1620.00534 404.758621 1620.35119 382.804598 1620.12062 360.735632 1620.12062 338.666667 1620.23591 336.597701 1620.23591 334.528736 1620.23591 332zM246 272.576063C246 262.577488 250.721101 258.899851 259.472411 260.278965 273.405417 262.577488 287.453572 264.761085 301.386578 267.174534 323.840597 270.852171 346.294615 274.75966 368.748633 278.32237 377.960538 279.81641 384.178574 284.413456 387.057294 293.377696 391.432949 306.824055 396.15405 320.155488 400.529705 333.601848 404.214467 345.094463 401.105449 351.070622 389.705717 354.633333 359.421579 364.287129 329.137442 373.826 298.853304 383.36487 286.532382 387.272359 280.89009 384.399205 276.97503 372.33196 267.417679 342.336235 257.745179 312.225584 248.302976 282.114933 247.151488 278.437297 246.460595 274.529808 246 272.576063zM258.781518 266.025273C253.369524 265.450642 251.872589 268.208869 252.448333 273.035768 252.678631 274.529808 252.908929 276.023847 253.369524 277.517887 263.157173 308.547947 272.829673 339.578008 282.617322 370.493142 285.035447 378.30812 288.835358 380.032012 296.665477 377.618563 326.834466 368.309545 357.003454 359.000527 387.172443 349.576582 396.038901 346.818355 397.650985 343.485497 394.772264 334.521257 390.626907 321.994307 386.136103 309.582283 382.336193 296.940406 379.918068 288.665724 374.85152 284.873161 366.445657 283.608973 343.761341 280.161189 321.077025 276.138774 298.392709 272.461137 285.150596 270.162614 271.908483 268.093943 258.781518 266.025273z"/>
    <path fill="#E6BE3D" fill-rule="nonzero" d="M258.419166,266.075517 C271.67284,268.152517 284.926514,270.229517 298.180187,272.421906 C320.884307,276.114351 343.473177,280.152962 366.292546,283.614629 C374.705748,284.883907 379.776718,288.807129 382.196954,296.999741 C386.000183,309.69252 390.494907,322.154521 394.643883,334.731911 C397.640366,343.732245 395.911626,347.078523 387.037427,349.847856 C356.8421,359.309746 326.646774,368.656246 296.451447,378.002747 C288.614492,380.425914 284.811264,378.579692 282.391028,370.848635 C272.594834,339.809022 262.798641,308.65402 253.117696,277.499017 C252.656699,275.998962 252.310951,274.498906 252.195702,272.99885 C251.388956,268.267906 253.002447,265.498572 258.419166,266.075517 Z M275.821816,328.616299 C278.703049,337.616633 281.238535,346.2708 284.004519,354.809579 C289.305988,371.310191 291.956723,372.694858 308.552628,367.963913 C320.538559,364.502246 322.497798,361.040579 318.694569,349.155523 C313.623599,332.885688 308.437378,316.500465 303.366408,300.23063 C303.02066,299.19213 303.135909,298.038241 303.02066,296.999741 C304.864649,296.307408 306.36289,295.845852 307.861132,295.268908 C305.440896,279.34524 305.440896,279.34524 290.343232,277.152851 C284.926514,276.345128 279.509795,275.537406 273.171081,274.614295 C274.669323,279.576018 275.821816,283.268462 276.743811,286.960907 C277.781055,290.999518 278.5878,294.922741 284.235018,294.461185 C285.157012,294.345796 286.770503,296.538186 287.2315,298.038241 C292.187222,313.615742 297.027694,329.193243 301.752917,344.770745 C302.213914,346.155411 301.061421,348.117023 300.600423,349.732467 C299.102182,348.578578 296.797195,347.770856 296.220949,346.2708 C294.26171,341.309078 292.993967,336.001188 291.034728,331.039466 C290.458482,329.53941 288.268744,327.693188 286.770503,327.577799 C283.428272,327.347021 279.970792,328.154743 275.821816,328.616299 Z M341.052941,325.154632 C342.090185,328.962466 343.242678,332.424133 343.818925,335.8858 C344.049424,337.270466 343.473177,338.885911 343.242678,340.385967 C341.859686,339.462855 339.5547,338.885911 339.208952,337.616633 C335.290474,325.154632 331.602495,312.692631 327.914516,300.115241 C327.684018,299.538297 328.029766,298.730575 328.145015,298.038241 C328.606013,297.807463 329.06701,297.461297 329.528007,297.230519 C331.026249,299.076741 332.985487,300.692186 333.792233,302.769186 C337.019214,310.961798 337.941209,311.538742 348.313649,309.230964 C346.700159,304.153853 344.971418,299.076741 343.473177,293.99963 C341.744437,287.999407 337.480212,284.653129 331.832994,283.268462 C327.22302,282.114573 322.382548,281.42224 317.657325,280.845295 C311.433861,280.152962 308.322129,283.49924 310.166118,289.499463 C316.389583,310.500242 322.843546,331.385633 329.297509,352.271023 C330.910999,357.348134 334.714227,359.771301 340.015697,358.84819 C344.164673,358.155857 348.1984,357.001968 352.232127,355.73269 C358.801339,353.540301 360.991076,349.617078 359.147087,342.809133 C357.764095,337.616633 356.265854,332.424133 354.191365,327.46241 C353.499869,325.846965 350.849135,324.577688 348.774647,324.116132 C346.35441,323.885354 344.049424,324.693076 341.052941,325.154632 Z M345.778164,286.499351 C346.35441,288.69174 346.930657,290.88413 347.622153,292.96113 C352.347376,307.730909 356.8421,322.616076 362.14357,337.270466 C363.75706,341.886022 362.258819,349.501689 368.828031,350.194023 C373.783753,350.770967 379.200472,348.001634 384.156193,346.040022 C388.535668,344.309189 390.840655,340.270578 389.688161,335.770411 C387.728923,328.154743 386.806928,319.731354 379.200472,315.000409 C385.308687,297.922852 369.05853,283.960796 345.778164,286.499351 Z"/>
    <path fill="#000000" fill-rule="nonzero" d="M275.638117 327.71111C279.882044 327.253019 283.208365 326.451361 286.534686 326.565884 288.025795 326.680406 290.205109 328.512768 290.778613 330.001562 292.728525 334.926035 293.990233 340.194076 295.940146 345.118548 296.513649 346.607343 298.807664 347.409001 300.298773 348.554227 300.757576 346.836388 301.904584 345.004026 301.445781 343.629754 296.857751 328.1692 291.92562 312.708646 286.993489 297.248092 286.534686 295.873821 284.928876 293.697891 284.01127 293.697891 278.390934 294.041459 277.588029 290.14769 276.555723 286.253921 275.638117 282.589197 274.491109 279.038995 273 274 279.423241 274.916181 284.699474 275.717839 290.090409 276.519498 305.001503 278.80995 305.001503 278.80995 307.524919 294.499549 306.03381 295.072163 304.5427 295.530253 302.707489 296.217389 302.822189 297.248092 302.707489 298.393319 303.051591 299.424022 308.098423 315.571712 313.145255 331.833924 318.306788 347.981614 321.977211 359.777444 320.141999 363.213123 308.213124 366.648801 291.696219 371.344229 289.058102 369.969957 283.781868 353.593222 281.029051 345.233071 278.390934 336.758397 275.638117 327.71111zM341.657588 325.121262C344.648504 324.661376 346.949208 323.741606 349.019842 324.201491 350.975441 324.546405 353.736286 325.811089 354.426497 327.535659 356.497131 332.364453 358.107624 337.653133 359.373011 342.826842 361.213575 349.610149 359.027906 353.634144 352.470899 355.703627 348.444666 356.968312 344.418433 358.118025 340.277166 358.807853 334.985546 359.727623 331.189384 357.313226 329.578891 352.254488 323.136919 331.444683 316.694947 310.634878 310.483045 289.710101 308.757517 283.846565 311.748432 280.397426 317.960334 281.087253 322.676778 281.66211 327.508257 282.351938 332.109665 283.501651 337.861426 284.881306 342.002694 288.215474 343.728222 294.193982 345.22368 299.252719 346.949208 304.311456 348.559701 309.370193 338.206532 311.669619 337.401285 311.094763 334.065264 302.931801 333.260018 300.862317 331.304419 299.252719 329.808961 297.413178 329.34882 297.643121 328.888679 297.988035 328.428539 298.217977 328.313503 298.907805 327.968398 299.712604 328.198468 300.287461 331.879595 312.704361 335.560722 325.236233 339.471919 337.653133 339.817025 338.917818 342.117729 339.492674 343.498152 340.412445 343.728222 338.917818 344.418433 337.308219 344.073328 335.928564 343.843257 332.364453 342.692905 328.915314 341.657588 325.121262zM346 286.298492C369.112216 283.766356 385.130584 297.693105 379.295321 314.842572 386.846838 319.561553 387.647756 327.963641 389.70726 335.56005 390.85143 340.048836 388.563091 344.077235 384.215249 345.803691 379.295321 347.760342 373.80331 350.407575 368.997799 349.947187 362.476035 349.256604 363.963455 341.545099 362.361618 337.056312 357.09844 322.438981 352.636181 307.591455 347.945088 292.859027 347.144169 290.672182 346.686501 288.485337 346 286.298492zM373.345642 334.063787C377.006983 333.94869 379.066488 333.143011 377.464651 329.229709 376.206065 326.006991 375.63398 321.863495 370.027552 324.395631 371.171721 327.733447 372.201473 330.956166 373.345642 334.063787zM362.590452 300.915824C364.192289 304.944222 363.162537 310.238688 370.256385 309.087717 368.997799 304.829125 369.569884 299.995047 362.590452 300.915824z"/>
    <path fill="#E6BE3D" fill-rule="nonzero" d="M373.323684 334C372.292196 331.02653 371.146098 327.942931 370 324.749204 375.61588 322.326376 376.188929 326.291003 377.449637 329.374602 379.054174 333.008843 376.991198 333.889871 373.323684 334zM363 301.105909C370.164179 300.233528 369.686567 304.922574 371 308.848286 363.597015 309.938762 364.671642 304.922574 363 301.105909z"/>
    <g fill="#FFFFFF" fill-rule="nonzero" transform="translate(819 1011)">
      <path d="M0 187L66.5777778 187 76.0888889 163.410256 140.288889 163.410256 149.8 187 214 187 137.911111 3 76.0888889 3 0 187zM90.3555556 118.589744L107 73.7692308 123.644444 118.589744 90.3555556 118.589744zM363.74026 181.9125C377.844156 177.1875 389.597403 170.1 399 163.0125L399 77.9625 312.025974 77.9625 312.025974 118.125 342.584416 118.125 342.584416 137.025C340.233766 139.3875 337.883117 139.3875 333.181818 139.3875 330.831169 139.3875 326.12987 139.3875 321.428571 139.3875 314.376623 139.3875 309.675325 139.3875 304.974026 137.025 300.272727 134.6625 295.571429 132.3 290.87013 127.575 286.168831 122.85 283.818182 118.125 281.467532 113.4 279.116883 108.675 279.116883 101.5875 279.116883 96.8625 279.116883 89.775 279.116883 85.05 281.467532 80.325 283.818182 75.6 286.168831 70.875 290.87013 66.15 295.571429 61.425 297.922078 59.0625 304.974026 56.7 309.675325 54.3375 314.376623 54.3375 321.428571 54.3375 328.480519 54.3375 335.532468 56.7 342.584416 59.0625 349.636364 61.425 354.337662 66.15 361.38961 70.875L394.298701 30.7125C384.896104 21.2625 373.142857 14.175 361.38961 9.45 347.285714 2.3625 333.181818 0 316.727273 0 302.623377 0 288.519481 2.3625 276.766234 7.0875 265.012987 11.8125 253.25974 18.9 246.207792 25.9875 236.805195 35.4375 229.753247 44.8875 225.051948 56.7 220.350649 68.5125 218 80.325 218 94.5 218 108.675 220.350649 120.4875 225.051948 132.3 229.753247 144.1125 236.805195 153.5625 246.207792 163.0125 255.61039 172.4625 267.363636 177.1875 279.116883 181.9125 290.87013 186.6375 304.974026 189 319.077922 189 335.532468 189 349.636364 186.6375 363.74026 181.9125zM419.368421 188L480.947368 188 480.947368 135.786667 492.789474 135.786667 528.315789 188 597 188 554.368421 126.293333C566.210526 121.546667 573.315789 114.426667 580.421053 104.933333 587.526316 95.44 589.894737 83.5733333 589.894737 71.7066667 589.894737 62.2133333 587.526316 55.0933333 585.157895 47.9733333 582.789474 40.8533333 578.052632 33.7333333 573.315789 28.9866667 566.210526 21.8666667 559.105263 17.12 547.263158 14.7466667 537.789474 10 523.578947 10 507 10L417 10 417 188 419.368421 188zM478.578947 90.6933333L478.578947 55.0933333 504.631579 55.0933333C511.736842 55.0933333 516.473684 57.4666667 521.210526 59.84 525.947368 62.2133333 528.315789 66.96 528.315789 74.08 528.315789 78.8266667 525.947368 83.5733333 521.210526 88.32 516.473684 90.6933333 511.736842 93.0666667 504.631579 93.0666667L478.578947 93.0666667 478.578947 90.6933333z"/>
      <polygon points="604 186 665 186 665 5 604 5"/>
    </g>
  </g>
</svg>
