<?xml version="1.0" encoding="utf-8"?>
<!-- Generator: Adobe Illustrator 20.1.0, SVG Export Plug-In . SVG Version: 6.00 Build 0)  -->
<svg version="1.1" id="Calque_1" xmlns="http://www.w3.org/2000/svg" xmlns:xlink="http://www.w3.org/1999/xlink" x="0px" y="0px"
	 viewBox="0 0 240 377" style="enable-background:new 0 0 240 377;" xml:space="preserve">
<style type="text/css">
	.st0{fill:none;stroke:#000000;stroke-width:0.708;}
	.st1{fill:#FFFFFF;}
	.st2{fill:#3459A1;}
	.st3{fill:none;stroke:#3459A1;stroke-width:1.249;}
	.st4{fill:#C9322D;}
	.st5{fill:#929496;}
	.st6{fill:none;stroke:#000000;}
</style>
<g>
	<g transform="translate(8 11)">
		<path d="M14,128.1c-0.7,0-1.1,0-1.5-0.4c-0.7-0.4-1.5-1.8-2.2-2.6c-0.7-1.5-1.5-2.6-2.2-3.7H7v2.9c0,1.1,0,1.5,0.4,1.8
			c0.4,0.7,0.7,1.1,1.5,1.1v0.7H8.1c-0.4-0.4-1.1,0-2.2,0s-1.9-0.4-2.6,0H2.9v-0.7c0.4,0,0.7-0.4,1.1-0.4c0-0.4,0.4-0.7,0.4-1.5V119
			v-4c-0.4-0.7-0.7-0.7-1.5-0.7v-0.7h6.7c1.5,0,2.2,0,3,0.7c0.7,0.4,1.5,1.5,1.5,2.6c0,1.8-1.1,3.3-3.3,4c1.1,1.1,1.5,2.2,2.2,3.3
			s1.5,2.2,2.2,2.6c0.4,0.4,0.4,0.7,0.7,0.7v0.7C15.5,128.1,14.8,128.1,14,128.1z M8.5,114.6H7v5.5h1.1c1.9,0,3-1.1,3-2.6
			C11.1,115.7,10,114.6,8.5,114.6z M21.5,114.9l-0.7-0.7l1.5-2.6l2.2,0.4L21.5,114.9z M25.5,127.8c-0.4,0.4-0.4,0.4-1.5,0.4h-1.9
			c-0.7,0-1.9-0.4-2.6-0.4s-1.9,0-2.6,0.4v-0.7c0.7,0,1.1-0.4,1.1-1.1c0.4-0.7,0.4-1.1,0.4-2.2V119c0-1.1-0.4-1.5-0.4-1.8
			c0-0.4-0.4-0.7-1.1-0.7V116h8.5v2.9h-0.7c0-1.5-0.7-1.8-3-1.8h-1.1v4h0.7c1.9,0,2.6-0.4,2.6-1.1h0.7c-0.4,0-0.4,0.7-0.4,1.8
			c0,0.7,0.4,1.1,0.4,1.5h-0.7c0-1.1-0.7-1.1-2.6-1.1h-0.7v3.3c0,0.7,0,1.1,0.4,1.1h1.5c1.9,0,2.6-0.4,3-1.8l0.7,0.4
			C25.9,126.3,25.5,127.4,25.5,127.8z M33,122.6h-0.4l-0.4-1.1c1.5,0,2.6-0.7,2.6-2.2c0-1.5-1.1-2.6-2.2-2.6c-0.4,0-0.4,0-0.7,0.4
			v9.5c0.4,0.4,0.4,0.7,1.1,0.7v0.7h-0.4c-0.4-0.4-1.1-0.4-1.9-0.4c-1.1,0-1.9,0-2.2,0.4h-0.4v-0.7c0.7,0,1.1-0.4,1.1-1.1
			c0.4-0.7,0.4-1.1,0.4-2.9V119c0-1.1-0.4-1.5-0.4-1.8c0-0.4-0.4-0.7-1.1-0.7V116H33c2.6,0,4.5,1.1,4.5,3.3
			C37.4,121.2,35.6,122.6,33,122.6z M49.7,116.8c-0.4,0.4-0.4,0.7-0.4,1.5v5.5c0,1.1,0,1.8-0.7,2.6c-0.7,1.1-2.2,1.8-4.1,1.8
			c-1.1,0-1.9,0-3-0.7c-1.1-0.7-1.5-1.8-1.5-3.7v-3.7v-2.6c-0.4-0.7-0.7-1.1-1.5-1.1V116h4.8v0.4c-0.4,0-0.7,0.4-0.7,0.7
			c-0.4,0-0.4,0.4-0.4,1.1v3.7c0,2.9,0,3.7,0.7,4.4c0.4,0.4,1.1,0.7,1.9,0.7c1.1,0,2.6-0.7,3-1.8v-5.1v-2.9
			c-0.4-0.4-0.7-0.7-1.1-0.7V116h3.7v0.4C50,116.4,50,116.8,49.7,116.8z M60.8,127c-0.7,0.7-1.9,1.1-3.7,1.1c-0.7,0-1.9-0.4-3-0.4
			c-0.4,0-1.1,0-1.5,0.4h-0.4v-0.7c1.1,0,1.1-0.4,1.5-1.1v-6.2c0-1.8,0-2.6-0.4-2.9c0-0.4-0.4-0.7-1.1-0.7V116h6.3
			c1.5,0,3.3,0.7,3.3,2.6c0,1.5-1.1,2.2-2.6,2.9c1.9,0.4,3,1.5,3,2.9C62.3,125.6,61.5,126.7,60.8,127z M57.1,116.8H56v4h0.7
			c1.9,0,2.6-0.7,2.6-1.8C59.3,117.5,58.6,116.8,57.1,116.8z M57.1,121.9H56v4.4c0,0.4,0.7,0.7,1.5,0.7c1.5,0,2.2-0.7,2.2-2.2
			C59.7,123,58.6,121.9,57.1,121.9z M72.3,127.8c0,0.4-0.4,0.4-1.1,0.4h-1.5c-1.1,0-2.2-0.4-3.3-0.4s-1.5,0-2.2,0.4v-0.7
			c0.4,0,0.7,0,1.1-0.4c0.4-0.4,0.4-0.7,0.4-2.2v-4.4c0-2.6,0-2.6-0.4-3.3c0-0.4-0.4-0.7-1.1-0.7V116h5.2v0.4
			c-1.1,0-1.5,0.4-1.5,1.5v8.8h1.5c1.1,0,1.5,0,2.2-0.4c0.4,0,0.7-0.7,1.1-1.5l0.4,0.4C73,126.3,72.7,127.4,72.3,127.8z M78.6,128.1
			c-0.4-0.4-1.1-0.4-1.9-0.4c-0.7,0-1.5,0-1.9,0.4h-0.4v-0.7c0.7,0,1.1-0.4,1.1-1.1v-5.9V119v-1.8c-0.4-0.4-0.7-0.7-1.1-0.7V116h4.8
			v0.4c-0.7,0-1.5,0.7-1.5,1.5v5.5c0,2.6,0,2.9,0.4,3.3c0,0.4,0.4,0.7,1.1,0.7v0.7H78.6z M95.7,131.1c-1.1,0-2.6-0.4-4.1-1.1
			c-1.1-0.4-2.2-1.1-3-1.8h-1.5c-3.7,0-5.9-2.2-5.9-5.9c0-4,2.6-6.6,6.3-6.6s6.3,2.6,6.3,5.9c0,2.6-1.1,4.8-3.3,5.9
			c0.7,0.4,1.1,0.7,1.9,1.1c1.9,1.1,3.3,1.8,4.5,1.8c0.7,0,1.5-0.4,2.2-0.7v0.7C98.3,131.1,97.2,131.1,95.7,131.1z M87.1,117.1
			c-2.2,0-3.7,1.8-3.7,4.4c0,2.9,1.9,5.5,4.1,5.5c2.6,0,4.1-1.8,4.1-4.4C91.6,119.3,89.7,117.1,87.1,117.1z"/>
		<path d="M104.6,117.6c0,0.4-0.4,0.8-0.4,1.5v5.6c0,1.1,0,1.9-0.7,2.6c-0.7,1.1-2.2,1.9-4.1,1.9c-1.1,0-1.8,0-2.6-0.8
			c-1.5-0.7-1.8-1.9-1.8-3.8V121v-2.6c-0.4-0.8-0.7-1.1-1.5-1.1v-0.4h5.2v0.4c-0.7,0-1.1,0.4-1.1,0.8c-0.4,0-0.4,0.4-0.4,1.1v3.8
			c0,3,0,3.8,0.7,4.5c0.4,0.4,1.1,0.8,1.8,0.8c1.5,0,2.6-0.8,3-1.9V121v-3c-0.4-0.4-0.7-0.8-1.1-0.8v-0.4h3.7v0.4
			C105,117.2,105,117.6,104.6,117.6z M115.7,128.9c0,0.4-0.4,0.4-1.1,0.4h-1.8c-1.1,0-1.8-0.4-3-0.4c-0.7,0-1.5,0-2.6,0.4v-0.8
			c1.1,0,1.5-0.4,1.5-1.1v-7.5c0-1.1,0-1.5-0.4-1.9c0-0.4-0.4-0.8-1.1-0.8v-0.4h8.5v3h-0.4c-0.4-1.5-0.7-1.9-3-1.9h-1.5v4.1h0.7
			c1.8,0,2.6-0.4,2.6-1.1h0.7v3.4h-0.7c0-1.1-0.4-1.1-2.2-1.1h-1.1v3.4c0,0.7,0,1.1,0.7,1.1h1.1c1.8,0,2.6-0.4,3-1.9l0.7,0.4
			C116.1,127.4,116.1,128.5,115.7,128.9z M132.7,117.6c0-1.5-1.1-2.3-3.7-2.3c-0.4,0-0.7,0.4-1.5,0.4v4.9h1.1c2.2,0,2.6-0.4,3-1.5
			h0.7v4.5h-0.7c-0.4-1.5-0.7-1.5-3-1.5h-1.1v4.1c0,1.1,0.4,2.3,1.5,2.3v0.8h-0.4c-0.7-0.4-1.5-0.4-2.6-0.4c-0.7,0-1.8,0-2.2,0.4
			h-0.7v-0.8c1.1,0,1.5-0.7,1.8-1.9V118c0-1.1,0-1.9-0.4-2.3c0-0.8-0.4-0.8-1.5-0.8v-0.8h10.3v3.4L132.7,117.6L132.7,117.6z
			 M144.9,129.2c-0.7,0-1.1,0-1.5-0.4c-0.7-0.4-1.5-1.5-1.8-2.3c-0.4-1.1-1.1-2.3-1.8-3H139v2.3c0,1.1,0,1.5,0.4,1.9
			c0,0.4,0.4,0.7,1.1,0.7v0.8h-0.7c-0.4-0.4-1.1,0-1.8,0c-0.7,0-1.5-0.4-1.9,0h-0.4v-0.8c0.4,0,0.4,0,0.7-0.4c0,0,0.4-0.4,0.4-0.8
			v-6V118c-0.4-0.4-0.7-0.8-1.1-0.8v-0.4h5.2c1.5,0,2.2,0,2.6,0.4c0.7,0.8,1.1,1.5,1.1,2.6c0,1.5-0.7,2.6-2.6,3.4
			c0.7,0.8,1.5,1.5,1.8,2.6c0.7,1.1,1.1,1.9,1.8,2.3c0,0.4,0.4,0.4,0.7,0.4v0.8L144.9,129.2z M140.1,117.6c-0.4,0-0.7,0-1.1,0.4v4.5
			h0.7c1.5,0,2.6-1.1,2.6-2.3C142.3,118.7,141.2,117.6,140.1,117.6z M157.9,129.2c-0.4-0.4-1.1-0.4-1.8-0.4c-0.7,0-1.5,0-1.8,0.4
			h-0.7v-0.8c0.7,0,1.1-0.4,1.1-0.7c0-0.4,0-0.4-0.4-1.1c0-0.8-0.4-1.1-0.4-1.5h-3.7l-0.4,0.8c0,1.1-0.4,1.5-0.4,1.9
			c0,0.4,0.4,0.7,0.7,0.7v0.8c-0.7,0-0.7-0.4-1.8-0.4c-0.7,0-1.1,0.4-1.5,0.4v-0.8h0.4c0.4-0.4,0.7-1.1,1.1-2.6l1.8-4.5
			c0.4-1.1,1.1-3,1.8-4.5h1.1c0,0.4,0.4,1.5,0.7,1.9l2.6,6.8c0.4,1.1,0.7,1.9,1.1,2.3c0,0.4,0.4,0.7,0.7,0.7v0.8L157.9,129.2
			L157.9,129.2z M151.9,119.9c-0.4,1.5-1.1,3-1.5,3.8h3L151.9,119.9z M170.8,118c0,0-0.4,0.4-0.4,1.5v9.8h-1.1
			c-1.1-1.9-3.7-4.9-3.7-4.9c-0.4-0.4-2.6-3-3.7-4.5v6.8c0,0.7,0.4,1.1,0.4,1.5c0.4,0.4,0.4,0.4,1.1,0.4v0.8
			c-0.7-0.4-1.5-0.4-2.2-0.4c-0.4,0-1.1,0-1.8,0.4v-0.8c1.1,0,1.5-1.1,1.5-1.9v-6.4c0-1.9,0-2.3-0.4-2.6c-0.4,0-0.4-0.4-1.1-0.4
			v-0.4h3.3c0,0.4,0.4,0.8,1.8,2.3c1.5,2.3,3.3,4.1,4.8,6V121v-2.6c-0.4-0.8-0.7-1.1-1.5-1.1v-0.4h4.1v0.4
			C171.5,117.2,171.2,117.2,170.8,118z M183.4,128.5c-1.1,0.8-2.2,0.8-3.3,0.8l-0.4,0.8h0.4c0.7,0,1.1,0.4,1.1,1.1
			c0,1.1-0.7,1.9-1.8,1.9c-0.4,0-0.7-0.4-1.1-0.4v-0.8h0.7c0.7,0,1.1,0,1.1-0.4c0-0.4-0.4-0.8-0.7-0.8h-0.7l0.4-1.5
			c-1.5,0-2.6-0.8-3.7-1.9c-1.1-1.1-1.8-2.6-1.8-4.5c0-3.8,2.6-6.4,6.7-6.4c1.5,0,2.6,0.4,3.7,0.7v2.6H183c-0.4-1.5-1.5-2.3-3-2.3
			c-2.6,0-4.1,1.9-4.1,4.9s1.8,5.6,4.4,5.6c1.5,0,2.6-0.8,3-2.3h0.7C183.7,126.6,183.7,127.7,183.4,128.5z M196.3,129.2
			c-0.7-0.4-1.1-0.4-2.2-0.4c-0.7,0-1.5,0-1.8,0.4h-0.4v-0.8c0.4,0,0.7-0.4,0.7-0.7v-1.1c-0.4-0.8-0.4-1.1-0.7-1.5h-3.3l-0.4,0.8
			c-0.4,1.1-0.4,1.5-0.4,1.9c0,0.4,0,0.7,0.7,0.7v0.8c-0.7,0-1.1-0.4-1.8-0.4c-0.7,0-1.1,0.4-1.8,0.4v-0.8h0.7
			c0-0.4,0.4-1.1,1.1-2.6l1.8-4.5c0.4-1.1,1.1-3,1.5-4.5h1.1c0.4,0.4,0.7,1.5,1.1,1.9l2.6,6.8c0.4,1.1,0.7,1.9,0.7,2.3
			c0.4,0.4,0.7,0.7,1.1,0.7v0.8L196.3,129.2L196.3,129.2z M190.4,119.9c-0.7,1.5-1.1,3-1.5,3.8h2.6L190.4,119.9z M202.2,129.2
			c-0.7-0.4-1.1-0.4-2.2-0.4c-0.7,0-1.5,0-1.8,0.4h-0.4v-0.8c0.7,0,1.1-0.4,1.1-1.1v-6v-1.5V118c-0.4-0.4-0.7-0.8-1.1-0.8v-0.4h4.8
			v0.4c-0.7,0-1.1,0.8-1.5,1.5v5.6c0,2.6,0,3,0.4,3.4c0,0.4,0.4,0.7,1.1,0.7v0.8H202.2z M207.8,129.2c-1.1,0-1.8,0-3-0.8
			c0-0.4-0.4-1.5-0.4-2.6h0.7c0.4,1.5,1.1,2.3,2.6,2.3c1.5,0,2.2-0.8,2.2-1.5c0-1.1-0.4-1.5-1.5-2.3l-1.8-1.1
			c-1.1-0.8-1.8-1.5-1.8-3.4c0-1.9,1.5-3.4,3.7-3.4c1.1,0,2.2,0.4,3,0.7v2.6h-0.7c0-1.5-0.7-2.3-2.2-2.3c-1.1,0-1.8,0.8-1.8,1.9
			c0,0.8,0.7,1.5,1.5,1.9l1.5,1.1c1.5,1.1,2.6,1.9,2.6,3.4C212.2,128.1,210.3,129.2,207.8,129.2z M222.2,128.9c0,0.4,0,0.4-1.1,0.4
			h-1.8c-0.7,0-1.8-0.4-2.6-0.4c-1.1,0-1.8,0-2.6,0.4v-0.8c0.7,0,1.1-0.4,1.1-1.1v-7.5V118c-0.4-0.4-0.7-0.8-1.1-0.8v-0.4h8.5v3
			h-0.7c0-1.5-0.7-1.9-3-1.9h-1.5v4.1h1.1c1.8,0,2.2-0.4,2.6-1.1h0.4v3.4h-0.4c-0.4-1.1-0.7-1.1-2.6-1.1h-1.1v3.4
			c0,0.7,0.4,1.1,0.7,1.1h1.1c2.2,0,2.6-0.4,3.3-1.9l0.7,0.4C222.9,127.4,222.5,128.5,222.2,128.9z M7.8,97.3
			c-0.4,0.4-0.4,0.4-1.1,0.4H0v-0.4c0.4,0,0.7-0.4,1.1-0.4c0.4-0.4,0.4-1.1,0.7-1.9c0-1.1,0.4-1.9,0.7-3.8v-1.1
			C3,88.7,3,87.9,3,87.2c0-0.7,0-1.1-0.7-1.1v-0.4h4.4v0.4c-0.7,0-1.1,0.4-1.1,0.8c-0.4,0.4-0.7,1.1-1.5,4.5l-0.4,1.5
			c0,1.5-0.4,1.9-0.4,2.6v0.4c0,0.7,0.4,1.1,1.5,1.1c1.8,0,2.6-0.8,3.3-1.9h0.7C8.1,96.2,7.8,97.3,7.8,97.3z M12.9,88.7
			c-0.7,0-0.7-0.4-0.7-0.8c0-0.8,0.4-1.1,0.7-1.1c0.7,0,1.1,0.4,1.1,0.8C14,88.3,13.7,88.7,12.9,88.7z M11.1,98.1
			c-0.4,0-0.7-0.4-0.7-0.8c0,0,0-0.4,0.4-0.8c0-1.1,0.4-2.3,0.7-3v-2.3c-0.4,0-0.4,0-0.7,0.4h-0.4v-0.8c1.1-0.4,2.2-0.4,2.6-0.4
			s0.4,0,0.4,0.4c0,0,0,0.8-0.4,1.9l-0.4,1.1c-0.4,1.9-0.4,2.3-0.4,2.6c0,0.4,0,0.4,0.4,0.4c0,0,0.4,0,0.7-0.4v0.8
			C12.6,97.7,11.5,98.1,11.1,98.1z M20.7,96.9c-0.7,0.8-1.5,1.1-2.6,1.1c-1.5,0-2.2-0.4-2.2-0.8v-1.1l1.1-4.1c0-1.1,0.4-2.3,0.7-3.8
			c0-0.8,0.4-1.5,0.4-1.5c0-0.4-0.4-0.4-0.4-0.4H17v-0.4c1.1-0.4,1.8-0.4,2.2-0.4h0.4c0,0.4,0,0.8-0.4,2.3l-0.4,2.3
			c-0.4,0.7-0.4,1.1-0.4,1.1c1.1-0.4,1.8-0.8,3-0.8c1.1,0,1.5,0.4,1.5,1.5C22.9,93.9,22.2,95.8,20.7,96.9z M20.7,91.3
			c-0.4,0-0.7,0-1.1,0.4c-0.7,0.4-1.1,0.4-1.1,0.8c-0.4,0.4-0.4,1.1-0.7,2.3c-0.4,1.1-0.4,1.9-0.4,1.9c0,0.4,0.4,0.8,1.1,0.8
			c0.7,0,1.5-0.4,1.8-1.1c0.7-1.1,1.1-2.6,1.1-3.8C21.4,91.7,21.1,91.3,20.7,91.3z M27,94.7h-0.7v1.1c0,0.7,0.4,1.1,1.1,1.1
			c0.4,0,1.1,0,2.2-0.8v0.4c-1.1,1.1-2.2,1.5-3,1.5c-1.1,0-1.8-0.8-1.8-1.9c0-3,1.8-5.6,4.4-5.6c1.1,0,1.5,0.4,1.5,1.5
			C30.7,93.6,29.2,94.7,27,94.7z M28.8,91.3c-1.1,0-1.8,1.1-2.2,3c1.8,0,3-1.1,3-2.3C29.6,91.7,29.2,91.3,28.8,91.3z M38.1,92.8
			h-0.7v-0.7c0-0.4-0.4-0.4-0.7-0.4c-0.4,0-0.4,0-0.7,0.4c-0.7,0.7-0.7,1.9-1.1,3.8l-0.4,1.9h-1.8c0.4-0.4,0.4-1.1,0.7-1.9l0.4-1.5
			c0-1.1,0.4-1.9,0.4-2.3c0-0.4,0-0.8-0.4-0.8c0,0-0.4,0-0.4,0.4h-0.4l-0.4-0.4c1.1-0.4,1.8-0.8,2.6-0.8v0.4c0.4,0,0.4,0.4,0.4,0.8
			c0.7-0.8,1.5-1.1,1.8-1.1c0.4,0,0.7,0,1.1,0.4C38.4,91.7,38.1,92.1,38.1,92.8z M44,91.7h-1.5l-0.7,3.4c-0.4,1.1-0.4,1.5-0.4,1.5
			c0,0.4,0.4,0.4,0.4,0.4h1.1v0.4c-0.7,0.4-1.8,0.8-2.2,0.8s-0.7-0.4-0.7-0.8c0-0.4,0-0.8,0.4-1.1c0-0.8,0-1.1,0.4-1.9l0.4-2.6h-0.7
			v-0.8c1.1,0,1.5-1.1,1.8-2.3h1.1l-0.7,1.9H44L44,91.7L44,91.7z M49.5,89.4l-0.7-0.4l2.2-2.6l1.5,0.4L49.5,89.4z M47.3,94.7h-0.4
			v1.1c0,0.7,0.4,1.1,0.7,1.1c0.7,0,1.5,0,2.2-0.8l0.4,0.4c-1.5,1.1-2.2,1.5-3.3,1.5c-1.1,0-1.5-0.8-1.5-1.9c0-3,1.8-5.6,4.1-5.6
			c1.1,0,1.8,0.4,1.8,1.5C51.4,93.6,49.5,94.7,47.3,94.7z M49.2,91.3c-0.7,0-1.8,1.1-2.2,3h0.4c1.5,0,3-1.1,3-2.3
			C50.3,91.7,49.5,91.3,49.2,91.3z M79.9,84.6l-0.7-0.4l2.2-2.6l1.8,0.4L79.9,84.6z M83.2,88.3h-0.4v-0.4c0-1.1-0.7-1.5-2.6-1.5
			c-0.4,0-1.1,0-1.8,0.4c-0.4,1.5-0.4,2.6-0.7,4.1h2.6c0.7,0,1.1-0.4,1.5-1.1h0.4c-0.4,1.1-0.7,2.6-0.7,3.4H81v-0.4
			c0-0.7-0.4-1.1-1.8-1.1c-1.1,0-1.5,0.4-1.5,0.4c-0.4,0.4,0,0-0.7,1.9v1.9c0,0.7,0.4,1.1,1.5,1.1c2.2,0,3-0.4,3.7-2.3l0.4,0.4
			c-0.4,1.1-0.7,2.3-1.1,2.3c-0.4,0.4-0.4,0.4-1.1,0.4h-7l0.4-0.4c0.4,0,0.7-0.4,0.7-0.4c0.4-0.4,0.7-1.1,0.7-1.9
			c0.4-1.1,0.4-1.5,0.7-3.8l0.4-1.1c0.4-1.5,0.4-2.3,0.4-3c0-0.7-0.4-1.1-1.1-1.1v-0.4h8.1C83.5,86.4,83.2,87.6,83.2,88.3z M92,91.7
			h-1.5c0.4,0.4,0.4,0.4,0.4,1.1c0,1.5-1.5,2.6-3,2.6h-1.1c-0.4,0.4-0.7,0.4-0.7,0.4c0,0.4,0.4,0.4,1.1,0.7l1.5,0.4
			c1.5,0.4,2.2,0.8,2.2,1.9c0,1.9-1.8,3.4-4.4,3.4c-1.8,0-3-0.7-3-2.3s0.7-2.3,2.2-2.6c-0.7-0.4-1.1-0.4-1.1-0.8
			c0-0.4,0.7-0.7,1.5-1.5c-0.4-0.4-0.7-0.8-0.7-1.5c0-1.9,1.5-3,3.3-3H92V91.7z M88.4,91.3c-0.7,0-1.5,0.8-1.5,2.3
			c0,0.8,0.4,1.1,1.1,1.1c0.7,0,1.8-0.7,1.8-1.9C89.8,91.7,89.1,91.3,88.4,91.3z M88.7,98.4c-0.4-0.4-1.1-0.4-1.8-0.7
			c-1.5,0.4-2.2,1.1-2.2,2.3s0.7,1.9,2.2,1.9c1.5,0,3-1.1,3-2.3C89.8,98.8,89.5,98.8,88.7,98.4z M98.7,98.1c-0.4,0-0.7-0.4-0.7-1.1
			c-1.5,0.8-2.2,1.1-3.3,1.1c-1.1,0-1.5-0.8-1.5-1.5c0-1.1,0.4-2.6,1.1-3.8c1.1-1.5,2.2-2.3,4.1-2.3c0.7,0,1.5,0,2.2,0.4v0.4
			c-0.7,1.9-1.1,4.1-1.1,4.9v0.8c0.4,0,0.7,0,1.1-0.4v0.8C99.8,97.7,98.7,98.1,98.7,98.1z M97.6,91.3c-0.7,0-1.1,0.4-1.8,1.5
			c-0.7,1.1-1.1,2.6-1.1,3.4c0,0.8,0.4,1.1,0.7,1.1c0.7,0,1.8-0.8,2.2-1.1s0.4-0.8,0.4-1.5c0.4-1.1,0.7-1.9,0.7-3
			C98.3,91.3,98,91.3,97.6,91.3z M106.5,87.2c-0.7,2.6-1.1,5.3-1.8,7.9c0,0.8-0.4,1.1-0.4,1.5c0,0.4,0.4,0.4,0.4,0.4
			c0.4,0,0.7,0,1.1-0.4v0.8c-0.7,0.4-1.8,0.8-2.2,0.8s-0.7-0.4-0.7-0.8c0-0.4,0-0.4,0.4-1.5c0.4-2.6,1.1-4.9,1.5-7.5
			c0.4-0.8,0.4-1.5,0.4-1.5c0-0.4,0-0.4-0.4-0.4h-0.7v-0.4c1.1-0.4,1.8-0.4,2.6-0.4h0.4C106.8,86.1,106.5,86.4,106.5,87.2z
			 M110.9,88.7c-0.7,0-1.1-0.4-1.1-0.8c0-0.8,0.4-1.1,1.1-1.1c0.7,0,1.1,0.4,1.1,0.8C112,88.3,111.3,88.7,110.9,88.7z M108.7,98.1
			c0,0-0.4-0.4-0.4-0.8v-0.8c0.4-1.1,0.7-2.3,0.7-3c0.4-0.8,0.4-1.5,0.4-1.9c0,0,0-0.4-0.4-0.4l-0.4,0.4h-0.4v-0.8
			c1.1-0.4,1.8-0.4,2.6-0.4c0,0,0.4,0,0.4,0.4c0,0-0.4,0.8-0.7,1.9v1.1c-0.4,1.9-0.7,2.3-0.7,2.6c0,0.4,0.4,0.4,0.4,0.4
			c0.4,0,0.7,0,1.1-0.4v0.8C110.5,97.7,109.4,98.1,108.7,98.1z M117.9,91.7h-1.5l-0.7,3.4c-0.4,1.1-0.4,1.5-0.4,1.5
			c0,0.4,0,0.4,0.4,0.4h1.1v0.4c-1.1,0.4-1.8,0.8-2.6,0.8c-0.4,0-0.4-0.4-0.4-0.8v-1.1c0.4-0.8,0.4-1.1,0.4-1.9l0.7-2.6h-1.1
			l0.4-0.8c1.1,0,1.5-1.1,1.8-2.3h0.7l-0.4,1.9h1.5V91.7z M123.1,89.4l-0.4-0.4l2.2-2.6l1.5,0.4L123.1,89.4z M121.3,94.7h-0.4
			c-0.4,0.4-0.4,0.8-0.4,1.1c0,0.7,0.4,1.1,1.1,1.1c0.4,0,1.1,0,2.2-0.8l0.4,0.4c-1.5,1.1-2.6,1.5-3.3,1.5c-1.1,0-1.8-0.8-1.8-1.9
			c0-3,2.2-5.6,4.4-5.6c1.1,0,1.8,0.4,1.8,1.5C125.3,93.6,123.5,94.7,121.3,94.7z M123.1,91.3c-0.7,0-1.8,1.1-2.2,3
			c1.8,0,3-1.1,3-2.3C123.8,91.7,123.5,91.3,123.1,91.3z M156.7,88.3h-0.4v-0.4c0-0.4-0.4-0.8-0.4-0.8c-0.4-0.4-1.1-0.7-2.2-0.7
			h-1.5c-0.4,1.5-0.7,3-0.7,4.5h0.7c2.2,0,2.6,0,3-1.1h0.4c-0.4,1.1-0.4,2.3-0.7,3.4h-0.4v-0.4c0-0.4,0-0.4-0.4-0.7
			c-0.4,0-0.7-0.4-1.8-0.4c-0.4,0-0.7,0.4-1.1,0.4l-0.4,1.1c0,1.5-0.4,2.6-0.4,3c0,0.8,0.4,1.1,1.1,1.1v0.4h-0.4h-4.1v-0.4
			c0.7,0,0.7-0.4,1.1-0.4c0.4-0.4,0.4-1.1,0.7-1.9c0.4-1.1,0.4-1.9,0.7-3.8l0.4-1.1c0-1.5,0.4-2.3,0.4-3c0-0.7-0.4-1.1-1.1-1.1v-0.4
			h7.8C157.1,86.4,156.7,87.6,156.7,88.3z M162.7,92.8h-0.4v-0.7c0-0.4-0.4-0.4-0.7-0.4c-0.4,0-0.7,0-0.7,0.4
			c-0.7,0.7-1.1,1.9-1.5,3.8l-0.4,1.9h-1.5c0.4-0.4,0.4-1.1,0.4-1.9l0.4-1.5c0.4-1.1,0.4-1.9,0.4-2.3v-0.8c-0.4,0-0.4,0-0.7,0.4
			h-0.4v-0.4c0.7-0.4,1.8-0.8,2.2-0.8c0.4,0,0.4,0,0.4,0.4v0.8c1.1-0.8,1.8-1.1,2.2-1.1c0.4,0,0.7,0,1.1,0.4
			C163,91.7,163,92.1,162.7,92.8z M169.7,98.1c-0.4,0-0.4-0.4-0.4-1.1c-1.5,0.8-2.6,1.1-3.3,1.1c-1.1,0-1.8-0.8-1.8-1.5
			c0-1.1,0.7-2.6,1.5-3.8c0.7-1.5,1.8-2.3,3.7-2.3c0.7,0,1.5,0,2.2,0.4v0.4c-0.7,1.9-1.1,4.1-1.1,4.9c0,0.4,0,0.8,0.4,0.8
			c0,0,0.4,0,1.1-0.4v0.8C170.8,97.7,170.1,98.1,169.7,98.1z M168.9,91.3c-0.7,0-1.5,0.4-1.8,1.5c-0.7,1.1-1.5,2.6-1.5,3.4
			c0,0.8,0.4,1.1,0.7,1.1c0.7,0,1.8-0.8,2.2-1.1c0.4-0.4,0.4-0.8,0.7-1.5c0.4-1.1,0.4-1.9,0.7-3C169.7,91.3,169.3,91.3,168.9,91.3z
			 M178.2,91.7h-1.5l-0.7,3.4c0,1.1-0.4,1.5-0.4,1.5c0,0.4,0.4,0.4,0.4,0.4h1.1v0.4c-0.7,0.4-1.8,0.8-2.2,0.8
			c-0.4,0-0.7-0.4-0.7-0.8c0-0.4,0-0.8,0.4-1.1c0-0.8,0.4-1.1,0.4-1.9l0.4-2.6h-0.7v-0.8c1.1,0,1.8-1.1,1.8-2.3h1.1l-0.4,1.9h1.5
			L178.2,91.7z M181.5,94.7h-0.4v1.1c0,0.7,0.4,1.1,0.7,1.1c0.7,0,1.5,0,2.6-0.8v0.4c-1.1,1.1-2.2,1.5-3,1.5c-1.1,0-1.8-0.8-1.8-1.9
			c0-3,1.8-5.6,4.1-5.6c1.5,0,1.8,0.4,1.8,1.5C185.6,93.6,184.1,94.7,181.5,94.7z M183.4,91.3c-0.7,0-1.5,1.1-2.2,3h0.4
			c1.5,0,3-1.1,3-2.3C184.5,91.7,184.1,91.3,183.4,91.3z M192.6,92.8h-0.4v-0.7c0-0.4-0.4-0.4-0.7-0.4s-0.4,0-0.7,0.4
			c-0.7,0.7-1.1,1.9-1.5,3.8l-0.4,1.9h-1.5c0.4-0.4,0.4-1.1,0.7-1.9l0.4-1.5c0-1.1,0.4-1.9,0.4-2.3c0-0.4-0.4-0.8-0.4-0.8
			c-0.4,0-0.4,0-0.4,0.4h-0.7v-0.4c1.1-0.4,1.8-0.8,2.2-0.8s0.4,0,0.4,0.4c0,0,0.4,0.4,0.4,0.8c0.7-0.8,1.5-1.1,1.8-1.1
			c0.4,0,0.7,0,1.1,0.4C193,91.7,193,92.1,192.6,92.8z M200,98.1c-0.4,0-0.7-0.4-0.7-0.8c0,0,0-0.4,0.4-1.5v-0.8
			c0.7-2.3,0.7-3,0.7-3.4c0,0,0-0.4-0.4-0.4c-0.4,0-0.7,0.4-1.5,0.8c-0.4,0-0.7,0.4-1.1,0.7c0,0.4-0.4,0.8-0.4,1.9
			c-0.4,1.1-0.4,2.3-0.7,3h-1.5c0.4-1.1,0.7-2.3,0.7-3.8c0.4-1.1,0.4-1.5,0.4-1.9c0-0.4,0-0.8-0.4-0.8c0,0-0.4,0-0.7,0.4v-0.8
			c0.7,0,1.8-0.4,2.2-0.4c0.4,0,0.4,0,0.4,1.1c1.5-0.8,3-1.1,3.7-1.1c0.7,0,0.7,0,0.7,0.4c0,0.4,0,1.1-0.4,2.6
			c0,0.8-0.4,1.5-0.4,1.9c0,0.8-0.4,1.1-0.4,1.1c0,0.4,0.4,0.4,0.4,0.4h1.1v0.4C201.5,97.7,200.4,98.1,200,98.1z M207.4,88.7
			c-0.7,0-1.1-0.4-1.1-0.8c0-0.8,0.7-1.1,1.1-1.1c0.7,0,1.1,0.4,1.1,0.8C208.5,88.3,207.8,88.7,207.4,88.7z M205.2,98.1
			c0,0-0.4-0.4-0.4-0.8v-0.8c0.4-1.1,0.7-2.3,0.7-3c0.4-0.8,0.4-1.5,0.4-1.9c0,0,0-0.4-0.4-0.4l-0.4,0.4h-0.4v-0.8
			c1.1-0.4,1.8-0.4,2.6-0.4c0,0,0.4,0,0.4,0.4c0,0-0.4,0.8-0.7,1.9v1.1c-0.4,1.9-0.7,2.3-0.7,2.6c0,0.4,0.4,0.4,0.4,0.4
			c0.4,0,0.7,0,1.1-0.4v0.8C207,97.7,205.9,98.1,205.2,98.1z M214.4,91.7h-1.5l-0.7,3.4c-0.4,1.1-0.4,1.5-0.4,1.5
			c0,0.4,0,0.4,0.4,0.4h1.1v0.4c-1.1,0.4-1.8,0.8-2.6,0.8c-0.4,0-0.4-0.4-0.4-0.8v-1.1c0.4-0.8,0.4-1.1,0.4-1.9l0.7-2.6h-1.1
			l0.4-0.8c1.1,0,1.5-1.1,1.8-2.3h0.7l-0.4,1.9h1.5V91.7z M219.6,89.4l-0.4-0.4l2.2-2.6l1.5,0.4L219.6,89.4z M217.7,94.7h-0.4
			c-0.4,0.4-0.4,0.8-0.4,1.1c0,0.7,0.4,1.1,1.1,1.1c0.4,0,1.1,0,2.2-0.8l0.4,0.4c-1.5,1.1-2.2,1.5-3.3,1.5s-1.8-0.8-1.8-1.9
			c0-3,2.2-5.6,4.4-5.6c1.1,0,1.8,0.4,1.8,1.5C221.8,93.6,220,94.7,217.7,94.7z M219.6,91.3c-0.7,0-1.8,1.1-2.2,3c1.8,0,3-1.1,3-2.3
			C220.3,91.7,220,91.3,219.6,91.3z M136.8,94.7c1.1,0,2.2-1.1,2.2-2.3s-1.1-2.3-2.2-2.3s-2.2,1.1-2.2,2.3S135.7,94.7,136.8,94.7z
			 M62.8,94.7c1.1,0,2.2-1.1,2.2-2.3s-1.1-2.3-2.2-2.3c-1.1,0-2.2,1.1-2.2,2.3S61.7,94.7,62.8,94.7z"/>
		<path class="st0" d="M1,104.8h221.3"/>
		<polygon class="st1" points="2.9,0 224.3,0 224.3,73.8 2.9,73.8 		"/>
		<path class="st2" d="M68.6,45.7c-1.8,0.7-4.1,0.7-5.9,1.8c4.4-0.4,8.9,0.4,12.9,1.8c1.5,0.4,3,1.1,4.4,1.8
			c0.4,0.7,0.7,1.1,1.5,1.5c0.7,0.4,2.2,0.4,3,0.4h0.7c2.6-0.7,5.2-1.5,7-3.3h0.4c-0.4,1.5-0.4,3-1.5,4.1c0,0.4-0.4,0.7,0,0.7h0.4
			c0,0-0.4,0-0.4,0.4h0.7c-0.7,0.4-1.8,0.4-2.2,1.1c0,0.4,0.4,0.4,0.4,0.4c0,0.4-0.7,0-0.7,0.4h0.4c-0.4,0-0.4,0-0.4,0.4v0.4
			c-0.7,0-0.7,0.4-1.1,0.7c0.7,0.4,1.1,0,1.8,0c-1.8,0.7-3.3,1.5-5.2,2.2c-0.4,0,0,0.4-0.4,0.4c0.4,0.4,0.7,0,1.5,0
			c-2.6,1.1-4.8,2.2-7.4,4.1c0,0-0.4,0-0.4,0.4h-0.7c-0.4,0.4,0,0.7-0.4,1.1c0.7,0.4,1.8-0.7,2.2,0c0.4,0-0.4,0.4-0.7,0.4h-0.7
			c-0.4,0.4-0.7,0.7-0.7,1.1c-0.4,0-0.4,0-0.7,0.4c3.7-0.4,7.7,0,11.1-1.8c2.6-1.5,5.2-3.3,7.4-5.5h0.4c-0.7,1.8-1.5,3-3,4.1
			c-1.1,0.4-1.8,1.5-2.6,1.8c-0.4,0-1.1,0.4-1.5,0.7C81.9,69.7,74.5,68.6,69,73c0-0.4,0-0.4-0.4-0.4c0,0.4-0.7,0.7-0.7,1.1h-7.6
			c1.4-0.9,2.9-1.7,4.3-2.6c-0.7-0.4-1.1-0.4-1.5-0.4c-1.1,0-2.2-0.4-3,0c-2.3,1-5.3,0.8-6.7,3H2.9V0h100c-2,0.9-3.8,1.7-5.1,3.3
			c-1.5,1.5-3,3.3-3.3,5.2c-2.2,1.5-3.7,3.7-4.8,5.5c-1.5,3-3.7,5.5-3.3,8.5c0.4,3,1.1,5.2,1.5,8.1c0.4,1.1,0.4,1.8,0.7,3
			c0.4,1.1,0,2.2,0.4,3s0.4,1.1,1.1,1.5v0.7c0,0.4,0,0.4,0.4,0.4v0.7c1.5,1.5,3,3.3,3.7,5.2c0.4,0.7-1.5,0.4-2.2,0
			c-1.8-0.7-3-2.2-4.1-3.3c0,0-0.4,0-0.4,0.4c0.7,1.1,3.3,2.6,1.8,3.3c-0.7,0.4-1.5-0.4-2.2,0.4v1.1c-0.7-0.7-1.8-0.4-3-0.7
			c-0.7-0.4-0.7-1.5-1.8-1.5c-1.8-0.7-4.1-1.1-6.3-1.1c-3-0.4-5.9-1.1-8.9-0.4c-2.6,0-4.8,2.2-6.3,4.1v0.4c1.1,0.4,1.5-0.7,2.6-1.1
			c1.5-0.4,3.3-1.1,4.8-1.1c2.6-0.7,4.8-1.5,7.4-1.1c0.4,0,1.1-0.4,1.5,0C74.1,43.9,71.6,45,68.6,45.7z M68.6,73.8
			c0.7-0.7,1.8-1.1,3-1.5c-0.7,0.4-1.4,1-2.3,1.5H68.6z"/>
		<path class="st3" d="M68.6,45.7c-1.8,0.7-4.1,0.7-5.9,1.8c4.4-0.4,8.9,0.4,12.9,1.8c1.5,0.4,3,1.1,4.4,1.8
			c0.4,0.7,0.7,1.1,1.5,1.5c0.7,0.4,2.2,0.4,3,0.4h0.7c2.6-0.7,5.2-1.5,7-3.3h0.4c-0.4,1.5-0.4,3-1.5,4.1c0,0-0.4,0.7,0,0.7h0.4
			L91.1,55h0.7c-0.7,0.4-1.8,0.4-2.2,1.1l0.4,0.4c0,0.4-0.7,0-0.7,0.4h0.4l-0.4,0.4v0.4c-0.7,0-0.7,0.4-1.1,0.7c0.7,0.4,1.1,0,1.8,0
			c-1.8,0.7-3.3,1.5-5.2,2.2l-0.4,0.4c0.4,0.4,0.7,0,1.5,0c-2.6,1.1-4.8,2.2-7.4,4.1l-0.4,0.4h-0.7c-0.4,0.4,0,0.7-0.4,1.1
			c0.7,0.4,1.8-0.7,2.2,0l-0.7,0.4h-0.7c-0.4,0.4-0.7,0.7-0.7,1.1c0,0-0.4,0-0.7,0.4c3.7-0.4,7.8,0,11.1-1.8
			c2.6-1.5,5.2-3.3,7.4-5.5h0.4c-0.7,1.8-1.5,3-3,4.1c-1.1,0.4-1.8,1.5-2.6,1.8c-0.4,0-1.1,0.4-1.5,0.7c-6.3,2.2-13.7,1.1-19.2,5.5
			l-0.4-0.4c0,0.4-0.7,0.7-0.7,1.1h0.7c0.7-0.7,1.8-1.1,3-1.5c-0.7,0.4-1.4,1-2.3,1.5 M60.2,73.8c1.4-0.9,2.9-1.7,4.3-2.6
			c-0.7-0.4-1.1-0.4-1.5-0.4c-1.1,0-2.2-0.4-3,0c-2.3,1-5.3,0.8-6.7,3 M102.9,0c-2,0.9-3.8,1.7-5.2,3.3c-1.5,1.5-3,3.3-3.3,5.2
			c-2.2,1.5-3.7,3.7-4.8,5.5c-1.5,3-3.7,5.5-3.3,8.5c0.4,3,1.1,5.2,1.5,8.1c0.4,1.1,0.4,1.8,0.7,3c0.4,1.1,0,2.2,0.4,3
			c0.4,0.7,0.4,1.1,1.1,1.5v0.7c0,0.4,0.4,0.4,0.4,0.4v0.7c1.5,1.5,3,3.3,3.7,5.2c0.4,0.7-1.5,0.4-2.2,0c-1.8-0.7-3-2.2-4.1-3.3
			l-0.4,0.4c0.7,1.1,3.3,2.6,1.8,3.3c-0.7,0.4-1.5-0.4-2.2,0.4v1.1c-0.7-0.7-1.8-0.4-3-0.7c-0.7-0.4-0.7-1.5-1.8-1.5
			c-1.8-0.7-4.1-1.1-6.3-1.1c-3-0.4-5.9-1.1-8.9-0.4c-2.6,0-4.8,2.2-6.3,4.1v0.4c1.1,0.4,1.5-0.7,2.6-1.1c1.5-0.4,3.3-1.1,4.8-1.1
			c2.6-0.7,4.8-1.5,7.4-1.1c0.4,0,1.1-0.4,1.5,0c-3-0.4-5.5,0.7-8.5,1.5"/>
		<path class="st1" d="M57.8,55.2c-0.4,0.4-0.8,0.7-0.8,1.1c0.8,0.4,1.5-0.4,2.6-0.4c-1.1,0.4-2.3,0.4-3.4,1.1c0.8,0.4,1.5,0,2.3,0
			c0,0.4,0.4,0.4,0.4,0.7c-0.8,0.4-1.5,0.7-1.5,1.5c-0.4,0.7-1.5,1.1-1.9,1.9v0.4c-1.9,1.5-3.8,2.6-4.9,4.5v0.4l-1.1,1.1
			c0,0.4,0,0.4,0.4,0.4c1.9-0.7,3.4-2.2,5.3-3c1.5-0.4,2.6-1.1,3.8-1.5c0.8,0,1.9-0.4,2.6-0.7c0,0.4,0,0.4,0.4,0.4h1.1
			c0,0.4-0.8,0.4-0.8,0.4c0.8,0.7,1.5,0.4,2.3,0c0.8-0.4,1.1-0.4,1.9-0.4v-0.4H68c4.1-0.7,7.9-1.5,11.6-3.4
			c-4.1-3.4-9.8-4.9-15.4-6.4c0.8,0,1.1,0.7,1.5,0c-0.8-0.4-1.9-0.4-2.6-0.7c0.4,0,0.8,0.4,0.8,0c-1.5-0.7-2.6-0.7-4.1-1.1
			c0.8-0.4,1.5-0.7,1.5-1.9h-0.8c-1.9,1.1-3.4,3-4.1,5.2c1.1,0.4,2.6,0,3.8,0C59.7,55.2,58.6,55.2,57.8,55.2z M51.1,48.5
			c-1.9,1.9-3.8,3.7-6,4.9c-1.5,3-3,6-5.3,9c4.1-4.5,7.9-8.2,13.1-11.6c0.4-0.4-0.4,0.4,0.4,0.4c2.3-0.7,2.6-2.6,3.8-4.5
			c1.5-2.2,3.8-3,5.6-4.9c0,0,0,0.4-0.4,0.4c0.4,0.4,0.4,0.4,0.8,0.4c0.8-0.7,1.5-0.4,1.9-1.1c-1.1-0.7-3-0.7-4.5-0.4
			C57.1,42.9,53.7,45.5,51.1,48.5z"/>
		<path class="st1" d="M54.5,51.7c0-0.4,0-0.4,0.4-0.8c0,0,0-0.4-0.4-0.4c-0.4,0.4-1.1,1.2-1.1,2h0.4C54.2,52.4,54.2,52.1,54.5,51.7
			z M68.2,65.4c-0.8,0.4-1.9,0.4-1.9,1.2C65.9,67,66.7,67,67.1,67c1.1-0.8,2.7,0,3.8-1.2c-0.4-0.4-1.1-0.4-1.5-0.8
			C69,64.6,68.6,65,68.2,65.4z"/>
		<path class="st2" d="M85.9,73.6c1.1-0.4,1.8-1.1,2.9-1.5v0.4c2.6-1.1,4.4-3,7-4.1c0,0,0.4,0.4,0.7,0.4c1.5-1.5,3.3-3,5.5-2.6v0.4
			c0.4,0,0.4,0,0.4-0.4c-0.7,0.8-1.5,1.1-1.8,1.5c-0.4,0.4,0,0.4,0,0.4c0.7-0.4,1.5-0.8,2.2-1.1c0,0,0,0.4-0.4,0.8
			c-3,2.1-5.2,4.5-7.5,7.2H75.7c1.9-0.4,3.9-0.9,5.8-1.1H85.9z"/>
		<path class="st4" d="M224.7,71c0,0.9,0,1.9,0,2.8h-97c0.9-3.1,2.7-6.1,5.9-8.1c0.4-0.4,1.5-0.4,2.3-0.7c3,0,5.7,1.1,8.7,1.5
			c0.4,0,0.8,0,1.1,0.4c1.1,0,2.3,0,3.4-0.4s2.3-1.1,3-2.6c0.4-1.1,0.8-2.6,0-3.7c-0.8-1.5,1.1-1.8,1.9-3c0.4-0.7-0.4-1.5-0.8-2.2
			c0-0.4-0.8,0-1.1-0.7c1.1-0.4,3.4-1.5,2.3-3c-0.4-0.7-1.1-2.2-0.4-3c1.5-0.7,3.4-0.7,3.8-1.8c0.8-1.8-1.1-3.7-2.3-5.2
			c-0.4-1.1-1.1-1.8-1.9-3c-0.4-1.1-1.5-2.2-1.9-3.3c-0.4-1.5,0.4-2.6,0.4-4.1c0-2.6-0.8-5.2-1.1-7.4c-0.8-1.5-0.8-2.6-1.5-3.7
			c0-0.7,0-1.5-0.8-2.2v-1.1c0.8-0.4,1.5-1.1,2.3-1.8c0.4-0.7,0-1.8-0.8-2.6c-1.1-0.4-1.1,1.5-1.9,1.8h-0.8c0-0.7,0.4-0.7,0.8-1.1
			c0-0.4,0-0.7-0.4-0.7c-0.8,0-1.1,0-1.5-0.4c-1.5-2.2-4.2-3.3-6.8-4.4c0.8,0,1.5,0.4,2.3,0.4c1.1,0,2.7,0,3.4-0.4
			c1.1-0.4,1.1-1.8,1.5-2.6c0.4-0.7,0-1.8-0.4-2.2c-1-1.2-1.9-1.9-3.1-2.6h81.3"/>
		<path class="st5" d="M146,31.7h-2.6c-1.5,0.4-2.6,0.7-3.6,1.1c0.7-0.7,1.8-1.5,2.9-1.9c1.1,0,1.8-0.4,2.6-0.4
			c1.1-0.4,2.2-0.7,2.9-0.4c0.7,0.4,2.2,0.4,2.2,0.7c0.4,1.1-0.4,2.2-1.5,3c0,0.4,0.7,0.4,0.7,0.7c-0.4,0.4-0.7,0.4-1.1,0.4
			l-1.1,1.1c0.4,0,0,0.7,0.4,0.7c-0.7,0.7,0.4,2.2-0.7,2.6c-1.1,0.4-2.6,0.4-3.6,0c0.7,0,1.5,0.4,1.8-0.4v-0.7h-0.7
			c0-0.4-0.4-0.7-0.4-0.7c-1.1,0.4-1.8-0.4-2.6-0.7c0.7-0.4,1.1-0.4,1.5-0.4c0.7,0,0.4-0.7,1.1-1.1h0.4c1.1-1.5,2.9-1.9,3.3-3
			C147.8,32.1,146.7,32.1,146,31.7z"/>
	</g>
	<g transform="translate(13 328)">
		<path d="M17.3,0H17l-3.9,9c-0.5,1.1-0.7,1.4-1.4,1.5v0.3h3v-0.3c-0.7,0-1.1-0.2-1.1-0.7c0-0.1,0-0.3,0.1-0.4l0.9-2.1h4.1l0.8,1.8
			c0.1,0.3,0.2,0.5,0.2,0.7c0,0.5-0.4,0.7-1.1,0.7v0.3h4.2v-0.3c-0.7,0-1-0.1-1.4-1.1L17.3,0z M16.6,2.6l1.8,4.2h-3.6L16.6,2.6z
			 M21.7,3.8v0.3c0.6,0.1,0.8,0.2,1.5,1.9l2,4.9h0.3L27.9,5c0.3-0.7,0.5-0.9,0.9-1V3.8h-2.1v0.3c0.6,0,0.8,0.1,0.8,0.5
			c0,0.1,0,0.3-0.1,0.6l-1.6,3.9l-1.5-3.5C24.1,5.2,24,4.9,24,4.7c0-0.4,0.2-0.6,0.7-0.6V3.8H21.7z M34.6,8.2c-0.4,1-1,1.6-2,1.6
			c-1.5,0-2.6-1.7-2.5-3.3h4.7c0-1.7-1.1-2.8-2.6-2.8c-1.9,0-3.1,1.5-3.1,3.7c0,2.4,1.4,3.6,2.9,3.6c1.4,0,2.5-1,2.8-2.6L34.6,8.2z
			 M30.2,6c0.1-1.1,0.8-1.8,1.6-1.8c0.9,0,1.4,0.7,1.5,1.8H30.2z M41.4,8.1c-0.3,1.1-1.1,1.7-2.1,1.7c-1.5,0-2.4-1.2-2.4-3.1
			c0-1.5,0.8-2.6,2-2.6c0.4,0,0.6,0.1,0.8,0.3c0.4,0.4,0.2,1,0.5,1.2c0.1,0.1,0.4,0.2,0.6,0.2c0.4,0,0.7-0.2,0.7-0.6
			c0-0.9-1.1-1.6-2.4-1.6c-2,0-3.4,1.6-3.4,3.7s1.3,3.6,3.1,3.6c1.3,0,2.5-1.1,2.9-2.8H41.4z M47.1,2.2v6.9c0,1.1-0.3,1.4-1.1,1.4
			v0.3h3.4v-0.3c-0.8,0-1-0.3-1-1.4V0H48l-2.1,0.9L46,1.2c0.1,0,0.1-0.1,0.2-0.1c0.1,0,0.1,0,0.2,0C46.8,1.1,47.1,1.5,47.1,2.2z
			 M56.9,9.5c-0.4,0.4-0.7,0.6-1,0.6c-0.3,0-0.4-0.2-0.4-0.7V5.5c0-1.3-0.7-1.8-2.2-1.8c-1.6,0-2.7,0.7-2.7,1.7
			c0,0.4,0.3,0.6,0.6,0.6s0.6-0.3,0.6-0.6c0-0.1,0-0.3,0-0.4c0-0.6,0.3-1.1,1.2-1.1c1,0,1.3,0.4,1.3,1.6v0.6c-0.7,0.2-1.4,0.5-2,0.8
			c-0.8,0.4-1.3,0.6-1.6,1s-0.4,0.7-0.4,1.2c0,0.9,0.7,1.7,1.5,1.7s1.5-0.4,2.5-1.3c-0.1,0.8,0.4,1.3,1,1.3c0.5,0,0.9-0.3,1.7-1.1
			L56.9,9.5L56.9,9.5z M54.2,9.4c-0.6,0.5-1.1,0.7-1.6,0.7c-0.6,0-1.1-0.5-1.1-1.2c0-0.9,0.6-1.4,2.7-2.2V9.4z M66.9,8.1
			c-0.3,1.1-1.1,1.7-2.1,1.7c-1.5,0-2.4-1.2-2.4-3.1c0-1.5,0.8-2.6,2-2.6c0.4,0,0.6,0.1,0.8,0.3c0.4,0.4,0.2,1,0.5,1.2
			c0.1,0.1,0.4,0.2,0.6,0.2c0.4,0,0.7-0.2,0.7-0.6c0-0.9-1.1-1.6-2.4-1.6c-2,0-3.4,1.6-3.4,3.7s1.3,3.6,3.1,3.6
			c1.3,0,2.5-1.1,2.9-2.8H66.9z M75,7.1c0-1.8-1.5-3.4-3.3-3.4c-1.9,0-3.6,1.8-3.6,3.8c0,1.9,1.5,3.5,3.3,3.5C73.3,11,75,9.2,75,7.1
			z M73.6,7.7c0,1.7-0.8,2.8-1.9,2.8c-1.5,0-2.3-1.9-2.3-3.6s0.7-2.7,1.9-2.7C72.6,4.2,73.6,5.7,73.6,7.7z M77.1,5.5v3.6
			c0,0.9-0.1,1.3-1.1,1.4v0.3h3.4v-0.3c-0.9,0-1.1-0.3-1.1-1.4V5.5c0.6-0.7,1.2-1,1.8-1c0.7,0,1.2,0.6,1.2,1.3v3.3
			c0,1-0.2,1.4-1.2,1.4v0.3h3.5v-0.3c-0.8,0-1.1-0.3-1.1-1.4V5.9c0-1.2-0.6-2.3-1.8-2.3c-0.8,0-1.3,0.3-2.4,1.5V3.7H78l-2.2,0.8
			L76,4.8c0.1,0,0.2-0.1,0.3-0.1c0.1,0,0.1,0,0.2,0C76.9,4.7,77.1,5.1,77.1,5.5z M85.4,4.3v4.8c0,1.1,0.5,1.8,1.4,1.8
			c0.8,0,1.3-0.4,1.9-1.4h-0.3c-0.3,0.4-0.6,0.6-0.9,0.6c-0.5,0-0.9-0.4-0.9-1V4.3h1.6V3.8h-1.6V1.6h-0.2c-0.3,1.1-1,1.9-2,2.4v0.3
			H85.4z M90.4,5.9v3.2c0,0.9-0.2,1.4-1.1,1.3v0.3H93v-0.3c-1.1,0-1.3-0.2-1.3-1.4V5.7c0.3-0.6,0.7-1,1.1-1c0.4,0,0.5,0.5,1,0.5
			c0.3,0,0.7-0.3,0.7-0.6c0-0.4-0.4-0.9-0.9-0.9c-0.7,0-1.4,0.6-1.9,1.5V3.7h-0.3l-2.1,0.9l0.1,0.3c0.1,0,0.1-0.1,0.2-0.1
			s0.1,0,0.2,0C90.3,4.7,90.4,5,90.4,5.9z M96.1,5.6v3.5c0,1.1-0.3,1.4-1.1,1.4v0.3h3.4v-0.3c-0.8,0-1-0.3-1-1.4V3.7h-0.3L95,4.5
			l0.1,0.3c0.1,0,0.1-0.1,0.1-0.1s0.1,0,0.2,0C95.9,4.7,96.1,5,96.1,5.6z M95.9,0.8c0,0.4,0.3,0.8,0.8,0.8c0.4,0,0.8-0.3,0.8-0.8
			c0-0.4-0.3-0.8-0.8-0.8C96.3,0,95.9,0.3,95.9,0.8z M100.2,2.6v7.5c0.9,0.6,1.7,0.9,2.6,0.9c2,0,3.7-1.7,3.7-3.9
			c0-1.9-1.3-3.4-2.8-3.4c-0.9,0-1.6,0.4-2.2,1.4V0h-0.3L99,0.9l0.1,0.3h0.1c0.1,0,0.1,0,0.2,0C100.1,1.1,100.2,1.6,100.2,2.6z
			 M101.4,5.5c0.6-0.6,1-0.8,1.6-0.8c1.3,0,2.2,1.2,2.2,2.8s-1,2.9-2.1,2.9c-0.6,0-1.2-0.3-1.7-0.8V5.5z M108.1,5.1V9
			c0,1.1,0.7,2,1.8,2c0.7,0,1.5-0.5,2.3-1.5V11h0.3l2.1-0.8V9.9c-0.2,0.1-0.3,0.1-0.5,0.1c-0.5,0-0.7-0.4-0.7-0.9V3.8H111v0.3
			c0.9,0,1.2,0.3,1.2,0.9v4.1c-0.6,0.6-1.2,0.9-1.8,0.9c-0.4,0-0.6-0.1-0.8-0.4c-0.2-0.3-0.3-0.5-0.3-0.9V3.8h-2.5v0.3
			C107.9,4.1,108.1,4.3,108.1,5.1z M116.4,4.3v4.8c0,1.1,0.5,1.8,1.4,1.8c0.8,0,1.3-0.4,1.9-1.4h-0.3c-0.3,0.4-0.6,0.6-0.9,0.6
			c-0.5,0-0.9-0.4-0.9-1V4.3h1.6V3.8h-1.6V1.6h-0.2c-0.3,1.1-1,1.9-2,2.4v0.3H116.4z M121.3,5.6v3.5c0,1.1-0.3,1.4-1.1,1.4v0.3h3.4
			v-0.3c-0.8,0-1-0.3-1-1.4V3.7h-0.3l-2.1,0.8l0.1,0.3c0.1,0,0.1-0.1,0.1-0.1s0.1,0,0.2,0C121.1,4.7,121.3,5,121.3,5.6z M121.1,0.8
			c0,0.4,0.3,0.8,0.8,0.8c0.4,0,0.8-0.3,0.8-0.8c0-0.4-0.3-0.8-0.8-0.8C121.5,0,121.1,0.3,121.1,0.8z M131.5,7.1
			c0-1.8-1.5-3.4-3.3-3.4c-1.9,0-3.6,1.8-3.6,3.8c0,1.9,1.5,3.5,3.3,3.5C129.8,11,131.5,9.2,131.5,7.1z M130.2,7.7
			c0,1.7-0.8,2.8-1.9,2.8c-1.5,0-2.3-1.9-2.3-3.6s0.7-2.7,1.9-2.7C129.2,4.2,130.2,5.7,130.2,7.7z M133.6,5.5v3.6
			c0,0.9-0.1,1.3-1.1,1.4v0.3h3.4v-0.3c-0.9,0-1.1-0.3-1.1-1.4V5.5c0.6-0.7,1.2-1,1.8-1c0.7,0,1.2,0.6,1.2,1.3v3.3
			c0,1-0.2,1.4-1.2,1.4v0.3h3.5v-0.3c-0.8,0-1.1-0.3-1.1-1.4V5.9c0-1.2-0.6-2.3-1.8-2.3c-0.8,0-1.3,0.3-2.4,1.5V3.7h-0.3l-2.2,0.8
			l0.1,0.3c0.1,0,0.2-0.1,0.3-0.1c0.1,0,0.1,0,0.2,0C133.4,4.7,133.6,5.1,133.6,5.5z M151.1,3.8h-0.3c-0.2,0.1-0.3,0.1-0.7,0.1h-3.2
			v-1c0-1.6,0.6-2.3,1.5-2.3c1.1,0,1.1,1.5,2,1.5c0.3,0,0.6-0.3,0.6-0.6c0-0.7-1-1.3-2.1-1.3c-1.7,0-3.2,1.1-3.1,3.8h-1.2v0.5h1.2
			v4.8c0,1.2-0.3,1.4-1.2,1.4V11h3.6v-0.3c-0.9,0-1.1-0.2-1.1-1.4v-5h2c0.8,0,1,0.2,1,1v3.8c0,1.2-0.3,1.4-1.2,1.4v0.3h3.6v-0.3
			c-0.9,0-1.2-0.4-1.2-1.2V3.8H151.1z M153.9,5.5v3.6c0,0.9-0.1,1.3-1.1,1.4v0.3h3.4v-0.3c-0.9,0-1.1-0.3-1.1-1.4V5.5
			c0.6-0.7,1.2-1,1.8-1c0.7,0,1.2,0.6,1.2,1.3v3.3c0,1-0.2,1.4-1.2,1.4v0.3h3.5v-0.3c-0.8,0-1.1-0.3-1.1-1.4V5.9
			c0-1.2-0.6-2.3-1.8-2.3c-0.8,0-1.3,0.3-2.4,1.5V3.7h-0.3l-2.2,0.8l0.1,0.3c0.1,0,0.2-0.1,0.3-0.1s0.1,0,0.2,0
			C153.7,4.7,153.9,5.1,153.9,5.5z M167.9,9.5c-0.4,0.4-0.7,0.6-1,0.6c-0.3,0-0.4-0.2-0.4-0.7V5.5c0-1.3-0.7-1.8-2.2-1.8
			c-1.6,0-2.7,0.7-2.7,1.7c0,0.4,0.3,0.6,0.6,0.6s0.6-0.3,0.6-0.6c0-0.1,0-0.3,0-0.4c0-0.6,0.3-1.1,1.2-1.1c1,0,1.3,0.4,1.3,1.6v0.6
			c-0.7,0.2-1.4,0.5-2,0.8c-0.8,0.4-1.3,0.6-1.6,1s-0.4,0.7-0.4,1.2c0,0.9,0.7,1.7,1.5,1.7s1.5-0.4,2.5-1.3c-0.1,0.8,0.4,1.3,1,1.3
			c0.5,0,0.9-0.3,1.7-1.1V9.5H167.9z M165.3,9.4c-0.6,0.5-1.1,0.7-1.6,0.7c-0.6,0-1.1-0.5-1.1-1.2c0-0.9,0.6-1.4,2.7-2.2V9.4z
			 M169.6,5.5v3.6c0,0.9-0.1,1.3-1.1,1.4v0.3h3.4v-0.3c-0.9,0-1.1-0.3-1.1-1.4V5.5c0.6-0.7,1.2-1,1.8-1c0.7,0,1.2,0.6,1.2,1.3v3.3
			c0,1-0.2,1.4-1.2,1.4v0.3h3.5v-0.3c-0.8,0-1.1-0.3-1.1-1.4V5.9c0-1.2-0.6-2.3-1.8-2.3c-0.8,0-1.3,0.3-2.4,1.5V3.7h-0.3l-2.2,0.8
			l0.1,0.3c0.1,0,0.2-0.1,0.3-0.1c0.1,0,0.1,0,0.2,0C169.4,4.7,169.6,5.1,169.6,5.5z M182.5,8.1c-0.3,1.1-1.1,1.7-2.1,1.7
			c-1.5,0-2.4-1.2-2.4-3.1c0-1.5,0.8-2.6,2-2.6c0.4,0,0.6,0.1,0.8,0.3c0.4,0.4,0.2,1,0.5,1.2c0.1,0.1,0.4,0.2,0.6,0.2
			c0.4,0,0.7-0.2,0.7-0.6c0-0.9-1.1-1.6-2.4-1.6c-2,0-3.4,1.6-3.4,3.7s1.3,3.6,3.1,3.6c1.3,0,2.5-1.1,2.9-2.8H182.5z M184.4,5.6v3.5
			c0,1.1-0.3,1.4-1.1,1.4v0.3h3.4v-0.3c-0.8,0-1-0.3-1-1.4V3.7h-0.3l-2.1,0.8l0.1,0.3c0.1,0,0.1-0.1,0.1-0.1s0.1,0,0.2,0
			C184.2,4.7,184.4,5,184.4,5.6z M184.2,0.8c0,0.4,0.3,0.8,0.8,0.8c0.4,0,0.8-0.3,0.8-0.8c0-0.4-0.3-0.8-0.8-0.8
			C184.6,0,184.2,0.3,184.2,0.8z M188.9,0.3l2.2,2.5h0.2l-0.8-2.5H188.9z M192.9,8.2c-0.4,1-1,1.6-2,1.6c-1.5,0-2.6-1.7-2.5-3.3h4.7
			c0-1.7-1.1-2.8-2.6-2.8c-1.9,0-3.1,1.5-3.1,3.7c0,2.4,1.4,3.6,2.9,3.6c1.4,0,2.5-1,2.8-2.6L192.9,8.2z M188.5,6
			c0.1-1.1,0.8-1.8,1.6-1.8c0.9,0,1.4,0.7,1.5,1.8H188.5z M195.1,5.9v3.2c0,0.9-0.2,1.4-1.1,1.3v0.3h3.7v-0.3
			c-1.1,0-1.3-0.2-1.3-1.4V5.7c0.3-0.6,0.7-1,1.1-1s0.5,0.5,1,0.5c0.3,0,0.7-0.3,0.7-0.6c0-0.4-0.4-0.9-0.9-0.9
			c-0.7,0-1.4,0.6-1.9,1.5V3.7H196l-2,0.8l0.1,0.3c0.1,0,0.1-0.1,0.2-0.1c0.1,0,0.1,0,0.2,0C195,4.7,195.1,5,195.1,5.9z M205,8.2
			c-0.4,1-1,1.6-2,1.6c-1.5,0-2.6-1.7-2.5-3.3h4.7c0-1.7-1.1-2.8-2.6-2.8c-1.9,0-3.1,1.5-3.1,3.7c0,2.4,1.4,3.6,2.9,3.6
			c1.4,0,2.5-1,2.8-2.6L205,8.2z M200.6,6c0.1-1.1,0.8-1.8,1.6-1.8c0.9,0,1.4,0.7,1.5,1.8H200.6z M19.5,25.7v-8.6h-0.3L17,18
			l0.1,0.3c0.1,0,0.2-0.1,0.2-0.1c0.1,0,0.1,0,0.2,0c0.4,0,0.6,0.3,0.6,1v2.1c-0.5-0.4-1-0.5-1.6-0.5c-1.9,0-3.5,1.8-3.5,3.9
			c0,1.9,1.4,3.4,3,3.4c0.8,0,1.4-0.3,2.1-1v1l2.4-0.9L20.4,27c-0.2,0.1-0.3,0.1-0.4,0.1C19.6,27,19.5,26.7,19.5,25.7z M18.2,26.5
			c-0.4,0.4-0.8,0.7-1.4,0.7c-1.3,0-2.4-1.4-2.4-3.1c0-1.6,0.9-2.9,2-2.9c0.7,0,1.5,0.6,1.7,1.3c0.1,0.2,0.1,0.5,0.1,0.8V26.5z
			 M22.4,22.2V26c0,1.1,0.7,2,1.8,2c0.7,0,1.5-0.5,2.3-1.5V28h0.3l2.1-0.8v-0.3C28.7,27,28.6,27,28.5,27c-0.5,0-0.7-0.4-0.7-0.9
			v-5.3h-2.4v0.3c0.9,0,1.2,0.3,1.2,0.9v4.1C26,26.7,25.4,27,24.8,27c-0.4,0-0.6-0.1-0.8-0.4c-0.2-0.3-0.3-0.5-0.3-0.9v-4.9h-2.5
			v0.3C22.1,21.1,22.4,21.4,22.4,22.2z M39,25.1c-0.3,1.1-1.1,1.7-2.1,1.7c-1.5,0-2.4-1.2-2.4-3.1c0-1.5,0.8-2.6,2-2.6
			c0.4,0,0.6,0.1,0.8,0.3c0.4,0.4,0.2,1,0.5,1.2c0.1,0.1,0.4,0.2,0.6,0.2c0.4,0,0.7-0.2,0.7-0.6c0-0.9-1.1-1.6-2.4-1.6
			c-2,0-3.4,1.6-3.4,3.7s1.3,3.6,3.1,3.6c1.3,0,2.5-1.1,2.9-2.8H39z M47,24.1c0-1.8-1.5-3.4-3.3-3.4c-1.9,0-3.6,1.8-3.6,3.8
			c0,1.9,1.5,3.5,3.3,3.5C45.4,28,47,26.2,47,24.1z M45.7,24.7c0,1.7-0.8,2.8-1.9,2.8c-1.5,0-2.3-1.9-2.3-3.6c0-1.7,0.7-2.7,1.9-2.7
			C44.7,21.2,45.7,22.7,45.7,24.7z M49.1,22.7v3.4c0,1.2-0.3,1.4-1.2,1.4v0.3h3.5v-0.3c-0.8,0-1.1-0.3-1.1-1.4v-3.6
			c0.6-0.6,1.2-0.9,1.8-0.9c0.8,0,1.2,0.6,1.2,1.4v3.1c0,1.2-0.3,1.4-1.2,1.4v0.3h3.5v-0.3c-0.9,0-1.1-0.2-1.1-1.4v-2.7
			c0-0.2,0-0.8,0-0.9c0.5-0.6,1.2-0.9,1.8-0.9c0.7,0,1.2,0.5,1.2,1.3v3.2c0,1.2-0.3,1.4-1.2,1.4v0.3h3.5v-0.3
			c-0.9,0-1.1-0.2-1.1-1.4V23c0-1.5-0.7-2.4-1.8-2.4c-1,0-1.8,0.6-2.5,1.5c-0.2-1-0.8-1.5-1.7-1.5c-0.6,0-1.3,0.3-2.3,1.4v-1.4h-0.3
			l-2.2,0.8l0.1,0.3c0,0,0.1,0,0.2-0.1c0.1-0.1,0.2,0,0.3,0C48.8,21.7,49.1,22.1,49.1,22.7z M61.5,22.6v6.7c0,1-0.2,1.4-1.2,1.4V31
			H64v-0.3c-1,0-1.3-0.3-1.3-1.4v-1.9c0.4,0.4,1,0.6,1.6,0.6c1.9,0,3.5-1.7,3.5-3.9c0-1.9-1.2-3.4-2.7-3.4c-0.9,0-1.8,0.7-2.3,1.6
			v-1.6h-0.3l-2.2,0.8l0.1,0.3c0.1,0,0.2-0.1,0.3-0.1c0.1,0,0.1,0,0.2,0C61.3,21.7,61.5,22.1,61.5,22.6z M62.7,22.7
			c0.5-0.7,1.1-1,1.7-1c1.2,0,2.1,1.2,2.1,2.9c0,1.7-0.8,2.9-2.1,2.9c-0.9,0-1.7-0.6-1.7-1.7V22.7z M69.8,21.3v4.8
			c0,1.1,0.5,1.8,1.4,1.8c0.8,0,1.3-0.4,1.9-1.4h-0.3c-0.3,0.4-0.6,0.6-0.9,0.6c-0.5,0-0.9-0.4-0.9-1v-4.8h1.6v-0.5H71v-2.2h-0.2
			c-0.3,1.1-1,1.9-2,2.4v0.3H69.8z M79.2,25.2c-0.4,1-1,1.6-2,1.6c-1.5,0-2.6-1.7-2.5-3.3h4.7c0-1.7-1.1-2.8-2.6-2.8
			c-1.9,0-3.1,1.5-3.1,3.7c0,2.4,1.4,3.6,2.9,3.6c1.4,0,2.5-1,2.8-2.6L79.2,25.2z M74.7,23c0.1-1.1,0.8-1.8,1.6-1.8
			c0.8,0,1.4,0.7,1.5,1.8H74.7z M90.3,25.7v-8.6H90L87.9,18l0.1,0.3c0.1,0,0.2-0.1,0.2-0.1c0.1,0,0.1,0,0.2,0c0.4,0,0.6,0.3,0.6,1
			v2.1c-0.5-0.4-1-0.5-1.6-0.5c-1.9,0-3.5,1.8-3.5,3.9c0,1.9,1.4,3.4,3,3.4c0.8,0,1.4-0.3,2.1-1v1l2.4-0.9L91.3,27
			c-0.1-0.1-0.2,0-0.3,0C90.5,27,90.3,26.7,90.3,25.7z M89.1,26.5c-0.4,0.4-0.8,0.7-1.4,0.7c-1.3,0-2.4-1.4-2.4-3.1
			c0-1.6,0.9-2.9,2-2.9c0.7,0,1.5,0.6,1.7,1.3c0.1,0.2,0.1,0.5,0.1,0.8V26.5z M92.7,21.1c1.5-0.5,2.2-1.3,2.2-2.5
			c0-0.9-0.5-1.5-1.2-1.5c-0.5,0-1,0.4-1,0.9c0,0.4,0.4,0.8,0.8,0.8c0.3,0,0.5-0.2,0.6-0.2s0.2,0.1,0.2,0.3c0,0.7-0.4,1.5-1.6,1.9
			V21.1z M103.1,26.5c-0.4,0.4-0.7,0.6-1,0.6c-0.3,0-0.4-0.2-0.4-0.7v-3.9c0-1.3-0.7-1.8-2.2-1.8c-1.6,0-2.7,0.7-2.7,1.7
			c0,0.4,0.3,0.6,0.6,0.6c0.3,0,0.6-0.3,0.6-0.6c0-0.1,0-0.3,0-0.4c0-0.6,0.3-1.1,1.2-1.1c1,0,1.3,0.4,1.3,1.6v0.6
			c-0.7,0.2-1.4,0.5-2,0.8c-0.8,0.4-1.3,0.6-1.6,1c-0.3,0.4-0.4,0.7-0.4,1.2c0,0.9,0.7,1.7,1.5,1.7s1.5-0.4,2.5-1.3
			c-0.1,0.8,0.4,1.3,1,1.3c0.5,0,0.9-0.3,1.7-1.1L103.1,26.5L103.1,26.5z M100.4,26.4c-0.6,0.5-1.1,0.7-1.6,0.7
			c-0.6,0-1.1-0.5-1.1-1.2c0-0.9,0.6-1.4,2.7-2.2V26.4z M103.8,20.9v0.5h1v4.8c0,1.2-0.3,1.4-1.1,1.4v0.3h3.6v-0.3
			c-1,0-1.2-0.2-1.2-1.4v-4.8h1.4v-0.5H106v-1.6c0-1,0.2-1.6,1-1.6c1,0,1,1.3,1.8,1.3c0.3,0,0.6-0.3,0.6-0.6c0-0.6-0.9-1.2-1.9-1.2
			c-1.5,0-2.7,1.3-2.7,3V21h-1V20.9z"/>
		<path d="M108.4,20.9v0.5h1v4.8c0,1.2-0.3,1.4-1.1,1.4v0.3h3.6v-0.3c-1,0-1.2-0.2-1.2-1.4v-4.8h1.4v-0.5h-1.4v-1.6
			c0-1,0.2-1.6,1-1.6c1,0,1,1.3,1.8,1.3c0.3,0,0.6-0.3,0.6-0.6c0-0.6-0.9-1.2-1.9-1.2c-1.5,0-2.7,1.3-2.7,3V21h-1.1V20.9z
			 M118.8,25.2c-0.4,1-1,1.6-2,1.6c-1.5,0-2.6-1.7-2.5-3.3h4.7c0-1.7-1.1-2.8-2.6-2.8c-1.9,0-3.1,1.5-3.1,3.7c0,2.4,1.4,3.6,2.9,3.6
			c1.4,0,2.5-1,2.8-2.6L118.8,25.2z M114.3,23c0.1-1.1,0.8-1.8,1.6-1.8c0.8,0,1.4,0.7,1.5,1.8H114.3z M125.5,25.1
			c-0.3,1.1-1.1,1.7-2.1,1.7c-1.5,0-2.4-1.2-2.4-3.1c0-1.5,0.8-2.6,2-2.6c0.4,0,0.6,0.1,0.8,0.3c0.4,0.4,0.2,1,0.5,1.2
			c0.1,0.1,0.4,0.2,0.6,0.2c0.4,0,0.7-0.2,0.7-0.6c0-0.9-1.1-1.6-2.4-1.6c-2,0-3.4,1.6-3.4,3.7s1.3,3.6,3.1,3.6
			c1.3,0,2.5-1.1,2.9-2.8H125.5z M127.4,21.3v4.8c0,1.1,0.5,1.8,1.4,1.8c0.8,0,1.3-0.4,1.9-1.4h-0.3c-0.3,0.4-0.6,0.6-0.9,0.6
			c-0.5,0-0.9-0.4-0.9-1v-4.8h1.6v-0.5h-1.6v-2.2h-0.2c-0.3,1.1-1,1.9-2,2.4v0.3H127.4z M132.4,22.6v3.5c0,1.1-0.3,1.4-1.1,1.4v0.3
			h3.4v-0.3c-0.8,0-1-0.3-1-1.4v-5.4h-0.3l-2.1,0.8l0.1,0.3c0.1,0,0.1-0.1,0.1-0.1s0.1,0,0.2,0C132.2,21.7,132.4,22.1,132.4,22.6z
			 M132.2,17.8c0,0.4,0.3,0.8,0.8,0.8c0.4,0,0.8-0.3,0.8-0.8c0-0.4-0.3-0.8-0.8-0.8S132.2,17.4,132.2,17.8z M142.6,24.1
			c0-1.8-1.5-3.4-3.3-3.4c-1.9,0-3.6,1.8-3.6,3.8c0,1.9,1.5,3.5,3.3,3.5C140.9,28,142.6,26.2,142.6,24.1z M141.2,24.7
			c0,1.7-0.8,2.8-1.9,2.8c-1.5,0-2.3-1.9-2.3-3.6c0-1.7,0.7-2.7,1.9-2.7C140.2,21.2,141.2,22.7,141.2,24.7z M144.7,22.6v3.6
			c0,0.9-0.1,1.3-1.1,1.4v0.3h3.4v-0.3c-0.9,0-1.1-0.3-1.1-1.4v-3.6c0.6-0.7,1.2-1,1.8-1c0.7,0,1.2,0.6,1.2,1.3v3.3
			c0,1-0.2,1.4-1.2,1.4v0.3h3.5v-0.3c-0.8,0-1.1-0.3-1.1-1.4V23c0-1.2-0.6-2.3-1.8-2.3c-0.8,0-1.3,0.3-2.4,1.5v-1.5h-0.3l-2.2,0.8
			l0.1,0.3c0.1,0,0.2-0.1,0.3-0.1c0.1,0,0.1,0,0.2,0C144.5,21.7,144.7,22.1,144.7,22.6z M156,22.7c0,0.5,0.1,0.8,0.5,1.2
			c0.6,0.6,2.1,1.2,2.6,1.7c0.3,0.3,0.4,0.5,0.4,1c0,0.6-0.5,1-1.2,1c-1.1,0-1.9-0.9-2-2.1H156v2.3h0.3c0-0.1,0.1-0.1,0.3-0.1
			c0.3,0,1,0.3,1.7,0.3c0.8,0,2.2-0.6,2.2-2.1c0-0.6-0.2-1-0.6-1.4c-0.9-0.9-2-1-2.8-1.8c-0.1-0.1-0.3-0.4-0.3-0.8
			c0-0.5,0.5-0.9,1.2-0.9c0.9,0,1.5,0.7,1.7,1.9h0.3v-2.1h-0.3c-0.1,0-0.2,0.1-0.3,0.1c-0.2,0-0.4-0.1-0.6-0.1
			c-0.2-0.1-0.5-0.1-0.8-0.1C156.8,20.7,156,21.5,156,22.7z M162.5,22.6v6.7c0,1-0.2,1.4-1.2,1.4V31h3.7v-0.3c-1,0-1.3-0.3-1.3-1.4
			v-1.9c0.4,0.4,1,0.6,1.6,0.6c1.9,0,3.5-1.7,3.5-3.9c0-1.9-1.2-3.4-2.7-3.4c-0.9,0-1.8,0.7-2.3,1.6v-1.6h-0.3l-2.2,0.8l0.1,0.3
			c0.1,0,0.2-0.1,0.3-0.1c0.1,0,0.1,0,0.2,0C162.3,21.7,162.5,22.1,162.5,22.6z M163.7,22.7c0.5-0.7,1.1-1,1.7-1
			c1.2,0,2.1,1.2,2.1,2.9c0,1.7-0.8,2.9-2.1,2.9c-0.9,0-1.7-0.6-1.7-1.7V22.7z M174.1,17.3h-1.6l-0.8,2.5h0.2L174.1,17.3z
			 M175.1,25.2c-0.4,1-1,1.6-2,1.6c-1.5,0-2.6-1.7-2.5-3.3h4.7c0-1.7-1.1-2.8-2.6-2.8c-1.9,0-3.1,1.5-3.1,3.7c0,2.4,1.4,3.6,2.9,3.6
			c1.4,0,2.5-1,2.8-2.6L175.1,25.2z M170.7,23c0.1-1.1,0.8-1.8,1.6-1.8c0.9,0,1.4,0.7,1.5,1.8H170.7z M181.9,25.1
			c-0.3,1.1-1.1,1.7-2.1,1.7c-1.5,0-2.4-1.2-2.4-3.1c0-1.5,0.8-2.6,2-2.6c0.4,0,0.6,0.1,0.8,0.3c0.4,0.4,0.2,1,0.5,1.2
			c0.1,0.1,0.4,0.2,0.6,0.2c0.4,0,0.7-0.2,0.7-0.6c0-0.9-1.1-1.6-2.4-1.6c-2,0-3.4,1.6-3.4,3.7s1.3,3.6,3.1,3.6
			c1.3,0,2.5-1.1,2.9-2.8H181.9z M183.8,22.6v3.5c0,1.1-0.3,1.4-1.1,1.4v0.3h3.4v-0.3c-0.8,0-1-0.3-1-1.4v-5.4h-0.3l-2.1,0.8
			l0.1,0.3c0.1,0,0.1-0.1,0.1-0.1s0.1,0,0.2,0C183.6,21.7,183.8,22.1,183.8,22.6z M183.6,17.8c0,0.4,0.3,0.8,0.8,0.8
			c0.4,0,0.8-0.3,0.8-0.8c0-0.4-0.3-0.8-0.8-0.8C184,17,183.6,17.4,183.6,17.8z M193.6,26.5c-0.4,0.4-0.7,0.6-1,0.6
			c-0.3,0-0.4-0.2-0.4-0.7v-3.9c0-1.3-0.7-1.8-2.2-1.8c-1.6,0-2.7,0.7-2.7,1.7c0,0.4,0.3,0.6,0.6,0.6c0.3,0,0.6-0.3,0.6-0.6
			c0-0.1,0-0.3,0-0.4c0-0.6,0.3-1.1,1.2-1.1c1,0,1.3,0.4,1.3,1.6v0.6c-0.7,0.2-1.4,0.5-2,0.8c-0.8,0.4-1.3,0.6-1.6,1
			c-0.3,0.4-0.4,0.7-0.4,1.2c0,0.9,0.7,1.7,1.5,1.7s1.5-0.4,2.5-1.3c-0.1,0.8,0.4,1.3,1,1.3c0.5,0,0.9-0.3,1.7-1.1L193.6,26.5
			L193.6,26.5z M191,26.4c-0.6,0.5-1.1,0.7-1.6,0.7c-0.6,0-1.1-0.5-1.1-1.2c0-0.9,0.6-1.4,2.7-2.2V26.4z M195.4,19.2v6.9
			c0,1.1-0.3,1.4-1.1,1.4v0.3h3.4v-0.3c-0.8,0-1-0.3-1-1.4V17h-0.3l-2.1,0.9l0.1,0.3c0.1,0,0.1-0.1,0.2-0.1c0.1,0,0.1,0,0.2,0
			C195.1,18.2,195.4,18.5,195.4,19.2z M203.8,25.2c-0.4,1-1,1.6-2,1.6c-1.5,0-2.6-1.7-2.5-3.3h4.7c0-1.7-1.1-2.8-2.6-2.8
			c-1.9,0-3.1,1.5-3.1,3.7c0,2.4,1.4,3.6,2.9,3.6c1.4,0,2.5-1,2.8-2.6L203.8,25.2z M199.4,23c0.1-1.1,0.8-1.8,1.6-1.8
			c0.9,0,1.4,0.7,1.5,1.8H199.4z M2.8,37.6L0,41l2.8,3.5h0.4L1.5,41l1.8-3.5L2.8,37.6L2.8,37.6z M6.1,37.6L3.3,41l2.8,3.5h0.4
			L4.8,41l1.8-3.5L6.1,37.6L6.1,37.6z M13.8,42.8v-8.6h-0.3L11.4,35l0.1,0.3c0.1,0,0.2-0.1,0.2-0.1c0.1,0,0.1,0,0.2,0
			c0.4,0,0.6,0.3,0.6,1v2.1c-0.5-0.4-1-0.5-1.6-0.5c-1.9,0-3.5,1.8-3.5,3.9c0,1.9,1.4,3.4,3,3.4c0.8,0,1.4-0.3,2.1-1v1l2.4-0.9
			L14.8,44c-0.1,0-0.2,0-0.3,0C14,44,13.8,43.7,13.8,42.8z M12.6,43.5c-0.4,0.4-0.8,0.7-1.4,0.7c-1.3,0-2.4-1.4-2.4-3.1
			c0-1.6,0.9-2.9,2-2.9c0.7,0,1.5,0.6,1.7,1.3c0.1,0.2,0.1,0.5,0.1,0.8V43.5z M20.2,34.3h-1.6l-0.8,2.5H18L20.2,34.3z M21.2,42.3
			c-0.4,1-1,1.6-2,1.6c-1.5,0-2.6-1.7-2.5-3.3h4.7c0-1.7-1.1-2.8-2.6-2.8c-1.9,0-3.1,1.5-3.1,3.7c0,2.4,1.4,3.6,2.9,3.6
			c1.4,0,2.5-1,2.8-2.6L21.2,42.3z M16.7,40.1c0.1-1.1,0.8-1.8,1.6-1.8c0.9,0,1.4,0.7,1.5,1.8H16.7z M21.8,37.9v0.3
			c0.6,0.1,0.8,0.2,1.5,1.9l2,4.9h0.3l2.4-5.9c0.3-0.7,0.5-0.9,0.9-1v-0.3h-2.1v0.3c0.6,0,0.8,0.1,0.8,0.5c0,0.1,0,0.3-0.1,0.6
			l-1.6,3.9l-1.5-3.5c-0.1-0.3-0.2-0.6-0.2-0.8c0-0.4,0.2-0.6,0.7-0.6v-0.3H21.8z M34.8,42.3c-0.4,1-1,1.6-2,1.6
			c-1.5,0-2.6-1.7-2.5-3.3H35c0-1.7-1.1-2.8-2.6-2.8c-1.9,0-3.1,1.5-3.1,3.7c0,2.4,1.4,3.6,2.9,3.6c1.4,0,2.5-1,2.8-2.6L34.8,42.3z
			 M30.3,40.1c0.1-1.1,0.8-1.8,1.6-1.8c0.8,0,1.4,0.7,1.5,1.8H30.3z M36.9,36.2v6.9c0,1.1-0.3,1.4-1.1,1.4v0.3h3.4v-0.3
			c-0.8,0-1-0.3-1-1.4V34h-0.3l-2.1,1l0.1,0.3c0.1,0,0.1-0.1,0.2-0.1c0.1,0,0.1,0,0.2,0C36.7,35.2,36.9,35.5,36.9,36.2z M47.1,41.1
			c0-1.8-1.5-3.4-3.3-3.4c-1.9,0-3.6,1.8-3.6,3.8c0,1.9,1.5,3.5,3.3,3.5C45.4,45,47.1,43.2,47.1,41.1z M45.7,41.8
			c0,1.7-0.8,2.8-1.9,2.8c-1.5,0-2.3-1.9-2.3-3.6s0.7-2.7,1.9-2.7C44.7,38.3,45.7,39.8,45.7,41.8z M49.2,39.6v6.7
			c0,1-0.2,1.4-1.2,1.4V48h3.7v-0.3c-1,0-1.3-0.3-1.3-1.4v-1.9c0.4,0.4,1,0.6,1.6,0.6c1.9,0,3.5-1.7,3.5-3.9c0-1.9-1.2-3.4-2.7-3.4
			c-0.9,0-1.8,0.7-2.3,1.6v-1.6h-0.3L48,38.5l0.1,0.3c0.1,0,0.2-0.1,0.3-0.1c0.1,0,0.1,0,0.2,0C49,38.7,49.2,39.1,49.2,39.6z
			 M50.5,39.8c0.5-0.7,1.1-1,1.7-1c1.2,0,2.1,1.2,2.1,2.9s-0.8,2.9-2.1,2.9c-0.9,0-1.7-0.6-1.7-1.7V39.8z M57.5,39.6v6.7
			c0,1-0.2,1.4-1.2,1.4V48H60v-0.3c-1,0-1.3-0.3-1.3-1.4v-1.9c0.4,0.4,1,0.6,1.6,0.6c1.9,0,3.5-1.7,3.5-3.9c0-1.9-1.2-3.4-2.7-3.4
			c-0.9,0-1.8,0.7-2.3,1.6v-1.6h-0.3l-2.2,0.8l0.1,0.3c0.1,0,0.2-0.1,0.3-0.1c0.1,0,0.1,0,0.2,0C57.3,38.7,57.5,39.1,57.5,39.6z
			 M58.7,39.8c0.5-0.7,1.1-1,1.7-1c1.2,0,2.1,1.2,2.1,2.9s-0.8,2.9-2.1,2.9c-0.9,0-1.7-0.6-1.7-1.7V39.8z M70.2,42.3
			c-0.4,1-1,1.6-2,1.6c-1.5,0-2.6-1.7-2.5-3.3h4.7c0-1.7-1.1-2.8-2.6-2.8c-1.9,0-3.1,1.5-3.1,3.7c0,2.4,1.4,3.6,2.9,3.6
			c1.4,0,2.5-1,2.8-2.6L70.2,42.3z M65.7,40.1c0.1-1.1,0.8-1.8,1.6-1.8c0.8,0,1.4,0.7,1.5,1.8H65.7z M72.2,39.7v3.4
			c0,1.2-0.3,1.4-1.2,1.4v0.3h3.5v-0.3c-0.8,0-1.1-0.3-1.1-1.4v-3.6c0.6-0.6,1.2-0.9,1.8-0.9c0.8,0,1.2,0.6,1.2,1.4v3.1
			c0,1.2-0.3,1.4-1.2,1.4v0.3h3.5v-0.3c-0.9,0-1.1-0.2-1.1-1.4v-2.7c0-0.2,0-0.8,0-0.9c0.5-0.6,1.2-0.9,1.8-0.9
			c0.7,0,1.2,0.5,1.2,1.3v3.2c0,1.2-0.3,1.4-1.2,1.4v0.3h3.5v-0.3c-0.9,0-1.1-0.2-1.1-1.4V40c0-1.5-0.7-2.4-1.8-2.4
			c-1,0-1.8,0.6-2.5,1.5c-0.2-1-0.8-1.5-1.7-1.5c-0.6,0-1.3,0.3-2.3,1.4v-1.4h-0.3L71,38.4l0.1,0.3c0,0,0.1,0,0.2-0.1
			c0.1,0,0.2,0,0.3,0C71.9,38.7,72.2,39.1,72.2,39.7z M89,42.3c-0.4,1-1,1.6-2,1.6c-1.5,0-2.6-1.7-2.5-3.3h4.7
			c0-1.7-1.1-2.8-2.6-2.8c-1.9,0-3.1,1.5-3.1,3.7c0,2.4,1.4,3.6,2.9,3.6c1.4,0,2.5-1,2.8-2.6L89,42.3z M84.6,40.1
			c0.1-1.1,0.8-1.8,1.6-1.8c0.9,0,1.4,0.7,1.5,1.8H84.6z M91.1,39.6v3.6c0,0.9-0.1,1.3-1.1,1.4v0.3h3.4v-0.3c-0.9,0-1.1-0.3-1.1-1.4
			v-3.6c0.6-0.7,1.2-1,1.8-1c0.7,0,1.2,0.6,1.2,1.3v3.3c0,1-0.2,1.4-1.2,1.4v0.3h3.5v-0.3c-0.8,0-1.1-0.3-1.1-1.4V40
			c0-1.2-0.6-2.3-1.8-2.3c-0.8,0-1.3,0.3-2.4,1.5v-1.5H92l-2.2,0.8l0.1,0.3c0.1,0,0.2-0.1,0.3-0.1c0.1,0,0.1,0,0.2,0
			C90.9,38.7,91.1,39.1,91.1,39.6z M99.4,38.4v4.8c0,1.1,0.5,1.8,1.4,1.8c0.8,0,1.3-0.4,1.9-1.4h-0.3c-0.3,0.4-0.6,0.6-0.9,0.6
			c-0.5,0-0.9-0.4-0.9-1v-4.8h1.6v-0.5h-1.6v-2.2h-0.2c-0.3,1.1-1,1.9-2,2.4v0.3H99.4z M113.9,43.5c-0.4,0.4-0.7,0.6-1,0.6
			c-0.3,0-0.4-0.2-0.4-0.7v-3.9c0-1.3-0.7-1.8-2.2-1.8c-1.6,0-2.7,0.7-2.7,1.7c0,0.4,0.3,0.6,0.6,0.6c0.3,0,0.6-0.3,0.6-0.6
			c0-0.1,0-0.3,0-0.4c0-0.6,0.3-1.1,1.2-1.1c1,0,1.3,0.4,1.3,1.6v0.6c-0.7,0.2-1.4,0.5-2,0.8c-0.8,0.4-1.3,0.6-1.6,1
			c-0.3,0.4-0.4,0.7-0.4,1.2c0,0.9,0.7,1.7,1.5,1.7c0.8,0,1.5-0.4,2.5-1.3c-0.1,0.8,0.4,1.3,1,1.3c0.5,0,0.9-0.3,1.7-1.1L113.9,43.5
			L113.9,43.5z M111.2,43.4c-0.6,0.5-1.1,0.7-1.6,0.7c-0.6,0-1.1-0.5-1.1-1.2c0-0.9,0.6-1.4,2.7-2.2V43.4z M119.1,38.2
			c-0.5-0.3-1-0.4-1.5-0.4c-1.5,0-2.7,1.1-2.7,2.5c0,0.9,0.5,1.6,1.3,2c-0.8,0.7-1.2,1.2-1.2,1.7c0,0.3,0.2,0.6,0.7,0.7
			c-1.3,1.3-1.4,1.6-1.4,2c0,0.7,1.4,1.4,2.8,1.4c2.1,0,3.9-1.3,3.9-2.8c0-1-1-1.5-2.3-1.5h-1.6c-0.9,0-1.2-0.1-1.2-0.4
			c0-0.2,0.2-0.5,0.6-0.9c0.4,0.1,0.6,0.1,1,0.1c1.5,0,2.6-1,2.6-2.4c0-0.5-0.1-0.8-0.4-1.3h1.1c0.2,0,0.3,0,0.3-0.2v-0.3
			c0-0.2,0-0.2-0.3-0.2H119.1z M118.5,44.8c1.5,0,2,0.2,2,0.8c0,0.9-1.1,1.5-2.6,1.5c-1.3,0-2.5-0.3-2.5-1.1c0-0.4,0.2-0.8,0.7-1.3
			C116.3,44.8,117.1,44.8,118.5,44.8z M116.1,39.6c0-0.8,0.5-1.4,1.1-1.4c1.1,0,1.5,1.5,1.5,2.3c0,1-0.4,1.7-1.1,1.7
			C116.5,42.2,116.1,40.5,116.1,39.6z M122.8,40v3.2c0,0.9-0.2,1.4-1.1,1.3v0.3h3.7v-0.3c-1.1,0-1.3-0.2-1.3-1.4v-3.4
			c0.3-0.6,0.7-1,1.1-1c0.4,0,0.5,0.5,1,0.5c0.3,0,0.7-0.3,0.7-0.6c0-0.4-0.4-0.9-0.9-0.9c-0.7,0-1.4,0.6-1.9,1.5v-1.5h-0.3
			l-2.1,0.9l0.1,0.3c0.1,0,0.1-0.1,0.2-0.1s0.1,0,0.2,0C122.7,38.8,122.8,39,122.8,40z M128.5,39.7v3.5c0,1.1-0.3,1.4-1.1,1.4v0.3
			h3.4v-0.3c-0.8,0-1-0.3-1-1.4v-5.4h-0.3l-2.1,0.8l0.1,0.3c0.1,0,0.1-0.1,0.1-0.1s0.1,0,0.2,0C128.3,38.7,128.5,39.1,128.5,39.7z
			 M128.3,34.8c0,0.4,0.3,0.8,0.8,0.8c0.4,0,0.8-0.3,0.8-0.8c0-0.4-0.3-0.8-0.8-0.8C128.6,34.1,128.3,34.4,128.3,34.8z M137.2,42.1
			c-0.3,1.1-1.1,1.7-2.1,1.7c-1.5,0-2.4-1.2-2.4-3.1c0-1.5,0.8-2.6,2-2.6c0.4,0,0.6,0.1,0.8,0.3c0.4,0.4,0.2,1,0.5,1.2
			c0.1,0.1,0.4,0.2,0.6,0.2c0.4,0,0.7-0.2,0.7-0.6c0-0.9-1.1-1.6-2.4-1.6c-2,0-3.4,1.6-3.4,3.7c0,2.1,1.3,3.6,3.1,3.6
			c1.3,0,2.5-1.1,2.9-2.8H137.2z M145.2,41.1c0-1.8-1.5-3.4-3.3-3.4c-1.9,0-3.6,1.8-3.6,3.8c0,1.9,1.5,3.5,3.3,3.5
			C143.5,45,145.2,43.2,145.2,41.1z M143.9,41.8c0,1.7-0.8,2.8-1.9,2.8c-1.5,0-2.3-1.9-2.3-3.6s0.7-2.7,1.9-2.7
			C142.9,38.3,143.9,39.8,143.9,41.8z M147.3,36.2v6.9c0,1.1-0.3,1.4-1.1,1.4v0.3h3.4v-0.3c-0.8,0-1-0.3-1-1.4V34h-0.3l-2.1,0.9
			l0.1,0.3c0.1,0,0.1-0.1,0.2-0.1s0.1,0,0.2,0C147.1,35.2,147.3,35.5,147.3,36.2z M155.8,42.3c-0.4,1-1,1.6-2,1.6
			c-1.5,0-2.6-1.7-2.5-3.3h4.7c0-1.7-1.1-2.8-2.6-2.8c-1.9,0-3.1,1.5-3.1,3.7c0,2.4,1.4,3.6,2.9,3.6c1.4,0,2.5-1,2.8-2.6L155.8,42.3
			z M151.4,40.1c0.1-1.1,0.8-1.8,1.6-1.8s1.4,0.7,1.5,1.8H151.4z M166.1,42.3c-0.4,1-1,1.6-2,1.6c-1.5,0-2.6-1.7-2.5-3.3h4.7
			c0-1.7-1.1-2.8-2.6-2.8c-1.9,0-3.1,1.5-3.1,3.7c0,2.4,1.4,3.6,2.9,3.6c1.4,0,2.5-1,2.8-2.6L166.1,42.3z M161.7,40.1
			c0.1-1.1,0.8-1.8,1.6-1.8s1.4,0.7,1.5,1.8H161.7z M168.3,38.4v4.8c0,1.1,0.5,1.8,1.4,1.8c0.8,0,1.3-0.4,1.9-1.4h-0.3
			c-0.3,0.4-0.6,0.6-0.9,0.6c-0.5,0-0.9-0.4-0.9-1v-4.8h1.6v-0.5h-1.6v-2.2h-0.2c-0.3,1.1-1,1.9-2,2.4v0.3H168.3z M177,40v3.2
			c0,0.9-0.2,1.4-1.1,1.3v0.3h3.7v-0.3c-1.1,0-1.3-0.2-1.3-1.4v-3.4c0.3-0.6,0.7-1,1.1-1c0.4,0,0.5,0.5,1,0.5c0.3,0,0.7-0.3,0.7-0.6
			c0-0.4-0.4-0.9-0.9-0.9c-0.7,0-1.4,0.6-1.9,1.5v-1.5H178l-2.1,0.9l0.1,0.3c0.1,0,0.1-0.1,0.2-0.1c0.1,0,0.1,0,0.2,0
			C176.9,38.8,177,39,177,40z M182.8,39.2v3.9c0,1.1,0.7,2,1.8,2c0.7,0,1.5-0.5,2.3-1.5V45h0.3l2.1-0.8v-0.3
			c-0.2,0.1-0.3,0.1-0.5,0.1c-0.5,0-0.7-0.4-0.7-0.9v-5.3h-2.4v0.3c0.9,0,1.2,0.3,1.2,0.9v4.1c-0.6,0.6-1.2,0.9-1.8,0.9
			c-0.4,0-0.6-0.1-0.8-0.4c-0.2-0.3-0.3-0.5-0.3-0.9v-4.9h-2.5v0.3C182.5,38.1,182.8,38.4,182.8,39.2z M191,40v3.2
			c0,0.9-0.2,1.4-1.1,1.3v0.3h3.7v-0.3c-1.1,0-1.3-0.2-1.3-1.4v-3.4c0.3-0.6,0.7-1,1.1-1c0.4,0,0.5,0.5,1,0.5c0.3,0,0.7-0.3,0.7-0.6
			c0-0.4-0.4-0.9-0.9-0.9c-0.7,0-1.4,0.6-1.9,1.5v-1.5H192l-2.1,0.9l0.1,0.3c0.1,0,0.1-0.1,0.2-0.1c0.1,0,0.1,0,0.2,0
			C190.9,38.8,191,39,191,40z M202.4,43.5c-0.4,0.4-0.7,0.6-1,0.6c-0.3,0-0.4-0.2-0.4-0.7v-3.9c0-1.3-0.7-1.8-2.2-1.8
			c-1.6,0-2.7,0.7-2.7,1.7c0,0.4,0.3,0.6,0.6,0.6s0.6-0.3,0.6-0.6c0-0.1,0-0.3,0-0.4c0-0.6,0.3-1.1,1.2-1.1c1,0,1.3,0.4,1.3,1.6v0.6
			c-0.7,0.2-1.4,0.5-2,0.8c-0.8,0.4-1.3,0.6-1.6,1c-0.3,0.4-0.4,0.7-0.4,1.2c0,0.9,0.7,1.7,1.5,1.7s1.5-0.4,2.5-1.3
			c-0.1,0.8,0.4,1.3,1,1.3c0.5,0,0.9-0.3,1.7-1.1v-0.2H202.4z M199.7,43.4c-0.6,0.5-1.1,0.7-1.6,0.7c-0.6,0-1.1-0.5-1.1-1.2
			c0-0.9,0.6-1.4,2.7-2.2V43.4z M204.1,36.2v6.9c0,1.1-0.3,1.4-1.1,1.4v0.3h3.4v-0.3c-0.8,0-1-0.3-1-1.4V34h-0.3l-2.1,1l0.1,0.3
			c0.1,0,0.1-0.1,0.2-0.1c0.1,0,0.1,0,0.2,0C203.9,35.2,204.1,35.5,204.1,36.2z M210.8,37.6h-0.4l1.8,3.5l-1.8,3.5h0.4l2.9-3.5
			L210.8,37.6z M207.6,37.6h-0.4l1.8,3.5l-1.8,3.5h0.4l2.8-3.5L207.6,37.6z"/>
	</g>
	<g transform="translate(5 193)">
		<path d="M76.8,4.1l-4.4,9.4l-4.4-9.4h-3.8v0.3c1.4,0.1,1.8,0.8,1.8,1.8v8.3c0,1-0.3,1.6-1.8,1.6v0.3h4.4V16
			c-1.4,0-1.7-0.5-1.7-1.6V6.1l4.7,10.3h0.3l4.7-10.3v8.4c0,1-0.3,1.6-1.8,1.6v0.3h5.5v-0.3c-1.6,0-1.8-0.7-1.8-1.5V5.9
			c0-1.1,0.4-1.6,1.8-1.6V4.1H76.8z M82,4.4c1.5,0,1.9,0.5,1.9,1.6v8.6c0,1.2-0.3,1.6-1.9,1.6v0.3h5.6v-0.3c-1.4,0-1.9-0.3-1.9-1.6
			V5.9c0-1.3,0.6-1.6,1.9-1.6V4.1H82V4.4z M102.7,4.1h-4.5v0.3h0.5c1,0,1.3,0.4,1.3,1.4v7.3L92.1,4h-3.6v0.3c1.2,0,1.9,0.4,2.5,1.4
			v8.7c0,1.1-0.5,1.6-1.9,1.5v0.3h4.4v-0.3c-1.3,0-1.8-0.5-1.8-1.8V6.6l8.8,9.9h0.3V6.1c0-1.6,0.2-1.8,1.5-1.8h0.5L102.7,4.1
			L102.7,4.1z M103.5,4.4c1.5,0,1.9,0.5,1.9,1.6v8.6c0,1.2-0.3,1.6-1.9,1.6v0.3h5.6v-0.3c-1.4,0-1.9-0.3-1.9-1.6V5.9
			c0-1.3,0.6-1.6,1.9-1.6V4.1h-5.6V4.4z M118.2,3.9h-0.3c-0.2,0.5-0.4,0.7-0.7,0.7s-0.7-0.2-1.1-0.3c-0.4-0.2-1-0.3-1.7-0.3
			c-2,0-3.5,1.4-3.5,3.2c0,0.8,0.3,1.6,0.9,2.3c0.9,0.9,3.5,2.1,4.6,3.3c0.5,0.5,0.7,1,0.7,1.6c0,1.1-1,2-2.4,2
			c-2,0-3.2-1.5-3.6-3.5h-0.3v4.2h0.3c0.2-0.5,0.4-0.7,0.7-0.7c0.6,0,1.6,0.7,3.2,0.7c2.1,0,3.8-1.5,3.8-3.4c0-0.8-0.3-1.6-1.1-2.4
			c-1.2-1.2-4.1-2.5-4.8-3.3c-0.4-0.4-0.6-0.7-0.6-1.3c0-1,1-1.8,2.2-1.8c1.6,0,3.1,1.5,3.3,3.4h0.3L118.2,3.9L118.2,3.9z
			 M124.7,4.8v9.6c0,1-0.3,1.6-1.8,1.6v0.3h5.5V16c-1.2,0-1.8-0.3-1.8-1.4V4.8h2c1.4,0,2.1,0.8,2.2,2h0.3L131,4.1h-10.9v2.9h0.3
			c0.1-1.3,0.9-2,2-2L124.7,4.8L124.7,4.8z M136.2,0l2.6,3.1h0.3L138,0H136.2z M142.1,4.1h-9.8v0.3c1.3,0,1.8,0.4,1.8,1.4v8.7
			c0,1.1-0.3,1.6-1.8,1.6v0.3h9.9l1-3.1h-0.4c-0.7,1.8-1.8,2.4-3,2.4h-3.1c-0.5,0-0.8-0.3-0.8-1v-4.4h3.1c1.3,0,1.7,0.5,1.7,1.8h0.3
			V7.8h-0.3c0,1.2-0.4,1.8-1.6,1.8H136V4.8h3.9c1.1,0,1.8,0.5,2.1,2h0.3L142.1,4.1z M151.1,10.5c2.1-0.5,3.1-1.7,3.1-3.2
			c0-1.8-1.7-3.2-3.8-3.2h-6.2v0.3c1.3,0,1.7,0.5,1.7,1.4v8.8c0,0.9-0.3,1.5-1.7,1.5v0.3h5.3v-0.3c-1.5,0-1.8-0.7-1.8-1.5v-4h1.2
			l4.6,5.7h3.2v-0.3c-1-0.1-1.8-0.6-2.8-1.8L151.1,10.5z M147.8,5c0.6-0.3,0.9-0.3,1.4-0.3c1.6,0,2.8,1.2,2.8,2.7
			c0,1.8-1.4,2.7-3.7,2.7h-0.5V5z M167.8,4.1H158v0.3c1.3,0,1.8,0.4,1.8,1.4v8.7c0,1.1-0.3,1.6-1.8,1.6v0.3h9.9l1-3.1h-0.4
			c-0.7,1.8-1.8,2.4-3,2.4h-3.1c-0.5,0-0.8-0.3-0.8-1v-4.4h3.1c1.3,0,1.7,0.5,1.7,1.8h0.3V7.8h-0.3c0,1.2-0.4,1.8-1.6,1.8h-3.2V4.8
			h3.9c1.1,0,1.8,0.5,2.1,2h0.3L167.8,4.1z M24.4,27.2c1.3,0,1.8,0.4,1.8,1.5v8.6c0,1-0.3,1.6-1.8,1.6v0.3h6.2
			c4.2,0,7.2-2.6,7.2-6.1c0-2.8-2-6.1-6.6-6.1h-6.8V27.2z M28.2,27.9c0.6-0.2,1.3-0.3,2-0.3c3.2,0,5.4,2.3,5.4,5.5s-2.2,5.4-5.5,5.4
			c-0.7,0-1.3-0.1-2-0.3L28.2,27.9L28.2,27.9z M48.9,26.9h-9.8v0.3c1.3,0,1.8,0.4,1.8,1.4v8.7c0,1.1-0.3,1.6-1.8,1.6v0.3H49l1-3.1
			h-0.4c-0.7,1.8-1.8,2.4-3,2.4h-3.1c-0.5,0-0.8-0.3-0.8-1V33h3.1c1.3,0,1.7,0.5,1.7,1.8h0.3v-4.4h-0.3c0,1.2-0.4,1.8-1.6,1.8h-3.2
			v-4.7h3.9c1.1,0,1.8,0.5,2.1,2H49L48.9,26.9z M66.5,35.9l-0.3-0.1c-0.9,2.2-1.8,2.6-3.6,2.6h-2.5c-0.5,0-0.7-0.2-0.7-0.7v-8.9
			c0-1.2,0.4-1.6,1.8-1.6v-0.3h-5.5v0.3c1.6,0,1.9,0.6,1.9,1.6v8.6c0,1.1-0.3,1.6-1.9,1.6v0.3h9.8L66.5,35.9z M66.9,31.1
			c1.8-0.6,2.6-1.6,2.6-3c0-1-0.6-1.8-1.5-1.8c-0.7,0-1.2,0.5-1.2,1.1c0,0.5,0.4,1,1,1c0.4,0,0.6-0.3,0.7-0.3c0.2,0,0.3,0.2,0.3,0.4
			c0,0.8-0.5,1.8-2,2.3L66.9,31.1L66.9,31.1z M77.6,26.4h-0.3l-4.7,10.8c-0.6,1.3-0.9,1.6-1.7,1.8v0.3h3.6V39
			c-0.9,0-1.3-0.3-1.3-0.8c0-0.1,0-0.3,0.1-0.5l1.1-2.5h4.9l0.9,2.1c0.2,0.4,0.2,0.6,0.2,0.9c0,0.6-0.5,0.9-1.3,0.9v0.3h5v-0.3
			c-0.9,0-1.2-0.2-1.7-1.3L77.6,26.4z M76.8,29.4l2.2,5h-4.4L76.8,29.4z M96,26.6h-0.3c-0.1,0.5-0.3,0.9-0.6,0.9
			c-0.4,0-1.7-0.9-3.8-0.9c-4,0-7.1,3-7.1,6.8c0,2.8,2.5,6,7.3,6c2.1,0,3.2-0.4,4.8-1.3v-3.4c0-1.4,0.2-1.8,1.6-1.9v-0.3h-5.2v0.3
			c1.4,0,1.7,0.6,1.7,1.5v3.5c-1,0.7-1.8,0.9-2.8,0.9c-2.9,0-5.2-2.3-5.2-5.7c0-3.8,2.4-5.7,4.9-5.7c1.9,0,4.1,1.1,4.5,3.3h0.3
			L96,26.6z M105.7,33.2c2.1-0.5,3.1-1.7,3.1-3.2c0-1.8-1.7-3.2-3.8-3.2h-6.2v0.3c1.3,0,1.7,0.5,1.7,1.4v8.8c0,0.9-0.3,1.5-1.7,1.5
			v0.3h5.3v-0.3c-1.5,0-1.8-0.7-1.8-1.5v-4h1.2l4.6,5.7h3.2v-0.3c-1-0.1-1.8-0.6-2.8-1.8L105.7,33.2z M102.4,27.9
			c0.6-0.3,0.9-0.3,1.4-0.3c1.6,0,2.8,1.2,2.8,2.7c0,1.8-1.4,2.7-3.7,2.7h-0.5V27.9z M112.6,27.2c1.5,0,1.9,0.5,1.9,1.6v8.6
			c0,1.2-0.3,1.6-1.9,1.6v0.3h5.6V39c-1.4,0-1.9-0.3-1.9-1.6v-8.6c0-1.3,0.6-1.6,1.9-1.6v-0.3h-5.6V27.2z M130.8,26.6h-0.3
			c-0.1,0.5-0.4,0.8-0.7,0.8c-0.4,0-1.5-0.8-3.5-0.8c-3.8,0-6.7,3-6.7,6.6c0,3.5,2.9,6.2,6.5,6.2c2.3,0,4.1-1,5.2-3.1l-0.3-0.2
			c-0.7,1.2-2.3,2.5-4.4,2.5c-2.4,0-4.8-1.6-4.8-5.3c0-4.4,2.1-6,4.6-6c2,0,4,1.2,4.3,3.5h0.3L130.8,26.6z M132.4,27.2
			c1.7,0,1.9,0.5,1.9,2.1v5.8c0,2.5,1.5,4.4,5.1,4.4c3.3,0,4.9-2,4.9-4.5v-6.1c0-1.2,0.4-1.6,1.9-1.6v-0.3h-4.5v0.3
			c1.4-0.1,1.9,0.5,1.9,1.5v6c0,2.7-1.3,4-4,4c-2.2,0-3.4-1.3-3.4-3.3v-6.7c0-1.2,0.4-1.6,1.7-1.6v-0.3h-5.5V27.2z M158.1,35.9
			l-0.3-0.1c-0.9,2.2-1.8,2.6-3.6,2.6h-2.5c-0.5,0-0.7-0.2-0.7-0.7v-8.9c0-1.2,0.4-1.6,1.8-1.6v-0.3h-5.5v0.3c1.6,0,1.9,0.6,1.9,1.6
			v8.6c0,1.1-0.3,1.6-1.9,1.6v0.3h9.8L158.1,35.9z M161.7,27.7v9.6c0,1-0.3,1.6-1.8,1.6v0.3h5.5v-0.3c-1.2,0-1.8-0.3-1.8-1.4v-9.8h2
			c1.4,0,2.1,0.8,2.2,2h0.3l-0.1-2.8h-10.9l-0.1,2.8h0.3c0.1-1.3,0.9-2,2-2H161.7z M169.2,27.2c1.7,0,1.9,0.5,1.9,2.1v5.8
			c0,2.5,1.5,4.4,5.1,4.4c3.3,0,4.9-2,4.9-4.5v-6.1c0-1.2,0.4-1.6,1.9-1.6v-0.3h-4.5v0.3c1.4-0.1,1.9,0.5,1.9,1.5v6c0,2.7-1.3,4-4,4
			c-2.2,0-3.4-1.3-3.4-3.3v-6.7c0-1.2,0.4-1.6,1.7-1.6v-0.3h-5.5V27.2z M190.8,33.2c2.1-0.5,3.1-1.7,3.1-3.2c0-1.8-1.7-3.2-3.8-3.2
			h-6.2v0.3c1.3,0,1.7,0.5,1.7,1.4v8.8c0,0.9-0.3,1.5-1.7,1.5v0.3h5.3v-0.3c-1.5,0-1.8-0.7-1.8-1.5v-4h1.2l4.6,5.7h3.2v-0.3
			c-1-0.1-1.8-0.6-2.8-1.8L190.8,33.2z M187.6,27.9c0.6-0.3,0.9-0.3,1.4-0.3c1.6,0,2.8,1.2,2.8,2.7c0,1.8-1.4,2.7-3.7,2.7h-0.5V27.9
			z M207.5,26.9h-9.8v0.3c1.3,0,1.8,0.4,1.8,1.4v8.7c0,1.1-0.3,1.6-1.8,1.6v0.3h9.9l1-3.1h-0.4c-0.7,1.8-1.8,2.4-3,2.4h-3.1
			c-0.5,0-0.8-0.3-0.8-1V33h3.1c1.3,0,1.7,0.5,1.7,1.8h0.3v-4.4h-0.3c0,1.2-0.4,1.8-1.6,1.8h-3.2v-4.7h3.9c1.1,0,1.8,0.5,2.1,2h0.3
			L207.5,26.9z M0,50c1.3,0,1.8,0.4,1.8,1.5v8.6c0,1-0.3,1.6-1.8,1.6V62h6.2c4.2,0,7.2-2.6,7.2-6.1c0-2.8-2-6.1-6.6-6.1H0V50z
			 M3.8,50.6c0.6-0.2,1.3-0.3,2-0.3c3.2,0,5.4,2.3,5.4,5.5c0,3.3-2.2,5.4-5.5,5.4c-0.7,0-1.3-0.1-2-0.3L3.8,50.6L3.8,50.6z
			 M24.5,49.6h-9.7v0.3c1.3,0,1.8,0.4,1.8,1.4V60c0,1.1-0.3,1.6-1.8,1.6v0.3h9.9l1-3.1h-0.4c-0.7,1.8-1.8,2.4-3,2.4h-3.1
			c-0.5,0-0.8-0.3-0.8-1v-4.4h3.1c1.3,0,1.7,0.5,1.7,1.8h0.3v-4.2h-0.3c0,1.2-0.4,1.8-1.6,1.8h-3.2v-4.7h3.9c1.1,0,1.8,0.5,2.1,2
			h0.3L24.5,49.6z M42.2,58.7l-0.3-0.1c-0.9,2.2-1.8,2.6-3.6,2.6h-2.5c-0.5,0-0.7-0.2-0.7-0.7v-8.9c0-1.2,0.4-1.6,1.8-1.6v-0.3h-5.5
			V50c1.6,0,1.9,0.6,1.9,1.6v8.6c0,1.1-0.3,1.6-1.9,1.6v0.3h9.8L42.2,58.7z M42.6,53.9c1.8-0.6,2.6-1.6,2.6-3c0-1-0.6-1.8-1.5-1.8
			c-0.7,0-1.2,0.5-1.2,1.1c0,0.5,0.4,1,1,1c0.4,0,0.6-0.3,0.7-0.3c0.2,0,0.3,0.2,0.3,0.4c0,0.8-0.5,1.8-2,2.3L42.6,53.9L42.6,53.9z
			 M53.2,49.1h-0.3l-4.7,10.8c-0.6,1.3-0.9,1.6-1.7,1.8V62H50v-0.3c-0.9,0-1.3-0.3-1.3-0.8c0-0.1,0-0.3,0.1-0.5l1.1-2.5h4.9l0.9,2.1
			c0.2,0.4,0.2,0.6,0.2,0.9c0,0.6-0.5,0.9-1.3,0.9v0.3h5v-0.3c-0.9,0-1.2-0.2-1.7-1.3L53.2,49.1z M52.4,52.2l2.2,5h-4.4L52.4,52.2z
			 M71.6,49.4h-0.3c-0.1,0.5-0.3,0.9-0.6,0.9c-0.4,0-1.7-0.9-3.8-0.9c-4,0-7.1,3-7.1,6.8c0,2.8,2.5,6,7.3,6c2.1,0,3.2-0.4,4.8-1.3
			v-3.4c0-1.4,0.2-1.8,1.6-1.9v-0.4h-5.2v0.3c1.4,0,1.7,0.6,1.7,1.5v3.5c-1,0.7-1.8,0.9-2.8,0.9c-2.9,0-5.2-2.3-5.2-5.7
			c0-3.8,2.4-5.7,4.9-5.7c1.9,0,4.1,1.1,4.5,3.3h0.3L71.6,49.4z M81.3,56.1c2.1-0.5,3.1-1.7,3.1-3.2c0-1.8-1.7-3.2-3.8-3.2h-6.2V50
			c1.3,0,1.7,0.5,1.7,1.4v8.8c0,0.9-0.3,1.5-1.7,1.5V62h5.3v-0.3c-1.5,0-1.8-0.7-1.8-1.5v-4h1.2l4.6,5.7h3.2v-0.3
			c-1-0.1-1.8-0.6-2.8-1.8L81.3,56.1z M78,50.6c0.6-0.3,0.9-0.3,1.4-0.3c1.6,0,2.8,1.2,2.8,2.7c0,1.8-1.4,2.7-3.7,2.7H78V50.6z
			 M86.8,55.9c0,3.6,2.8,6.4,6.2,6.4c3.5,0,6.2-2.9,6.2-6.4s-2.8-6.4-6.2-6.4C89.6,49.4,86.8,52.3,86.8,55.9z M89.1,55.9
			c0-3.5,1.6-5.7,4-5.7c2.5,0,4.1,2.3,4.1,5.7s-1.6,5.7-4.1,5.7C90.7,61.6,89.1,59.3,89.1,55.9z M106.1,49.1h-0.3l-4.7,10.8
			c-0.6,1.3-0.9,1.6-1.7,1.8V62h3.6v-0.3c-0.9,0-1.3-0.3-1.3-0.8c0-0.1,0-0.3,0.1-0.5l1.1-2.5h4.9l0.9,2.1c0.2,0.4,0.2,0.6,0.2,0.9
			c0,0.6-0.5,0.9-1.3,0.9v0.3h5v-0.3c-0.9,0-1.2-0.2-1.7-1.3L106.1,49.1z M105.3,52.2l2.2,5h-4.4L105.3,52.2z M124.5,58.7l-0.3-0.1
			c-0.9,2.2-1.8,2.6-3.6,2.6h-2.5c-0.5,0-0.7-0.2-0.7-0.7v-8.9c0-1.2,0.4-1.6,1.8-1.6v-0.3h-5.5V50c1.6,0,1.9,0.6,1.9,1.6v8.6
			c0,1.1-0.3,1.6-1.9,1.6v0.3h9.8L124.5,58.7z M125.5,50c1.5,0,1.9,0.5,1.9,1.6v8.6c0,1.2-0.3,1.6-1.9,1.6v0.3h5.6v-0.3
			c-1.4,0-1.9-0.3-1.9-1.6v-8.6c0-1.3,0.6-1.6,1.9-1.6v-0.3h-5.6V50z M145,49.6l-4.4,9.4l-4.4-9.4h-3.8v0.3c1.4,0.1,1.8,0.8,1.8,1.8
			V60c0,1-0.3,1.6-1.8,1.6v0.3h4.4v-0.3c-1.4,0-1.7-0.5-1.7-1.6v-8.4l4.7,10.3h0.3l4.7-10.3V60c0,1-0.3,1.6-1.8,1.6v0.3h5.5v-0.3
			c-1.6,0-1.8-0.7-1.8-1.5v-8.6c0-1.1,0.4-1.6,1.8-1.6v-0.3H145z M159.9,49.6h-9.8v0.3c1.3,0,1.8,0.4,1.8,1.4V60
			c0,1.1-0.3,1.6-1.8,1.6v0.3h9.9l1-3.1h-0.4c-0.7,1.8-1.8,2.4-3,2.4h-3.1c-0.5,0-0.8-0.3-0.8-1v-4.4h3.1c1.3,0,1.7,0.5,1.7,1.8h0.3
			v-4.2h-0.3c0,1.2-0.4,1.8-1.6,1.8h-3.2v-4.7h3.9c1.1,0,1.8,0.5,2.1,2h0.3L159.9,49.6z M175.9,49.6h-4.5v0.3h0.5
			c1,0,1.3,0.4,1.3,1.4v7.3l-7.9-9.1h-3.6v0.3c1.2,0,1.9,0.4,2.5,1.4v8.7c0,1.1-0.5,1.6-1.9,1.5v0.3h4.4v-0.3
			c-1.3,0-1.8-0.5-1.8-1.8v-7.7l8.8,9.9h0.3V51.7c0-1.6,0.2-1.8,1.5-1.8h0.5L175.9,49.6L175.9,49.6z M181.1,50.4V60
			c0,1-0.3,1.6-1.8,1.6v0.3h5.5v-0.3c-1.2,0-1.8-0.3-1.8-1.4v-9.8h2c1.4,0,2.1,0.8,2.2,2h0.3l-0.1-2.8h-10.9l-0.1,2.8h0.3
			c0.1-1.3,0.9-2,2-2H181.1z M194,49.1h-0.3L189,59.9c-0.6,1.3-0.9,1.6-1.7,1.8V62h3.6v-0.3c-0.9,0-1.3-0.3-1.3-0.8
			c0-0.1,0-0.3,0.1-0.5l1.1-2.5h4.9l0.9,2.1c0.2,0.4,0.2,0.6,0.2,0.9c0,0.6-0.5,0.9-1.3,0.9v0.3h5v-0.3c-0.9,0-1.2-0.2-1.7-1.3
			L194,49.1z M193.2,52.2l2.2,5H191L193.2,52.2z M201.5,50c1.5,0,1.9,0.5,1.9,1.6v8.6c0,1.2-0.3,1.6-1.9,1.6v0.3h5.6v-0.3
			c-1.4,0-1.9-0.3-1.9-1.6v-8.6c0-1.3,0.6-1.6,1.9-1.6v-0.3h-5.6V50z M215.3,56.1c2.1-0.5,3.1-1.7,3.1-3.2c0-1.8-1.7-3.2-3.8-3.2
			h-6.2V50c1.3,0,1.7,0.5,1.7,1.4v8.8c0,0.9-0.3,1.5-1.7,1.5V62h5.3v-0.3c-1.5,0-1.8-0.7-1.8-1.5v-4h1.2l4.6,5.7h3.2v-0.3
			c-1-0.1-1.8-0.6-2.8-1.8L215.3,56.1z M212,50.6c0.6-0.3,0.9-0.3,1.4-0.3c1.6,0,2.8,1.2,2.8,2.7c0,1.8-1.4,2.7-3.7,2.7H212V50.6z
			 M232,49.6h-9.8v0.3c1.3,0,1.8,0.4,1.8,1.4V60c0,1.1-0.3,1.6-1.8,1.6v0.3h9.9l1-3.1h-0.4c-0.7,1.8-1.8,2.4-3,2.4h-3.1
			c-0.5,0-0.8-0.3-0.8-1v-4.4h3.1c1.3,0,1.7,0.5,1.7,1.8h0.3v-4.2h-0.3c0,1.2-0.4,1.8-1.6,1.8h-3.2v-4.7h3.9c1.1,0,1.8,0.5,2.1,2
			h0.3L232,49.6z M50.2,75.2h-9.7v0.3c1.3,0,1.8,0.4,1.8,1.4v8.7c0,1.1-0.3,1.6-1.8,1.6v0.3h9.9l1-3.1H51c-0.7,1.8-1.8,2.4-3,2.4H45
			c-0.5,0-0.8-0.3-0.8-1v-4.4h3.1c1.3,0,1.7,0.5,1.7,1.8h0.3v-4.4h-0.3c0,1.2-0.4,1.8-1.6,1.8h-3.2v-4.7h3.9c1.1,0,1.8,0.5,2.1,2
			h0.3L50.2,75.2z M56.9,76v9.6c0,1-0.3,1.6-1.8,1.6v0.3h5.5v-0.3c-1.2,0-1.8-0.3-1.8-1.4V76h2c1.4,0,2.1,0.8,2.2,2h0.3l-0.1-2.8
			H52.3v2.9h0.3c0.1-1.3,0.9-2,2-2L56.9,76L56.9,76z M68.8,75.6c1.3,0,1.8,0.4,1.8,1.5v8.6c0,1-0.3,1.6-1.8,1.6v0.3H75
			c4.2,0,7.2-2.6,7.2-6.1c0-2.8-2-6.1-6.6-6.1h-6.8V75.6z M72.6,76.2c0.6-0.2,1.3-0.3,2-0.3c3.2,0,5.4,2.3,5.4,5.5
			c0,3.3-2.2,5.4-5.5,5.4c-0.7,0-1.3-0.1-2-0.3L72.6,76.2L72.6,76.2z M93.3,75.2h-9.8v0.3c1.3,0,1.8,0.4,1.8,1.4v8.7
			c0,1.1-0.3,1.6-1.8,1.6v0.3h9.9l1-3.1H94c-0.7,1.8-1.8,2.4-3,2.4H88c-0.5,0-0.8-0.3-0.8-1v-4.4h3.1c1.3,0,1.7,0.5,1.7,1.8h0.3
			v-4.4H92c0,1.2-0.4,1.8-1.6,1.8h-3.2v-4.7h3.9c1.1,0,1.8,0.5,2.1,2h0.3L93.3,75.2z M110.9,84.3l-0.3-0.1c-0.9,2.2-1.8,2.6-3.6,2.6
			h-2.5c-0.5,0-0.7-0.2-0.7-0.7v-8.9c0-1.2,0.4-1.6,1.8-1.6v-0.3h-5.5v0.3c1.6,0,1.9,0.6,1.9,1.6v8.6c0,1.1-0.3,1.6-1.9,1.6v0.3h9.8
			L110.9,84.3z M118.3,74.8H118l-4.7,10.8c-0.6,1.3-0.9,1.6-1.7,1.8v0.3h3.6v-0.3c-0.9,0-1.3-0.3-1.3-0.8c0-0.1,0-0.3,0.1-0.5
			l1.1-2.5h4.9l0.9,2.1c0.2,0.4,0.2,0.6,0.2,0.9c0,0.6-0.5,0.9-1.3,0.9v0.3h5v-0.3c-0.9,0-1.2-0.2-1.7-1.3L118.3,74.8z M117.5,77.8
			l2.2,5h-4.4L117.5,77.8z M140.8,75.2h-10.5v0.3c1.2,0,1.7,0.4,1.7,1.4v8.7c0,1-0.4,1.6-1.7,1.6v0.3h5.4v-0.3
			c-1.3,0-1.8-0.4-1.8-1.5v-4.3h3.2c1.2,0,1.7,0.5,1.6,1.8h0.3v-4.2h-0.3c0.1,1.4-0.5,1.8-1.8,1.8h-3V76h3.9c1.8,0,2.6,0.6,2.8,2.1
			h0.3L140.8,75.2z M142.2,81.5c0,3.6,2.8,6.4,6.2,6.4s6.2-2.9,6.2-6.4c0-3.6-2.8-6.4-6.2-6.4S142.2,77.9,142.2,81.5z M144.5,81.5
			c0-3.5,1.6-5.7,4-5.7c2.5,0,4.1,2.3,4.1,5.7c0,3.5-1.6,5.7-4.1,5.7C146,87.2,144.5,84.9,144.5,81.5z M162.8,81.7
			c2.1-0.5,3.1-1.7,3.1-3.2c0-1.8-1.7-3.2-3.8-3.2h-6.2v0.3c1.3,0,1.7,0.5,1.7,1.4v8.8c0,0.9-0.3,1.5-1.7,1.5v0.3h5.3v-0.3
			c-1.5,0-1.8-0.7-1.8-1.5v-4h1.2l4.6,5.7h3.2v-0.3c-1-0.1-1.8-0.6-2.8-1.8L162.8,81.7z M159.6,76.2c0.6-0.3,0.9-0.3,1.4-0.3
			c1.6,0,2.8,1.2,2.8,2.7c0,1.8-1.4,2.7-3.7,2.7h-0.5V76.2z M174.3,71.2l-1.7,2.9h0.3l2-1.9l2.4,1.9h0.3l-1.7-2.9H174.3z
			 M179.6,75.2h-9.8v0.3c1.3,0,1.8,0.4,1.8,1.4v8.7c0,1.1-0.3,1.6-1.8,1.6v0.3h9.9l1-3.1h-0.4c-0.7,1.8-1.8,2.4-3,2.4h-3.1
			c-0.5,0-0.8-0.3-0.8-1v-4.4h3.1c1.3,0,1.7,0.5,1.7,1.8h0.3v-4.4h-0.3c0,1.2-0.4,1.8-1.6,1.8h-3.2v-4.7h3.9c1.1,0,1.8,0.5,2.1,2
			h0.3L179.6,75.2z M186.1,76v9.6c0,1-0.3,1.6-1.8,1.6v0.3h5.5v-0.3c-1.2,0-1.8-0.3-1.8-1.4V76h2c1.4,0,2.1,0.8,2.2,2h0.3l-0.1-2.8
			h-10.9l-0.1,2.8h0.3c0.1-1.3,0.9-2,2-2H186.1z"/>
	</g>
	<g>
		<rect x="0.5" y="0.5" class="st6" width="239" height="316"/>
		<path class="st6" d="M1.3,168.7h238.7"/>
	</g>
</g>
</svg>
