<?xml version="1.0" encoding="utf-8"?>
<!-- Generator: Adobe Illustrator 20.1.0, SVG Export Plug-In . SVG Version: 6.00 Build 0)  -->
<svg version="1.1" id="Calque_1" xmlns="http://www.w3.org/2000/svg" xmlns:xlink="http://www.w3.org/1999/xlink" x="0px" y="0px"
	 viewBox="0 0 720 615.8" style="enable-background:new 0 0 720 615.8;" xml:space="preserve">
<style type="text/css">
	.st0{fill:#5DB8E5;}
</style>
<g>
	<path d="M255.8,615.8c-4.4-1.3-8.9-2.3-13.1-3.9c-22.1-8.6-34.1-29.7-31.1-54c2.6-20.8,21.3-38.9,43.3-41.7
		c27.6-3.6,53.2,14.7,57.3,40.9c4.4,28.2-13.3,52.8-41.5,58c-1,0.2-1.9,0.5-2.8,0.8C263.8,615.8,259.8,615.8,255.8,615.8z
		 M262,537.6c-6.2-0.1-11.6,2-16.2,6.4c-9.9,9.6-11.9,26.6-4.5,38.3c9.6,15.2,30.9,15.4,40.8,0.3c7.1-10.7,6.4-26.2-1.7-36.1
		C275.7,540.8,269.6,537.6,262,537.6z"/>
	<path d="M601.5,615.8c-8.1-1.8-15.9-4.2-22.4-9.6c-0.7-0.6-1.3-1.2-2-1.6c-2.7-1.7-3.1-3.5-1.2-6.4c3.4-4.9,6.3-10.2,9.7-15.6
		c1.9,1.8,3.6,3.5,5.4,5.2c5.2,4.6,10.9,7.9,18.1,7.7c5.5-0.2,9.8-3.4,10.8-8c1.1-5.2-1-9.1-6.7-11.5c-3.7-1.5-7.6-2.5-11.4-3.7
		c-1.2-0.4-2.4-0.7-3.6-1.1c-13.4-4.5-19.3-11.6-19.6-23.4c-0.4-13.7,6.2-24.9,18.3-29.5c15-5.7,29.1-2.8,42.9,5.6
		c-2.7,6.2-5.3,12.2-8.1,18.6c-2.1-1.3-3.9-2.6-5.8-3.7c-4.9-2.8-10-4.5-15.8-3.3c-4.1,0.8-7,3.6-7.3,7c-0.3,3.8,1.5,6.6,5.6,8.3
		c2.2,0.9,4.5,1.5,6.7,2.2c2.4,0.7,4.8,1.3,7.2,2.1c15.5,4.8,21.7,12.4,21.9,26.9c0.2,14.9-8.2,27.1-21.9,31.5c-2.9,1-6,1.6-9,2.4
		C609.5,615.8,605.5,615.8,601.5,615.8z"/>
	<path d="M0,517.5c22.7,0,45.4,0,68.3,0c0,7.8,0,14.9,0,22.6c-6.9,0-13.7,0-20.9,0c0,24.5,0,48.5,0,72.8c-8.7,0-17,0-25.9,0
		c0-24.1,0-48.3,0-72.9c-7.5,0-14.5,0-21.4,0C0,532.5,0,525,0,517.5z"/>
	<path d="M720,540c-7,0-13.9,0-21.4,0c0,12.6,0,24.7,0,36.8c0,12,0,23.9,0,36.2c-8.7,0-17,0-25.7,0c0-24.1,0-48.1,0-72.6
		c-7.2,0-14,0-21.1,0c0-7.7,0-15,0-22.8c22.8,0,45.5,0,68.2,0C720,525,720,532.5,720,540z"/>
	<path d="M369.8,0c5.5,1.5,11.2,2.5,16.5,4.6c24.5,9.8,39.4,34.7,36.3,61.1c-3.5,30.5-28.1,50-53.5,52.2
		c-30.9,2.6-60.1-19-63.7-52.4C301.9,33.3,324,5.6,355.3,0.8c1.1-0.2,2.2-0.5,3.2-0.8C362.2,0,366,0,369.8,0z M364.2,3.9
		c-30.4-0.1-55.5,24.7-55.6,55.1s24.8,55.3,55.3,55.5c30.3,0.1,55-24.5,55.3-55C419.5,29.1,394.7,4,364.2,3.9z"/>
	<path d="M502.5,0c6.4,1.9,13.2,3.1,19.3,5.8c24.2,10.5,38,37.6,33.2,64.3c-4.7,25.9-27,45.7-53.1,47.9
		c-31.4,2.6-59.7-19.9-63.5-52.2C434.7,34.7,456.2,6.5,487.8,1c1.2-0.2,2.4-0.6,3.6-0.9C495,0,498.8,0,502.5,0z M552.1,58.8
		C552,28.5,527.4,4,496.9,3.9c-30.4-0.1-55.4,25.1-55.2,55.4c0.2,30.7,24.9,55.3,55.4,55.2C527.7,114.4,552.2,89.6,552.1,58.8z"/>
	<path d="M237.8,0c4.7,1.2,9.5,2.1,14,3.7c25.8,9.2,41.5,34.1,38.9,61.3c-2.6,26.9-23.1,48.4-49.8,52.5c-30.8,4.7-59.6-15.2-66.6-46
		c-6.6-29.1,11.1-59.6,39.8-68.6c4-1.3,8.2-2,12.3-2.9C230.2,0,234,0,237.8,0z M176.9,59.2c0.1,30.7,24.7,55.3,55.3,55.2
		c30.4-0.1,55.1-24.9,55-55.2c-0.1-30.7-24.7-55.5-55.1-55.4C201.4,3.9,176.8,28.7,176.9,59.2z"/>
	<path d="M157,613.2c-10,0-19.1,0.1-28.1-0.1c-1,0-2.3-1.7-3-2.9c-5.9-10-11.8-20-17.6-30.1c-0.5-0.9-1.2-1.8-2.4-2.6
		c0,11.7,0,23.5,0,35.5c-8.3,0-16.1,0-24.3,0c0-31.7,0-63.3,0-94.9c0.3-0.2,0.5-0.4,0.8-0.4c14.6,0.2,29.2,0,43.8,0.8
		c10.7,0.6,18.9,5.8,23.6,15.9c6.4,14.1,1.5,31.4-10.9,37.6c-2.3,1.2-4.8,1.9-7.6,3C139.7,587.6,148.1,599.9,157,613.2z
		 M105.9,562.4c8.9,1.6,16.6-0.6,19.4-5.3c2.3-4,1.9-11.4-0.9-15c-3-4-12.1-5.8-18.5-3.8C105.9,546.2,105.9,554.2,105.9,562.4z"/>
	<path d="M572.2,613.2c-8.4,0-16.1,0.1-23.9-0.1c-0.9,0-2.3-1.4-2.6-2.4c-1.3-3.9-2.4-7.9-3.4-11.9c-0.5-2-1.4-2.9-3.6-2.8
		c-10.5,0.1-21,0.1-31.5,0c-2.1,0-3.1,0.7-3.6,2.7c-1,4-2.2,7.9-3.5,11.9c-0.3,1-1.4,2.5-2.1,2.5c-7.9,0.2-15.9,0.1-24.3,0.1
		c2.4-6.9,4.5-13.3,6.7-19.6c8.3-24.1,16.7-48.1,24.9-72.2c1-3.1,2.5-3.9,5.6-3.9c9.3,0.2,18.7,0.1,28.3,0.1
		C550.2,549.3,561.1,580.9,572.2,613.2z M523,534.4c-4.4,14.7-8.5,28.7-12.7,42.8c8.7,0,17,0,25.5,0
		C531.6,562.9,527.4,549,523,534.4z"/>
	<path d="M419.9,233.5c0,2.2,0,3.8,0,5.4c0,69.9,0,139.7,0,209.6c0,13-8,21-21,21c-25.1,0-50.2,0-75.4,0c-14.1,0-22-7.9-22-22.1
		c0-69.9,0-139.7,0-209.6c0-1.2,0-2.5,0-4.3c-1.8,0-3.4,0-5,0c-34,0-68,0-102,0c-11.7,0-19.3-7.3-19.4-19c-0.1-21.2-0.1-42.5,0-63.7
		c0-12.1,7.6-19.5,19.8-19.5c44.1,0,88.2,0,132.4,0c66.7,0,133.5,0,200.2,0c11,0,18.2,5.5,20.2,15.2c0.3,1.6,0.4,3.2,0.4,4.8
		c0,20.9,0,41.7,0,62.6c0,12.1-7.6,19.6-19.7,19.6c-34.4,0-68.7,0-103.1,0C423.7,233.5,422.1,233.5,419.9,233.5z M361.6,134.8
		c-55.2,0-110.5,0-165.7,0c-11.2,0-17.1,5.9-17.1,17.1c0,20.1,0,40.2,0,60.4c0,11.9,5.8,17.6,17.8,17.6c34.5,0,69,0,103.5,0
		c5.2,0,5.2,0,5.2,5.4c0,70.7,0,141.5,0,212.2c0,2,0.1,4,0.6,5.9c1.6,6.9,7.5,12.1,14.4,12.1c27.1,0.1,54.2,0.2,81.4-0.2
		c3.3,0,6.9-2.1,9.7-4.2c4.7-3.6,5.1-9.1,5.1-14.6c0-70.2,0-140.5,0-210.7c0-6,0-6,6.2-6c35,0,70,0,105,0c11.1,0,17-5.9,17-16.9
		c0-12.9,0-25.7,0-38.6c0-8.2,0.1-16.5-0.1-24.7c-0.1-6.5-3.3-11.3-9.3-13.7c-2.7-1.1-5.9-1.1-8.8-1.1
		C471.3,134.8,416.5,134.8,361.6,134.8z"/>
	<path d="M353.6,581.3c0,10.9,0,21.1,0,31.6c-8.3,0-16.2,0-24.2,0c0-31.8,0-63.3,0-94.9c0.6-0.2,0.9-0.4,1.2-0.4
		c14.5,0.2,29,0,43.5,0.8c12.9,0.7,22,9,25.1,21.6c2.2,8.8,1.9,17.6-1.9,26c-4.5,9.9-12.8,14.4-23.2,15.1
		C367.5,581.6,360.7,581.3,353.6,581.3z M353.5,549.5c0,2.6,0.1,5.2,0,7.8c-0.2,2.5,0.6,3.7,3.3,3.5c3.1-0.3,6.2-0.3,9.3-0.7
		c6.1-0.8,9.4-4.6,9.4-10.6c0.1-6.1-3-9.7-9.2-10.8c-1.7-0.3-3.5-0.5-5.2-0.5c-7.6-0.2-7.6-0.2-7.6,7.6
		C353.5,547.1,353.5,548.3,353.5,549.5z"/>
	<path d="M471.9,613.1c-19.4,0-38.3,0-57.6,0c0-31.8,0-63.4,0-95.3c8.5,0,16.8,0,25.6,0c0,24.2,0,48.4,0,73c10.9,0,21.3,0,32,0
		C471.9,598.4,471.9,605.6,471.9,613.1z"/>
	<path d="M167.9,517.8c8.6,0,17.1,0,25.7,0c0,31.8,0,63.3,0,95.1c-8.6,0-17,0-25.7,0C167.9,581.3,167.9,549.6,167.9,517.8z"/>
	<path class="st0" d="M364.2,3.9c30.5,0.1,55.3,25.2,55,55.6c-0.3,30.5-25,55.1-55.3,55c-30.5-0.1-55.4-25.1-55.3-55.5
		C308.7,28.6,333.8,3.7,364.2,3.9z"/>
	<path class="st0" d="M552.1,58.8c0.1,30.7-24.4,55.5-55,55.6c-30.6,0.1-55.2-24.4-55.4-55.2c-0.2-30.4,24.8-55.5,55.2-55.4
		C527.4,4,552,28.5,552.1,58.8z"/>
	<path class="st0" d="M176.9,59.2c-0.1-30.5,24.6-55.3,55.2-55.4c30.4-0.1,55,24.7,55.1,55.4c0.1,30.3-24.7,55.1-55,55.2
		C201.6,114.5,177,90,176.9,59.2z"/>
	<path class="st0" d="M361.6,134.8c54.9,0,109.7,0,164.6,0c3,0,6.1,0.1,8.8,1.1c6,2.4,9.2,7.1,9.3,13.7c0.2,8.2,0.1,16.5,0.1,24.7
		c0,12.9,0,25.7,0,38.6c0,11-5.9,16.9-17,16.9c-35,0-70,0-105,0c-6.2,0-6.2,0-6.2,6c0,70.2,0,140.5,0,210.7c0,5.5-0.3,11.1-5.1,14.6
		c-2.8,2.1-6.4,4.1-9.7,4.2c-27.1,0.3-54.2,0.3-81.4,0.2c-6.9,0-12.8-5.2-14.4-12.1c-0.4-1.9-0.6-4-0.6-5.9c0-70.7,0-141.5,0-212.2
		c0-5.3,0-5.4-5.2-5.4c-34.5,0-69,0-103.5,0c-12,0-17.8-5.7-17.8-17.6c0-20.1,0-40.2,0-60.4c0-11.2,5.9-17.1,17.1-17.1
		C251.1,134.8,306.3,134.8,361.6,134.8z"/>
</g>
</svg>
