<?xml version="1.0" encoding="utf-8"?>
<!-- Generator: Adobe Illustrator 20.1.0, SVG Export Plug-In . SVG Version: 6.00 Build 0)  -->
<svg version="1.1" id="Calque_1" xmlns="http://www.w3.org/2000/svg" xmlns:xlink="http://www.w3.org/1999/xlink" x="0px" y="0px"
	 viewBox="0 0 546.6 101.5" style="enable-background:new 0 0 546.6 101.5;" xml:space="preserve">
<style type="text/css">
	.st0{fill:#009EE1;}
</style>
<g>
	<g>
		<path class="st0" d="M521.5,38.2c0.1-0.6,0.2-1.2,0.2-1.8c0-9.2,0-18.4,0-27.6c0-0.4-0.1-0.9,0.1-1.3c0.2-0.3,0.6-0.6,1-0.7
			c0.7-0.1,1.3,0.1,2,0.1c6.4,0,12.9,0,19.3,0c0.9,0,1.7,0,2.6,0c0,24,0,48,0,72c-0.1,0-0.2,0-0.3,0c0-0.1,0-0.2,0-0.2
			c0-0.3,0-0.6,0-0.8c0-23.1,0-46.2,0-69.3c0-1.2-0.5-1.4-1.5-1.4c-7.2,0-14.3,0-21.5,0c-1.6,0-1.6,0-1.6,1.6c0,10,0,19.9,0,29.9
			C521.7,38.5,521.6,38.4,521.5,38.2z"/>
		<path class="st0" d="M303.5,44.9c-0.8,2.2-1.6,4.4-2.3,6.6c-4.9,15.1-9.8,30.3-14.7,45.4c-0.5,1.5-1,3-1.7,4.6
			c-6.2-18.6-12.5-37.3-18.7-55.9c-0.1,0-0.2,0-0.3,0c0,0.4,0,0.9,0,1.3c0,10.1,0,20.2,0,30.4c0,1.7,0,1.7-1.7,1.7
			c-7.1,0-14.2,0-21.4,0c-1.2,0-1.6-0.3-1.6-1.5c0-22.9,0-45.8,0-68.6c0-1.6,0-1.6,1.6-1.6c9.4,0,18.9,0,28.3,0
			c1.1,0,1.6,0.3,1.9,1.4c3.7,11.7,7.5,23.4,11.3,35c0.1,0.2,0.2,0.4,0.4,1c0.9-2.5,1.6-4.7,2.4-7c3.3-9.7,6.5-19.4,9.8-29.1
			c0.3-0.9,0.7-1.3,1.8-1.3c9.5,0,19,0,28.4,0c1.2,0,1.5,0.4,1.5,1.5c0,22.9,0,45.8,0,68.8c0,1.1-0.3,1.5-1.5,1.5
			c-7.4,0-14.8,0-22.2,0c-0.4,0-0.8-0.1-1.3-0.2c0.1-0.5,0.2-0.9,0.2-1.4c0-10.3,0-20.6,0-30.9C303.7,45.9,303.6,45.4,303.5,44.9z"
			/>
		<path class="st0" d="M546.3,78.7c0,0.1,0,0.2,0,0.2c-7.6,0-15.2,0-22.8,0c-1.3,0-2-0.4-2.7-1.5c-6.1-9.8-12.2-19.5-18.3-29.3
			c-0.2-0.4-0.5-0.8-0.8-1.1c-0.1,0-0.2,0.1-0.3,0.1c0,0.5,0,0.9,0,1.4c0,9.6,0,19.2,0,28.8c0,1.6,0,1.7-1.6,1.7c-7,0-14,0-21,0
			c-1.2,0-1.6-0.3-1.6-1.5c0-22.9,0-45.8,0-68.7c0-1.2,0.4-1.5,1.6-1.5c7.3,0,14.6,0.1,22,0c1.3,0,1.9,0.4,2.5,1.5
			c5.8,9.5,11.6,19,17.5,28.5c0.2,0.3,0.4,0.7,0.7,1c0.1,0.2,0.3,0.3,0.4,0.5c0.1-0.6,0.3-1.2,0.3-1.7c0-9.3,0-18.5,0-27.8
			c0-1.6,0.1-1.6,1.6-1.6c6.8,0,13.6,0,20.4,0c2,0,2,0,2,2c0,22.5,0,44.9,0,67.4C546.2,77.5,546.3,78.1,546.3,78.7z"/>
		<path class="st0" d="M179.2,43c0-11.4,0-22.7,0-34.1c0-1.7,0-1.7,1.6-1.7c17,0,34.1,0,51.1,0c1.7,0,1.7,0,1.7,1.7
			c0,4.6,0,9.1,0,13.7c0,1.6,0,1.6-1.6,1.6c-8.5,0-17,0-25.6,0c-1.7,0-1.7,0-1.7,1.7c0,2.2,0,4.4,0,6.6c0,1.6,0,1.6,1.6,1.6
			c8.5,0,17,0,25.4,0c1.8,0,1.8,0,1.8,1.8c0,4.8,0,9.6,0,14.4c0,1.1-0.3,1.4-1.4,1.4c-8.6,0-17.1,0-25.7,0c-1.8,0-1.8,0-1.8,1.8
			c0,2.1,0,4.2,0,6.4c0,1.7,0,1.7,1.8,1.7c8.4,0,16.9,0,25.3,0c1.7,0,1.7,0,1.7,1.7c0,4.7,0,9.4,0,14c0,1.1-0.3,1.5-1.5,1.5
			c-17.2,0-34.3,0-51.5,0c-1.2,0-1.5-0.4-1.5-1.6C179.3,65.9,179.2,54.5,179.2,43z"/>
		<path class="st0" d="M415.5,43.1c0-11.4,0-22.7,0-34.1c0-1.7,0-1.8,1.7-1.8c17,0,34,0,51,0c1.6,0,1.6,0,1.6,1.7c0,4.5,0,9,0,13.6
			c0,1.8,0,1.8-1.8,1.8c-8.5,0-17,0-25.4,0c-1.7,0-1.7,0-1.7,1.7c0,2.1,0,4.2,0,6.4c0,1.9,0,1.9,1.9,1.9c8.4,0,16.8,0,25.2,0
			c1.8,0,1.8,0,1.8,1.8c0,4.8,0,9.6,0,14.4c0,1.2-0.3,1.5-1.5,1.5c-8.6,0-17.1,0-25.7,0c-1.7,0-1.7,0-1.7,1.7c0,2.2,0.1,4.5,0,6.7
			c0,1.2,0.4,1.5,1.5,1.5c8.6,0,17.1,0,25.7,0c1.7,0,1.7,0,1.7,1.6c0,4.7,0,9.4,0,14c0,1.2-0.3,1.6-1.5,1.6c-17.1,0-34.2,0-51.4,0
			c-1.2,0-1.5-0.4-1.5-1.5C415.6,66,415.5,54.5,415.5,43.1z"/>
		<path class="st0" d="M123.8,43c0-11.4,0-22.7,0-34.1c0-1.7,0-1.7,1.7-1.7c6.8,0,13.5,0,20.3,0c1.7,0,1.7,0,1.7,1.7
			c0,17,0,33.9,0,50.9c0,1.9,0,1.9,1.9,1.9c7.1,0,14.2,0,21.4,0c1.2,0,1.6,0.3,1.6,1.5c-0.1,4.8-0.1,9.5,0,14.3
			c0,1.1-0.3,1.4-1.4,1.4c-15.2,0-30.4,0-45.6,0c-1.2,0-1.5-0.4-1.5-1.5C123.8,66,123.8,54.5,123.8,43z"/>
		<path class="st0" d="M410.2,7.3c-1.1,2-2.1,3.7-3,5.5c-5.3,9.5-10.7,19-16,28.4c-0.5,0.8-0.4,1.4,0.1,2.2
			c7.1,11.3,14.2,22.5,21.3,33.8c0.3,0.5,0.6,1,1,1.7c-0.7,0-1.1,0.1-1.5,0.1c-8.8,0-17.7,0-26.5,0c-1,0-1.6-0.3-2.1-1.2
			c-6.5-11.4-13-22.9-19.5-34.3c-0.5-0.9-0.5-1.5,0-2.4c6-10.8,12-21.6,17.9-32.4c0.6-1,1.2-1.5,2.4-1.5c8.1,0.1,16.2,0,24.2,0
			C408.9,7.2,409.4,7.3,410.2,7.3z"/>
		<path class="st0" d="M337.1,43.3c0-11.5,0-23,0-34.4c0-1.6,0-1.6,1.6-1.6c7.6,0,15.1,0,22.7,0c1.1,0,1.5,0.3,1.5,1.5
			c0,23.1,0,46.2,0,69.3c0,1.2-0.3,1.5-1.5,1.5c-7.6,0-15.1,0-22.7,0c-1.6,0-1.6,0-1.6-1.6C337.1,66.4,337.1,54.8,337.1,43.3z"/>
		<path class="st0" d="M0,65.9c2.8-1.3,5.4-2.4,7.9-3.5c6.9-3.2,13.7-6.6,19.8-11.2C33.1,47,37.8,42.2,41,36
			c1.4-2.7,3.1-5.2,4.7-7.8c4-6.6,10-10.7,17.4-12.7c7.2-2,14.6-3.2,22.1-2.9c5.3,0.2,10.7,0.3,15.9,1.9c3.9,1.1,6.7,3.5,7.8,7.6
			c0.6,2.2,0.3,4.2-1.1,6.1c-2.6,3.5-6,6-9.4,8.7c-7.6,5.9-16.2,10-24.8,14.2c-2.2,1-4.3,2.1-6.5,3.1c-0.6,0.3-1.2,0.6-0.9,1.3
			c0.2,0.4,0.8,0.7,1.3,0.7c5.6,0.5,11.3,1,17,1.5c0.9,0.1,1.2,0.4,1.1,1.4c-0.3,1.8-0.5,3.6-0.7,5.5c-0.1,1.1-0.6,1.5-1.7,1.4
			c-4.5-0.5-9.1-0.9-13.6-1.3c-1.6-0.1-3.1-0.2-4.7-0.4c-0.7-0.1-1.2,0.1-1.3,0.9c-0.1,0.8-0.6,0.9-1.3,0.9c-1.7,0-3.4,0-5,0
			c-18.9,0-37.7,0-56.6,0C0.6,65.9,0.4,65.9,0,65.9z M42.4,46.9c0.2,0.1,0.4,0.2,0.6,0.2c5.6,0.6,11.1,1.3,16.7,1.9
			c1,0.1,2.1,0.3,2.9-0.1c13.1-5.5,25.9-11.6,36.7-21.2c0.8-0.7,1.6-1.4,2.3-2.1c1.6-1.9,1-4.1-1.3-4.8c-1.3-0.4-2.7-0.7-4-0.7
			c-6.2-0.1-12.5-0.3-18.7-0.2c-4.4,0-8.7,0.9-12.8,2.5c-4.6,1.8-9,3.8-11.8,8c-3.6,5.3-6.9,10.6-10.4,16
			C42.4,46.4,42.4,46.6,42.4,46.9z M27.6,59.2c0,0.1,0,0.2,0.1,0.2c0.4,0,0.8,0,1.3,0c9.1,0,18.2,0,27.3,0c1.3,0,1.8-0.4,1.9-1.7
			c0-0.2,0-0.4,0.1-0.6c0.3-1.6,0.3-1.7-1.3-1.8c-5.8-0.6-11.7-1-17.5-1.8c-2.6-0.3-4.6,0.1-6.4,1.9c-0.3,0.3-0.7,0.5-1.1,0.8
			C30.5,57.2,29.1,58.2,27.6,59.2z"/>
		<path class="st0" d="M100.6,38.1c2.3,14.9-5.1,36.1-26.4,44.8c-19.7,8-41.1,0.3-51.3-14.5c0.4,0,0.7-0.1,1.1-0.1
			c2,0,4.1-0.1,6.1,0c0.7,0,1.6,0.4,2.1,0.9c7.9,7.4,17.3,10.9,28.1,10.3c16.5-1,30.6-13.5,33.5-29.8c0.4-2.2,0.5-4.4,0.7-6.7
			c0-0.4,0.1-1,0.4-1.2C96.6,40.6,98.5,39.4,100.6,38.1z"/>
		<path class="st0" d="M16.2,54.8c-5-15.3,0.2-38.1,20.8-49.5c18.3-10.1,39-4.3,48.6,5c-2.2,0.1-4.2,0.2-6.3,0.3c-0.1,0-0.2,0-0.4,0
			c-2.5,0.2-4.8-0.3-7.1-1.4c-5.9-2.8-12.3-3.4-18.8-2.5c-9.1,1.2-16.7,5.1-22.7,12C24.8,25,21.7,32.5,21.3,41
			c-0.2,3.4,0,6.7,0.7,10c0.1,0.3-0.1,1-0.4,1.1C19.9,53.1,18.1,53.9,16.2,54.8z"/>
		<path class="st0" d="M303.5,44.9c0.1,0.5,0.2,1,0.2,1.5c0,10.3,0,20.6,0,30.9c0,0.5-0.1,0.9-0.2,1.4c0-3.4,0-6.8,0-10.2
			C303.5,60.7,303.5,52.8,303.5,44.9z"/>
		<path class="st0" d="M546.3,78.7c-0.1-0.6-0.2-1.3-0.2-1.9c0-22.5,0-44.9,0-67.4c0-2,0-2-2-2c-6.8,0-13.6,0-20.4,0
			c-1.5,0-1.6,0.1-1.6,1.6c0,9.3,0,18.5,0,27.8c0,0.6-0.2,1.2-0.3,1.7c0-10,0-19.9,0-29.9c0-1.6,0-1.6,1.6-1.6c7.2,0,14.3,0,21.5,0
			c1,0,1.5,0.2,1.5,1.4c0,23.1,0,46.2,0,69.3C546.4,78.2,546.4,78.5,546.3,78.7z"/>
	</g>
</g>
</svg>
